G04 Layer: TopLayer*
G04 EasyEDA v6.2.41, 2019-09-02T03:45:47+08:00*
G04 cccedabf26fb4476aab39dafb03c201f,018b6882be54474e8367c410bdd36671,10*
G04 Gerber Generator version 0.2*
G04 Scale: 100 percent, Rotated: No, Reflected: No *
G04 Dimensions in millimeters *
G04 leading zeros omitted , absolute positions ,3 integer and 3 decimal *
%FSLAX33Y33*%
%MOMM*%
G90*
G71D02*

%ADD11C,0.210007*%
%ADD12C,0.250012*%
%ADD13C,0.610006*%
%ADD15C,1.524000*%
%ADD16C,1.999996*%
%ADD17C,1.905000*%
%ADD18C,1.879600*%
%ADD20C,1.409700*%
%ADD21C,3.999992*%
%ADD22C,1.799996*%
%ADD23C,1.651000*%
%ADD24C,2.299995*%

%LPD*%
G54D11*
G01X114612Y33147D02*
G01X117899Y36433D01*
G01X117899Y81798D01*
G01X119888Y83784D01*
G01X119888Y88900D01*
G01X66929Y29464D02*
G01X68508Y29464D01*
G01X69024Y29979D01*
G01X69024Y35839D01*
G01X11734Y34417D02*
G01X15590Y38272D01*
G01X15590Y55722D01*
G01X19685Y59817D01*
G01X114681Y30734D02*
G01X114612Y30802D01*
G01X114612Y33147D01*
G01X16847Y11049D02*
G01X15097Y12799D01*
G01X15097Y27726D01*
G01X15534Y28166D01*
G01X15534Y31521D01*
G01X14391Y32664D01*
G01X14391Y35720D01*
G01X17256Y38585D01*
G01X23566Y38585D01*
G01X26083Y41102D01*
G01X26083Y49484D01*
G01X134757Y162857D02*
G01X129915Y158015D01*
G01X129915Y103644D01*
G01X123398Y97127D01*
G01X123398Y94033D01*
G01X121749Y92387D01*
G01X121749Y81259D01*
G01X119202Y78712D01*
G01X119202Y55105D01*
G01X120459Y53848D01*
G01X27500Y71348D02*
G01X26083Y69931D01*
G01X26083Y49484D01*
G01X64389Y32004D02*
G01X65509Y30883D01*
G01X67680Y30883D01*
G01X68326Y30238D01*
G01X86720Y30942D02*
G01X86720Y63088D01*
G01X81960Y67848D01*
G01X90459Y25847D02*
G01X86720Y29585D01*
G01X86720Y30942D01*
G01X20998Y98897D02*
G01X22415Y100312D01*
G01X22415Y114261D01*
G01X20281Y116395D01*
G01X20281Y173979D01*
G01X11313Y182948D01*
G01X27500Y98897D02*
G01X26083Y97480D01*
G01X26083Y86492D01*
G01X25659Y86070D01*
G01X25659Y73190D01*
G01X27500Y71348D01*
G01X47010Y71348D02*
G01X48267Y72605D01*
G01X48267Y90571D01*
G01X47957Y90883D01*
G01X47957Y93421D01*
G01X48267Y93731D01*
G01X48267Y95516D01*
G01X45948Y97835D01*
G01X45948Y97835D02*
G01X41569Y97835D01*
G01X40507Y98897D01*
G01X47010Y98897D02*
G01X45948Y97835D01*
G01X60921Y39847D02*
G01X60921Y41689D01*
G01X60596Y42014D01*
G01X59946Y42014D01*
G01X58069Y40137D01*
G01X58069Y20558D01*
G01X55788Y18277D01*
G01X61849Y32004D02*
G01X61849Y38920D01*
G01X60921Y39847D01*
G01X60921Y39847D02*
G01X60558Y39847D01*
G01X96961Y67848D02*
G01X95577Y69232D01*
G01X95577Y126646D01*
G01X95737Y126806D01*
G01X99087Y37180D02*
G01X99087Y65722D01*
G01X96961Y67848D01*
G01X99087Y37180D02*
G01X107337Y28933D01*
G01X107337Y27106D01*
G01X4810Y172857D02*
G01X2885Y170934D01*
G01X2885Y119966D01*
G01X3624Y119230D01*
G01X5031Y119230D01*
G01X40507Y71348D02*
G01X41686Y70170D01*
G01X45831Y70170D01*
G01X47010Y71348D01*
G01X23350Y54648D02*
G01X22184Y53482D01*
G01X18013Y53482D01*
G01X16847Y54648D01*
G01X112059Y67848D02*
G01X113527Y69316D01*
G01X113527Y94063D01*
G01X110185Y97406D01*
G01X110185Y109148D01*
G01X110799Y109763D01*
G01X111691Y109763D01*
G01X118176Y116248D01*
G01X118176Y121188D01*
G01X120949Y123962D01*
G01X75458Y39847D02*
G01X76730Y38574D01*
G01X76730Y10320D01*
G01X74432Y8018D01*
G01X75458Y39847D02*
G01X76725Y41114D01*
G01X76725Y72087D01*
G01X67063Y81749D01*
G01X105557Y67848D02*
G01X104223Y66514D01*
G01X104223Y62069D01*
G01X107729Y58564D01*
G01X107729Y38712D01*
G01X108833Y37607D01*
G01X60220Y41320D02*
G01X59263Y40365D01*
G01X59263Y32049D01*
G01X59309Y32004D01*
G01X4810Y162867D02*
G01X3497Y161554D01*
G01X3497Y123342D01*
G01X6225Y120614D01*
G01X6225Y120126D01*
G01X67063Y81749D02*
G01X67825Y82511D01*
G01X67825Y97581D01*
G01X66509Y98897D01*
G01X120459Y25847D02*
G01X118320Y27985D01*
G01X118320Y35946D01*
G01X123698Y120777D02*
G01X120713Y117789D01*
G01X120713Y105463D01*
G01X66774Y106827D02*
G01X66062Y106827D01*
G01X57325Y98089D01*
G01X57325Y48877D01*
G01X57856Y48346D01*
G01X57856Y42791D01*
G01X57447Y42379D01*
G01X57447Y33827D01*
G01X57193Y33573D01*
G01X56769Y29464D02*
G01X56769Y30154D01*
G01X55674Y31249D01*
G01X55674Y33149D01*
G01X57023Y34498D01*
G01X57023Y44846D01*
G01X57233Y45057D01*
G01X91135Y104914D02*
G01X88765Y102542D01*
G01X88765Y55432D01*
G01X87988Y54655D01*
G01X87988Y42946D01*
G01X88552Y42382D01*
G01X119888Y120777D02*
G01X118628Y119517D01*
G01X118628Y116060D01*
G01X112407Y109842D01*
G01X112407Y105036D01*
G01X44759Y54648D02*
G01X46370Y56258D01*
G01X49651Y56258D01*
G01X51262Y54648D01*
G01X54229Y32004D02*
G01X54229Y32900D01*
G01X56601Y35272D01*
G01X56601Y47332D01*
G01X56997Y47729D01*
G01X60558Y10848D02*
G01X55082Y16324D01*
G01X55082Y18450D01*
G01X55443Y18813D01*
G01X55443Y30789D01*
G01X54229Y32004D01*
G01X90459Y39847D02*
G01X90159Y39847D01*
G01X87566Y42443D01*
G01X87566Y54830D01*
G01X88046Y55311D01*
G01X88046Y79354D01*
G01X120459Y67848D02*
G01X121732Y66575D01*
G01X121732Y53248D01*
G01X118826Y50342D01*
G01X118826Y45608D01*
G01X59552Y42986D02*
G01X59552Y46357D01*
G01X11313Y152867D02*
G01X13134Y151043D01*
G01X13134Y120710D01*
G01X20998Y112847D01*
G01X81960Y81747D02*
G01X80977Y82730D01*
G01X80977Y97429D01*
G01X79509Y98897D01*
G01X67061Y10848D02*
G01X65895Y9682D01*
G01X61724Y9682D01*
G01X60558Y10848D01*
G01X110474Y28039D02*
G01X110314Y28199D01*
G01X110314Y57406D01*
G01X113952Y61043D01*
G01X113952Y94239D01*
G01X110807Y97383D01*
G01X110807Y106956D01*
G01X54462Y27482D02*
G01X54229Y27713D01*
G01X54229Y29464D01*
G01X116078Y120777D02*
G01X114015Y118714D01*
G01X114015Y112966D01*
G01X47010Y112847D02*
G01X49202Y110655D01*
G01X49202Y86690D01*
G01X49085Y86573D01*
G01X89189Y44094D02*
G01X88752Y44094D01*
G01X88635Y43977D01*
G01X89189Y44094D02*
G01X89189Y80477D01*
G01X90459Y81747D01*
G01X90482Y44094D02*
G01X89189Y44094D01*
G01X75458Y10848D02*
G01X73566Y12740D01*
G01X73566Y31424D01*
G01X72991Y31998D01*
G01X72991Y47917D01*
G01X67061Y53848D01*
G01X37261Y25547D02*
G01X37795Y26080D01*
G01X37795Y32377D01*
G01X38699Y33281D01*
G01X105557Y39847D02*
G01X102219Y43185D01*
G01X102219Y46992D01*
G01X11313Y142867D02*
G01X12570Y141610D01*
G01X12570Y123177D01*
G01X12499Y123106D01*
G01X96961Y81747D02*
G01X96961Y79644D01*
G01X67061Y53848D02*
G01X65895Y52682D01*
G01X61724Y52682D01*
G01X60558Y53848D01*
G01X99009Y98897D02*
G01X96961Y96850D01*
G01X96961Y81747D01*
G01X118950Y81960D02*
G01X118950Y82250D01*
G01X121325Y84625D01*
G01X121325Y93251D01*
G01X122913Y94835D01*
G01X122913Y98427D01*
G01X124917Y100431D01*
G01X119763Y118747D02*
G01X119418Y119092D01*
G01X49149Y32004D02*
G01X50459Y30693D01*
G01X50459Y26349D01*
G01X51262Y25547D01*
G01X116639Y39847D02*
G01X116639Y46860D01*
G01X105557Y81747D02*
G01X105557Y79049D01*
G01X103802Y77292D01*
G01X103802Y61727D01*
G01X106827Y58701D01*
G01X106827Y48069D01*
G01X106362Y47607D01*
G01X119763Y118747D02*
G01X119222Y118209D01*
G01X119222Y117345D01*
G01X119095Y117215D01*
G01X119095Y101112D01*
G01X118414Y100431D01*
G01X90459Y10848D02*
G01X85377Y15930D01*
G01X85377Y50431D01*
G01X81960Y53848D01*
G01X134757Y192846D02*
G01X121793Y179882D01*
G01X121793Y120779D01*
G01X119763Y118747D01*
G01X55458Y87543D02*
G01X55151Y87236D01*
G01X55151Y56149D01*
G01X50004Y51005D01*
G01X50004Y35648D01*
G01X47879Y33522D01*
G01X47879Y30734D01*
G01X46609Y29464D01*
G01X108458Y120777D02*
G01X108458Y92834D01*
G01X23350Y40147D02*
G01X25118Y41915D01*
G01X25118Y55305D01*
G01X22547Y57878D01*
G01X22547Y83299D01*
G01X20998Y84848D01*
G01X90459Y53848D02*
G01X91716Y52590D01*
G01X91716Y25232D01*
G01X86113Y19626D01*
G01X91843Y82014D02*
G01X91932Y82014D01*
G01X90459Y53848D02*
G01X91843Y55232D01*
G01X91843Y82014D01*
G01X86012Y112847D02*
G01X91843Y107015D01*
G01X91843Y82014D01*
G01X54813Y26240D02*
G01X54813Y25341D01*
G01X52969Y23497D01*
G01X44069Y32004D02*
G01X42961Y30896D01*
G01X42961Y26121D01*
G01X141259Y182948D02*
G01X142516Y181691D01*
G01X142516Y137772D01*
G01X134086Y129339D01*
G01X134086Y88872D01*
G01X126961Y81747D01*
G01X23350Y40147D02*
G01X22143Y41353D01*
G01X18054Y41353D01*
G01X16847Y40147D01*
G01X44810Y46845D02*
G01X42705Y44739D01*
G01X42705Y33180D01*
G01X41529Y32004D01*
G01X142113Y122555D02*
G01X134670Y115112D01*
G01X134670Y52181D01*
G01X132971Y50485D01*
G01X65384Y111315D02*
G01X64602Y112095D01*
G01X64602Y113159D01*
G01X63657Y114104D01*
G01X62712Y114104D01*
G01X61719Y113111D01*
G01X61719Y112034D01*
G01X56781Y107096D01*
G01X56781Y56586D01*
G01X55996Y55801D01*
G01X55996Y42435D01*
G01X52989Y39428D01*
G01X52989Y25392D01*
G01X51762Y24165D01*
G01X50728Y24165D01*
G01X49253Y25641D01*
G01X49253Y25918D01*
G01X48465Y26708D01*
G01X47482Y26708D01*
G01X46017Y25242D01*
G01X46017Y24970D01*
G01X45201Y24155D01*
G01X44046Y24155D01*
G01X41529Y26672D01*
G01X41529Y29464D01*
G01X104648Y120777D02*
G01X104648Y115506D01*
G01X38989Y29464D02*
G01X40259Y30734D01*
G01X40259Y32674D01*
G01X42283Y34698D01*
G01X42283Y56263D01*
G01X54305Y68285D01*
G01X54305Y88056D01*
G01X55064Y88816D01*
G01X55064Y111170D01*
G01X57198Y113301D01*
G01X58039Y113301D01*
G01X58407Y112933D01*
G01X39888Y33789D02*
G01X40896Y34795D01*
G01X40896Y57162D01*
G01X53881Y70149D01*
G01X53881Y88590D01*
G01X54091Y88800D01*
G01X93182Y91442D02*
G01X93182Y117314D01*
G01X28089Y33672D02*
G01X28089Y34988D01*
G01X32600Y39499D01*
G01X32600Y91917D01*
G01X132267Y113157D02*
G01X133532Y111892D01*
G01X133532Y99687D01*
G01X128084Y94236D01*
G01X128033Y94236D01*
G01X23749Y29464D02*
G01X25019Y30734D01*
G01X25019Y32517D01*
G01X32031Y39530D01*
G01X32031Y82920D01*
G01X31889Y83065D01*
G01X31889Y112590D01*
G01X32176Y112877D01*
G01X28808Y76547D02*
G01X28808Y43228D01*
G01X22702Y37122D01*
G01X16413Y37122D01*
G01X15057Y35765D01*
G01X15057Y33152D01*
G01X117769Y108077D02*
G01X117081Y107388D01*
G01X117081Y99827D01*
G01X120152Y96756D01*
G01X120152Y91386D01*
G01X118107Y89341D01*
G01X118107Y82605D01*
G01X117276Y81775D01*
G01X117276Y74419D01*
G01X110738Y18455D02*
G01X110738Y27322D01*
G01X111147Y27731D01*
G01X111147Y28247D01*
G01X110782Y28613D01*
G01X110782Y55598D01*
G01X116654Y61470D01*
G01X116654Y82311D01*
G01X117657Y83314D01*
G01X117657Y93789D01*
G01X116420Y95023D01*
G01X116420Y111808D01*
G01X117769Y113157D01*
G01X60558Y67848D02*
G01X59278Y69128D01*
G01X59278Y79796D01*
G01X59349Y79870D01*
G01X40507Y84848D02*
G01X38425Y82765D01*
G01X38425Y70576D01*
G01X38628Y70373D01*
G01X38628Y41513D01*
G01X37261Y40147D01*
G01X67061Y67848D02*
G01X73779Y61130D01*
G01X73779Y32021D01*
G01X75458Y30342D01*
G01X75458Y25847D01*
G01X105557Y53848D02*
G01X103378Y56027D01*
G01X103378Y77467D01*
G01X104223Y78313D01*
G01X104223Y111559D01*
G01X105511Y112847D01*
G01X106608Y151640D02*
G01X105592Y152656D01*
G01X105592Y156776D01*
G01X105511Y112847D02*
G01X106608Y113944D01*
G01X106608Y151640D01*
G01X18669Y29464D02*
G01X20129Y30924D01*
G01X21810Y30924D01*
G01X22479Y31592D01*
G01X22479Y32367D01*
G01X30259Y40147D01*
G01X30759Y40147D01*
G54D12*
G01X72390Y128397D02*
G01X76276Y124510D01*
G01X76276Y113583D01*
G01X72390Y128397D02*
G01X69723Y128397D01*
G01X21590Y128524D02*
G01X20949Y129164D01*
G01X20949Y130754D01*
G01X133604Y30607D02*
G01X133604Y33147D01*
G01X137922Y80772D02*
G01X135295Y78145D01*
G01X135295Y34838D01*
G01X133604Y33147D01*
G54D11*
G01X57566Y112671D02*
G01X56357Y111465D01*
G01X56357Y57459D01*
G01X55572Y56675D01*
G01X55572Y54437D01*
G01X51262Y50126D01*
G01X44759Y50126D02*
G01X46055Y48831D01*
G01X46055Y36918D01*
G01X44759Y35626D01*
G01X37261Y50126D02*
G01X35938Y48803D01*
G01X35938Y36949D01*
G01X37261Y35626D01*
G01X50944Y79684D02*
G01X50944Y116822D01*
G01X46990Y120777D01*
G01X123710Y63047D02*
G01X122199Y64559D01*
G01X122199Y73017D01*
G01X120500Y74714D01*
G01X120500Y75531D01*
G01X63812Y76949D02*
G01X61828Y78933D01*
G01X61828Y87005D01*
G01X48580Y91140D02*
G01X48734Y91295D01*
G01X48734Y101442D01*
G01X41775Y108402D01*
G01X41775Y118371D01*
G01X39370Y120777D01*
G01X78709Y63047D02*
G01X77505Y64251D01*
G01X77505Y72141D01*
G01X68613Y81033D01*
G01X68613Y114927D01*
G01X68158Y115382D01*
G01X41910Y120777D02*
G01X49735Y112951D01*
G01X49735Y83304D01*
G01X51658Y71343D02*
G01X51658Y118648D01*
G01X49530Y120777D01*
G01X93710Y49047D02*
G01X93921Y49258D01*
G01X93921Y52143D01*
G01X52412Y73680D02*
G01X52412Y89197D01*
G01X53533Y90317D01*
G01X53533Y119700D01*
G01X54610Y120777D01*
G01X108808Y35046D02*
G01X107210Y36644D01*
G01X107210Y44899D01*
G01X101015Y51094D01*
G01X101015Y56649D01*
G01X84274Y118920D02*
G01X84274Y111876D01*
G01X87393Y108757D01*
G01X87393Y55844D01*
G01X87142Y55592D01*
G01X87142Y31399D01*
G01X90660Y27884D01*
G01X90660Y27612D01*
G01X20099Y6248D02*
G01X18910Y7437D01*
G01X18910Y21275D01*
G01X20078Y22443D01*
G01X22024Y22443D01*
G01X27749Y28168D01*
G01X27749Y30065D01*
G01X28608Y30924D01*
G01X29430Y30924D01*
G01X30099Y31592D01*
G01X30099Y32387D01*
G01X31970Y34256D01*
G01X37774Y34256D01*
G01X39263Y35745D01*
G01X39263Y56725D01*
G01X53035Y70500D01*
G01X53035Y89222D01*
G01X54155Y90342D01*
G01X54155Y111457D01*
G01X57414Y114716D01*
G01X58582Y114716D01*
G01X64643Y120777D01*
G01X20099Y20746D02*
G01X20924Y20746D01*
G01X25161Y24983D01*
G01X25986Y24983D01*
G01X29908Y28905D01*
G01X29908Y29557D01*
G01X31084Y30734D01*
G01X31722Y30734D01*
G01X32639Y31650D01*
G01X32639Y32448D01*
G01X33944Y33754D01*
G01X37868Y33754D01*
G01X40261Y36146D01*
G01X40261Y57127D01*
G01X53459Y70324D01*
G01X53459Y89047D01*
G01X54579Y90167D01*
G01X54579Y111282D01*
G01X57500Y114203D01*
G01X60736Y114203D01*
G01X67310Y120777D01*
G01X20099Y35346D02*
G01X21094Y34350D01*
G01X23863Y34350D01*
G01X29502Y39989D01*
G01X29502Y118978D01*
G01X30492Y119969D01*
G01X30492Y121516D01*
G01X31572Y122595D01*
G01X35514Y122595D01*
G01X35582Y122527D01*
G01X72390Y120777D02*
G01X71716Y120103D01*
G01X71716Y91546D01*
G01X20099Y49847D02*
G01X20459Y49847D01*
G01X24696Y54084D01*
G01X24696Y55130D01*
G01X21714Y58112D01*
G01X21714Y63383D01*
G01X19728Y65369D01*
G01X19728Y80860D01*
G01X21247Y82379D01*
G01X21810Y82379D01*
G54D12*
G01X93860Y95737D02*
G01X93860Y81922D01*
G01X93710Y81772D01*
G01X123710Y53873D02*
G01X125476Y55638D01*
G01X125476Y93218D01*
G01X127175Y94917D01*
G01X128084Y94917D01*
G01X132450Y99283D01*
G01X132450Y103621D01*
G01X130992Y105077D01*
G01X130992Y130576D01*
G01X136626Y136207D01*
G01X136626Y141511D01*
G01X138008Y142892D01*
G01X63258Y112872D02*
G01X63258Y110685D01*
G01X63675Y110269D01*
G01X58950Y17858D02*
G01X57520Y16426D01*
G01X82760Y98922D02*
G01X81206Y100477D01*
G01X81206Y108458D01*
G01X48011Y40172D02*
G01X49240Y41402D01*
G01X49240Y53444D01*
G01X48011Y54673D01*
G01X138008Y172882D02*
G01X136819Y171691D01*
G01X136819Y144081D01*
G01X138008Y142892D01*
G01X123710Y53873D02*
G01X124919Y52664D01*
G01X124919Y12082D01*
G01X123710Y10873D01*
G01X78709Y10873D02*
G01X77563Y12019D01*
G01X77563Y52727D01*
G01X78709Y53873D01*
G01X63809Y25872D02*
G01X63809Y22717D01*
G01X58950Y17858D01*
G01X108808Y25872D02*
G01X107609Y25872D01*
G01X106657Y26824D01*
G01X106657Y27663D01*
G01X94447Y39872D01*
G01X93710Y39872D01*
G01X109969Y77934D02*
G01X109969Y69034D01*
G01X108808Y67873D01*
G01X8061Y142892D02*
G01X6924Y141754D01*
G01X6924Y137403D01*
G01X9522Y134802D01*
G01X9522Y99303D01*
G01X7828Y97612D01*
G01X7828Y81694D01*
G01X8432Y81089D01*
G01X8432Y80010D02*
G01X8432Y81089D01*
G01X8061Y172882D02*
G01X6870Y171691D01*
G01X6870Y144081D01*
G01X8061Y142892D01*
G01X24249Y84874D02*
G01X24249Y85338D01*
G01X25433Y86522D01*
G01X25433Y97739D01*
G01X24249Y98922D01*
G01X48011Y25572D02*
G01X46781Y24343D01*
G01X46781Y12303D01*
G01X48011Y11074D01*
G54D11*
G01X63809Y21046D02*
G01X64127Y21046D01*
G01X70027Y26946D01*
G01X70027Y32372D01*
G01X123710Y25872D02*
G01X122140Y24300D01*
G01X122140Y18501D01*
G01X119039Y15400D01*
G01X119039Y8130D01*
G01X38989Y32004D02*
G01X41521Y34536D01*
G01X41521Y40386D01*
G01X128219Y32316D02*
G01X128219Y62306D01*
G01X132969Y67056D01*
G01X120459Y6327D02*
G01X119964Y6327D01*
G01X110106Y16184D01*
G01X110106Y26875D01*
G01X100393Y36588D01*
G01X100393Y57035D01*
G01X101018Y57660D01*
G01X101018Y115790D01*
G01X99484Y117325D01*
G01X99484Y126067D01*
G01X97155Y128397D01*
G01X16847Y35626D02*
G01X16847Y27815D01*
G01X15570Y26537D01*
G01X15570Y22303D01*
G01X16847Y21026D01*
G01X51262Y21026D02*
G01X49959Y19723D01*
G01X49959Y7830D01*
G01X51262Y6527D01*
G01X23350Y35626D02*
G01X22550Y36426D01*
G01X17647Y36426D01*
G01X16847Y35626D01*
G01X104648Y128397D02*
G01X103337Y127086D01*
G01X103337Y115249D01*
G01X103568Y115016D01*
G01X103568Y78257D01*
G01X102956Y77642D01*
G01X102956Y51927D01*
G01X105557Y49326D01*
G01X120459Y35326D02*
G01X121726Y36593D01*
G01X121726Y48059D01*
G01X120459Y49326D01*
G01X60558Y21325D02*
G01X61823Y22590D01*
G01X61823Y26944D01*
G01X60558Y28209D01*
G01X60558Y35326D01*
G01X65308Y62219D02*
G01X65308Y68018D01*
G01X67033Y69745D01*
G01X67840Y69745D01*
G01X52070Y120777D02*
G01X52712Y120134D01*
G01X52712Y98625D01*
G01X58072Y96969D02*
G01X58072Y48729D01*
G01X62321Y44480D01*
G01X62321Y36535D01*
G01X63809Y35046D01*
G01X57023Y120777D02*
G01X58465Y122217D01*
G01X70124Y122217D01*
G01X71056Y121287D01*
G01X71056Y79489D01*
G01X79832Y70713D01*
G01X79832Y22169D01*
G01X78709Y21046D01*
G01X109110Y119113D02*
G01X109110Y93543D01*
G01X55692Y90733D02*
G01X55692Y88658D01*
G01X54726Y87693D01*
G01X54726Y56324D01*
G01X51755Y53352D01*
G01X50700Y53352D01*
G01X49298Y54754D01*
G01X49298Y55158D01*
G01X48623Y55834D01*
G01X47315Y55834D01*
G01X46733Y55252D01*
G01X46733Y34676D01*
G01X45524Y33467D01*
G01X45524Y28925D01*
G01X46210Y28239D01*
G01X47924Y28239D01*
G01X49149Y29464D01*
G01X105511Y94376D02*
G01X106667Y95531D01*
G01X106667Y97736D01*
G01X105511Y108325D02*
G01X106814Y107022D01*
G01X106814Y97883D01*
G01X106667Y97736D01*
G01X99009Y94376D02*
G01X100312Y95679D01*
G01X100312Y107022D01*
G01X99009Y108325D01*
G01X66509Y94376D02*
G01X65709Y95176D01*
G01X60807Y95176D01*
G01X60007Y94376D01*
G01X27500Y80327D02*
G01X26083Y81744D01*
G01X26083Y85681D01*
G01X27500Y87101D01*
G01X27500Y94376D01*
G01X86012Y108325D02*
G01X85211Y109126D01*
G01X80309Y109126D01*
G01X79509Y108325D01*
G01X134757Y158335D02*
G01X136146Y159725D01*
G01X136146Y166946D01*
G01X134757Y168335D01*
G01X134757Y148346D02*
G01X136128Y149717D01*
G01X136128Y156964D01*
G01X134757Y158335D01*
G01X141259Y158335D02*
G01X140002Y157078D01*
G01X140002Y149603D01*
G01X141259Y148346D01*
G01X141259Y138346D02*
G01X139862Y139743D01*
G01X139862Y146949D01*
G01X141259Y148346D01*
G01X66509Y108325D02*
G01X65681Y109153D01*
G01X60835Y109153D01*
G01X60007Y108325D01*
G01X112059Y77226D02*
G01X110187Y79098D01*
G01X110187Y96801D01*
G01X109761Y97226D01*
G01X109761Y125890D01*
G01X112268Y128397D01*
G01X39204Y70835D02*
G01X39204Y79024D01*
G01X40507Y80327D01*
G01X40507Y66827D02*
G01X39204Y68130D01*
G01X39204Y70835D01*
G01X39204Y70835D02*
G01X39047Y70835D01*
G01X81960Y49326D02*
G01X80253Y51033D01*
G01X80253Y61620D01*
G01X81960Y63327D01*
G01X105557Y63327D02*
G01X107307Y65077D01*
G01X107307Y107129D01*
G01X107170Y107266D01*
G01X107170Y127109D01*
G01X108458Y128397D01*
G01X96961Y63327D02*
G01X95638Y62003D01*
G01X95638Y50650D01*
G01X96961Y49326D01*
G01X112059Y63327D02*
G01X112829Y64096D01*
G01X112829Y65430D01*
G01X112829Y65430D01*
G01X67061Y63327D02*
G01X67061Y63093D01*
G01X65565Y61597D01*
G01X62288Y61597D01*
G01X60558Y63327D01*
G01X60558Y49326D02*
G01X59265Y50619D01*
G01X59265Y62034D01*
G01X60558Y63327D01*
G01X75458Y49326D02*
G01X74201Y50584D01*
G01X74201Y62069D01*
G01X75458Y63327D01*
G01X96271Y93177D02*
G01X96271Y107947D01*
G01X100396Y112072D01*
G01X63809Y63047D02*
G01X62682Y64175D01*
G01X62682Y68437D01*
G01X65905Y71663D01*
G01X123710Y81772D02*
G01X121716Y79778D01*
G01X121716Y74531D01*
G01X3124Y58928D02*
G01X3124Y79883D01*
G01X3251Y80010D01*
G01X3302Y54610D02*
G01X3124Y54787D01*
G01X3124Y58928D01*
G01X3967Y44531D02*
G01X4064Y44627D01*
G01X1397Y36322D02*
G01X1397Y41960D01*
G01X3967Y44531D01*
G01X3302Y54610D02*
G01X1938Y53246D01*
G01X1938Y46560D01*
G01X3967Y44531D01*
G01X18669Y32004D02*
G01X17586Y30921D01*
G01X17586Y26898D01*
G01X18613Y25874D01*
G01X18613Y25379D01*
G01X19573Y24417D01*
G01X20574Y24417D01*
G01X21178Y25021D01*
G01X21178Y25234D01*
G01X25407Y29464D01*
G01X26289Y29464D01*
G01X8051Y120650D02*
G01X1524Y114122D01*
G01X1524Y83947D01*
G01X31369Y29464D02*
G01X32639Y30734D01*
G01X35179Y30734D01*
G01X36449Y32004D01*
G01X137922Y76962D02*
G01X139301Y78341D01*
G01X139301Y97683D01*
G01X138181Y98803D01*
G01X138181Y114813D01*
G01X138303Y114935D01*
G01X137922Y76962D02*
G01X140253Y74630D01*
G01X140253Y63042D01*
G01X114681Y42037D02*
G01X114681Y44577D01*
G01X133604Y44577D02*
G01X133604Y42037D01*
G01X140253Y63042D02*
G01X140253Y58922D01*
G01X137718Y56388D01*
G01X143002Y63042D02*
G01X140253Y63042D01*
G01X3251Y80010D02*
G01X1524Y81737D01*
G01X1524Y83947D01*
G01X123698Y128397D02*
G01X123698Y167368D01*
G01X134757Y178427D01*
G01X4810Y178427D02*
G01X6207Y179824D01*
G01X6207Y186928D01*
G01X4810Y188325D01*
G01X11313Y158346D02*
G01X10007Y159649D01*
G01X10007Y167032D01*
G01X11313Y168335D01*
G01X11313Y168335D02*
G01X9926Y169722D01*
G01X9926Y177040D01*
G01X11313Y178427D01*
G01X4810Y158346D02*
G01X6068Y159603D01*
G01X6068Y167078D01*
G01X4810Y168335D01*
G01X4810Y148346D02*
G01X6182Y149717D01*
G01X6182Y156974D01*
G01X4810Y158346D01*
G01X11313Y138346D02*
G01X9913Y139743D01*
G01X9913Y146949D01*
G01X11313Y148346D01*
G01X134757Y178427D02*
G01X136154Y179824D01*
G01X136154Y186928D01*
G01X134757Y188325D01*
G01X90459Y21325D02*
G01X92560Y23423D01*
G01X92560Y117975D01*
G01X95110Y120528D01*
G01X95110Y128150D01*
G01X96789Y129829D01*
G01X99405Y129829D01*
G01X100838Y128397D01*
G01X90459Y6327D02*
G01X91727Y7594D01*
G01X91727Y20058D01*
G01X90459Y21325D01*
G01X81960Y6327D02*
G01X80678Y7609D01*
G01X80678Y20043D01*
G01X81960Y21325D01*
G01X120459Y21325D02*
G01X112059Y21325D01*
G01X4064Y42037D02*
G01X3042Y41013D01*
G01X3042Y33406D01*
G01X4572Y31877D01*
G01X136398Y26543D02*
G01X136398Y62687D01*
G01X137718Y64008D01*
G01X143002Y60452D02*
G01X144482Y58971D01*
G01X144482Y43644D01*
G01X143129Y42291D01*
G01X116459Y92583D02*
G01X111726Y97315D01*
G01X111726Y107906D01*
G01X111302Y108331D01*
G01X41160Y73357D02*
G01X42400Y74594D01*
G01X42400Y83512D01*
G01X43759Y84874D01*
G01X48011Y49847D02*
G01X48011Y53012D01*
G01X43759Y94096D02*
G01X43510Y94096D01*
G01X38102Y99504D01*
G01X38102Y121363D01*
G01X37294Y122171D01*
G01X36245Y122171D01*
G01X35910Y121836D01*
G01X35394Y121836D01*
G01X35059Y122171D01*
G01X33020Y122171D01*
G01X31750Y120904D01*
G01X138008Y138066D02*
G01X139199Y139258D01*
G01X139199Y151701D01*
G01X138008Y152892D01*
G01X8061Y188046D02*
G01X9926Y186179D01*
G01X9926Y182420D01*
G01X14843Y177502D01*
G01X14843Y122570D01*
G01X16510Y120904D01*
G01X8061Y158066D02*
G01X13558Y152570D01*
G01X13558Y122013D01*
G01X15996Y119575D01*
G01X17645Y119575D01*
G01X18973Y120904D01*
G01X36830Y120777D02*
G01X36830Y95310D01*
G01X44907Y87231D01*
G01X44907Y81196D01*
G01X43759Y80048D01*
G01X26670Y120904D02*
G01X25763Y119994D01*
G01X25763Y109557D01*
G01X24249Y108046D01*
G01X93710Y6047D02*
G01X92707Y5044D01*
G01X89783Y5044D01*
G01X84051Y10777D01*
G01X84051Y49014D01*
G01X80678Y52387D01*
G01X80678Y54681D01*
G01X83314Y57317D01*
G01X83314Y63756D01*
G01X80467Y66603D01*
G01X80467Y83530D01*
G01X76972Y87025D01*
G01X76972Y119560D01*
G01X5715Y46990D02*
G01X5715Y42799D01*
G01X8128Y40386D01*
G01X5715Y58928D02*
G01X5715Y46990D01*
G01X5715Y46990D02*
G01X3302Y46990D01*
G01X8001Y35288D02*
G01X11734Y39022D01*
G01X11734Y42037D01*
G01X138176Y39116D02*
G01X138176Y35463D01*
G01X138000Y35288D01*
G01X138000Y53687D02*
G01X142527Y53687D01*
G01X143129Y53086D01*
G01X138000Y32748D02*
G01X138988Y31760D01*
G01X138988Y26543D01*
G01X8305Y58928D02*
G01X8305Y57906D01*
G01X8001Y51147D02*
G01X9212Y52359D01*
G01X9212Y56997D01*
G01X8305Y57906D01*
G01X8061Y178147D02*
G01X6870Y179336D01*
G01X6870Y191681D01*
G01X8061Y192872D01*
G01X8061Y168056D02*
G01X9250Y169247D01*
G01X9250Y181782D01*
G01X8061Y182973D01*
G01X8061Y138066D02*
G01X9250Y139258D01*
G01X9250Y151701D01*
G01X8061Y152892D01*
G01X138008Y178147D02*
G01X136819Y179336D01*
G01X136819Y191681D01*
G01X138008Y192872D01*
G01X138008Y168056D02*
G01X139199Y169247D01*
G01X139199Y181782D01*
G01X138008Y182973D01*
G36*
G01X67691Y32766D02*
G01X66167Y32766D01*
G01X66167Y31242D01*
G01X67691Y31242D01*
G01X67691Y32766D01*
G37*
G54D15*
G01X66929Y29464D03*
G01X64389Y32004D03*
G01X64389Y29464D03*
G01X61849Y32004D03*
G01X61849Y29464D03*
G01X59309Y32004D03*
G01X59309Y29464D03*
G01X56769Y32004D03*
G01X56769Y29464D03*
G01X54229Y32004D03*
G01X54229Y29464D03*
G01X51689Y32004D03*
G01X51689Y29464D03*
G01X49149Y32004D03*
G01X49149Y29464D03*
G01X46609Y32004D03*
G01X46609Y29464D03*
G01X44069Y32004D03*
G01X44069Y29464D03*
G01X41529Y32004D03*
G01X41529Y29464D03*
G01X38989Y32004D03*
G01X38989Y29464D03*
G01X36449Y32004D03*
G01X36449Y29464D03*
G01X33909Y32004D03*
G01X33909Y29464D03*
G01X31369Y32004D03*
G01X31369Y29464D03*
G01X28829Y32004D03*
G01X28829Y29464D03*
G01X26289Y32004D03*
G01X26289Y29464D03*
G01X23749Y32004D03*
G01X23749Y29464D03*
G01X21209Y32004D03*
G01X21209Y29464D03*
G01X18669Y32004D03*
G01X18669Y29464D03*
G36*
G01X115443Y43815D02*
G01X115443Y45339D01*
G01X113919Y45339D01*
G01X113919Y43815D01*
G01X115443Y43815D01*
G37*
G01X114681Y42037D03*
G01X114612Y33147D03*
G01X114681Y30734D03*
G01X133604Y30607D03*
G01X133604Y33147D03*
G01X133604Y42037D03*
G01X133604Y44577D03*
G54D16*
G01X137922Y76962D03*
G01X137922Y80772D03*
G01X8051Y120650D03*
G01X4241Y120650D03*
G54D17*
G01X123698Y128397D03*
G01X123698Y120777D03*
G01X116078Y128397D03*
G01X116078Y120777D03*
G01X119888Y128397D03*
G01X119888Y120777D03*
G01X112268Y128397D03*
G01X112268Y120777D03*
G01X108458Y128397D03*
G01X108458Y120777D03*
G01X93218Y128397D03*
G01X93218Y120777D03*
G01X97155Y128397D03*
G01X97155Y120777D03*
G01X100838Y128397D03*
G01X100838Y120777D03*
G01X104648Y128397D03*
G01X104648Y120777D03*
G54D18*
G01X46990Y120777D03*
G01X46990Y128397D03*
G01X29210Y120904D03*
G01X29210Y128524D03*
G01X16510Y120904D03*
G01X16510Y128524D03*
G01X18973Y120904D03*
G01X18973Y128524D03*
G01X39370Y120777D03*
G01X39370Y128397D03*
G01X44450Y120777D03*
G01X44450Y128397D03*
G01X41910Y120777D03*
G01X41910Y128397D03*
G01X49530Y120777D03*
G01X49530Y128397D03*
G01X34290Y120904D03*
G01X34290Y128524D03*
G01X36830Y120777D03*
G01X36830Y128397D03*
G01X26670Y120904D03*
G01X26670Y128524D03*
G01X31750Y120904D03*
G01X31750Y128524D03*
G01X24130Y120904D03*
G01X24130Y128524D03*
G01X52070Y120777D03*
G01X52070Y128397D03*
G01X54610Y120777D03*
G01X54610Y128397D03*
G01X57023Y120777D03*
G01X57023Y128397D03*
G01X59690Y120777D03*
G01X59690Y128397D03*
G01X62230Y120777D03*
G01X62230Y128397D03*
G01X64643Y120777D03*
G01X64643Y128397D03*
G01X67310Y120777D03*
G01X67310Y128397D03*
G01X69723Y120777D03*
G01X69723Y128397D03*
G01X72390Y120777D03*
G01X72390Y128397D03*
G01X138303Y122555D03*
G01X138303Y114935D03*
G01X142113Y114935D03*
G01X142113Y122555D03*
G01X123063Y88900D03*
G01X130683Y88900D03*
G01X119888Y88900D03*
G01X112268Y88900D03*
G01X19685Y59817D03*
G01X12065Y59817D03*
G01X8128Y40386D03*
G01X8128Y48006D03*
G01X11734Y34417D03*
G01X11734Y42037D03*
G01X4572Y31877D03*
G01X4572Y24257D03*
G01X138176Y39116D03*
G01X138176Y46736D03*
G01X143129Y24257D03*
G01X143129Y31877D03*
G01X143129Y34671D03*
G01X143129Y42291D03*
G01X132969Y67056D03*
G01X132969Y59436D03*
G01X1524Y83947D03*
G01X9144Y83947D03*
G01X137718Y56388D03*
G01X137718Y64008D03*
G01X1397Y76200D03*
G01X9017Y76200D03*
G01X1397Y28702D03*
G01X1397Y36322D03*
G01X3302Y46990D03*
G01X3302Y54610D03*
G01X143129Y53086D03*
G01X143129Y45466D03*
G01X21590Y120904D03*
G01X21590Y128524D03*
G36*
G01X9137Y79305D02*
G01X9137Y80714D01*
G01X7727Y80714D01*
G01X7727Y79305D01*
G01X9137Y79305D01*
G37*
G54D20*
G01X3251Y80010D03*
G01X5842Y80010D03*
G36*
G01X139693Y25838D02*
G01X139693Y27247D01*
G01X138283Y27247D01*
G01X138283Y25838D01*
G01X139693Y25838D01*
G37*
G01X133807Y26543D03*
G01X136398Y26543D03*
G36*
G01X142297Y57156D02*
G01X143706Y57156D01*
G01X143706Y58566D01*
G01X142297Y58566D01*
G01X142297Y57156D01*
G37*
G01X143002Y63042D03*
G01X143002Y60452D03*
G36*
G01X3359Y38741D02*
G01X4768Y38741D01*
G01X4768Y40151D01*
G01X3359Y40151D01*
G01X3359Y38741D01*
G37*
G01X4064Y44627D03*
G01X4064Y42037D03*
G36*
G01X9010Y58223D02*
G01X9010Y59632D01*
G01X7600Y59632D01*
G01X7600Y58223D01*
G01X9010Y58223D01*
G37*
G01X3124Y58928D03*
G01X5715Y58928D03*
G36*
G01X110597Y107626D02*
G01X112007Y107626D01*
G01X112007Y109035D01*
G01X110597Y109035D01*
G01X110597Y107626D01*
G37*
G01X111302Y113512D03*
G01X111302Y110921D03*
G54D21*
G01X31999Y148895D03*
G01X114000Y148895D03*
G01X31999Y187894D03*
G01X114000Y187894D03*
G01X115165Y203335D03*
G01X48665Y203335D03*
G01X115165Y156835D03*
G01X48665Y156835D03*
G54D18*
G01X4809Y192846D03*
G01X11311Y192846D03*
G01X4809Y188325D03*
G01X11311Y188325D03*
G54D15*
G01X8060Y192872D03*
G01X8060Y188046D03*
G54D18*
G01X4809Y182948D03*
G01X11311Y182948D03*
G01X4809Y178427D03*
G01X11311Y178427D03*
G54D15*
G01X8060Y182973D03*
G01X8060Y178147D03*
G54D18*
G01X4809Y172857D03*
G01X11311Y172857D03*
G01X4809Y168335D03*
G01X11311Y168335D03*
G54D15*
G01X8060Y172882D03*
G01X8060Y168056D03*
G54D18*
G01X4809Y162867D03*
G01X11311Y162867D03*
G01X4809Y158346D03*
G01X11311Y158346D03*
G54D15*
G01X8060Y162892D03*
G01X8060Y158066D03*
G54D18*
G01X4809Y152867D03*
G01X11311Y152867D03*
G01X4809Y148346D03*
G01X11311Y148346D03*
G54D15*
G01X8060Y152892D03*
G01X8060Y148066D03*
G54D18*
G01X4809Y142867D03*
G01X11311Y142867D03*
G01X4809Y138346D03*
G01X11311Y138346D03*
G54D15*
G01X8060Y142892D03*
G01X8060Y138066D03*
G54D18*
G01X134757Y192846D03*
G01X141259Y192846D03*
G01X134757Y188325D03*
G01X141259Y188325D03*
G54D15*
G01X138008Y192872D03*
G01X138008Y188046D03*
G54D18*
G01X134757Y182948D03*
G01X141259Y182948D03*
G01X134757Y178427D03*
G01X141259Y178427D03*
G54D15*
G01X138008Y182973D03*
G01X138008Y178147D03*
G54D18*
G01X134757Y172857D03*
G01X141259Y172857D03*
G01X134757Y168335D03*
G01X141259Y168335D03*
G54D15*
G01X138008Y172882D03*
G01X138008Y168056D03*
G54D18*
G01X134757Y162857D03*
G01X141259Y162857D03*
G01X134757Y158335D03*
G01X141259Y158335D03*
G54D15*
G01X138008Y162882D03*
G01X138008Y158056D03*
G54D18*
G01X134757Y152867D03*
G01X141259Y152867D03*
G01X134757Y148346D03*
G01X141259Y148346D03*
G54D15*
G01X138008Y152892D03*
G01X138008Y148066D03*
G54D18*
G01X134757Y142867D03*
G01X141259Y142867D03*
G01X134757Y138346D03*
G01X141259Y138346D03*
G54D15*
G01X138008Y142892D03*
G01X138008Y138066D03*
G54D18*
G01X20998Y112847D03*
G01X27500Y112847D03*
G01X20998Y108325D03*
G01X27500Y108325D03*
G54D15*
G01X24249Y112872D03*
G01X24249Y108046D03*
G54D18*
G01X40507Y112847D03*
G01X47010Y112847D03*
G01X40507Y108325D03*
G01X47010Y108325D03*
G54D15*
G01X43759Y112872D03*
G01X43759Y108046D03*
G54D18*
G01X60007Y112847D03*
G01X66509Y112847D03*
G01X60007Y108325D03*
G01X66509Y108325D03*
G54D15*
G01X63258Y112872D03*
G01X63258Y108046D03*
G54D18*
G01X79509Y112847D03*
G01X86012Y112847D03*
G01X79509Y108325D03*
G01X86012Y108325D03*
G54D15*
G01X82760Y112872D03*
G01X82760Y108046D03*
G54D18*
G01X99009Y112847D03*
G01X105511Y112847D03*
G01X99009Y108325D03*
G01X105511Y108325D03*
G54D15*
G01X102260Y112872D03*
G01X102260Y108046D03*
G54D18*
G01X20998Y98897D03*
G01X27500Y98897D03*
G01X20998Y94376D03*
G01X27500Y94376D03*
G54D15*
G01X24249Y98922D03*
G01X24249Y94096D03*
G54D18*
G01X40507Y98897D03*
G01X47010Y98897D03*
G01X40507Y94376D03*
G01X47010Y94376D03*
G54D15*
G01X43759Y98922D03*
G01X43759Y94096D03*
G54D18*
G01X60007Y98897D03*
G01X66509Y98897D03*
G01X60007Y94376D03*
G01X66509Y94376D03*
G54D15*
G01X63258Y98922D03*
G01X63258Y94096D03*
G54D18*
G01X79509Y98897D03*
G01X86012Y98897D03*
G01X79509Y94376D03*
G01X86012Y94376D03*
G54D15*
G01X82760Y98922D03*
G01X82760Y94096D03*
G54D18*
G01X99009Y98897D03*
G01X105511Y98897D03*
G01X99009Y94376D03*
G01X105511Y94376D03*
G54D15*
G01X102260Y98922D03*
G01X102260Y94096D03*
G54D18*
G01X118414Y100431D03*
G01X124917Y100431D03*
G01X118414Y95910D03*
G01X124917Y95910D03*
G54D15*
G01X121666Y100457D03*
G01X121666Y95631D03*
G54D18*
G01X20998Y84848D03*
G01X27500Y84848D03*
G01X20998Y80327D03*
G01X27500Y80327D03*
G54D15*
G01X24249Y84874D03*
G01X24249Y80048D03*
G54D18*
G01X40507Y84848D03*
G01X47010Y84848D03*
G01X40507Y80327D03*
G01X47010Y80327D03*
G54D15*
G01X43759Y84874D03*
G01X43759Y80048D03*
G54D18*
G01X20998Y71348D03*
G01X27500Y71348D03*
G01X20998Y66827D03*
G01X27500Y66827D03*
G54D15*
G01X24249Y71374D03*
G01X24249Y66548D03*
G54D18*
G01X40507Y71348D03*
G01X47010Y71348D03*
G01X40507Y66827D03*
G01X47010Y66827D03*
G54D15*
G01X43759Y71374D03*
G01X43759Y66548D03*
G54D18*
G01X60561Y81749D03*
G01X67063Y81749D03*
G01X60561Y77228D03*
G01X67063Y77228D03*
G54D15*
G01X63812Y81775D03*
G01X63812Y76949D03*
G54D18*
G01X75458Y81747D03*
G01X81960Y81747D03*
G01X75458Y77226D03*
G01X81960Y77226D03*
G54D15*
G01X78709Y81772D03*
G01X78709Y76946D03*
G54D18*
G01X90459Y81747D03*
G01X96961Y81747D03*
G01X90459Y77226D03*
G01X96961Y77226D03*
G54D15*
G01X93710Y81772D03*
G01X93710Y76946D03*
G54D18*
G01X105557Y81747D03*
G01X112059Y81747D03*
G01X105557Y77226D03*
G01X112059Y77226D03*
G54D15*
G01X108808Y81772D03*
G01X108808Y76946D03*
G54D18*
G01X120459Y81747D03*
G01X126961Y81747D03*
G01X120459Y77226D03*
G01X126961Y77226D03*
G54D15*
G01X123710Y81772D03*
G01X123710Y76946D03*
G54D18*
G01X60558Y67848D03*
G01X67061Y67848D03*
G01X60558Y63327D03*
G01X67061Y63327D03*
G54D15*
G01X63809Y67873D03*
G01X63809Y63047D03*
G54D18*
G01X75458Y67848D03*
G01X81960Y67848D03*
G01X75458Y63327D03*
G01X81960Y63327D03*
G54D15*
G01X78709Y67873D03*
G01X78709Y63047D03*
G54D18*
G01X90459Y67848D03*
G01X96961Y67848D03*
G01X90459Y63327D03*
G01X96961Y63327D03*
G54D15*
G01X93710Y67873D03*
G01X93710Y63047D03*
G54D18*
G01X105557Y67848D03*
G01X112059Y67848D03*
G01X105557Y63327D03*
G01X112059Y63327D03*
G54D15*
G01X108808Y67873D03*
G01X108808Y63047D03*
G54D18*
G01X120459Y67848D03*
G01X126961Y67848D03*
G01X120459Y63327D03*
G01X126961Y63327D03*
G54D15*
G01X123710Y67873D03*
G01X123710Y63047D03*
G54D18*
G01X60558Y53848D03*
G01X67061Y53848D03*
G01X60558Y49326D03*
G01X67061Y49326D03*
G54D15*
G01X63809Y53873D03*
G01X63809Y49047D03*
G54D18*
G01X75458Y53848D03*
G01X81960Y53848D03*
G01X75458Y49326D03*
G01X81960Y49326D03*
G54D15*
G01X78709Y53873D03*
G01X78709Y49047D03*
G54D18*
G01X90459Y53848D03*
G01X96961Y53848D03*
G01X90459Y49326D03*
G01X96961Y49326D03*
G54D15*
G01X93710Y53873D03*
G01X93710Y49047D03*
G54D18*
G01X105557Y53848D03*
G01X112059Y53848D03*
G01X105557Y49326D03*
G01X112059Y49326D03*
G54D15*
G01X108808Y53873D03*
G01X108808Y49047D03*
G54D18*
G01X120459Y53848D03*
G01X126961Y53848D03*
G01X120459Y49326D03*
G01X126961Y49326D03*
G54D15*
G01X123710Y53873D03*
G01X123710Y49047D03*
G54D18*
G01X60558Y39847D03*
G01X67061Y39847D03*
G01X60558Y35326D03*
G01X67061Y35326D03*
G54D15*
G01X63809Y39872D03*
G01X63809Y35046D03*
G54D18*
G01X75458Y39847D03*
G01X81960Y39847D03*
G01X75458Y35326D03*
G01X81960Y35326D03*
G54D15*
G01X78709Y39872D03*
G01X78709Y35046D03*
G54D18*
G01X90459Y39847D03*
G01X96961Y39847D03*
G01X90459Y35326D03*
G01X96961Y35326D03*
G54D15*
G01X93710Y39872D03*
G01X93710Y35046D03*
G54D18*
G01X105557Y39847D03*
G01X112059Y39847D03*
G01X105557Y35326D03*
G01X112059Y35326D03*
G54D15*
G01X108808Y39872D03*
G01X108808Y35046D03*
G54D18*
G01X120459Y39847D03*
G01X126961Y39847D03*
G01X120459Y35326D03*
G01X126961Y35326D03*
G54D15*
G01X123710Y39872D03*
G01X123710Y35046D03*
G54D18*
G01X60558Y25847D03*
G01X67061Y25847D03*
G01X60558Y21325D03*
G01X67061Y21325D03*
G54D15*
G01X63809Y25872D03*
G01X63809Y21046D03*
G54D18*
G01X75458Y25847D03*
G01X81960Y25847D03*
G01X75458Y21325D03*
G01X81960Y21325D03*
G54D15*
G01X78709Y25872D03*
G01X78709Y21046D03*
G54D18*
G01X90459Y25847D03*
G01X96961Y25847D03*
G01X90459Y21325D03*
G01X96961Y21325D03*
G54D15*
G01X93710Y25872D03*
G01X93710Y21046D03*
G54D18*
G01X105557Y25847D03*
G01X112059Y25847D03*
G01X105557Y21325D03*
G01X112059Y21325D03*
G54D15*
G01X108808Y25872D03*
G01X108808Y21046D03*
G54D18*
G01X120459Y25847D03*
G01X126961Y25847D03*
G01X120459Y21325D03*
G01X126961Y21325D03*
G54D15*
G01X123710Y25872D03*
G01X123710Y21046D03*
G54D18*
G01X60558Y10848D03*
G01X67061Y10848D03*
G01X60558Y6327D03*
G01X67061Y6327D03*
G54D15*
G01X63809Y10873D03*
G01X63809Y6047D03*
G54D18*
G01X75458Y10848D03*
G01X81960Y10848D03*
G01X75458Y6327D03*
G01X81960Y6327D03*
G54D15*
G01X78709Y10873D03*
G01X78709Y6047D03*
G54D18*
G01X90459Y10848D03*
G01X96961Y10848D03*
G01X90459Y6327D03*
G01X96961Y6327D03*
G54D15*
G01X93710Y10873D03*
G01X93710Y6047D03*
G54D18*
G01X105557Y10848D03*
G01X112059Y10848D03*
G01X105557Y6327D03*
G01X112059Y6327D03*
G54D15*
G01X108808Y10873D03*
G01X108808Y6047D03*
G54D18*
G01X120459Y10848D03*
G01X126961Y10848D03*
G01X120459Y6327D03*
G01X126961Y6327D03*
G54D15*
G01X123710Y10873D03*
G01X123710Y6047D03*
G54D18*
G01X16847Y11049D03*
G01X23350Y11049D03*
G01X16847Y6527D03*
G01X23350Y6527D03*
G54D15*
G01X20099Y11074D03*
G01X20099Y6248D03*
G54D18*
G01X30759Y11049D03*
G01X37261Y11049D03*
G01X30759Y6527D03*
G01X37261Y6527D03*
G54D15*
G01X34010Y11074D03*
G01X34010Y6248D03*
G54D18*
G01X44759Y11049D03*
G01X51262Y11049D03*
G01X44759Y6527D03*
G01X51262Y6527D03*
G54D15*
G01X48011Y11074D03*
G01X48011Y6248D03*
G54D18*
G01X16847Y25547D03*
G01X23350Y25547D03*
G01X16847Y21026D03*
G01X23350Y21026D03*
G54D15*
G01X20099Y25572D03*
G01X20099Y20746D03*
G54D18*
G01X30759Y25547D03*
G01X37261Y25547D03*
G01X30759Y21026D03*
G01X37261Y21026D03*
G54D15*
G01X34010Y25572D03*
G01X34010Y20746D03*
G54D18*
G01X44759Y25547D03*
G01X51262Y25547D03*
G01X44759Y21026D03*
G01X51262Y21026D03*
G54D15*
G01X48011Y25572D03*
G01X48011Y20746D03*
G54D18*
G01X16847Y40147D03*
G01X23350Y40147D03*
G01X16847Y35626D03*
G01X23350Y35626D03*
G54D15*
G01X20099Y40172D03*
G01X20099Y35346D03*
G54D18*
G01X30759Y40147D03*
G01X37261Y40147D03*
G01X30759Y35626D03*
G01X37261Y35626D03*
G54D15*
G01X34010Y40172D03*
G01X34010Y35346D03*
G54D18*
G01X44759Y40147D03*
G01X51262Y40147D03*
G01X44759Y35626D03*
G01X51262Y35626D03*
G54D15*
G01X48011Y40172D03*
G01X48011Y35346D03*
G54D18*
G01X16847Y54648D03*
G01X23350Y54648D03*
G01X16847Y50126D03*
G01X23350Y50126D03*
G54D15*
G01X20099Y54673D03*
G01X20099Y49847D03*
G54D18*
G01X30759Y54648D03*
G01X37261Y54648D03*
G01X30759Y50126D03*
G01X37261Y50126D03*
G54D15*
G01X34010Y54673D03*
G01X34010Y49847D03*
G54D18*
G01X44759Y54648D03*
G01X51262Y54648D03*
G01X44759Y50126D03*
G01X51262Y50126D03*
G54D15*
G01X48011Y54673D03*
G01X48011Y49847D03*
G54D22*
G01X117768Y113157D03*
G01X117768Y110617D03*
G01X117768Y108077D03*
G01X132268Y113157D03*
G01X132268Y108077D03*
G54D23*
G01X138000Y53687D03*
G01X138000Y51147D03*
G01X138000Y35288D03*
G01X138000Y32748D03*
G01X126746Y92710D03*
G01X124206Y92710D03*
G01X118999Y92583D03*
G01X116459Y92583D03*
G01X8001Y53687D03*
G01X8001Y51147D03*
G01X8001Y35288D03*
G01X8001Y32748D03*
G54D21*
G01X32689Y156210D03*
G01X32689Y200209D03*
G01X127389Y156210D03*
G01X127389Y200209D03*
G01X130048Y100457D03*
G01X74168Y100457D03*
G01X127389Y135210D03*
G54D13*
G01X69024Y35839D03*
G01X26083Y49484D03*
G01X86720Y30942D03*
G01X68326Y30238D03*
G01X55788Y18277D03*
G01X95737Y126806D03*
G01X5031Y119230D03*
G01X99087Y37180D03*
G01X107337Y27106D03*
G01X74432Y8018D03*
G01X120949Y123962D03*
G01X60220Y41320D03*
G01X108833Y37607D03*
G01X6225Y120126D03*
G01X118320Y35946D03*
G01X57193Y33573D03*
G01X66774Y106827D03*
G01X120713Y105463D03*
G01X57233Y45057D03*
G01X88552Y42382D03*
G01X91135Y104914D03*
G01X112407Y105036D03*
G01X88046Y79354D03*
G01X118826Y45608D03*
G01X56997Y47729D03*
G01X59552Y46357D03*
G01X59552Y42986D03*
G01X54462Y27482D03*
G01X110474Y28039D03*
G01X110807Y106956D03*
G01X114015Y112966D03*
G01X49085Y86573D03*
G01X88635Y43977D03*
G01X90482Y44094D03*
G01X102219Y46992D03*
G01X12499Y123106D03*
G01X96961Y79644D03*
G01X38699Y33281D03*
G01X118950Y81960D03*
G01X116639Y46860D03*
G01X116639Y39847D03*
G01X106362Y47607D03*
G01X119418Y119092D03*
G01X55458Y87543D03*
G01X108458Y92834D03*
G01X54813Y26240D03*
G01X52969Y23497D03*
G01X42961Y26121D03*
G01X86113Y19626D03*
G01X91932Y82014D03*
G01X44810Y46845D03*
G01X132971Y50485D03*
G01X104648Y115506D03*
G01X65384Y111315D03*
G01X58407Y112933D03*
G01X39888Y33789D03*
G01X54091Y88800D03*
G01X93182Y91442D03*
G01X93182Y117314D03*
G01X28089Y33672D03*
G01X32600Y91917D03*
G01X128033Y94236D03*
G01X32176Y112877D03*
G01X15057Y33152D03*
G01X28808Y76547D03*
G01X117276Y74419D03*
G01X110738Y18455D03*
G01X105592Y156776D03*
G01X59349Y79870D03*
G01X106608Y151640D03*
G01X76276Y113583D03*
G01X20949Y130754D03*
G01X57566Y112671D03*
G01X50944Y79684D03*
G01X120500Y75531D03*
G01X48580Y91140D03*
G01X61828Y87005D03*
G01X68158Y115382D03*
G01X49735Y83304D03*
G01X51658Y71343D03*
G01X93921Y52143D03*
G01X52412Y73680D03*
G01X101015Y56649D03*
G01X84274Y118920D03*
G01X90660Y27612D03*
G01X35582Y122527D03*
G01X71716Y91546D03*
G01X21810Y82379D03*
G01X63675Y110269D03*
G01X81206Y108458D03*
G01X93860Y95737D03*
G01X58950Y17858D03*
G01X109969Y77934D03*
G01X57520Y16426D03*
G01X70027Y32372D03*
G01X119039Y8130D03*
G01X128219Y32316D03*
G01X41521Y40386D03*
G01X67840Y69745D03*
G01X65308Y62219D03*
G01X52712Y98625D03*
G01X58072Y96969D03*
G01X55692Y90733D03*
G01X109110Y93543D03*
G01X109110Y119113D03*
G01X106667Y97736D03*
G01X39047Y70835D03*
G01X112829Y65430D03*
G01X100396Y112072D03*
G01X96271Y93177D03*
G01X121716Y74531D03*
G01X65905Y71663D03*
G01X41160Y73357D03*
G01X48011Y53012D03*
G01X76972Y119560D03*
G54D24*
G01X124419Y105116D02*
G01X126119Y105116D01*
G01X124419Y116116D02*
G01X126119Y116116D01*
M00*
M02*
