G04 Layer: BottomLayer*
G04 EasyEDA v6.2.41, 2019-09-02T03:45:47+08:00*
G04 cccedabf26fb4476aab39dafb03c201f,018b6882be54474e8367c410bdd36671,10*
G04 Gerber Generator version 0.2*
G04 Scale: 100 percent, Rotated: No, Reflected: No *
G04 Dimensions in millimeters *
G04 leading zeros omitted , absolute positions ,3 integer and 3 decimal *
%FSLAX33Y33*%
%MOMM*%
G90*
G71D02*

%ADD11C,0.210007*%
%ADD12C,0.250012*%
%ADD13C,0.610006*%
%ADD15C,1.524000*%
%ADD16C,1.999996*%
%ADD17C,1.905000*%
%ADD18C,1.879600*%
%ADD20C,1.409700*%
%ADD21C,3.999992*%
%ADD22C,1.799996*%
%ADD23C,1.651000*%
%ADD24C,2.299995*%

%LPD*%
G54D11*
G01X19685Y59817D02*
G01X22082Y57419D01*
G01X22082Y54068D01*
G01X23764Y52387D01*
G01X37025Y52387D01*
G01X46929Y42486D01*
G01X52979Y42486D01*
G01X58671Y36794D01*
G01X68069Y36794D01*
G01X69024Y35839D01*
G01X114681Y30734D02*
G01X90172Y30734D01*
G01X88313Y28874D01*
G01X73891Y28874D01*
G01X73466Y28453D01*
G01X67939Y28453D01*
G01X66929Y29464D01*
G01X138176Y46736D02*
G01X134762Y43322D01*
G01X133355Y43322D01*
G01X128676Y38643D01*
G01X128676Y34546D01*
G01X127104Y32971D01*
G01X114787Y32971D01*
G01X114612Y33147D01*
G01X66929Y29464D02*
G01X64389Y29464D01*
G01X119888Y88900D02*
G01X123063Y88900D01*
G01X143129Y45466D02*
G01X139446Y45466D01*
G01X138176Y46736D01*
G01X81960Y66667D02*
G01X87594Y61031D01*
G01X113276Y61031D01*
G01X120459Y53848D01*
G01X44759Y40147D02*
G01X44368Y39756D01*
G01X39651Y39756D01*
G01X35090Y44320D01*
G01X31247Y44320D01*
G01X26083Y49484D01*
G01X51262Y40147D02*
G01X50129Y39014D01*
G01X45892Y39014D01*
G01X44759Y40147D01*
G01X86720Y30942D02*
G01X86720Y30942D01*
G01X75148Y30942D01*
G01X73080Y28874D01*
G01X69689Y28874D01*
G01X68326Y30238D01*
G01X51262Y40147D02*
G01X51501Y40147D01*
G01X58425Y33223D01*
G01X63169Y33223D01*
G01X64389Y32004D01*
G01X96961Y25847D02*
G01X95702Y27106D01*
G01X91719Y27106D01*
G01X90459Y25847D01*
G01X11313Y182948D02*
G01X10208Y181843D01*
G01X5913Y181843D01*
G01X4810Y182948D01*
G01X141259Y162857D02*
G01X140139Y163977D01*
G01X135877Y163977D01*
G01X134757Y162857D01*
G01X27500Y98897D02*
G01X26286Y97683D01*
G01X22212Y97683D01*
G01X20998Y98897D01*
G01X27500Y71348D02*
G01X26395Y70243D01*
G01X22103Y70243D01*
G01X20998Y71348D01*
G01X81960Y66667D02*
G01X76639Y66667D01*
G01X75458Y67848D01*
G01X81960Y66667D02*
G01X81960Y67848D01*
G01X126961Y53848D02*
G01X125813Y52699D01*
G01X121607Y52699D01*
G01X120459Y53848D01*
G01X23350Y11049D02*
G01X22143Y12255D01*
G01X18054Y12255D01*
G01X16847Y11049D01*
G01X26322Y57162D02*
G01X30675Y52811D01*
G01X37200Y52811D01*
G01X44782Y45227D01*
G01X55178Y45227D01*
G01X60558Y39847D01*
G01X112059Y25847D02*
G01X111191Y25847D01*
G01X109931Y27106D01*
G01X107337Y27106D01*
G01X37261Y11049D02*
G01X44490Y18277D01*
G01X55788Y18277D01*
G01X30759Y11049D02*
G01X31958Y12247D01*
G01X36062Y12247D01*
G01X37261Y11049D01*
G01X134757Y149616D02*
G01X130167Y149616D01*
G01X111620Y131069D01*
G01X109301Y131069D01*
G01X105089Y126860D01*
G01X95791Y126860D01*
G01X95791Y126860D01*
G01X95737Y126806D01*
G01X141259Y152867D02*
G01X140002Y151610D01*
G01X140002Y148399D01*
G01X138468Y146865D01*
G01X137657Y146865D01*
G01X136649Y147876D01*
G01X136649Y148432D01*
G01X135465Y149616D01*
G01X134757Y149616D01*
G01X134757Y149616D02*
G01X134757Y152867D01*
G01X107337Y27106D02*
G01X106817Y27106D01*
G01X105557Y25847D01*
G01X67061Y39847D02*
G01X68432Y38475D01*
G01X75999Y38475D01*
G01X76763Y39237D01*
G01X76763Y39456D01*
G01X78270Y40962D01*
G01X79367Y40962D01*
G01X79789Y40540D01*
G01X79789Y40027D01*
G01X82090Y37726D01*
G01X90784Y37726D01*
G01X91330Y37180D01*
G01X99087Y37180D01*
G01X40507Y98897D02*
G01X38496Y100909D01*
G01X23352Y100909D01*
G01X5031Y119230D01*
G01X60558Y39847D02*
G01X61681Y40970D01*
G01X65938Y40970D01*
G01X67061Y39847D01*
G01X26322Y57162D02*
G01X23807Y54648D01*
G01X23350Y54648D01*
G01X40507Y71348D02*
G01X26322Y57162D01*
G01X11313Y172857D02*
G01X10144Y171688D01*
G01X5976Y171688D01*
G01X4810Y172857D01*
G01X96961Y67848D02*
G01X95773Y69037D01*
G01X91650Y69037D01*
G01X90459Y67848D01*
G01X60561Y81749D02*
G01X62138Y83327D01*
G01X65486Y83327D01*
G01X67063Y81749D01*
G01X37261Y53500D02*
G01X44858Y45902D01*
G01X55509Y45902D01*
G01X60091Y41320D01*
G01X60220Y41320D01*
G01X51262Y11049D02*
G01X54292Y8018D01*
G01X74432Y8018D01*
G01X37261Y53500D02*
G01X37261Y54648D01*
G01X30759Y54648D02*
G01X31907Y53500D01*
G01X37261Y53500D01*
G01X134757Y142181D02*
G01X131048Y142181D01*
G01X118506Y129639D01*
G01X118506Y126408D01*
G01X120949Y123962D01*
G01X141259Y142867D02*
G01X140091Y141698D01*
G01X135239Y141698D01*
G01X134757Y142181D01*
G01X134757Y142181D02*
G01X134757Y142867D01*
G01X75458Y39847D02*
G01X76997Y41384D01*
G01X80424Y41384D01*
G01X81960Y39847D01*
G01X75458Y39847D02*
G01X73789Y41516D01*
G01X60413Y41516D01*
G01X60220Y41320D01*
G01X108833Y37607D02*
G01X108620Y37823D01*
G01X91287Y37823D01*
G01X90959Y38150D01*
G01X83657Y38150D01*
G01X81960Y39847D01*
G01X118320Y35946D02*
G01X116659Y37607D01*
G01X108833Y37607D01*
G01X51262Y11049D02*
G01X50114Y9900D01*
G01X45907Y9900D01*
G01X44759Y11049D01*
G01X6225Y120126D02*
G01X24998Y101353D01*
G01X57551Y101353D01*
G01X60007Y98897D01*
G01X105557Y67848D02*
G01X106718Y69009D01*
G01X110898Y69009D01*
G01X112059Y67848D01*
G01X11313Y162867D02*
G01X10132Y164045D01*
G01X5989Y164045D01*
G01X4810Y162867D01*
G01X66509Y98897D02*
G01X65305Y100101D01*
G01X61211Y100101D01*
G01X60007Y98897D01*
G01X126961Y25847D02*
G01X125783Y24668D01*
G01X121638Y24668D01*
G01X120459Y25847D01*
G01X66774Y106827D02*
G01X67919Y105681D01*
G01X120492Y105681D01*
G01X120713Y105463D01*
G01X57193Y33573D02*
G01X57889Y32880D01*
G01X57889Y31595D01*
G01X59309Y30175D01*
G01X59309Y29464D01*
G01X88552Y42382D02*
G01X88539Y42395D01*
G01X61541Y42395D01*
G01X58879Y45057D01*
G01X57233Y45057D01*
G01X91135Y104914D02*
G01X112283Y104914D01*
G01X112407Y105036D01*
G01X90459Y39847D02*
G01X89080Y39847D01*
G01X86956Y41973D01*
G01X60568Y41973D01*
G01X59552Y42986D01*
G01X81960Y81747D02*
G01X84353Y79354D01*
G01X88046Y79354D01*
G01X75458Y81747D02*
G01X76603Y82892D01*
G01X80815Y82892D01*
G01X81960Y81747D01*
G01X118826Y45608D02*
G01X118696Y45737D01*
G01X102852Y45737D01*
G01X96961Y39847D01*
G01X23350Y26642D02*
G01X23936Y27226D01*
G01X37566Y27226D01*
G01X41663Y23129D01*
G01X52412Y23129D01*
G01X62938Y12606D01*
G01X65303Y12606D01*
G01X67061Y10848D01*
G01X56997Y47729D02*
G01X56997Y48912D01*
G01X51262Y54648D01*
G01X56997Y47729D02*
G01X58181Y47729D01*
G01X59552Y46357D01*
G01X79509Y98897D02*
G01X74922Y103484D01*
G01X66131Y103484D01*
G01X62103Y107513D01*
G01X62103Y108097D01*
G01X60515Y109684D01*
G01X45209Y109684D01*
G01X43743Y111150D01*
G01X29197Y111150D01*
G01X27500Y112847D01*
G01X96961Y39847D02*
G01X95425Y38310D01*
G01X91996Y38310D01*
G01X90459Y39847D01*
G01X16847Y25547D02*
G01X17990Y26690D01*
G01X23301Y26690D01*
G01X23350Y26642D01*
G01X23350Y26642D02*
G01X23350Y25547D01*
G01X86012Y98897D02*
G01X84752Y100157D01*
G01X80769Y100157D01*
G01X79509Y98897D01*
G01X20998Y112847D02*
G01X22181Y114030D01*
G01X26316Y114030D01*
G01X27500Y112847D01*
G01X11313Y152867D02*
G01X10091Y154089D01*
G01X6029Y154089D01*
G01X4810Y152867D01*
G01X126961Y67848D02*
G01X125857Y66743D01*
G01X121564Y66743D01*
G01X120459Y67848D01*
G01X110474Y28039D02*
G01X110274Y28239D01*
G01X90408Y28239D01*
G01X89697Y27528D01*
G01X74338Y27528D01*
G01X73992Y27183D01*
G01X54759Y27183D01*
G01X54462Y27482D01*
G01X114015Y112966D02*
G01X114015Y108999D01*
G01X111973Y106956D01*
G01X110807Y106956D01*
G01X51689Y32004D02*
G01X50419Y30734D01*
G01X43675Y30734D01*
G01X42799Y31610D01*
G01X42799Y32443D01*
G01X42158Y33083D01*
G01X38900Y33083D01*
G01X38699Y33281D01*
G01X90459Y81747D02*
G01X85829Y86377D01*
G01X49281Y86377D01*
G01X49085Y86573D01*
G01X99009Y98897D02*
G01X100205Y100093D01*
G01X104315Y100093D01*
G01X105511Y98897D01*
G01X96961Y79644D02*
G01X92562Y79644D01*
G01X90459Y81747D01*
G01X37261Y25547D02*
G01X40101Y22707D01*
G01X52240Y22707D01*
G01X62877Y12070D01*
G01X64495Y12070D01*
G01X65323Y11242D01*
G01X65323Y10530D01*
G01X66357Y9494D01*
G01X74107Y9494D01*
G01X75458Y10848D01*
G01X81960Y10848D02*
G01X80812Y9700D01*
G01X76606Y9700D01*
G01X75458Y10848D01*
G01X67061Y53848D02*
G01X70324Y50584D01*
G01X76098Y50584D01*
G01X77350Y49331D01*
G01X77350Y48750D01*
G01X82120Y43977D01*
G01X88635Y43977D01*
G01X102219Y46992D02*
G01X93380Y46992D01*
G01X90482Y44094D01*
G01X112059Y39847D02*
G01X110843Y41064D01*
G01X106773Y41064D01*
G01X105557Y39847D01*
G01X40507Y112847D02*
G01X39865Y112204D01*
G01X31955Y112204D01*
G01X29705Y114454D01*
G01X21150Y114454D01*
G01X12499Y123106D01*
G01X47010Y112847D02*
G01X45778Y114079D01*
G01X41739Y114079D01*
G01X40507Y112847D01*
G01X11313Y142867D02*
G01X10144Y141698D01*
G01X5976Y141698D01*
G01X4810Y142867D01*
G01X30759Y25547D02*
G01X31960Y26746D01*
G01X36062Y26746D01*
G01X37261Y25547D01*
G01X119418Y119092D02*
G01X111287Y119092D01*
G01X108356Y116161D01*
G01X71020Y116161D01*
G01X67706Y112847D01*
G01X66509Y112847D01*
G01X112059Y81960D02*
G01X112059Y81747D01*
G01X105557Y81747D02*
G01X106692Y82882D01*
G01X111140Y82882D01*
G01X112059Y81960D01*
G01X112059Y81960D02*
G01X118950Y81960D01*
G01X106362Y47607D02*
G01X107109Y46860D01*
G01X116639Y46860D01*
G01X116639Y39847D02*
G01X120459Y39847D01*
G01X81960Y53848D02*
G01X84785Y51023D01*
G01X102082Y51023D01*
G01X105501Y47607D01*
G01X106362Y47607D01*
G01X90459Y10848D02*
G01X85572Y10848D01*
G01X77449Y18971D01*
G01X58376Y18971D01*
G01X51800Y25547D01*
G01X51262Y25547D01*
G01X66509Y112847D02*
G01X65971Y112847D01*
G01X64742Y111617D01*
G01X61236Y111617D01*
G01X60007Y112847D01*
G01X75458Y53848D02*
G01X76710Y55100D01*
G01X80708Y55100D01*
G01X81960Y53848D01*
G01X44759Y25547D02*
G01X45907Y24399D01*
G01X50114Y24399D01*
G01X51262Y25547D01*
G01X141259Y192846D02*
G01X140154Y191742D01*
G01X135862Y191742D01*
G01X134757Y192846D01*
G01X126961Y39847D02*
G01X125813Y38699D01*
G01X121607Y38699D01*
G01X120459Y39847D01*
G01X124917Y100431D02*
G01X123708Y101640D01*
G01X119623Y101640D01*
G01X118414Y100431D01*
G01X96961Y10848D02*
G01X95839Y11971D01*
G01X91582Y11971D01*
G01X90459Y10848D01*
G01X108458Y92834D02*
G01X104427Y88803D01*
G01X56715Y88803D01*
G01X55458Y87543D01*
G01X23350Y40147D02*
G01X23799Y40147D01*
G01X30025Y33921D01*
G01X37609Y33921D01*
G01X38115Y34424D01*
G01X41648Y34424D01*
G01X44069Y32004D01*
G01X86113Y19626D02*
G01X86664Y19077D01*
G01X111125Y19077D01*
G01X111363Y18839D01*
G01X111363Y12451D01*
G01X110909Y11998D01*
G01X67061Y25847D02*
G01X68760Y24147D01*
G01X81594Y24147D01*
G01X86113Y19626D01*
G01X91932Y82014D02*
G01X93243Y83322D01*
G01X118884Y83322D01*
G01X120459Y81747D01*
G01X42961Y26121D02*
G01X42961Y25427D01*
G01X44414Y23975D01*
G01X52494Y23975D01*
G01X52969Y23497D01*
G01X54813Y26240D02*
G01X60164Y26240D01*
G01X60558Y25847D01*
G01X67061Y25847D02*
G01X65968Y24754D01*
G01X61650Y24754D01*
G01X60558Y25847D01*
G01X110909Y11998D02*
G01X106707Y11998D01*
G01X105557Y10848D01*
G01X112059Y10848D02*
G01X110909Y11998D01*
G01X79509Y112847D02*
G01X80751Y114089D01*
G01X84769Y114089D01*
G01X86012Y112847D01*
G01X141259Y182948D02*
G01X140154Y181843D01*
G01X135862Y181843D01*
G01X134757Y182948D01*
G01X20998Y84848D02*
G01X22217Y86067D01*
G01X26281Y86067D01*
G01X27500Y84848D01*
G01X126961Y81747D02*
G01X125846Y80632D01*
G01X121574Y80632D01*
G01X120459Y81747D01*
G01X96961Y53848D02*
G01X95839Y54970D01*
G01X91582Y54970D01*
G01X90459Y53848D01*
G01X132971Y50485D02*
G01X128719Y46230D01*
G01X101457Y46230D01*
G01X94935Y39707D01*
G01X94935Y39408D01*
G01X94259Y38732D01*
G01X93088Y38732D01*
G01X91965Y39855D01*
G01X91965Y40152D01*
G01X89115Y43004D01*
G01X61625Y43004D01*
G01X57785Y46845D01*
G01X44810Y46845D01*
G01X104648Y115506D02*
G01X76568Y115506D01*
G01X72374Y111315D01*
G01X65384Y111315D01*
G01X100838Y120777D02*
G01X96746Y116685D01*
G01X70944Y116685D01*
G01X68516Y114254D01*
G01X59636Y114254D01*
G01X58407Y113027D01*
G01X58407Y112933D01*
G01X93182Y91442D02*
G01X91163Y89425D01*
G01X54716Y89425D01*
G01X54091Y88800D01*
G01X97155Y120777D02*
G01X93692Y117314D01*
G01X93182Y117314D01*
G01X36449Y29464D02*
G01X35179Y30734D01*
G01X35179Y32324D01*
G01X36144Y33289D01*
G01X37790Y33289D01*
G01X38501Y34002D01*
G01X39674Y34002D01*
G01X39888Y33789D01*
G01X32600Y91917D02*
G01X32867Y92186D01*
G01X77487Y92186D01*
G01X77609Y92064D01*
G01X92171Y92064D01*
G01X92595Y92489D01*
G01X105531Y92489D01*
G01X107218Y94175D01*
G01X127972Y94175D01*
G01X128033Y94236D01*
G01X28089Y33672D02*
G01X27691Y33276D01*
G01X27691Y30601D01*
G01X28829Y29464D01*
G01X93218Y120777D02*
G01X90827Y123167D01*
G01X29690Y123167D01*
G01X27940Y121417D01*
G01X27940Y117114D01*
G01X32176Y112877D01*
G01X117276Y74419D02*
G01X117165Y74307D01*
G01X53152Y74307D01*
G01X50911Y76547D01*
G01X28808Y76547D01*
G01X21209Y32004D02*
G01X20129Y33083D01*
G01X15128Y33083D01*
G01X15057Y33152D01*
G01X21209Y29464D02*
G01X23022Y27650D01*
G01X38079Y27650D01*
G01X38869Y26860D01*
G01X50192Y26860D01*
G01X50558Y27226D01*
G01X52245Y27226D01*
G01X55778Y23695D01*
G01X67175Y23695D01*
G01X71407Y19464D01*
G01X81346Y19464D01*
G01X82354Y18455D01*
G01X110738Y18455D01*
G01X60558Y67848D02*
G01X62283Y69573D01*
G01X65336Y69573D01*
G01X67061Y67848D01*
G01X67061Y67848D02*
G01X78882Y56027D01*
G01X103378Y56027D01*
G01X105557Y53848D01*
G01X105511Y112847D02*
G01X104114Y111450D01*
G01X100136Y111450D01*
G01X99009Y112577D01*
G01X99009Y112847D01*
G01X47010Y84848D02*
G01X54371Y84848D01*
G01X59349Y79870D01*
G01X5913Y191742D02*
G01X4810Y192846D01*
G01X11313Y192846D02*
G01X10208Y191742D01*
G01X5913Y191742D01*
G01X105592Y156776D02*
G01X55872Y156776D01*
G01X26200Y186448D01*
G01X4892Y186448D01*
G01X3439Y187901D01*
G01X3439Y189265D01*
G01X5913Y191742D01*
G01X81960Y24665D02*
G01X87124Y19499D01*
G01X111808Y19499D01*
G01X120459Y10848D01*
G01X134757Y172857D02*
G01X113540Y151640D01*
G01X106608Y151640D01*
G01X141259Y172857D02*
G01X140091Y171688D01*
G01X135925Y171688D01*
G01X134757Y172857D01*
G01X47010Y84848D02*
G01X45923Y83761D01*
G01X41595Y83761D01*
G01X40507Y84848D01*
G01X112059Y53848D02*
G01X110825Y55082D01*
G01X106791Y55082D01*
G01X105557Y53848D01*
G01X81960Y24665D02*
G01X76639Y24665D01*
G01X75458Y25847D01*
G01X81960Y25847D02*
G01X81960Y24665D01*
G01X126961Y10848D02*
G01X125813Y9700D01*
G01X121607Y9700D01*
G01X120459Y10848D01*
G01X37261Y40147D02*
G01X36037Y41371D01*
G01X31983Y41371D01*
G01X30759Y40147D01*
G54D12*
G01X76276Y113583D02*
G01X78427Y111432D01*
G01X81046Y111432D01*
G01X86314Y106164D01*
G01X121046Y106164D01*
G01X127340Y99870D01*
G01X127340Y99646D01*
G01X137922Y89062D01*
G01X137922Y80772D01*
G01X18973Y128524D02*
G01X18973Y128778D01*
G01X20949Y130754D01*
G01X29210Y128524D02*
G01X31750Y128524D01*
G01X26670Y128524D02*
G01X29210Y128524D01*
G01X4241Y120650D02*
G01X12115Y128524D01*
G01X16510Y128524D01*
G01X18973Y128524D02*
G01X16510Y128524D01*
G01X34290Y128524D02*
G01X36703Y128524D01*
G01X36830Y128397D01*
G01X31750Y128524D02*
G01X34290Y128524D01*
G01X44450Y128397D02*
G01X46990Y128397D01*
G01X41910Y128397D02*
G01X44450Y128397D01*
G01X41910Y128397D02*
G01X39370Y128397D01*
G01X49530Y128397D02*
G01X46990Y128397D01*
G01X52070Y128397D02*
G01X49530Y128397D01*
G01X36830Y128397D02*
G01X39370Y128397D01*
G01X24130Y128524D02*
G01X26670Y128524D01*
G01X21590Y128524D02*
G01X24130Y128524D01*
G01X54610Y128397D02*
G01X52070Y128397D01*
G01X57023Y128397D02*
G01X54610Y128397D01*
G01X59690Y128397D02*
G01X57023Y128397D01*
G01X62230Y128397D02*
G01X59690Y128397D01*
G01X64643Y128397D02*
G01X62230Y128397D01*
G01X67310Y128397D02*
G01X64643Y128397D01*
G01X69723Y128397D02*
G01X67310Y128397D01*
G54D11*
G01X57566Y112671D02*
G01X57566Y112971D01*
G01X59316Y114721D01*
G01X68384Y114721D01*
G01X70820Y117157D01*
G01X91432Y117157D01*
G01X94640Y120365D01*
G01X94640Y126974D01*
G01X93218Y128397D01*
G01X44759Y35626D02*
G01X46230Y34155D01*
G01X49791Y34155D01*
G01X51262Y35626D01*
G01X37261Y50126D02*
G01X35836Y48701D01*
G01X32184Y48701D01*
G01X30759Y50126D01*
G01X37261Y35626D02*
G01X36461Y36426D01*
G01X31559Y36426D01*
G01X30759Y35626D01*
G01X44759Y35626D02*
G01X37261Y35626D01*
G01X23350Y50126D02*
G01X21897Y48674D01*
G01X18300Y48674D01*
G01X16847Y50126D01*
G01X30759Y50126D02*
G01X23350Y50126D01*
G01X51262Y50126D02*
G01X50342Y51046D01*
G01X45679Y51046D01*
G01X44759Y50126D01*
G01X120500Y75531D02*
G01X120281Y75750D01*
G01X113489Y75750D01*
G01X113042Y75303D01*
G01X55326Y75303D01*
G01X50944Y79684D01*
G01X61828Y87005D02*
G01X61744Y86921D01*
G01X52798Y86921D01*
G01X48580Y91140D01*
G01X44450Y120777D02*
G01X48732Y116494D01*
G01X67045Y116494D01*
G01X68158Y115382D01*
G01X108808Y76946D02*
G01X106809Y78945D01*
G01X92664Y78945D01*
G01X91630Y79979D01*
G01X87850Y79979D01*
G01X84503Y83327D01*
G01X71432Y83327D01*
G01X68595Y80490D01*
G01X66426Y80490D01*
G01X65021Y81894D01*
G01X65021Y82113D01*
G01X64231Y82903D01*
G01X63383Y82903D01*
G01X61866Y81386D01*
G01X61866Y81193D01*
G01X59918Y79242D01*
G01X59032Y79242D01*
G01X54970Y83304D01*
G01X49735Y83304D01*
G01X93921Y52143D02*
G01X85531Y52143D01*
G01X82151Y55521D01*
G01X77609Y55521D01*
G01X65272Y67858D01*
G01X65272Y68181D01*
G01X64305Y69148D01*
G01X63339Y69148D01*
G01X62296Y68107D01*
G01X62296Y67663D01*
G01X61206Y66570D01*
G01X56431Y66570D01*
G01X51658Y71343D01*
G01X52412Y73680D02*
G01X63007Y73680D01*
G01X80037Y56649D01*
G01X101015Y56649D01*
G01X59690Y120777D02*
G01X61546Y118920D01*
G01X84274Y118920D01*
G01X123710Y21046D02*
G01X122664Y19999D01*
G01X119895Y19999D01*
G01X112529Y27368D01*
G01X110266Y27368D01*
G01X109893Y27741D01*
G01X90789Y27741D01*
G01X90660Y27612D01*
G01X69723Y120777D02*
G01X67972Y122527D01*
G01X35582Y122527D01*
G01X21810Y82379D02*
G01X30718Y82379D01*
G01X40104Y91762D01*
G01X71501Y91762D01*
G01X71716Y91546D01*
G54D12*
G01X82760Y98922D02*
G01X85945Y95737D01*
G01X93860Y95737D01*
G01X81206Y108458D02*
G01X81206Y108625D01*
G01X79707Y110124D01*
G01X63820Y110124D01*
G01X63675Y110269D01*
G01X48011Y11074D02*
G01X53362Y16426D01*
G01X57520Y16426D01*
G01X19651Y80010D02*
G01X19651Y79756D01*
G01X25372Y74035D01*
G01X41442Y74035D01*
G01X43759Y71719D01*
G01X43759Y71374D01*
G01X78709Y10873D02*
G01X71724Y17858D01*
G01X58950Y17858D01*
G01X19651Y80010D02*
G01X19651Y81183D01*
G01X23342Y84874D01*
G01X24249Y84874D01*
G01X19651Y80010D02*
G01X9512Y80010D01*
G01X43759Y71374D02*
G01X44681Y71374D01*
G01X54485Y61567D01*
G01X93710Y81772D02*
G01X95148Y80335D01*
G01X107571Y80335D01*
G01X109969Y77934D01*
G01X78709Y52329D02*
G01X78709Y50718D01*
G01X82842Y46586D01*
G01X86997Y46586D01*
G01X93710Y39872D01*
G01X62611Y65879D02*
G01X74033Y54457D01*
G01X74033Y53291D01*
G01X74996Y52329D01*
G01X78709Y52329D01*
G01X63809Y67873D02*
G01X62611Y66675D01*
G01X62611Y65879D01*
G01X62611Y65879D02*
G01X58798Y65879D01*
G01X54485Y61567D01*
G01X54485Y61567D02*
G01X54485Y61147D01*
G01X48011Y54673D01*
G01X8432Y80010D02*
G01X9512Y80010D01*
G01X123710Y53873D02*
G01X123426Y53873D01*
G01X109425Y67873D01*
G01X108808Y67873D01*
G01X78709Y53873D02*
G01X78709Y52329D01*
G01X123710Y10873D02*
G01X123710Y11605D01*
G01X109443Y25872D01*
G01X108808Y25872D01*
G54D11*
G01X123710Y39872D02*
G01X124978Y41140D01*
G01X127601Y41140D01*
G01X128247Y40497D01*
G01X128247Y34714D01*
G01X126949Y33416D01*
G01X119390Y33416D01*
G01X118579Y34226D01*
G01X113317Y34226D01*
G01X111930Y32839D01*
G01X70492Y32839D01*
G01X70027Y32372D01*
G01X63809Y6047D02*
G01X65504Y4353D01*
G01X115262Y4353D01*
G01X119039Y8130D01*
G01X128219Y32316D02*
G01X127878Y31976D01*
G01X112430Y31976D01*
G01X112036Y32369D01*
G01X70904Y32369D01*
G01X69418Y30883D01*
G01X66050Y30883D01*
G01X65468Y31465D01*
G01X65468Y32456D01*
G01X64279Y33644D01*
G01X59550Y33644D01*
G01X51714Y41480D01*
G01X42616Y41480D01*
G01X41521Y40386D01*
G01X120459Y6327D02*
G01X118064Y3931D01*
G01X53858Y3931D01*
G01X51262Y6527D01*
G01X126961Y6327D02*
G01X125529Y4894D01*
G01X121892Y4894D01*
G01X120459Y6327D01*
G01X51262Y6527D02*
G01X49898Y5163D01*
G01X46123Y5163D01*
G01X44759Y6527D01*
G01X23350Y6527D02*
G01X22550Y7327D01*
G01X17647Y7327D01*
G01X16847Y6527D01*
G01X30759Y6527D02*
G01X23350Y6527D01*
G01X37261Y6527D02*
G01X35897Y5163D01*
G01X32123Y5163D01*
G01X30759Y6527D01*
G01X44759Y6527D02*
G01X37261Y6527D01*
G01X23350Y21026D02*
G01X22550Y21826D01*
G01X17647Y21826D01*
G01X16847Y21026D01*
G01X30759Y21026D02*
G01X23350Y21026D01*
G01X37261Y21026D02*
G01X35806Y19570D01*
G01X32214Y19570D01*
G01X30759Y21026D01*
G01X44759Y21026D02*
G01X37261Y21026D01*
G01X51262Y21026D02*
G01X49819Y19583D01*
G01X46202Y19583D01*
G01X44759Y21026D01*
G01X75458Y35326D02*
G01X75349Y35217D01*
G01X67170Y35217D01*
G01X67061Y35326D01*
G01X112059Y35326D02*
G01X112120Y35265D01*
G01X120398Y35265D01*
G01X120459Y35326D01*
G01X120459Y49326D02*
G01X121851Y47934D01*
G01X125569Y47934D01*
G01X126961Y49326D01*
G01X90459Y35326D02*
G01X91869Y33916D01*
G01X95552Y33916D01*
G01X96961Y35326D01*
G01X81960Y35326D02*
G01X90459Y35326D01*
G01X120459Y35326D02*
G01X121851Y33934D01*
G01X125569Y33934D01*
G01X126961Y35326D01*
G01X112059Y49326D02*
G01X110677Y47945D01*
G01X106939Y47945D01*
G01X105557Y49326D01*
G01X120459Y49326D02*
G01X112059Y49326D01*
G01X75458Y35326D02*
G01X76890Y33893D01*
G01X80528Y33893D01*
G01X81960Y35326D01*
G01X67061Y35326D02*
G01X66260Y36126D01*
G01X61358Y36126D01*
G01X60558Y35326D01*
G01X105557Y35326D02*
G01X106400Y36169D01*
G01X111216Y36169D01*
G01X112059Y35326D01*
G01X96961Y35326D02*
G01X105557Y35326D01*
G01X67061Y21325D02*
G01X65618Y19883D01*
G01X62001Y19883D01*
G01X60558Y21325D01*
G01X102260Y94096D02*
G01X101066Y94096D01*
G01X90530Y104632D01*
G01X68087Y104632D01*
G01X66151Y106568D01*
G01X66151Y106685D01*
G01X62308Y110530D01*
G01X57988Y110530D01*
G01X53975Y114543D01*
G01X40650Y114543D01*
G01X34290Y120904D01*
G01X82760Y112872D02*
G01X84625Y111008D01*
G01X99298Y111008D01*
G01X102260Y108046D01*
G01X121666Y100457D02*
G01X122694Y100457D01*
G01X132102Y91048D01*
G01X132102Y80573D01*
G01X126682Y75153D01*
G01X121003Y75153D01*
G01X120759Y74909D01*
G01X120243Y74909D01*
G01X119997Y75153D01*
G01X113703Y75153D01*
G01X113281Y74731D01*
G01X55031Y74731D01*
G01X50901Y78861D01*
G01X38475Y78861D01*
G01X35753Y81584D01*
G01X25786Y81584D01*
G01X24249Y80048D01*
G01X123710Y67873D02*
G01X121838Y69745D01*
G01X67840Y69745D01*
G01X63809Y49047D02*
G01X62661Y50195D01*
G01X62661Y59573D01*
G01X65308Y62219D01*
G01X58072Y96969D02*
G01X56418Y98625D01*
G01X52712Y98625D01*
G01X55692Y90733D02*
G01X91440Y90733D01*
G01X92770Y92064D01*
G01X106151Y92064D01*
G01X107629Y93543D01*
G01X109110Y93543D01*
G01X112268Y120777D02*
G01X110606Y119113D01*
G01X109110Y119113D01*
G01X4572Y24257D02*
G01X10513Y24257D01*
G01X17010Y30754D01*
G01X25039Y30754D01*
G01X26289Y32004D01*
G01X118414Y95910D02*
G01X119334Y96827D01*
G01X124000Y96827D01*
G01X124917Y95910D01*
G01X116078Y128397D02*
G01X116078Y127896D01*
G01X121203Y122770D01*
G01X121203Y120002D01*
G01X119222Y118018D01*
G01X113068Y118018D01*
G01X105511Y110462D01*
G01X105511Y108325D01*
G01X106667Y97736D02*
G01X116588Y97736D01*
G01X118414Y95910D01*
G01X105511Y94376D02*
G01X104112Y92976D01*
G01X100408Y92976D01*
G01X99009Y94376D01*
G01X79509Y94376D02*
G01X80926Y92958D01*
G01X84594Y92958D01*
G01X86012Y94376D01*
G01X79509Y94376D02*
G01X66509Y94376D01*
G01X27500Y94376D02*
G01X26078Y92953D01*
G01X22420Y92953D01*
G01X20998Y94376D01*
G01X40507Y94376D02*
G01X27500Y94376D01*
G01X47010Y94376D02*
G01X45651Y93017D01*
G01X41866Y93017D01*
G01X40507Y94376D01*
G01X60007Y94376D02*
G01X47010Y94376D01*
G01X99009Y94376D02*
G01X86012Y94376D01*
G01X27500Y80327D02*
G01X26042Y78867D01*
G01X22458Y78867D01*
G01X20998Y80327D01*
G01X119888Y128397D02*
G01X124968Y123317D01*
G01X124968Y120129D01*
G01X123078Y118239D01*
G01X120398Y118239D01*
G01X119755Y117596D01*
G01X113243Y117596D01*
G01X108765Y113118D01*
G01X108765Y109801D01*
G01X105785Y106822D01*
G01X87515Y106822D01*
G01X86012Y108325D01*
G01X47010Y108325D02*
G01X60007Y108325D01*
G01X119888Y128397D02*
G01X123769Y132278D01*
G01X128689Y132278D01*
G01X134757Y138346D01*
G01X141259Y138346D02*
G01X140337Y139268D01*
G01X135679Y139268D01*
G01X134757Y138346D01*
G01X141259Y168335D02*
G01X140337Y169257D01*
G01X135679Y169257D01*
G01X134757Y168335D01*
G01X141259Y148346D02*
G01X139354Y146441D01*
G01X136662Y146441D01*
G01X134757Y148346D01*
G01X27500Y108325D02*
G01X26700Y109126D01*
G01X21798Y109126D01*
G01X20998Y108325D01*
G01X40507Y108325D02*
G01X27500Y108325D01*
G01X47010Y108325D02*
G01X45648Y106964D01*
G01X41869Y106964D01*
G01X40507Y108325D01*
G01X79509Y108325D02*
G01X66509Y108325D01*
G01X60561Y77228D02*
G01X61970Y75819D01*
G01X65656Y75819D01*
G01X67063Y77228D01*
G01X60561Y77228D02*
G01X58247Y77228D01*
G01X55148Y80327D01*
G01X47010Y80327D01*
G01X120459Y77226D02*
G01X121902Y75783D01*
G01X125519Y75783D01*
G01X126961Y77226D01*
G01X39047Y70835D02*
G01X35039Y66827D01*
G01X27500Y66827D01*
G01X47010Y80327D02*
G01X46177Y81160D01*
G01X41341Y81160D01*
G01X40507Y80327D01*
G01X20998Y66827D02*
G01X21798Y67627D01*
G01X26700Y67627D01*
G01X27500Y66827D01*
G01X40507Y66827D02*
G01X41960Y65374D01*
G01X45557Y65374D01*
G01X47010Y66827D01*
G01X75458Y77226D02*
G01X67066Y77226D01*
G01X67063Y77228D01*
G01X81960Y77226D02*
G01X80472Y75737D01*
G01X76946Y75737D01*
G01X75458Y77226D01*
G01X90459Y77226D02*
G01X81960Y77226D01*
G01X96961Y77226D02*
G01X95468Y75732D01*
G01X91953Y75732D01*
G01X90459Y77226D01*
G01X105557Y77226D02*
G01X96961Y77226D01*
G01X112059Y77226D02*
G01X110695Y75862D01*
G01X106921Y75862D01*
G01X105557Y77226D01*
G01X120459Y77226D02*
G01X112059Y77226D01*
G01X120459Y63327D02*
G01X114932Y63327D01*
G01X112829Y65430D01*
G01X120459Y63327D02*
G01X121879Y61907D01*
G01X125542Y61907D01*
G01X126961Y63327D01*
G01X81960Y63327D02*
G01X80563Y61930D01*
G01X76855Y61930D01*
G01X75458Y63327D01*
G01X96961Y61836D02*
G01X91950Y61836D01*
G01X90459Y63327D01*
G01X112059Y63327D02*
G01X110223Y61490D01*
G01X97307Y61490D01*
G01X96961Y61836D01*
G01X96961Y61836D02*
G01X96961Y63327D01*
G01X112059Y63327D02*
G01X111226Y64160D01*
G01X106390Y64160D01*
G01X105557Y63327D01*
G01X67061Y49326D02*
G01X65582Y47848D01*
G01X62036Y47848D01*
G01X60558Y49326D01*
G01X75458Y49326D02*
G01X67061Y49326D01*
G01X90459Y49326D02*
G01X81960Y49326D01*
G01X96961Y49326D02*
G01X95432Y47797D01*
G01X91988Y47797D01*
G01X90459Y49326D01*
G01X24130Y120904D02*
G01X27053Y123827D01*
G01X67099Y123827D01*
G01X71056Y127782D01*
G01X71056Y128920D01*
G01X73840Y131704D01*
G01X111655Y131704D01*
G01X138008Y158056D01*
G01X137330Y119717D02*
G01X135425Y117815D01*
G01X120573Y117815D01*
G01X119931Y117172D01*
G01X113418Y117172D01*
G01X110157Y113911D01*
G01X110157Y112067D01*
G01X111302Y110921D01*
G01X142113Y114935D02*
G01X137330Y119717D01*
G01X137330Y119717D02*
G01X137330Y121582D01*
G01X138303Y122555D01*
G01X21590Y120904D02*
G01X20269Y122224D01*
G01X20269Y129131D01*
G01X44985Y153847D01*
G01X103809Y153847D01*
G01X138008Y188046D01*
G01X24249Y94096D02*
G01X25816Y95664D01*
G01X60586Y95664D01*
G01X62103Y94147D01*
G01X62103Y93581D01*
G01X62938Y92745D01*
G01X77622Y92745D01*
G01X77881Y92489D01*
G01X91996Y92489D01*
G01X92684Y93177D01*
G01X96271Y93177D01*
G01X100396Y112072D02*
G01X101196Y112872D01*
G01X102260Y112872D01*
G01X78709Y76946D02*
G01X76166Y79489D01*
G01X66098Y79489D01*
G01X63812Y81775D01*
G01X121716Y74531D02*
G01X118846Y71663D01*
G01X65905Y71663D01*
G01X18669Y32004D02*
G01X18229Y32443D01*
G01X12974Y32443D01*
G01X12049Y31518D01*
G01X7368Y31518D01*
G01X2565Y36322D01*
G01X1397Y36322D01*
G01X133807Y26543D02*
G01X131264Y29085D01*
G01X90058Y29085D01*
G01X89347Y28374D01*
G01X73987Y28374D01*
G01X73642Y28028D01*
G01X63284Y28028D01*
G01X61849Y29464D01*
G01X111302Y113512D02*
G01X111379Y113588D01*
G01X114797Y113588D01*
G01X117769Y110617D01*
G01X44069Y29464D02*
G01X44234Y29464D01*
G01X45313Y28384D01*
G01X50609Y28384D01*
G01X51689Y29464D01*
G01X140782Y34671D02*
G01X140782Y33515D01*
G01X133807Y26543D01*
G01X51689Y29464D02*
G01X53139Y30914D01*
G01X55679Y30914D01*
G01X56769Y32004D01*
G01X133604Y42037D02*
G01X133604Y41846D01*
G01X140782Y34671D01*
G01X133604Y44577D02*
G01X115760Y44577D01*
G01X114681Y44577D02*
G01X115760Y44577D01*
G01X137718Y56388D02*
G01X133604Y52273D01*
G01X133604Y44577D01*
G01X61849Y29464D02*
G01X60761Y28374D01*
G01X58872Y28374D01*
G01X58039Y29207D01*
G01X58039Y30734D01*
G01X56769Y32004D01*
G01X44069Y29464D02*
G01X42905Y30627D01*
G01X37825Y30627D01*
G01X36449Y32004D01*
G01X26289Y29464D02*
G01X27487Y28265D01*
G01X30170Y28265D01*
G01X31369Y29464D01*
G01X143129Y34671D02*
G01X140782Y34671D01*
G01X117769Y110617D02*
G01X121742Y106644D01*
G01X130837Y106644D01*
G01X132267Y108077D01*
G01X132267Y108077D02*
G01X138303Y114112D01*
G01X138303Y114935D01*
G01X8128Y48006D02*
G01X13975Y42158D01*
G01X13975Y40871D01*
G01X18872Y35974D01*
G01X18872Y34907D01*
G01X19558Y34221D01*
G01X20556Y34221D01*
G01X20678Y34340D01*
G01X29006Y34340D01*
G01X31346Y32004D01*
G01X31369Y32004D01*
G01X143129Y24257D02*
G01X132844Y24257D01*
G01X128437Y28661D01*
G01X90233Y28661D01*
G01X89522Y27952D01*
G01X74162Y27952D01*
G01X73817Y27607D01*
G01X55217Y27607D01*
G01X54719Y28105D01*
G01X54203Y28105D01*
G01X54053Y27952D01*
G01X50688Y27952D01*
G01X50027Y27294D01*
G01X39034Y27294D01*
G01X38084Y28242D01*
G01X33525Y28242D01*
G01X32639Y29128D01*
G01X32639Y29875D01*
G01X31970Y30543D01*
G01X30289Y30543D01*
G01X28829Y32004D01*
G01X1397Y76200D02*
G01X1397Y50896D01*
G01X10086Y42204D01*
G01X10086Y40441D01*
G01X17023Y33507D01*
G01X22245Y33507D01*
G01X23749Y32004D01*
G01X134757Y188325D02*
G01X132735Y190347D01*
G01X13332Y190347D01*
G01X11313Y188325D01*
G01X141259Y188325D02*
G01X140459Y189125D01*
G01X135557Y189125D01*
G01X134757Y188325D01*
G01X4810Y178427D02*
G01X5610Y179227D01*
G01X10513Y179227D01*
G01X11313Y178427D01*
G01X11313Y188325D02*
G01X10513Y189125D01*
G01X5610Y189125D01*
G01X4810Y188325D01*
G01X11313Y168335D02*
G01X10391Y169257D01*
G01X5730Y169257D01*
G01X4810Y168335D01*
G01X11313Y148346D02*
G01X9829Y146865D01*
G01X6291Y146865D01*
G01X4810Y148346D01*
G01X11313Y138346D02*
G01X10391Y139268D01*
G01X5730Y139268D01*
G01X4810Y138346D01*
G01X141259Y178427D02*
G01X140459Y179227D01*
G01X135557Y179227D01*
G01X134757Y178427D01*
G01X105557Y19923D02*
G01X110657Y19923D01*
G01X112059Y21325D01*
G01X90459Y21325D02*
G01X91861Y19923D01*
G01X105557Y19923D01*
G01X105557Y19923D02*
G01X105557Y21325D01*
G01X81960Y21325D02*
G01X81160Y22125D01*
G01X76258Y22125D01*
G01X75458Y21325D01*
G01X105557Y21325D02*
G01X96961Y21325D01*
G01X126961Y21325D02*
G01X126088Y22199D01*
G01X121333Y22199D01*
G01X120459Y21325D01*
G01X67061Y6327D02*
G01X66260Y7127D01*
G01X61358Y7127D01*
G01X60558Y6327D01*
G01X75458Y6327D02*
G01X67061Y6327D01*
G01X81960Y6327D02*
G01X80528Y4894D01*
G01X76890Y4894D01*
G01X75458Y6327D01*
G01X90459Y6327D02*
G01X81960Y6327D01*
G01X96961Y6327D02*
G01X96161Y7127D01*
G01X91259Y7127D01*
G01X90459Y6327D01*
G01X105557Y6327D02*
G01X96961Y6327D01*
G01X112059Y6327D02*
G01X110660Y4927D01*
G01X106956Y4927D01*
G01X105557Y6327D01*
G01X82760Y108046D02*
G01X80114Y110693D01*
G01X64996Y110693D01*
G01X64736Y110952D01*
G01X58399Y110952D01*
G01X53825Y115529D01*
G01X40261Y115529D01*
G01X35560Y120233D01*
G01X35560Y121577D01*
G01X34904Y122232D01*
G01X30538Y122232D01*
G01X29210Y120904D01*
G01X126746Y92710D02*
G01X126873Y92710D01*
G01X130683Y88900D01*
G01X112268Y88900D02*
G01X115316Y88900D01*
G01X118999Y92583D01*
G01X8001Y53687D02*
G01X12065Y57751D01*
G01X12065Y59817D01*
G01X1397Y28702D02*
G01X4572Y31877D01*
G01X136398Y26543D02*
G01X141732Y31877D01*
G01X143129Y31877D01*
G01X143002Y60452D02*
G01X133985Y60452D01*
G01X132969Y59436D01*
G01X5842Y80010D02*
G01X5842Y80645D01*
G01X9144Y83947D01*
G01X9017Y76200D02*
G01X5842Y79375D01*
G01X5842Y80010D01*
G01X138000Y51147D02*
G01X143002Y56149D01*
G01X143002Y57861D01*
G01X8001Y32748D02*
G01X4064Y36685D01*
G01X4064Y39446D01*
G01X124206Y92710D02*
G01X123174Y93741D01*
G01X117617Y93741D01*
G01X116459Y92583D01*
G01X8061Y162892D02*
G01X6903Y161737D01*
G01X6903Y157022D01*
G01X3393Y153509D01*
G01X3393Y152410D01*
G01X7736Y148066D01*
G01X8061Y148066D01*
G01X43759Y108046D02*
G01X41219Y110586D01*
G01X26535Y110586D01*
G01X24249Y112872D01*
G01X63258Y108046D02*
G01X61198Y110106D01*
G01X46525Y110106D01*
G01X43759Y112872D01*
G01X63258Y94096D02*
G01X61008Y96347D01*
G01X46334Y96347D01*
G01X43759Y98922D01*
G01X82760Y94096D02*
G01X80556Y96301D01*
G01X65879Y96301D01*
G01X63258Y98922D01*
G01X121666Y95631D02*
G01X120634Y94597D01*
G01X107919Y94597D01*
G01X103593Y98922D01*
G01X102260Y98922D01*
G01X24249Y66548D02*
G01X23197Y65493D01*
G01X20474Y65493D01*
G01X19608Y66362D01*
G01X19608Y71925D01*
G01X21041Y73357D01*
G01X41160Y73357D01*
G01X93710Y76946D02*
G01X91932Y78724D01*
G01X81757Y78724D01*
G01X78709Y81772D01*
G01X123710Y76946D02*
G01X120606Y80050D01*
G01X110530Y80050D01*
G01X108808Y81772D01*
G01X93710Y63047D02*
G01X91170Y65587D01*
G01X86210Y65587D01*
G01X82532Y69268D01*
G01X80103Y69268D01*
G01X78709Y67873D01*
G01X108808Y63047D02*
G01X107723Y61963D01*
G01X101069Y61963D01*
G01X95158Y67873D01*
G01X93710Y67873D01*
G01X63809Y53873D02*
G01X65184Y55247D01*
G01X67599Y55247D01*
G01X71368Y51478D01*
G01X76278Y51478D01*
G01X78709Y49047D01*
G01X108808Y49047D02*
G01X106268Y51587D01*
G01X95996Y51587D01*
G01X93710Y53873D01*
G01X123710Y49047D02*
G01X121170Y51587D01*
G01X111094Y51587D01*
G01X108808Y53873D01*
G01X63809Y39872D02*
G01X65956Y37726D01*
G01X76029Y37726D01*
G01X78709Y35046D01*
G01X93710Y35046D02*
G01X92867Y35046D01*
G01X90609Y37304D01*
G01X81277Y37304D01*
G01X78709Y39872D01*
G01X108808Y39872D02*
G01X110634Y38046D01*
G01X120710Y38046D01*
G01X123710Y35046D01*
G01X93710Y21046D02*
G01X91170Y23586D01*
G01X87401Y23586D01*
G01X83880Y27106D01*
G01X79943Y27106D01*
G01X78709Y25872D01*
G01X108808Y21046D02*
G01X106268Y23586D01*
G01X95996Y23586D01*
G01X93710Y25872D01*
G01X63809Y10873D02*
G01X66034Y8648D01*
G01X76108Y8648D01*
G01X78709Y6047D01*
G01X108808Y6047D02*
G01X105681Y9174D01*
G01X95410Y9174D01*
G01X93710Y10873D01*
G01X108808Y10873D02*
G01X110929Y8752D01*
G01X121005Y8752D01*
G01X123710Y6047D01*
G01X34010Y6248D02*
G01X31470Y8788D01*
G01X22385Y8788D01*
G01X20099Y11074D01*
G01X48011Y6248D02*
G01X45471Y8788D01*
G01X36296Y8788D01*
G01X34010Y11074D01*
G01X34010Y20746D02*
G01X31470Y23286D01*
G01X22385Y23286D01*
G01X20099Y25572D01*
G01X48011Y20746D02*
G01X46474Y22283D01*
G01X37299Y22283D01*
G01X34010Y25572D01*
G01X34010Y35346D02*
G01X33012Y34345D01*
G01X30261Y34345D01*
G01X25534Y39072D01*
G01X25534Y39839D01*
G01X23855Y41518D01*
G01X21445Y41518D01*
G01X20099Y40172D01*
G01X48011Y35346D02*
G01X45438Y37919D01*
G01X36263Y37919D01*
G01X34010Y40172D01*
G01X34010Y49847D02*
G01X31894Y51963D01*
G01X22809Y51963D01*
G01X20099Y54673D01*
G01X138008Y148066D02*
G01X139199Y149258D01*
G01X139199Y161691D01*
G01X138008Y162882D01*
G01X43759Y66548D02*
G01X42219Y68087D01*
G01X42219Y71427D01*
G01X40977Y72669D01*
G01X25544Y72669D01*
G01X24249Y71374D01*
G01X34010Y54673D02*
G01X35260Y55923D01*
G01X39425Y55923D01*
G01X42334Y53012D01*
G01X48011Y53012D01*
G01X62230Y120777D02*
G01X63581Y119425D01*
G01X76837Y119425D01*
G01X76972Y119560D01*
G36*
G01X67691Y32766D02*
G01X66167Y32766D01*
G01X66167Y31242D01*
G01X67691Y31242D01*
G01X67691Y32766D01*
G37*
G54D15*
G01X66929Y29464D03*
G01X64389Y32004D03*
G01X64389Y29464D03*
G01X61849Y32004D03*
G01X61849Y29464D03*
G01X59309Y32004D03*
G01X59309Y29464D03*
G01X56769Y32004D03*
G01X56769Y29464D03*
G01X54229Y32004D03*
G01X54229Y29464D03*
G01X51689Y32004D03*
G01X51689Y29464D03*
G01X49149Y32004D03*
G01X49149Y29464D03*
G01X46609Y32004D03*
G01X46609Y29464D03*
G01X44069Y32004D03*
G01X44069Y29464D03*
G01X41529Y32004D03*
G01X41529Y29464D03*
G01X38989Y32004D03*
G01X38989Y29464D03*
G01X36449Y32004D03*
G01X36449Y29464D03*
G01X33909Y32004D03*
G01X33909Y29464D03*
G01X31369Y32004D03*
G01X31369Y29464D03*
G01X28829Y32004D03*
G01X28829Y29464D03*
G01X26289Y32004D03*
G01X26289Y29464D03*
G01X23749Y32004D03*
G01X23749Y29464D03*
G01X21209Y32004D03*
G01X21209Y29464D03*
G01X18669Y32004D03*
G01X18669Y29464D03*
G36*
G01X115443Y43815D02*
G01X115443Y45339D01*
G01X113919Y45339D01*
G01X113919Y43815D01*
G01X115443Y43815D01*
G37*
G01X114681Y42037D03*
G01X114612Y33147D03*
G01X114681Y30734D03*
G01X133604Y30607D03*
G01X133604Y33147D03*
G01X133604Y42037D03*
G01X133604Y44577D03*
G54D16*
G01X137922Y76962D03*
G01X137922Y80772D03*
G01X8051Y120650D03*
G01X4241Y120650D03*
G54D17*
G01X123698Y128397D03*
G01X123698Y120777D03*
G01X116078Y128397D03*
G01X116078Y120777D03*
G01X119888Y128397D03*
G01X119888Y120777D03*
G01X112268Y128397D03*
G01X112268Y120777D03*
G01X108458Y128397D03*
G01X108458Y120777D03*
G01X93218Y128397D03*
G01X93218Y120777D03*
G01X97155Y128397D03*
G01X97155Y120777D03*
G01X100838Y128397D03*
G01X100838Y120777D03*
G01X104648Y128397D03*
G01X104648Y120777D03*
G54D18*
G01X46990Y120777D03*
G01X46990Y128397D03*
G01X29210Y120904D03*
G01X29210Y128524D03*
G01X16510Y120904D03*
G01X16510Y128524D03*
G01X18973Y120904D03*
G01X18973Y128524D03*
G01X39370Y120777D03*
G01X39370Y128397D03*
G01X44450Y120777D03*
G01X44450Y128397D03*
G01X41910Y120777D03*
G01X41910Y128397D03*
G01X49530Y120777D03*
G01X49530Y128397D03*
G01X34290Y120904D03*
G01X34290Y128524D03*
G01X36830Y120777D03*
G01X36830Y128397D03*
G01X26670Y120904D03*
G01X26670Y128524D03*
G01X31750Y120904D03*
G01X31750Y128524D03*
G01X24130Y120904D03*
G01X24130Y128524D03*
G01X52070Y120777D03*
G01X52070Y128397D03*
G01X54610Y120777D03*
G01X54610Y128397D03*
G01X57023Y120777D03*
G01X57023Y128397D03*
G01X59690Y120777D03*
G01X59690Y128397D03*
G01X62230Y120777D03*
G01X62230Y128397D03*
G01X64643Y120777D03*
G01X64643Y128397D03*
G01X67310Y120777D03*
G01X67310Y128397D03*
G01X69723Y120777D03*
G01X69723Y128397D03*
G01X72390Y120777D03*
G01X72390Y128397D03*
G01X138303Y122555D03*
G01X138303Y114935D03*
G01X142113Y114935D03*
G01X142113Y122555D03*
G01X123063Y88900D03*
G01X130683Y88900D03*
G01X119888Y88900D03*
G01X112268Y88900D03*
G01X19685Y59817D03*
G01X12065Y59817D03*
G01X8128Y40386D03*
G01X8128Y48006D03*
G01X11734Y34417D03*
G01X11734Y42037D03*
G01X4572Y31877D03*
G01X4572Y24257D03*
G01X138176Y39116D03*
G01X138176Y46736D03*
G01X143129Y24257D03*
G01X143129Y31877D03*
G01X143129Y34671D03*
G01X143129Y42291D03*
G01X132969Y67056D03*
G01X132969Y59436D03*
G01X1524Y83947D03*
G01X9144Y83947D03*
G01X137718Y56388D03*
G01X137718Y64008D03*
G01X1397Y76200D03*
G01X9017Y76200D03*
G01X1397Y28702D03*
G01X1397Y36322D03*
G01X3302Y46990D03*
G01X3302Y54610D03*
G01X143129Y53086D03*
G01X143129Y45466D03*
G01X21590Y120904D03*
G01X21590Y128524D03*
G36*
G01X9137Y79305D02*
G01X9137Y80714D01*
G01X7727Y80714D01*
G01X7727Y79305D01*
G01X9137Y79305D01*
G37*
G54D20*
G01X3251Y80010D03*
G01X5842Y80010D03*
G36*
G01X139693Y25838D02*
G01X139693Y27247D01*
G01X138283Y27247D01*
G01X138283Y25838D01*
G01X139693Y25838D01*
G37*
G01X133807Y26543D03*
G01X136398Y26543D03*
G36*
G01X142297Y57156D02*
G01X143706Y57156D01*
G01X143706Y58566D01*
G01X142297Y58566D01*
G01X142297Y57156D01*
G37*
G01X143002Y63042D03*
G01X143002Y60452D03*
G36*
G01X3359Y38741D02*
G01X4768Y38741D01*
G01X4768Y40151D01*
G01X3359Y40151D01*
G01X3359Y38741D01*
G37*
G01X4064Y44627D03*
G01X4064Y42037D03*
G36*
G01X9010Y58223D02*
G01X9010Y59632D01*
G01X7600Y59632D01*
G01X7600Y58223D01*
G01X9010Y58223D01*
G37*
G01X3124Y58928D03*
G01X5715Y58928D03*
G36*
G01X110597Y107626D02*
G01X112007Y107626D01*
G01X112007Y109035D01*
G01X110597Y109035D01*
G01X110597Y107626D01*
G37*
G01X111302Y113512D03*
G01X111302Y110921D03*
G54D21*
G01X31999Y148895D03*
G01X114000Y148895D03*
G01X31999Y187894D03*
G01X114000Y187894D03*
G01X115165Y203335D03*
G01X48665Y203335D03*
G01X115165Y156835D03*
G01X48665Y156835D03*
G54D18*
G01X4809Y192846D03*
G01X11311Y192846D03*
G01X4809Y188325D03*
G01X11311Y188325D03*
G54D15*
G01X8060Y192872D03*
G01X8060Y188046D03*
G54D18*
G01X4809Y182948D03*
G01X11311Y182948D03*
G01X4809Y178427D03*
G01X11311Y178427D03*
G54D15*
G01X8060Y182973D03*
G01X8060Y178147D03*
G54D18*
G01X4809Y172857D03*
G01X11311Y172857D03*
G01X4809Y168335D03*
G01X11311Y168335D03*
G54D15*
G01X8060Y172882D03*
G01X8060Y168056D03*
G54D18*
G01X4809Y162867D03*
G01X11311Y162867D03*
G01X4809Y158346D03*
G01X11311Y158346D03*
G54D15*
G01X8060Y162892D03*
G01X8060Y158066D03*
G54D18*
G01X4809Y152867D03*
G01X11311Y152867D03*
G01X4809Y148346D03*
G01X11311Y148346D03*
G54D15*
G01X8060Y152892D03*
G01X8060Y148066D03*
G54D18*
G01X4809Y142867D03*
G01X11311Y142867D03*
G01X4809Y138346D03*
G01X11311Y138346D03*
G54D15*
G01X8060Y142892D03*
G01X8060Y138066D03*
G54D18*
G01X134757Y192846D03*
G01X141259Y192846D03*
G01X134757Y188325D03*
G01X141259Y188325D03*
G54D15*
G01X138008Y192872D03*
G01X138008Y188046D03*
G54D18*
G01X134757Y182948D03*
G01X141259Y182948D03*
G01X134757Y178427D03*
G01X141259Y178427D03*
G54D15*
G01X138008Y182973D03*
G01X138008Y178147D03*
G54D18*
G01X134757Y172857D03*
G01X141259Y172857D03*
G01X134757Y168335D03*
G01X141259Y168335D03*
G54D15*
G01X138008Y172882D03*
G01X138008Y168056D03*
G54D18*
G01X134757Y162857D03*
G01X141259Y162857D03*
G01X134757Y158335D03*
G01X141259Y158335D03*
G54D15*
G01X138008Y162882D03*
G01X138008Y158056D03*
G54D18*
G01X134757Y152867D03*
G01X141259Y152867D03*
G01X134757Y148346D03*
G01X141259Y148346D03*
G54D15*
G01X138008Y152892D03*
G01X138008Y148066D03*
G54D18*
G01X134757Y142867D03*
G01X141259Y142867D03*
G01X134757Y138346D03*
G01X141259Y138346D03*
G54D15*
G01X138008Y142892D03*
G01X138008Y138066D03*
G54D18*
G01X20998Y112847D03*
G01X27500Y112847D03*
G01X20998Y108325D03*
G01X27500Y108325D03*
G54D15*
G01X24249Y112872D03*
G01X24249Y108046D03*
G54D18*
G01X40507Y112847D03*
G01X47010Y112847D03*
G01X40507Y108325D03*
G01X47010Y108325D03*
G54D15*
G01X43759Y112872D03*
G01X43759Y108046D03*
G54D18*
G01X60007Y112847D03*
G01X66509Y112847D03*
G01X60007Y108325D03*
G01X66509Y108325D03*
G54D15*
G01X63258Y112872D03*
G01X63258Y108046D03*
G54D18*
G01X79509Y112847D03*
G01X86012Y112847D03*
G01X79509Y108325D03*
G01X86012Y108325D03*
G54D15*
G01X82760Y112872D03*
G01X82760Y108046D03*
G54D18*
G01X99009Y112847D03*
G01X105511Y112847D03*
G01X99009Y108325D03*
G01X105511Y108325D03*
G54D15*
G01X102260Y112872D03*
G01X102260Y108046D03*
G54D18*
G01X20998Y98897D03*
G01X27500Y98897D03*
G01X20998Y94376D03*
G01X27500Y94376D03*
G54D15*
G01X24249Y98922D03*
G01X24249Y94096D03*
G54D18*
G01X40507Y98897D03*
G01X47010Y98897D03*
G01X40507Y94376D03*
G01X47010Y94376D03*
G54D15*
G01X43759Y98922D03*
G01X43759Y94096D03*
G54D18*
G01X60007Y98897D03*
G01X66509Y98897D03*
G01X60007Y94376D03*
G01X66509Y94376D03*
G54D15*
G01X63258Y98922D03*
G01X63258Y94096D03*
G54D18*
G01X79509Y98897D03*
G01X86012Y98897D03*
G01X79509Y94376D03*
G01X86012Y94376D03*
G54D15*
G01X82760Y98922D03*
G01X82760Y94096D03*
G54D18*
G01X99009Y98897D03*
G01X105511Y98897D03*
G01X99009Y94376D03*
G01X105511Y94376D03*
G54D15*
G01X102260Y98922D03*
G01X102260Y94096D03*
G54D18*
G01X118414Y100431D03*
G01X124917Y100431D03*
G01X118414Y95910D03*
G01X124917Y95910D03*
G54D15*
G01X121666Y100457D03*
G01X121666Y95631D03*
G54D18*
G01X20998Y84848D03*
G01X27500Y84848D03*
G01X20998Y80327D03*
G01X27500Y80327D03*
G54D15*
G01X24249Y84874D03*
G01X24249Y80048D03*
G54D18*
G01X40507Y84848D03*
G01X47010Y84848D03*
G01X40507Y80327D03*
G01X47010Y80327D03*
G54D15*
G01X43759Y84874D03*
G01X43759Y80048D03*
G54D18*
G01X20998Y71348D03*
G01X27500Y71348D03*
G01X20998Y66827D03*
G01X27500Y66827D03*
G54D15*
G01X24249Y71374D03*
G01X24249Y66548D03*
G54D18*
G01X40507Y71348D03*
G01X47010Y71348D03*
G01X40507Y66827D03*
G01X47010Y66827D03*
G54D15*
G01X43759Y71374D03*
G01X43759Y66548D03*
G54D18*
G01X60561Y81749D03*
G01X67063Y81749D03*
G01X60561Y77228D03*
G01X67063Y77228D03*
G54D15*
G01X63812Y81775D03*
G01X63812Y76949D03*
G54D18*
G01X75458Y81747D03*
G01X81960Y81747D03*
G01X75458Y77226D03*
G01X81960Y77226D03*
G54D15*
G01X78709Y81772D03*
G01X78709Y76946D03*
G54D18*
G01X90459Y81747D03*
G01X96961Y81747D03*
G01X90459Y77226D03*
G01X96961Y77226D03*
G54D15*
G01X93710Y81772D03*
G01X93710Y76946D03*
G54D18*
G01X105557Y81747D03*
G01X112059Y81747D03*
G01X105557Y77226D03*
G01X112059Y77226D03*
G54D15*
G01X108808Y81772D03*
G01X108808Y76946D03*
G54D18*
G01X120459Y81747D03*
G01X126961Y81747D03*
G01X120459Y77226D03*
G01X126961Y77226D03*
G54D15*
G01X123710Y81772D03*
G01X123710Y76946D03*
G54D18*
G01X60558Y67848D03*
G01X67061Y67848D03*
G01X60558Y63327D03*
G01X67061Y63327D03*
G54D15*
G01X63809Y67873D03*
G01X63809Y63047D03*
G54D18*
G01X75458Y67848D03*
G01X81960Y67848D03*
G01X75458Y63327D03*
G01X81960Y63327D03*
G54D15*
G01X78709Y67873D03*
G01X78709Y63047D03*
G54D18*
G01X90459Y67848D03*
G01X96961Y67848D03*
G01X90459Y63327D03*
G01X96961Y63327D03*
G54D15*
G01X93710Y67873D03*
G01X93710Y63047D03*
G54D18*
G01X105557Y67848D03*
G01X112059Y67848D03*
G01X105557Y63327D03*
G01X112059Y63327D03*
G54D15*
G01X108808Y67873D03*
G01X108808Y63047D03*
G54D18*
G01X120459Y67848D03*
G01X126961Y67848D03*
G01X120459Y63327D03*
G01X126961Y63327D03*
G54D15*
G01X123710Y67873D03*
G01X123710Y63047D03*
G54D18*
G01X60558Y53848D03*
G01X67061Y53848D03*
G01X60558Y49326D03*
G01X67061Y49326D03*
G54D15*
G01X63809Y53873D03*
G01X63809Y49047D03*
G54D18*
G01X75458Y53848D03*
G01X81960Y53848D03*
G01X75458Y49326D03*
G01X81960Y49326D03*
G54D15*
G01X78709Y53873D03*
G01X78709Y49047D03*
G54D18*
G01X90459Y53848D03*
G01X96961Y53848D03*
G01X90459Y49326D03*
G01X96961Y49326D03*
G54D15*
G01X93710Y53873D03*
G01X93710Y49047D03*
G54D18*
G01X105557Y53848D03*
G01X112059Y53848D03*
G01X105557Y49326D03*
G01X112059Y49326D03*
G54D15*
G01X108808Y53873D03*
G01X108808Y49047D03*
G54D18*
G01X120459Y53848D03*
G01X126961Y53848D03*
G01X120459Y49326D03*
G01X126961Y49326D03*
G54D15*
G01X123710Y53873D03*
G01X123710Y49047D03*
G54D18*
G01X60558Y39847D03*
G01X67061Y39847D03*
G01X60558Y35326D03*
G01X67061Y35326D03*
G54D15*
G01X63809Y39872D03*
G01X63809Y35046D03*
G54D18*
G01X75458Y39847D03*
G01X81960Y39847D03*
G01X75458Y35326D03*
G01X81960Y35326D03*
G54D15*
G01X78709Y39872D03*
G01X78709Y35046D03*
G54D18*
G01X90459Y39847D03*
G01X96961Y39847D03*
G01X90459Y35326D03*
G01X96961Y35326D03*
G54D15*
G01X93710Y39872D03*
G01X93710Y35046D03*
G54D18*
G01X105557Y39847D03*
G01X112059Y39847D03*
G01X105557Y35326D03*
G01X112059Y35326D03*
G54D15*
G01X108808Y39872D03*
G01X108808Y35046D03*
G54D18*
G01X120459Y39847D03*
G01X126961Y39847D03*
G01X120459Y35326D03*
G01X126961Y35326D03*
G54D15*
G01X123710Y39872D03*
G01X123710Y35046D03*
G54D18*
G01X60558Y25847D03*
G01X67061Y25847D03*
G01X60558Y21325D03*
G01X67061Y21325D03*
G54D15*
G01X63809Y25872D03*
G01X63809Y21046D03*
G54D18*
G01X75458Y25847D03*
G01X81960Y25847D03*
G01X75458Y21325D03*
G01X81960Y21325D03*
G54D15*
G01X78709Y25872D03*
G01X78709Y21046D03*
G54D18*
G01X90459Y25847D03*
G01X96961Y25847D03*
G01X90459Y21325D03*
G01X96961Y21325D03*
G54D15*
G01X93710Y25872D03*
G01X93710Y21046D03*
G54D18*
G01X105557Y25847D03*
G01X112059Y25847D03*
G01X105557Y21325D03*
G01X112059Y21325D03*
G54D15*
G01X108808Y25872D03*
G01X108808Y21046D03*
G54D18*
G01X120459Y25847D03*
G01X126961Y25847D03*
G01X120459Y21325D03*
G01X126961Y21325D03*
G54D15*
G01X123710Y25872D03*
G01X123710Y21046D03*
G54D18*
G01X60558Y10848D03*
G01X67061Y10848D03*
G01X60558Y6327D03*
G01X67061Y6327D03*
G54D15*
G01X63809Y10873D03*
G01X63809Y6047D03*
G54D18*
G01X75458Y10848D03*
G01X81960Y10848D03*
G01X75458Y6327D03*
G01X81960Y6327D03*
G54D15*
G01X78709Y10873D03*
G01X78709Y6047D03*
G54D18*
G01X90459Y10848D03*
G01X96961Y10848D03*
G01X90459Y6327D03*
G01X96961Y6327D03*
G54D15*
G01X93710Y10873D03*
G01X93710Y6047D03*
G54D18*
G01X105557Y10848D03*
G01X112059Y10848D03*
G01X105557Y6327D03*
G01X112059Y6327D03*
G54D15*
G01X108808Y10873D03*
G01X108808Y6047D03*
G54D18*
G01X120459Y10848D03*
G01X126961Y10848D03*
G01X120459Y6327D03*
G01X126961Y6327D03*
G54D15*
G01X123710Y10873D03*
G01X123710Y6047D03*
G54D18*
G01X16847Y11049D03*
G01X23350Y11049D03*
G01X16847Y6527D03*
G01X23350Y6527D03*
G54D15*
G01X20099Y11074D03*
G01X20099Y6248D03*
G54D18*
G01X30759Y11049D03*
G01X37261Y11049D03*
G01X30759Y6527D03*
G01X37261Y6527D03*
G54D15*
G01X34010Y11074D03*
G01X34010Y6248D03*
G54D18*
G01X44759Y11049D03*
G01X51262Y11049D03*
G01X44759Y6527D03*
G01X51262Y6527D03*
G54D15*
G01X48011Y11074D03*
G01X48011Y6248D03*
G54D18*
G01X16847Y25547D03*
G01X23350Y25547D03*
G01X16847Y21026D03*
G01X23350Y21026D03*
G54D15*
G01X20099Y25572D03*
G01X20099Y20746D03*
G54D18*
G01X30759Y25547D03*
G01X37261Y25547D03*
G01X30759Y21026D03*
G01X37261Y21026D03*
G54D15*
G01X34010Y25572D03*
G01X34010Y20746D03*
G54D18*
G01X44759Y25547D03*
G01X51262Y25547D03*
G01X44759Y21026D03*
G01X51262Y21026D03*
G54D15*
G01X48011Y25572D03*
G01X48011Y20746D03*
G54D18*
G01X16847Y40147D03*
G01X23350Y40147D03*
G01X16847Y35626D03*
G01X23350Y35626D03*
G54D15*
G01X20099Y40172D03*
G01X20099Y35346D03*
G54D18*
G01X30759Y40147D03*
G01X37261Y40147D03*
G01X30759Y35626D03*
G01X37261Y35626D03*
G54D15*
G01X34010Y40172D03*
G01X34010Y35346D03*
G54D18*
G01X44759Y40147D03*
G01X51262Y40147D03*
G01X44759Y35626D03*
G01X51262Y35626D03*
G54D15*
G01X48011Y40172D03*
G01X48011Y35346D03*
G54D18*
G01X16847Y54648D03*
G01X23350Y54648D03*
G01X16847Y50126D03*
G01X23350Y50126D03*
G54D15*
G01X20099Y54673D03*
G01X20099Y49847D03*
G54D18*
G01X30759Y54648D03*
G01X37261Y54648D03*
G01X30759Y50126D03*
G01X37261Y50126D03*
G54D15*
G01X34010Y54673D03*
G01X34010Y49847D03*
G54D18*
G01X44759Y54648D03*
G01X51262Y54648D03*
G01X44759Y50126D03*
G01X51262Y50126D03*
G54D15*
G01X48011Y54673D03*
G01X48011Y49847D03*
G54D22*
G01X117768Y113157D03*
G01X117768Y110617D03*
G01X117768Y108077D03*
G01X132268Y113157D03*
G01X132268Y108077D03*
G54D23*
G01X138000Y53687D03*
G01X138000Y51147D03*
G01X138000Y35288D03*
G01X138000Y32748D03*
G01X126746Y92710D03*
G01X124206Y92710D03*
G01X118999Y92583D03*
G01X116459Y92583D03*
G01X8001Y53687D03*
G01X8001Y51147D03*
G01X8001Y35288D03*
G01X8001Y32748D03*
G54D21*
G01X32689Y156210D03*
G01X32689Y200209D03*
G01X127389Y156210D03*
G01X127389Y200209D03*
G01X130048Y100457D03*
G01X74168Y100457D03*
G01X127389Y135210D03*
G54D13*
G01X69024Y35839D03*
G01X26083Y49484D03*
G01X86720Y30942D03*
G01X68326Y30238D03*
G01X55788Y18277D03*
G01X95737Y126806D03*
G01X5031Y119230D03*
G01X99087Y37180D03*
G01X107337Y27106D03*
G01X74432Y8018D03*
G01X120949Y123962D03*
G01X60220Y41320D03*
G01X108833Y37607D03*
G01X6225Y120126D03*
G01X118320Y35946D03*
G01X57193Y33573D03*
G01X66774Y106827D03*
G01X120713Y105463D03*
G01X57233Y45057D03*
G01X88552Y42382D03*
G01X91135Y104914D03*
G01X112407Y105036D03*
G01X88046Y79354D03*
G01X118826Y45608D03*
G01X56997Y47729D03*
G01X59552Y46357D03*
G01X59552Y42986D03*
G01X54462Y27482D03*
G01X110474Y28039D03*
G01X110807Y106956D03*
G01X114015Y112966D03*
G01X49085Y86573D03*
G01X88635Y43977D03*
G01X90482Y44094D03*
G01X102219Y46992D03*
G01X12499Y123106D03*
G01X96961Y79644D03*
G01X38699Y33281D03*
G01X118950Y81960D03*
G01X116639Y46860D03*
G01X116639Y39847D03*
G01X106362Y47607D03*
G01X119418Y119092D03*
G01X55458Y87543D03*
G01X108458Y92834D03*
G01X54813Y26240D03*
G01X52969Y23497D03*
G01X42961Y26121D03*
G01X86113Y19626D03*
G01X91932Y82014D03*
G01X44810Y46845D03*
G01X132971Y50485D03*
G01X104648Y115506D03*
G01X65384Y111315D03*
G01X58407Y112933D03*
G01X39888Y33789D03*
G01X54091Y88800D03*
G01X93182Y91442D03*
G01X93182Y117314D03*
G01X28089Y33672D03*
G01X32600Y91917D03*
G01X128033Y94236D03*
G01X32176Y112877D03*
G01X15057Y33152D03*
G01X28808Y76547D03*
G01X117276Y74419D03*
G01X110738Y18455D03*
G01X105592Y156776D03*
G01X59349Y79870D03*
G01X106608Y151640D03*
G01X76276Y113583D03*
G01X20949Y130754D03*
G01X57566Y112671D03*
G01X50944Y79684D03*
G01X120500Y75531D03*
G01X48580Y91140D03*
G01X61828Y87005D03*
G01X68158Y115382D03*
G01X49735Y83304D03*
G01X51658Y71343D03*
G01X93921Y52143D03*
G01X52412Y73680D03*
G01X101015Y56649D03*
G01X84274Y118920D03*
G01X90660Y27612D03*
G01X35582Y122527D03*
G01X71716Y91546D03*
G01X21810Y82379D03*
G01X63675Y110269D03*
G01X81206Y108458D03*
G01X93860Y95737D03*
G01X58950Y17858D03*
G01X109969Y77934D03*
G01X57520Y16426D03*
G01X70027Y32372D03*
G01X119039Y8130D03*
G01X128219Y32316D03*
G01X41521Y40386D03*
G01X67840Y69745D03*
G01X65308Y62219D03*
G01X52712Y98625D03*
G01X58072Y96969D03*
G01X55692Y90733D03*
G01X109110Y93543D03*
G01X109110Y119113D03*
G01X106667Y97736D03*
G01X39047Y70835D03*
G01X112829Y65430D03*
G01X100396Y112072D03*
G01X96271Y93177D03*
G01X121716Y74531D03*
G01X65905Y71663D03*
G01X41160Y73357D03*
G01X48011Y53012D03*
G01X76972Y119560D03*
G54D24*
G01X124419Y105116D02*
G01X126119Y105116D01*
G01X124419Y116116D02*
G01X126119Y116116D01*
M00*
M02*
