;Layer: Drill PTH
;EasyEDA v6.2.41, 2019-09-02T03:45:47+08:00
;cccedabf26fb4476aab39dafb03c201f,018b6882be54474e8367c410bdd36671,10
;Gerber Generator version 0.2
M48
METRIC,LZ,000.000
;Holesize 1 = 0.310 METRIC
T01C0.310
;Holesize 2 = 0.900 METRIC
T02C0.900
;Holesize 3 = 0.901 METRIC
T03C0.901
;Holesize 4 = 0.915 METRIC
T04C0.915
;Holesize 5 = 0.966 METRIC
T05C0.966
;Holesize 6 = 1.016 METRIC
T06C1.016
;Holesize 7 = 1.101 METRIC
T07C1.101
;Holesize 8 = 1.143 METRIC
T08C1.143
;Holesize 9 = 1.301 METRIC
T09C1.301
;Holesize 10 = 1.501 METRIC
T10C1.501
;Holesize 11 = 3.250 METRIC
T11C3.250
;Holesize 12 = 3.501 METRIC
T12C3.501
;Holesize 13 = 3.600 METRIC
T13C3.600
%
G05
G90
T01
X+069024Y+035839
X+026083Y+049484
X+086720Y+030942
X+068326Y+030238
X+055788Y+018277
X+095737Y+126806
X+005031Y+119230
X+099087Y+037180
X+107337Y+027106
X+074432Y+008018
X+120949Y+123962
X+060220Y+041320
X+108833Y+037607
X+006225Y+120126
X+118320Y+035946
X+057193Y+033573
X+066774Y+106827
X+120713Y+105463
X+057233Y+045057
X+088552Y+042382
X+091135Y+104914
X+112407Y+105036
X+088046Y+079354
X+118826Y+045608
X+056997Y+047729
X+059552Y+046357
X+059552Y+042986
X+054462Y+027482
X+110474Y+028039
X+110807Y+106956
X+114015Y+112966
X+049085Y+086573
X+088635Y+043977
X+090482Y+044094
X+102219Y+046992
X+012499Y+123106
X+096961Y+079644
X+038699Y+033281
X+118950Y+081960
X+116639Y+046860
X+116639Y+039847
X+106362Y+047607
X+119418Y+119092
X+055458Y+087543
X+108458Y+092834
X+054813Y+026240
X+052969Y+023497
X+042961Y+026121
X+086113Y+019626
X+091932Y+082014
X+044810Y+046845
X+132971Y+050485
X+104648Y+115506
X+065384Y+111315
X+058407Y+112933
X+039888Y+033789
X+054091Y+088800
X+093182Y+091442
X+093182Y+117314
X+028089Y+033672
X+032600Y+091917
X+128033Y+094236
X+032176Y+112877
X+015057Y+033152
X+028808Y+076547
X+117276Y+074419
X+110738Y+018455
X+105592Y+156776
X+059349Y+079870
X+106608Y+151640
X+076276Y+113583
X+020949Y+130754
X+057566Y+112671
X+050944Y+079684
X+120500Y+075531
X+048580Y+091140
X+061828Y+087005
X+068158Y+115382
X+049735Y+083304
X+051658Y+071343
X+093921Y+052143
X+052412Y+073680
X+101015Y+056649
X+084274Y+118920
X+090660Y+027612
X+035582Y+122527
X+071716Y+091546
X+021810Y+082379
X+063675Y+110269
X+081206Y+108458
X+093860Y+095737
X+058950Y+017858
X+109969Y+077934
X+057520Y+016426
X+070027Y+032372
X+119039Y+008130
X+128219Y+032316
X+041521Y+040386
X+067840Y+069745
X+065308Y+062219
X+052712Y+098625
X+058072Y+096969
X+055692Y+090733
X+109110Y+093543
X+109110Y+119113
X+106667Y+097736
X+039047Y+070835
X+112829Y+065430
X+100396Y+112072
X+096271Y+093177
X+121716Y+074531
X+065905Y+071663
X+041160Y+073357
X+048011Y+053012
X+076972Y+119560
T02
X+046990Y+120777
X+046990Y+128397
X+029210Y+120904
X+029210Y+128524
X+016510Y+120904
X+016510Y+128524
X+018973Y+120904
X+018973Y+128524
X+039370Y+120777
X+039370Y+128397
X+044450Y+120777
X+044450Y+128397
X+041910Y+120777
X+041910Y+128397
X+049530Y+120777
X+049530Y+128397
X+034290Y+120904
X+034290Y+128524
X+036830Y+120777
X+036830Y+128397
X+026670Y+120904
X+026670Y+128524
X+031750Y+120904
X+031750Y+128524
X+024130Y+120904
X+024130Y+128524
X+052070Y+120777
X+052070Y+128397
X+054610Y+120777
X+054610Y+128397
X+057023Y+120777
X+057023Y+128397
X+059690Y+120777
X+059690Y+128397
X+062230Y+120777
X+062230Y+128397
X+064643Y+120777
X+064643Y+128397
X+067310Y+120777
X+067310Y+128397
X+069723Y+120777
X+069723Y+128397
X+072390Y+120777
X+072390Y+128397
X+138303Y+122555
X+138303Y+114935
X+142113Y+114935
X+142113Y+122555
X+123063Y+088900
X+130683Y+088900
X+119888Y+088900
X+112268Y+088900
X+019685Y+059817
X+012065Y+059817
X+008128Y+040386
X+008128Y+048006
X+011734Y+034417
X+011734Y+042037
X+004572Y+031877
X+004572Y+024257
X+138176Y+039116
X+138176Y+046736
X+143129Y+024257
X+143129Y+031877
X+143129Y+034671
X+143129Y+042291
X+132969Y+067056
X+132969Y+059436
X+001524Y+083947
X+009144Y+083947
X+137718Y+056388
X+137718Y+064008
X+001397Y+076200
X+009017Y+076200
X+001397Y+028702
X+001397Y+036322
X+003302Y+046990
X+003302Y+054610
X+143129Y+053086
X+143129Y+045466
X+021590Y+120904
X+021590Y+128524
T03
X+138000Y+053687
X+138000Y+051147
X+138000Y+035288
X+138000Y+032748
X+126746Y+092710
X+124206Y+092710
X+118999Y+092583
X+116459Y+092583
X+008001Y+053687
X+008001Y+051147
X+008001Y+035288
X+008001Y+032748
T04
X+066929Y+032004
X+066929Y+029464
X+064389Y+032004
X+064389Y+029464
X+061849Y+032004
X+061849Y+029464
X+059309Y+032004
X+059309Y+029464
X+056769Y+032004
X+056769Y+029464
X+054229Y+032004
X+054229Y+029464
X+051689Y+032004
X+051689Y+029464
X+049149Y+032004
X+049149Y+029464
X+046609Y+032004
X+046609Y+029464
X+044069Y+032004
X+044069Y+029464
X+041529Y+032004
X+041529Y+029464
X+038989Y+032004
X+038989Y+029464
X+036449Y+032004
X+036449Y+029464
X+033909Y+032004
X+033909Y+029464
X+031369Y+032004
X+031369Y+029464
X+028829Y+032004
X+028829Y+029464
X+026289Y+032004
X+026289Y+029464
X+023749Y+032004
X+023749Y+029464
X+021209Y+032004
X+021209Y+029464
X+018669Y+032004
X+018669Y+029464
X+114681Y+044577
X+114681Y+042037
X+114612Y+033147
X+114681Y+030734
X+133604Y+030607
X+133604Y+033147
X+133604Y+042037
X+133604Y+044577
X+008060Y+192872
X+008060Y+188046
X+008060Y+182973
X+008060Y+178147
X+008060Y+172882
X+008060Y+168056
X+008060Y+162892
X+008060Y+158066
X+008060Y+152892
X+008060Y+148066
X+008060Y+142892
X+008060Y+138066
X+138008Y+192872
X+138008Y+188046
X+138008Y+182973
X+138008Y+178147
X+138008Y+172882
X+138008Y+168056
X+138008Y+162882
X+138008Y+158056
X+138008Y+152892
X+138008Y+148066
X+138008Y+142892
X+138008Y+138066
X+024249Y+112872
X+024249Y+108046
X+043759Y+112872
X+043759Y+108046
X+063258Y+112872
X+063258Y+108046
X+082760Y+112872
X+082760Y+108046
X+102260Y+112872
X+102260Y+108046
X+024249Y+098922
X+024249Y+094096
X+043759Y+098922
X+043759Y+094096
X+063258Y+098922
X+063258Y+094096
X+082760Y+098922
X+082760Y+094096
X+102260Y+098922
X+102260Y+094096
X+121666Y+100457
X+121666Y+095631
X+024249Y+084874
X+024249Y+080048
X+043759Y+084874
X+043759Y+080048
X+024249Y+071374
X+024249Y+066548
X+043759Y+071374
X+043759Y+066548
X+063812Y+081775
X+063812Y+076949
X+078709Y+081772
X+078709Y+076946
X+093710Y+081772
X+093710Y+076946
X+108808Y+081772
X+108808Y+076946
X+123710Y+081772
X+123710Y+076946
X+063809Y+067873
X+063809Y+063047
X+078709Y+067873
X+078709Y+063047
X+093710Y+067873
X+093710Y+063047
X+108808Y+067873
X+108808Y+063047
X+123710Y+067873
X+123710Y+063047
X+063809Y+053873
X+063809Y+049047
X+078709Y+053873
X+078709Y+049047
X+093710Y+053873
X+093710Y+049047
X+108808Y+053873
X+108808Y+049047
X+123710Y+053873
X+123710Y+049047
X+063809Y+039872
X+063809Y+035046
X+078709Y+039872
X+078709Y+035046
X+093710Y+039872
X+093710Y+035046
X+108808Y+039872
X+108808Y+035046
X+123710Y+039872
X+123710Y+035046
X+063809Y+025872
X+063809Y+021046
X+078709Y+025872
X+078709Y+021046
X+093710Y+025872
X+093710Y+021046
X+108808Y+025872
X+108808Y+021046
X+123710Y+025872
X+123710Y+021046
X+063809Y+010873
X+063809Y+006047
X+078709Y+010873
X+078709Y+006047
X+093710Y+010873
X+093710Y+006047
X+108808Y+010873
X+108808Y+006047
X+123710Y+010873
X+123710Y+006047
X+020099Y+011074
X+020099Y+006248
X+034010Y+011074
X+034010Y+006248
X+048011Y+011074
X+048011Y+006248
X+020099Y+025572
X+020099Y+020746
X+034010Y+025572
X+034010Y+020746
X+048011Y+025572
X+048011Y+020746
X+020099Y+040172
X+020099Y+035346
X+034010Y+040172
X+034010Y+035346
X+048011Y+040172
X+048011Y+035346
X+020099Y+054673
X+020099Y+049847
X+034010Y+054673
X+034010Y+049847
X+048011Y+054673
X+048011Y+049847
T05
X+008432Y+080010
X+003251Y+080010
X+005842Y+080010
X+138988Y+026543
X+133807Y+026543
X+136398Y+026543
X+143002Y+057861
X+143002Y+063042
X+143002Y+060452
X+004064Y+039446
X+004064Y+044627
X+004064Y+042037
X+008305Y+058928
X+003124Y+058928
X+005715Y+058928
X+111302Y+108331
X+111302Y+113512
X+111302Y+110921
T06
X+004809Y+192846
X+011311Y+192846
X+004809Y+188325
X+011311Y+188325
X+004809Y+182948
X+011311Y+182948
X+004809Y+178427
X+011311Y+178427
X+004809Y+172857
X+011311Y+172857
X+004809Y+168335
X+011311Y+168335
X+004809Y+162867
X+011311Y+162867
X+004809Y+158346
X+011311Y+158346
X+004809Y+152867
X+011311Y+152867
X+004809Y+148346
X+011311Y+148346
X+004809Y+142867
X+011311Y+142867
X+004809Y+138346
X+011311Y+138346
X+134757Y+192846
X+141259Y+192846
X+134757Y+188325
X+141259Y+188325
X+134757Y+182948
X+141259Y+182948
X+134757Y+178427
X+141259Y+178427
X+134757Y+172857
X+141259Y+172857
X+134757Y+168335
X+141259Y+168335
X+134757Y+162857
X+141259Y+162857
X+134757Y+158335
X+141259Y+158335
X+134757Y+152867
X+141259Y+152867
X+134757Y+148346
X+141259Y+148346
X+134757Y+142867
X+141259Y+142867
X+134757Y+138346
X+141259Y+138346
X+020998Y+112847
X+027500Y+112847
X+020998Y+108325
X+027500Y+108325
X+040507Y+112847
X+047010Y+112847
X+040507Y+108325
X+047010Y+108325
X+060007Y+112847
X+066509Y+112847
X+060007Y+108325
X+066509Y+108325
X+079509Y+112847
X+086012Y+112847
X+079509Y+108325
X+086012Y+108325
X+099009Y+112847
X+105511Y+112847
X+099009Y+108325
X+105511Y+108325
X+020998Y+098897
X+027500Y+098897
X+020998Y+094376
X+027500Y+094376
X+040507Y+098897
X+047010Y+098897
X+040507Y+094376
X+047010Y+094376
X+060007Y+098897
X+066509Y+098897
X+060007Y+094376
X+066509Y+094376
X+079509Y+098897
X+086012Y+098897
X+079509Y+094376
X+086012Y+094376
X+099009Y+098897
X+105511Y+098897
X+099009Y+094376
X+105511Y+094376
X+118414Y+100431
X+124917Y+100431
X+118414Y+095910
X+124917Y+095910
X+020998Y+084848
X+027500Y+084848
X+020998Y+080327
X+027500Y+080327
X+040507Y+084848
X+047010Y+084848
X+040507Y+080327
X+047010Y+080327
X+020998Y+071348
X+027500Y+071348
X+020998Y+066827
X+027500Y+066827
X+040507Y+071348
X+047010Y+071348
X+040507Y+066827
X+047010Y+066827
X+060561Y+081749
X+067063Y+081749
X+060561Y+077228
X+067063Y+077228
X+075458Y+081747
X+081960Y+081747
X+075458Y+077226
X+081960Y+077226
X+090459Y+081747
X+096961Y+081747
X+090459Y+077226
X+096961Y+077226
X+105557Y+081747
X+112059Y+081747
X+105557Y+077226
X+112059Y+077226
X+120459Y+081747
X+126961Y+081747
X+120459Y+077226
X+126961Y+077226
X+060558Y+067848
X+067061Y+067848
X+060558Y+063327
X+067061Y+063327
X+075458Y+067848
X+081960Y+067848
X+075458Y+063327
X+081960Y+063327
X+090459Y+067848
X+096961Y+067848
X+090459Y+063327
X+096961Y+063327
X+105557Y+067848
X+112059Y+067848
X+105557Y+063327
X+112059Y+063327
X+120459Y+067848
X+126961Y+067848
X+120459Y+063327
X+126961Y+063327
X+060558Y+053848
X+067061Y+053848
X+060558Y+049326
X+067061Y+049326
X+075458Y+053848
X+081960Y+053848
X+075458Y+049326
X+081960Y+049326
X+090459Y+053848
X+096961Y+053848
X+090459Y+049326
X+096961Y+049326
X+105557Y+053848
X+112059Y+053848
X+105557Y+049326
X+112059Y+049326
X+120459Y+053848
X+126961Y+053848
X+120459Y+049326
X+126961Y+049326
X+060558Y+039847
X+067061Y+039847
X+060558Y+035326
X+067061Y+035326
X+075458Y+039847
X+081960Y+039847
X+075458Y+035326
X+081960Y+035326
X+090459Y+039847
X+096961Y+039847
X+090459Y+035326
X+096961Y+035326
X+105557Y+039847
X+112059Y+039847
X+105557Y+035326
X+112059Y+035326
X+120459Y+039847
X+126961Y+039847
X+120459Y+035326
X+126961Y+035326
X+060558Y+025847
X+067061Y+025847
X+060558Y+021325
X+067061Y+021325
X+075458Y+025847
X+081960Y+025847
X+075458Y+021325
X+081960Y+021325
X+090459Y+025847
X+096961Y+025847
X+090459Y+021325
X+096961Y+021325
X+105557Y+025847
X+112059Y+025847
X+105557Y+021325
X+112059Y+021325
X+120459Y+025847
X+126961Y+025847
X+120459Y+021325
X+126961Y+021325
X+060558Y+010848
X+067061Y+010848
X+060558Y+006327
X+067061Y+006327
X+075458Y+010848
X+081960Y+010848
X+075458Y+006327
X+081960Y+006327
X+090459Y+010848
X+096961Y+010848
X+090459Y+006327
X+096961Y+006327
X+105557Y+010848
X+112059Y+010848
X+105557Y+006327
X+112059Y+006327
X+120459Y+010848
X+126961Y+010848
X+120459Y+006327
X+126961Y+006327
X+016847Y+011049
X+023350Y+011049
X+016847Y+006527
X+023350Y+006527
X+030759Y+011049
X+037261Y+011049
X+030759Y+006527
X+037261Y+006527
X+044759Y+011049
X+051262Y+011049
X+044759Y+006527
X+051262Y+006527
X+016847Y+025547
X+023350Y+025547
X+016847Y+021026
X+023350Y+021026
X+030759Y+025547
X+037261Y+025547
X+030759Y+021026
X+037261Y+021026
X+044759Y+025547
X+051262Y+025547
X+044759Y+021026
X+051262Y+021026
X+016847Y+040147
X+023350Y+040147
X+016847Y+035626
X+023350Y+035626
X+030759Y+040147
X+037261Y+040147
X+030759Y+035626
X+037261Y+035626
X+044759Y+040147
X+051262Y+040147
X+044759Y+035626
X+051262Y+035626
X+016847Y+054648
X+023350Y+054648
X+016847Y+050126
X+023350Y+050126
X+030759Y+054648
X+037261Y+054648
X+030759Y+050126
X+037261Y+050126
X+044759Y+054648
X+051262Y+054648
X+044759Y+050126
X+051262Y+050126
T07
X+123698Y+128397
X+123698Y+120777
X+116078Y+128397
X+116078Y+120777
X+119888Y+128397
X+112268Y+128397
X+112268Y+120777
X+108458Y+128397
X+108458Y+120777
X+093218Y+128397
X+093218Y+120777
X+097155Y+128397
X+097155Y+120777
X+100838Y+128397
X+100838Y+120777
X+104648Y+128397
X+104648Y+120777
T08
X+119888Y+120777
T09
X+137922Y+076962
X+137922Y+080772
X+008051Y+120650
X+004241Y+120650
X+117768Y+113157
X+117768Y+110617
X+117768Y+108077
X+132268Y+113157
X+132268Y+108077
T10
X+124518Y+105117G85X+126019Y+105117
X+124518Y+116116G85X+126019Y+116116
T11
X+032689Y+156210
X+032689Y+200209
X+127389Y+156210
X+127389Y+200209
X+127389Y+135209
T12
X+031999Y+148895
X+113999Y+148895
X+031999Y+187895
X+113999Y+187895
X+115164Y+203335
X+048665Y+203335
X+115164Y+156835
X+048665Y+156835
T13
X+130048Y+100457
X+074168Y+100457
M30
