G04 Layer: BottomSolderMaskLayer*
G04 EasyEDA v6.2.41, 2019-09-02T03:45:47+08:00*
G04 cccedabf26fb4476aab39dafb03c201f,018b6882be54474e8367c410bdd36671,10*
G04 Gerber Generator version 0.2*
G04 Scale: 100 percent, Rotated: No, Reflected: No *
G04 Dimensions in millimeters *
G04 leading zeros omitted , absolute positions ,3 integer and 3 decimal *
%FSLAX33Y33*%
%MOMM*%
G90*
G71D02*

%ADD31C,2.503195*%
%ADD32R,1.727200X1.727200*%
%ADD33C,1.727200*%
%ADD34C,2.203196*%
%ADD35C,2.108200*%
%ADD36C,2.082800*%
%ADD38C,1.612900*%
%ADD39C,4.203192*%
%ADD40C,2.003196*%
%ADD41C,1.854200*%

%LPD*%
G54D31*
G01X124419Y105116D02*
G01X126119Y105116D01*
G01X124419Y116116D02*
G01X126119Y116116D01*
G36*
G01X66065Y31140D02*
G01X66065Y32867D01*
G01X67792Y32867D01*
G01X67792Y31140D01*
G01X66065Y31140D01*
G37*
G54D33*
G01X66929Y29464D03*
G01X64389Y32004D03*
G01X64389Y29464D03*
G01X61849Y32004D03*
G01X61849Y29464D03*
G01X59309Y32004D03*
G01X59309Y29464D03*
G01X56769Y32004D03*
G01X56769Y29464D03*
G01X54229Y32004D03*
G01X54229Y29464D03*
G01X51689Y32004D03*
G01X51689Y29464D03*
G01X49149Y32004D03*
G01X49149Y29464D03*
G01X46609Y32004D03*
G01X46609Y29464D03*
G01X44069Y32004D03*
G01X44069Y29464D03*
G01X41529Y32004D03*
G01X41529Y29464D03*
G01X38989Y32004D03*
G01X38989Y29464D03*
G01X36449Y32004D03*
G01X36449Y29464D03*
G01X33909Y32004D03*
G01X33909Y29464D03*
G01X31369Y32004D03*
G01X31369Y29464D03*
G01X28829Y32004D03*
G01X28829Y29464D03*
G01X26289Y32004D03*
G01X26289Y29464D03*
G01X23749Y32004D03*
G01X23749Y29464D03*
G01X21209Y32004D03*
G01X21209Y29464D03*
G01X18669Y32004D03*
G01X18669Y29464D03*
G54D32*
G01X114681Y44577D03*
G54D33*
G01X114681Y42037D03*
G01X114612Y33147D03*
G01X114681Y30734D03*
G01X133604Y30607D03*
G01X133604Y33147D03*
G01X133604Y42037D03*
G01X133604Y44577D03*
G54D34*
G01X137922Y76962D03*
G01X137922Y80772D03*
G01X8051Y120650D03*
G01X4241Y120650D03*
G54D35*
G01X123698Y128397D03*
G01X123698Y120777D03*
G01X116078Y128397D03*
G01X116078Y120777D03*
G01X119888Y128397D03*
G01X119888Y120777D03*
G01X112268Y128397D03*
G01X112268Y120777D03*
G01X108458Y128397D03*
G01X108458Y120777D03*
G01X93218Y128397D03*
G01X93218Y120777D03*
G01X97155Y128397D03*
G01X97155Y120777D03*
G01X100838Y128397D03*
G01X100838Y120777D03*
G01X104648Y128397D03*
G01X104648Y120777D03*
G54D36*
G01X46990Y120777D03*
G01X46990Y128397D03*
G01X29210Y120904D03*
G01X29210Y128524D03*
G01X16510Y120904D03*
G01X16510Y128524D03*
G01X18973Y120904D03*
G01X18973Y128524D03*
G01X39370Y120777D03*
G01X39370Y128397D03*
G01X44450Y120777D03*
G01X44450Y128397D03*
G01X41910Y120777D03*
G01X41910Y128397D03*
G01X49530Y120777D03*
G01X49530Y128397D03*
G01X34290Y120904D03*
G01X34290Y128524D03*
G01X36830Y120777D03*
G01X36830Y128397D03*
G01X26670Y120904D03*
G01X26670Y128524D03*
G01X31750Y120904D03*
G01X31750Y128524D03*
G01X24130Y120904D03*
G01X24130Y128524D03*
G01X52070Y120777D03*
G01X52070Y128397D03*
G01X54610Y120777D03*
G01X54610Y128397D03*
G01X57023Y120777D03*
G01X57023Y128397D03*
G01X59690Y120777D03*
G01X59690Y128397D03*
G01X62230Y120777D03*
G01X62230Y128397D03*
G01X64643Y120777D03*
G01X64643Y128397D03*
G01X67310Y120777D03*
G01X67310Y128397D03*
G01X69723Y120777D03*
G01X69723Y128397D03*
G01X72390Y120777D03*
G01X72390Y128397D03*
G01X138303Y122555D03*
G01X138303Y114935D03*
G01X142113Y114935D03*
G01X142113Y122555D03*
G01X123063Y88900D03*
G01X130683Y88900D03*
G01X119888Y88900D03*
G01X112268Y88900D03*
G01X19685Y59817D03*
G01X12065Y59817D03*
G01X8128Y40386D03*
G01X8128Y48006D03*
G01X11734Y34417D03*
G01X11734Y42037D03*
G01X4572Y31877D03*
G01X4572Y24257D03*
G01X138176Y39116D03*
G01X138176Y46736D03*
G01X143129Y24257D03*
G01X143129Y31877D03*
G01X143129Y34671D03*
G01X143129Y42291D03*
G01X132969Y67056D03*
G01X132969Y59436D03*
G01X1524Y83947D03*
G01X9144Y83947D03*
G01X137718Y56388D03*
G01X137718Y64008D03*
G01X1397Y76200D03*
G01X9017Y76200D03*
G01X1397Y28702D03*
G01X1397Y36322D03*
G01X3302Y46990D03*
G01X3302Y54610D03*
G01X143129Y53086D03*
G01X143129Y45466D03*
G01X21590Y120904D03*
G01X21590Y128524D03*
G36*
G01X7627Y79202D02*
G01X7627Y80815D01*
G01X9240Y80815D01*
G01X9240Y79202D01*
G01X7627Y79202D01*
G37*
G54D38*
G01X3251Y80010D03*
G01X5842Y80010D03*
G36*
G01X138183Y25735D02*
G01X138183Y27348D01*
G01X139796Y27348D01*
G01X139796Y25735D01*
G01X138183Y25735D01*
G37*
G01X133807Y26543D03*
G01X136398Y26543D03*
G36*
G01X142196Y57053D02*
G01X142196Y58666D01*
G01X143809Y58666D01*
G01X143809Y57053D01*
G01X142196Y57053D01*
G37*
G01X143002Y63042D03*
G01X143002Y60452D03*
G36*
G01X3258Y38638D02*
G01X3258Y40251D01*
G01X4871Y40251D01*
G01X4871Y38638D01*
G01X3258Y38638D01*
G37*
G01X4064Y44627D03*
G01X4064Y42037D03*
G36*
G01X7500Y58120D02*
G01X7500Y59733D01*
G01X9113Y59733D01*
G01X9113Y58120D01*
G01X7500Y58120D01*
G37*
G01X3124Y58928D03*
G01X5715Y58928D03*
G36*
G01X110497Y107523D02*
G01X110497Y109136D01*
G01X112110Y109136D01*
G01X112110Y107523D01*
G01X110497Y107523D01*
G37*
G01X111302Y113512D03*
G01X111302Y110921D03*
G54D39*
G01X31999Y148895D03*
G01X114000Y148895D03*
G01X31999Y187894D03*
G01X114000Y187894D03*
G01X115165Y203335D03*
G01X48665Y203335D03*
G01X115165Y156835D03*
G01X48665Y156835D03*
G54D36*
G01X4809Y192846D03*
G01X11311Y192846D03*
G01X4809Y188325D03*
G01X11311Y188325D03*
G54D33*
G01X8060Y192872D03*
G01X8060Y188046D03*
G54D36*
G01X4809Y182948D03*
G01X11311Y182948D03*
G01X4809Y178427D03*
G01X11311Y178427D03*
G54D33*
G01X8060Y182973D03*
G01X8060Y178147D03*
G54D36*
G01X4809Y172857D03*
G01X11311Y172857D03*
G01X4809Y168335D03*
G01X11311Y168335D03*
G54D33*
G01X8060Y172882D03*
G01X8060Y168056D03*
G54D36*
G01X4809Y162867D03*
G01X11311Y162867D03*
G01X4809Y158346D03*
G01X11311Y158346D03*
G54D33*
G01X8060Y162892D03*
G01X8060Y158066D03*
G54D36*
G01X4809Y152867D03*
G01X11311Y152867D03*
G01X4809Y148346D03*
G01X11311Y148346D03*
G54D33*
G01X8060Y152892D03*
G01X8060Y148066D03*
G54D36*
G01X4809Y142867D03*
G01X11311Y142867D03*
G01X4809Y138346D03*
G01X11311Y138346D03*
G54D33*
G01X8060Y142892D03*
G01X8060Y138066D03*
G54D36*
G01X134757Y192846D03*
G01X141259Y192846D03*
G01X134757Y188325D03*
G01X141259Y188325D03*
G54D33*
G01X138008Y192872D03*
G01X138008Y188046D03*
G54D36*
G01X134757Y182948D03*
G01X141259Y182948D03*
G01X134757Y178427D03*
G01X141259Y178427D03*
G54D33*
G01X138008Y182973D03*
G01X138008Y178147D03*
G54D36*
G01X134757Y172857D03*
G01X141259Y172857D03*
G01X134757Y168335D03*
G01X141259Y168335D03*
G54D33*
G01X138008Y172882D03*
G01X138008Y168056D03*
G54D36*
G01X134757Y162857D03*
G01X141259Y162857D03*
G01X134757Y158335D03*
G01X141259Y158335D03*
G54D33*
G01X138008Y162882D03*
G01X138008Y158056D03*
G54D36*
G01X134757Y152867D03*
G01X141259Y152867D03*
G01X134757Y148346D03*
G01X141259Y148346D03*
G54D33*
G01X138008Y152892D03*
G01X138008Y148066D03*
G54D36*
G01X134757Y142867D03*
G01X141259Y142867D03*
G01X134757Y138346D03*
G01X141259Y138346D03*
G54D33*
G01X138008Y142892D03*
G01X138008Y138066D03*
G54D36*
G01X20998Y112847D03*
G01X27500Y112847D03*
G01X20998Y108325D03*
G01X27500Y108325D03*
G54D33*
G01X24249Y112872D03*
G01X24249Y108046D03*
G54D36*
G01X40507Y112847D03*
G01X47010Y112847D03*
G01X40507Y108325D03*
G01X47010Y108325D03*
G54D33*
G01X43759Y112872D03*
G01X43759Y108046D03*
G54D36*
G01X60007Y112847D03*
G01X66509Y112847D03*
G01X60007Y108325D03*
G01X66509Y108325D03*
G54D33*
G01X63258Y112872D03*
G01X63258Y108046D03*
G54D36*
G01X79509Y112847D03*
G01X86012Y112847D03*
G01X79509Y108325D03*
G01X86012Y108325D03*
G54D33*
G01X82760Y112872D03*
G01X82760Y108046D03*
G54D36*
G01X99009Y112847D03*
G01X105511Y112847D03*
G01X99009Y108325D03*
G01X105511Y108325D03*
G54D33*
G01X102260Y112872D03*
G01X102260Y108046D03*
G54D36*
G01X20998Y98897D03*
G01X27500Y98897D03*
G01X20998Y94376D03*
G01X27500Y94376D03*
G54D33*
G01X24249Y98922D03*
G01X24249Y94096D03*
G54D36*
G01X40507Y98897D03*
G01X47010Y98897D03*
G01X40507Y94376D03*
G01X47010Y94376D03*
G54D33*
G01X43759Y98922D03*
G01X43759Y94096D03*
G54D36*
G01X60007Y98897D03*
G01X66509Y98897D03*
G01X60007Y94376D03*
G01X66509Y94376D03*
G54D33*
G01X63258Y98922D03*
G01X63258Y94096D03*
G54D36*
G01X79509Y98897D03*
G01X86012Y98897D03*
G01X79509Y94376D03*
G01X86012Y94376D03*
G54D33*
G01X82760Y98922D03*
G01X82760Y94096D03*
G54D36*
G01X99009Y98897D03*
G01X105511Y98897D03*
G01X99009Y94376D03*
G01X105511Y94376D03*
G54D33*
G01X102260Y98922D03*
G01X102260Y94096D03*
G54D36*
G01X118414Y100431D03*
G01X124917Y100431D03*
G01X118414Y95910D03*
G01X124917Y95910D03*
G54D33*
G01X121666Y100457D03*
G01X121666Y95631D03*
G54D36*
G01X20998Y84848D03*
G01X27500Y84848D03*
G01X20998Y80327D03*
G01X27500Y80327D03*
G54D33*
G01X24249Y84874D03*
G01X24249Y80048D03*
G54D36*
G01X40507Y84848D03*
G01X47010Y84848D03*
G01X40507Y80327D03*
G01X47010Y80327D03*
G54D33*
G01X43759Y84874D03*
G01X43759Y80048D03*
G54D36*
G01X20998Y71348D03*
G01X27500Y71348D03*
G01X20998Y66827D03*
G01X27500Y66827D03*
G54D33*
G01X24249Y71374D03*
G01X24249Y66548D03*
G54D36*
G01X40507Y71348D03*
G01X47010Y71348D03*
G01X40507Y66827D03*
G01X47010Y66827D03*
G54D33*
G01X43759Y71374D03*
G01X43759Y66548D03*
G54D36*
G01X60561Y81749D03*
G01X67063Y81749D03*
G01X60561Y77228D03*
G01X67063Y77228D03*
G54D33*
G01X63812Y81775D03*
G01X63812Y76949D03*
G54D36*
G01X75458Y81747D03*
G01X81960Y81747D03*
G01X75458Y77226D03*
G01X81960Y77226D03*
G54D33*
G01X78709Y81772D03*
G01X78709Y76946D03*
G54D36*
G01X90459Y81747D03*
G01X96961Y81747D03*
G01X90459Y77226D03*
G01X96961Y77226D03*
G54D33*
G01X93710Y81772D03*
G01X93710Y76946D03*
G54D36*
G01X105557Y81747D03*
G01X112059Y81747D03*
G01X105557Y77226D03*
G01X112059Y77226D03*
G54D33*
G01X108808Y81772D03*
G01X108808Y76946D03*
G54D36*
G01X120459Y81747D03*
G01X126961Y81747D03*
G01X120459Y77226D03*
G01X126961Y77226D03*
G54D33*
G01X123710Y81772D03*
G01X123710Y76946D03*
G54D36*
G01X60558Y67848D03*
G01X67061Y67848D03*
G01X60558Y63327D03*
G01X67061Y63327D03*
G54D33*
G01X63809Y67873D03*
G01X63809Y63047D03*
G54D36*
G01X75458Y67848D03*
G01X81960Y67848D03*
G01X75458Y63327D03*
G01X81960Y63327D03*
G54D33*
G01X78709Y67873D03*
G01X78709Y63047D03*
G54D36*
G01X90459Y67848D03*
G01X96961Y67848D03*
G01X90459Y63327D03*
G01X96961Y63327D03*
G54D33*
G01X93710Y67873D03*
G01X93710Y63047D03*
G54D36*
G01X105557Y67848D03*
G01X112059Y67848D03*
G01X105557Y63327D03*
G01X112059Y63327D03*
G54D33*
G01X108808Y67873D03*
G01X108808Y63047D03*
G54D36*
G01X120459Y67848D03*
G01X126961Y67848D03*
G01X120459Y63327D03*
G01X126961Y63327D03*
G54D33*
G01X123710Y67873D03*
G01X123710Y63047D03*
G54D36*
G01X60558Y53848D03*
G01X67061Y53848D03*
G01X60558Y49326D03*
G01X67061Y49326D03*
G54D33*
G01X63809Y53873D03*
G01X63809Y49047D03*
G54D36*
G01X75458Y53848D03*
G01X81960Y53848D03*
G01X75458Y49326D03*
G01X81960Y49326D03*
G54D33*
G01X78709Y53873D03*
G01X78709Y49047D03*
G54D36*
G01X90459Y53848D03*
G01X96961Y53848D03*
G01X90459Y49326D03*
G01X96961Y49326D03*
G54D33*
G01X93710Y53873D03*
G01X93710Y49047D03*
G54D36*
G01X105557Y53848D03*
G01X112059Y53848D03*
G01X105557Y49326D03*
G01X112059Y49326D03*
G54D33*
G01X108808Y53873D03*
G01X108808Y49047D03*
G54D36*
G01X120459Y53848D03*
G01X126961Y53848D03*
G01X120459Y49326D03*
G01X126961Y49326D03*
G54D33*
G01X123710Y53873D03*
G01X123710Y49047D03*
G54D36*
G01X60558Y39847D03*
G01X67061Y39847D03*
G01X60558Y35326D03*
G01X67061Y35326D03*
G54D33*
G01X63809Y39872D03*
G01X63809Y35046D03*
G54D36*
G01X75458Y39847D03*
G01X81960Y39847D03*
G01X75458Y35326D03*
G01X81960Y35326D03*
G54D33*
G01X78709Y39872D03*
G01X78709Y35046D03*
G54D36*
G01X90459Y39847D03*
G01X96961Y39847D03*
G01X90459Y35326D03*
G01X96961Y35326D03*
G54D33*
G01X93710Y39872D03*
G01X93710Y35046D03*
G54D36*
G01X105557Y39847D03*
G01X112059Y39847D03*
G01X105557Y35326D03*
G01X112059Y35326D03*
G54D33*
G01X108808Y39872D03*
G01X108808Y35046D03*
G54D36*
G01X120459Y39847D03*
G01X126961Y39847D03*
G01X120459Y35326D03*
G01X126961Y35326D03*
G54D33*
G01X123710Y39872D03*
G01X123710Y35046D03*
G54D36*
G01X60558Y25847D03*
G01X67061Y25847D03*
G01X60558Y21325D03*
G01X67061Y21325D03*
G54D33*
G01X63809Y25872D03*
G01X63809Y21046D03*
G54D36*
G01X75458Y25847D03*
G01X81960Y25847D03*
G01X75458Y21325D03*
G01X81960Y21325D03*
G54D33*
G01X78709Y25872D03*
G01X78709Y21046D03*
G54D36*
G01X90459Y25847D03*
G01X96961Y25847D03*
G01X90459Y21325D03*
G01X96961Y21325D03*
G54D33*
G01X93710Y25872D03*
G01X93710Y21046D03*
G54D36*
G01X105557Y25847D03*
G01X112059Y25847D03*
G01X105557Y21325D03*
G01X112059Y21325D03*
G54D33*
G01X108808Y25872D03*
G01X108808Y21046D03*
G54D36*
G01X120459Y25847D03*
G01X126961Y25847D03*
G01X120459Y21325D03*
G01X126961Y21325D03*
G54D33*
G01X123710Y25872D03*
G01X123710Y21046D03*
G54D36*
G01X60558Y10848D03*
G01X67061Y10848D03*
G01X60558Y6327D03*
G01X67061Y6327D03*
G54D33*
G01X63809Y10873D03*
G01X63809Y6047D03*
G54D36*
G01X75458Y10848D03*
G01X81960Y10848D03*
G01X75458Y6327D03*
G01X81960Y6327D03*
G54D33*
G01X78709Y10873D03*
G01X78709Y6047D03*
G54D36*
G01X90459Y10848D03*
G01X96961Y10848D03*
G01X90459Y6327D03*
G01X96961Y6327D03*
G54D33*
G01X93710Y10873D03*
G01X93710Y6047D03*
G54D36*
G01X105557Y10848D03*
G01X112059Y10848D03*
G01X105557Y6327D03*
G01X112059Y6327D03*
G54D33*
G01X108808Y10873D03*
G01X108808Y6047D03*
G54D36*
G01X120459Y10848D03*
G01X126961Y10848D03*
G01X120459Y6327D03*
G01X126961Y6327D03*
G54D33*
G01X123710Y10873D03*
G01X123710Y6047D03*
G54D36*
G01X16847Y11049D03*
G01X23350Y11049D03*
G01X16847Y6527D03*
G01X23350Y6527D03*
G54D33*
G01X20099Y11074D03*
G01X20099Y6248D03*
G54D36*
G01X30759Y11049D03*
G01X37261Y11049D03*
G01X30759Y6527D03*
G01X37261Y6527D03*
G54D33*
G01X34010Y11074D03*
G01X34010Y6248D03*
G54D36*
G01X44759Y11049D03*
G01X51262Y11049D03*
G01X44759Y6527D03*
G01X51262Y6527D03*
G54D33*
G01X48011Y11074D03*
G01X48011Y6248D03*
G54D36*
G01X16847Y25547D03*
G01X23350Y25547D03*
G01X16847Y21026D03*
G01X23350Y21026D03*
G54D33*
G01X20099Y25572D03*
G01X20099Y20746D03*
G54D36*
G01X30759Y25547D03*
G01X37261Y25547D03*
G01X30759Y21026D03*
G01X37261Y21026D03*
G54D33*
G01X34010Y25572D03*
G01X34010Y20746D03*
G54D36*
G01X44759Y25547D03*
G01X51262Y25547D03*
G01X44759Y21026D03*
G01X51262Y21026D03*
G54D33*
G01X48011Y25572D03*
G01X48011Y20746D03*
G54D36*
G01X16847Y40147D03*
G01X23350Y40147D03*
G01X16847Y35626D03*
G01X23350Y35626D03*
G54D33*
G01X20099Y40172D03*
G01X20099Y35346D03*
G54D36*
G01X30759Y40147D03*
G01X37261Y40147D03*
G01X30759Y35626D03*
G01X37261Y35626D03*
G54D33*
G01X34010Y40172D03*
G01X34010Y35346D03*
G54D36*
G01X44759Y40147D03*
G01X51262Y40147D03*
G01X44759Y35626D03*
G01X51262Y35626D03*
G54D33*
G01X48011Y40172D03*
G01X48011Y35346D03*
G54D36*
G01X16847Y54648D03*
G01X23350Y54648D03*
G01X16847Y50126D03*
G01X23350Y50126D03*
G54D33*
G01X20099Y54673D03*
G01X20099Y49847D03*
G54D36*
G01X30759Y54648D03*
G01X37261Y54648D03*
G01X30759Y50126D03*
G01X37261Y50126D03*
G54D33*
G01X34010Y54673D03*
G01X34010Y49847D03*
G54D36*
G01X44759Y54648D03*
G01X51262Y54648D03*
G01X44759Y50126D03*
G01X51262Y50126D03*
G54D33*
G01X48011Y54673D03*
G01X48011Y49847D03*
G54D40*
G01X117768Y113157D03*
G01X117768Y110617D03*
G01X117768Y108077D03*
G01X132268Y113157D03*
G01X132268Y108077D03*
G54D41*
G01X138000Y53687D03*
G01X138000Y51147D03*
G01X138000Y35288D03*
G01X138000Y32748D03*
G01X126746Y92710D03*
G01X124206Y92710D03*
G01X118999Y92583D03*
G01X116459Y92583D03*
G01X8001Y53687D03*
G01X8001Y51147D03*
G01X8001Y35288D03*
G01X8001Y32748D03*
G54D39*
G01X32689Y156210D03*
G01X32689Y200209D03*
G01X127389Y156210D03*
G01X127389Y200209D03*
G01X130048Y100457D03*
G01X74168Y100457D03*
G01X127389Y135210D03*
M00*
M02*
