G04 Layer: BottomSilkLayer*
G04 EasyEDA v6.2.41, 2019-09-02T03:45:47+08:00*
G04 cccedabf26fb4476aab39dafb03c201f,018b6882be54474e8367c410bdd36671,10*
G04 Gerber Generator version 0.2*
G04 Scale: 100 percent, Rotated: No, Reflected: No *
G04 Dimensions in millimeters *
G04 leading zeros omitted , absolute positions ,3 integer and 3 decimal *
%FSLAX33Y33*%
%MOMM*%
G90*
G71D02*

%ADD10C,0.254000*%
%ADD25C,0.203200*%
%ADD26C,0.152400*%
%ADD27C,0.228600*%
%ADD28C,0.200660*%
%ADD29C,0.248920*%
%ADD30C,0.177800*%

%LPD*%
G54D10*
G01X75311Y30177D02*
G01X75311Y54177D01*
G01X72311Y27178D02*
G01X13311Y27178D01*
G01X72311Y57177D02*
G01X13311Y57177D01*
G01X10311Y54177D02*
G01X10311Y30177D01*
G01X113411Y29337D02*
G01X135001Y29337D01*
G01X135001Y45974D01*
G01X113411Y45974D01*
G01X113411Y29337D01*
G01X134322Y82793D02*
G01X141622Y82793D01*
G01X134322Y74932D02*
G01X141622Y74932D01*
G01X134322Y74963D02*
G01X134322Y82761D01*
G01X141624Y74959D02*
G01X141624Y82758D01*
G01X134975Y74960D02*
G01X134975Y82759D01*
G01X2219Y117050D02*
G01X2219Y124350D01*
G01X10081Y117050D02*
G01X10081Y124350D01*
G01X10050Y117050D02*
G01X2251Y117050D01*
G01X10054Y124352D02*
G01X2255Y124352D01*
G01X10053Y117703D02*
G01X2254Y117703D01*
G54D27*
G01X122555Y127127D02*
G01X122555Y122047D01*
G01X124841Y122047D01*
G01X124841Y127127D01*
G01X122555Y127127D01*
G01X122555Y122682D02*
G01X124841Y122682D01*
G01X114935Y127127D02*
G01X114935Y122047D01*
G01X117221Y122047D01*
G01X117221Y127127D01*
G01X114935Y127127D01*
G01X114935Y122682D02*
G01X117221Y122682D01*
G01X118745Y127127D02*
G01X118745Y122047D01*
G01X121031Y122047D01*
G01X121031Y127127D01*
G01X118745Y127127D01*
G01X118745Y122682D02*
G01X121031Y122682D01*
G01X111125Y127127D02*
G01X111125Y122047D01*
G01X113411Y122047D01*
G01X113411Y127127D01*
G01X111125Y127127D01*
G01X111125Y122682D02*
G01X113411Y122682D01*
G01X107315Y127127D02*
G01X107315Y122047D01*
G01X109601Y122047D01*
G01X109601Y127127D01*
G01X107315Y127127D01*
G01X107315Y122682D02*
G01X109601Y122682D01*
G01X92075Y127127D02*
G01X92075Y122047D01*
G01X94361Y122047D01*
G01X94361Y127127D01*
G01X92075Y127127D01*
G01X92075Y122682D02*
G01X94361Y122682D01*
G01X96012Y127127D02*
G01X96012Y122047D01*
G01X98298Y122047D01*
G01X98298Y127127D01*
G01X96012Y127127D01*
G01X96012Y122682D02*
G01X98298Y122682D01*
G01X99695Y127127D02*
G01X99695Y122047D01*
G01X101981Y122047D01*
G01X101981Y127127D01*
G01X99695Y127127D01*
G01X99695Y122682D02*
G01X101981Y122682D01*
G01X103505Y127127D02*
G01X103505Y122047D01*
G01X105791Y122047D01*
G01X105791Y127127D01*
G01X103505Y127127D01*
G01X103505Y122682D02*
G01X105791Y122682D01*
G54D10*
G01X47752Y122047D02*
G01X47752Y127127D01*
G01X47752Y127127D02*
G01X46990Y127127D01*
G01X46990Y127127D02*
G01X46228Y127127D01*
G01X46228Y127127D02*
G01X46228Y122047D01*
G01X46228Y122047D02*
G01X46990Y122047D01*
G01X46990Y122047D02*
G01X47752Y122047D01*
G01X46990Y127127D02*
G01X46990Y127381D01*
G01X46990Y122047D02*
G01X46990Y121793D01*
G01X29972Y122174D02*
G01X29972Y127254D01*
G01X29972Y127254D02*
G01X29210Y127254D01*
G01X29210Y127254D02*
G01X28448Y127254D01*
G01X28448Y127254D02*
G01X28448Y122174D01*
G01X28448Y122174D02*
G01X29210Y122174D01*
G01X29210Y122174D02*
G01X29972Y122174D01*
G01X29210Y127254D02*
G01X29210Y127508D01*
G01X29210Y122174D02*
G01X29210Y121920D01*
G01X17272Y122174D02*
G01X17272Y127254D01*
G01X17272Y127254D02*
G01X16510Y127254D01*
G01X16510Y127254D02*
G01X15748Y127254D01*
G01X15748Y127254D02*
G01X15748Y122174D01*
G01X15748Y122174D02*
G01X16510Y122174D01*
G01X16510Y122174D02*
G01X17272Y122174D01*
G01X16510Y127254D02*
G01X16510Y127508D01*
G01X16510Y122174D02*
G01X16510Y121920D01*
G01X19735Y122174D02*
G01X19735Y127254D01*
G01X19735Y127254D02*
G01X18973Y127254D01*
G01X18973Y127254D02*
G01X18211Y127254D01*
G01X18211Y127254D02*
G01X18211Y122174D01*
G01X18211Y122174D02*
G01X18973Y122174D01*
G01X18973Y122174D02*
G01X19735Y122174D01*
G01X18973Y127254D02*
G01X18973Y127508D01*
G01X18973Y122174D02*
G01X18973Y121920D01*
G01X40132Y122047D02*
G01X40132Y127127D01*
G01X40132Y127127D02*
G01X39370Y127127D01*
G01X39370Y127127D02*
G01X38608Y127127D01*
G01X38608Y127127D02*
G01X38608Y122047D01*
G01X38608Y122047D02*
G01X39370Y122047D01*
G01X39370Y122047D02*
G01X40132Y122047D01*
G01X39370Y127127D02*
G01X39370Y127381D01*
G01X39370Y122047D02*
G01X39370Y121793D01*
G01X45212Y122047D02*
G01X45212Y127127D01*
G01X45212Y127127D02*
G01X44450Y127127D01*
G01X44450Y127127D02*
G01X43688Y127127D01*
G01X43688Y127127D02*
G01X43688Y122047D01*
G01X43688Y122047D02*
G01X44450Y122047D01*
G01X44450Y122047D02*
G01X45212Y122047D01*
G01X44450Y127127D02*
G01X44450Y127381D01*
G01X44450Y122047D02*
G01X44450Y121793D01*
G01X42672Y122047D02*
G01X42672Y127127D01*
G01X42672Y127127D02*
G01X41910Y127127D01*
G01X41910Y127127D02*
G01X41148Y127127D01*
G01X41148Y127127D02*
G01X41148Y122047D01*
G01X41148Y122047D02*
G01X41910Y122047D01*
G01X41910Y122047D02*
G01X42672Y122047D01*
G01X41910Y127127D02*
G01X41910Y127381D01*
G01X41910Y122047D02*
G01X41910Y121793D01*
G01X50292Y122047D02*
G01X50292Y127127D01*
G01X50292Y127127D02*
G01X49530Y127127D01*
G01X49530Y127127D02*
G01X48768Y127127D01*
G01X48768Y127127D02*
G01X48768Y122047D01*
G01X48768Y122047D02*
G01X49530Y122047D01*
G01X49530Y122047D02*
G01X50292Y122047D01*
G01X49530Y127127D02*
G01X49530Y127381D01*
G01X49530Y122047D02*
G01X49530Y121793D01*
G01X35052Y122174D02*
G01X35052Y127254D01*
G01X35052Y127254D02*
G01X34290Y127254D01*
G01X34290Y127254D02*
G01X33528Y127254D01*
G01X33528Y127254D02*
G01X33528Y122174D01*
G01X33528Y122174D02*
G01X34290Y122174D01*
G01X34290Y122174D02*
G01X35052Y122174D01*
G01X34290Y127254D02*
G01X34290Y127508D01*
G01X34290Y122174D02*
G01X34290Y121920D01*
G01X37592Y122047D02*
G01X37592Y127127D01*
G01X37592Y127127D02*
G01X36830Y127127D01*
G01X36830Y127127D02*
G01X36068Y127127D01*
G01X36068Y127127D02*
G01X36068Y122047D01*
G01X36068Y122047D02*
G01X36830Y122047D01*
G01X36830Y122047D02*
G01X37592Y122047D01*
G01X36830Y127127D02*
G01X36830Y127381D01*
G01X36830Y122047D02*
G01X36830Y121793D01*
G01X27432Y122174D02*
G01X27432Y127254D01*
G01X27432Y127254D02*
G01X26670Y127254D01*
G01X26670Y127254D02*
G01X25908Y127254D01*
G01X25908Y127254D02*
G01X25908Y122174D01*
G01X25908Y122174D02*
G01X26670Y122174D01*
G01X26670Y122174D02*
G01X27432Y122174D01*
G01X26670Y127254D02*
G01X26670Y127508D01*
G01X26670Y122174D02*
G01X26670Y121920D01*
G01X32512Y122174D02*
G01X32512Y127254D01*
G01X32512Y127254D02*
G01X31750Y127254D01*
G01X31750Y127254D02*
G01X30988Y127254D01*
G01X30988Y127254D02*
G01X30988Y122174D01*
G01X30988Y122174D02*
G01X31750Y122174D01*
G01X31750Y122174D02*
G01X32512Y122174D01*
G01X31750Y127254D02*
G01X31750Y127508D01*
G01X31750Y122174D02*
G01X31750Y121920D01*
G01X24892Y122174D02*
G01X24892Y127254D01*
G01X24892Y127254D02*
G01X24130Y127254D01*
G01X24130Y127254D02*
G01X23368Y127254D01*
G01X23368Y127254D02*
G01X23368Y122174D01*
G01X23368Y122174D02*
G01X24130Y122174D01*
G01X24130Y122174D02*
G01X24892Y122174D01*
G01X24130Y127254D02*
G01X24130Y127508D01*
G01X24130Y122174D02*
G01X24130Y121920D01*
G01X52832Y122047D02*
G01X52832Y127127D01*
G01X52832Y127127D02*
G01X52070Y127127D01*
G01X52070Y127127D02*
G01X51308Y127127D01*
G01X51308Y127127D02*
G01X51308Y122047D01*
G01X51308Y122047D02*
G01X52070Y122047D01*
G01X52070Y122047D02*
G01X52832Y122047D01*
G01X52070Y127127D02*
G01X52070Y127381D01*
G01X52070Y122047D02*
G01X52070Y121793D01*
G01X55372Y122047D02*
G01X55372Y127127D01*
G01X55372Y127127D02*
G01X54610Y127127D01*
G01X54610Y127127D02*
G01X53848Y127127D01*
G01X53848Y127127D02*
G01X53848Y122047D01*
G01X53848Y122047D02*
G01X54610Y122047D01*
G01X54610Y122047D02*
G01X55372Y122047D01*
G01X54610Y127127D02*
G01X54610Y127381D01*
G01X54610Y122047D02*
G01X54610Y121793D01*
G01X57785Y122047D02*
G01X57785Y127127D01*
G01X57785Y127127D02*
G01X57023Y127127D01*
G01X57023Y127127D02*
G01X56261Y127127D01*
G01X56261Y127127D02*
G01X56261Y122047D01*
G01X56261Y122047D02*
G01X57023Y122047D01*
G01X57023Y122047D02*
G01X57785Y122047D01*
G01X57023Y127127D02*
G01X57023Y127381D01*
G01X57023Y122047D02*
G01X57023Y121793D01*
G01X60452Y122047D02*
G01X60452Y127127D01*
G01X60452Y127127D02*
G01X59690Y127127D01*
G01X59690Y127127D02*
G01X58928Y127127D01*
G01X58928Y127127D02*
G01X58928Y122047D01*
G01X58928Y122047D02*
G01X59690Y122047D01*
G01X59690Y122047D02*
G01X60452Y122047D01*
G01X59690Y127127D02*
G01X59690Y127381D01*
G01X59690Y122047D02*
G01X59690Y121793D01*
G01X62992Y122047D02*
G01X62992Y127127D01*
G01X62992Y127127D02*
G01X62230Y127127D01*
G01X62230Y127127D02*
G01X61468Y127127D01*
G01X61468Y127127D02*
G01X61468Y122047D01*
G01X61468Y122047D02*
G01X62230Y122047D01*
G01X62230Y122047D02*
G01X62992Y122047D01*
G01X62230Y127127D02*
G01X62230Y127381D01*
G01X62230Y122047D02*
G01X62230Y121793D01*
G01X65405Y122047D02*
G01X65405Y127127D01*
G01X65405Y127127D02*
G01X64643Y127127D01*
G01X64643Y127127D02*
G01X63881Y127127D01*
G01X63881Y127127D02*
G01X63881Y122047D01*
G01X63881Y122047D02*
G01X64643Y122047D01*
G01X64643Y122047D02*
G01X65405Y122047D01*
G01X64643Y127127D02*
G01X64643Y127381D01*
G01X64643Y122047D02*
G01X64643Y121793D01*
G01X68072Y122047D02*
G01X68072Y127127D01*
G01X68072Y127127D02*
G01X67310Y127127D01*
G01X67310Y127127D02*
G01X66548Y127127D01*
G01X66548Y127127D02*
G01X66548Y122047D01*
G01X66548Y122047D02*
G01X67310Y122047D01*
G01X67310Y122047D02*
G01X68072Y122047D01*
G01X67310Y127127D02*
G01X67310Y127381D01*
G01X67310Y122047D02*
G01X67310Y121793D01*
G01X70485Y122047D02*
G01X70485Y127127D01*
G01X70485Y127127D02*
G01X69723Y127127D01*
G01X69723Y127127D02*
G01X68961Y127127D01*
G01X68961Y127127D02*
G01X68961Y122047D01*
G01X68961Y122047D02*
G01X69723Y122047D01*
G01X69723Y122047D02*
G01X70485Y122047D01*
G01X69723Y127127D02*
G01X69723Y127381D01*
G01X69723Y122047D02*
G01X69723Y121793D01*
G01X73152Y122047D02*
G01X73152Y127127D01*
G01X73152Y127127D02*
G01X72390Y127127D01*
G01X72390Y127127D02*
G01X71628Y127127D01*
G01X71628Y127127D02*
G01X71628Y122047D01*
G01X71628Y122047D02*
G01X72390Y122047D01*
G01X72390Y122047D02*
G01X73152Y122047D01*
G01X72390Y127127D02*
G01X72390Y127381D01*
G01X72390Y122047D02*
G01X72390Y121793D01*
G01X137541Y121285D02*
G01X137541Y116205D01*
G01X137541Y116205D02*
G01X138303Y116205D01*
G01X138303Y116205D02*
G01X139065Y116205D01*
G01X139065Y116205D02*
G01X139065Y121285D01*
G01X139065Y121285D02*
G01X138303Y121285D01*
G01X138303Y121285D02*
G01X137541Y121285D01*
G01X138303Y116205D02*
G01X138303Y115951D01*
G01X138303Y121285D02*
G01X138303Y121539D01*
G01X142875Y116205D02*
G01X142875Y121285D01*
G01X142875Y121285D02*
G01X142113Y121285D01*
G01X142113Y121285D02*
G01X141351Y121285D01*
G01X141351Y121285D02*
G01X141351Y116205D01*
G01X141351Y116205D02*
G01X142113Y116205D01*
G01X142113Y116205D02*
G01X142875Y116205D01*
G01X142113Y121285D02*
G01X142113Y121539D01*
G01X142113Y116205D02*
G01X142113Y115951D01*
G01X124333Y88138D02*
G01X129413Y88138D01*
G01X129413Y88138D02*
G01X129413Y88900D01*
G01X129413Y88900D02*
G01X129413Y89662D01*
G01X129413Y89662D02*
G01X124333Y89662D01*
G01X124333Y89662D02*
G01X124333Y88900D01*
G01X124333Y88900D02*
G01X124333Y88138D01*
G01X129413Y88900D02*
G01X129667Y88900D01*
G01X124333Y88900D02*
G01X124079Y88900D01*
G01X118618Y89662D02*
G01X113538Y89662D01*
G01X113538Y89662D02*
G01X113538Y88900D01*
G01X113538Y88900D02*
G01X113538Y88138D01*
G01X113538Y88138D02*
G01X118618Y88138D01*
G01X118618Y88138D02*
G01X118618Y88900D01*
G01X118618Y88900D02*
G01X118618Y89662D01*
G01X113538Y88900D02*
G01X113284Y88900D01*
G01X118618Y88900D02*
G01X118872Y88900D01*
G01X18415Y60579D02*
G01X13335Y60579D01*
G01X13335Y60579D02*
G01X13335Y59817D01*
G01X13335Y59817D02*
G01X13335Y59055D01*
G01X13335Y59055D02*
G01X18415Y59055D01*
G01X18415Y59055D02*
G01X18415Y59817D01*
G01X18415Y59817D02*
G01X18415Y60579D01*
G01X13335Y59817D02*
G01X13081Y59817D01*
G01X18415Y59817D02*
G01X18669Y59817D01*
G01X8890Y41656D02*
G01X8890Y46736D01*
G01X8890Y46736D02*
G01X8128Y46736D01*
G01X8128Y46736D02*
G01X7366Y46736D01*
G01X7366Y46736D02*
G01X7366Y41656D01*
G01X7366Y41656D02*
G01X8128Y41656D01*
G01X8128Y41656D02*
G01X8890Y41656D01*
G01X8128Y46736D02*
G01X8128Y46990D01*
G01X8128Y41656D02*
G01X8128Y41402D01*
G01X12496Y35687D02*
G01X12496Y40767D01*
G01X12496Y40767D02*
G01X11734Y40767D01*
G01X11734Y40767D02*
G01X10972Y40767D01*
G01X10972Y40767D02*
G01X10972Y35687D01*
G01X10972Y35687D02*
G01X11734Y35687D01*
G01X11734Y35687D02*
G01X12496Y35687D01*
G01X11734Y40767D02*
G01X11734Y41021D01*
G01X11734Y35687D02*
G01X11734Y35433D01*
G01X3810Y30607D02*
G01X3810Y25527D01*
G01X3810Y25527D02*
G01X4572Y25527D01*
G01X4572Y25527D02*
G01X5334Y25527D01*
G01X5334Y25527D02*
G01X5334Y30607D01*
G01X5334Y30607D02*
G01X4572Y30607D01*
G01X4572Y30607D02*
G01X3810Y30607D01*
G01X4572Y25527D02*
G01X4572Y25273D01*
G01X4572Y30607D02*
G01X4572Y30861D01*
G01X138938Y40386D02*
G01X138938Y45466D01*
G01X138938Y45466D02*
G01X138176Y45466D01*
G01X138176Y45466D02*
G01X137414Y45466D01*
G01X137414Y45466D02*
G01X137414Y40386D01*
G01X137414Y40386D02*
G01X138176Y40386D01*
G01X138176Y40386D02*
G01X138938Y40386D01*
G01X138176Y45466D02*
G01X138176Y45720D01*
G01X138176Y40386D02*
G01X138176Y40132D01*
G01X143891Y25527D02*
G01X143891Y30607D01*
G01X143891Y30607D02*
G01X143129Y30607D01*
G01X143129Y30607D02*
G01X142367Y30607D01*
G01X142367Y30607D02*
G01X142367Y25527D01*
G01X142367Y25527D02*
G01X143129Y25527D01*
G01X143129Y25527D02*
G01X143891Y25527D01*
G01X143129Y30607D02*
G01X143129Y30861D01*
G01X143129Y25527D02*
G01X143129Y25273D01*
G01X143891Y35941D02*
G01X143891Y41021D01*
G01X143891Y41021D02*
G01X143129Y41021D01*
G01X143129Y41021D02*
G01X142367Y41021D01*
G01X142367Y41021D02*
G01X142367Y35941D01*
G01X142367Y35941D02*
G01X143129Y35941D01*
G01X143129Y35941D02*
G01X143891Y35941D01*
G01X143129Y41021D02*
G01X143129Y41275D01*
G01X143129Y35941D02*
G01X143129Y35687D01*
G01X132207Y65786D02*
G01X132207Y60706D01*
G01X132207Y60706D02*
G01X132969Y60706D01*
G01X132969Y60706D02*
G01X133731Y60706D01*
G01X133731Y60706D02*
G01X133731Y65786D01*
G01X133731Y65786D02*
G01X132969Y65786D01*
G01X132969Y65786D02*
G01X132207Y65786D01*
G01X132969Y60706D02*
G01X132969Y60452D01*
G01X132969Y65786D02*
G01X132969Y66040D01*
G01X2794Y83185D02*
G01X7874Y83185D01*
G01X7874Y83185D02*
G01X7874Y83947D01*
G01X7874Y83947D02*
G01X7874Y84709D01*
G01X7874Y84709D02*
G01X2794Y84709D01*
G01X2794Y84709D02*
G01X2794Y83947D01*
G01X2794Y83947D02*
G01X2794Y83185D01*
G01X7874Y83947D02*
G01X8128Y83947D01*
G01X2794Y83947D02*
G01X2540Y83947D01*
G01X138480Y57658D02*
G01X138480Y62738D01*
G01X138480Y62738D02*
G01X137718Y62738D01*
G01X137718Y62738D02*
G01X136956Y62738D01*
G01X136956Y62738D02*
G01X136956Y57658D01*
G01X136956Y57658D02*
G01X137718Y57658D01*
G01X137718Y57658D02*
G01X138480Y57658D01*
G01X137718Y62738D02*
G01X137718Y62992D01*
G01X137718Y57658D02*
G01X137718Y57404D01*
G01X2667Y75438D02*
G01X7747Y75438D01*
G01X7747Y75438D02*
G01X7747Y76200D01*
G01X7747Y76200D02*
G01X7747Y76962D01*
G01X7747Y76962D02*
G01X2667Y76962D01*
G01X2667Y76962D02*
G01X2667Y76200D01*
G01X2667Y76200D02*
G01X2667Y75438D01*
G01X7747Y76200D02*
G01X8001Y76200D01*
G01X2667Y76200D02*
G01X2413Y76200D01*
G01X2159Y29972D02*
G01X2159Y35052D01*
G01X2159Y35052D02*
G01X1397Y35052D01*
G01X1397Y35052D02*
G01X635Y35052D01*
G01X635Y35052D02*
G01X635Y29972D01*
G01X635Y29972D02*
G01X1397Y29972D01*
G01X1397Y29972D02*
G01X2159Y29972D01*
G01X1397Y35052D02*
G01X1397Y35306D01*
G01X1397Y29972D02*
G01X1397Y29718D01*
G01X4064Y48260D02*
G01X4064Y53340D01*
G01X4064Y53340D02*
G01X3302Y53340D01*
G01X3302Y53340D02*
G01X2540Y53340D01*
G01X2540Y53340D02*
G01X2540Y48260D01*
G01X2540Y48260D02*
G01X3302Y48260D01*
G01X3302Y48260D02*
G01X4064Y48260D01*
G01X3302Y53340D02*
G01X3302Y53594D01*
G01X3302Y48260D02*
G01X3302Y48006D01*
G01X142367Y51816D02*
G01X142367Y46736D01*
G01X142367Y46736D02*
G01X143129Y46736D01*
G01X143129Y46736D02*
G01X143891Y46736D01*
G01X143891Y46736D02*
G01X143891Y51816D01*
G01X143891Y51816D02*
G01X143129Y51816D01*
G01X143129Y51816D02*
G01X142367Y51816D01*
G01X143129Y46736D02*
G01X143129Y46482D01*
G01X143129Y51816D02*
G01X143129Y52070D01*
G01X22352Y122174D02*
G01X22352Y127254D01*
G01X22352Y127254D02*
G01X21590Y127254D01*
G01X21590Y127254D02*
G01X20828Y127254D01*
G01X20828Y127254D02*
G01X20828Y122174D01*
G01X20828Y122174D02*
G01X21590Y122174D01*
G01X21590Y122174D02*
G01X22352Y122174D01*
G01X21590Y127254D02*
G01X21590Y127508D01*
G01X21590Y122174D02*
G01X21590Y121920D01*
G54D28*
G01X7774Y78673D02*
G01X3909Y78673D01*
G01X138330Y25206D02*
G01X134465Y25206D01*
G01X141665Y58519D02*
G01X141665Y62384D01*
G01X2727Y40104D02*
G01X2727Y43969D01*
G01X7647Y57591D02*
G01X3782Y57591D01*
G01X109966Y108988D02*
G01X109966Y112854D01*
G54D10*
G01X27999Y144895D02*
G01X118000Y144895D01*
G01X118000Y206895D01*
G01X27999Y206895D01*
G01X27999Y144895D01*
G01X57999Y154894D02*
G01X87999Y154894D01*
G01X87999Y159894D01*
G01X57999Y159894D01*
G01X57999Y154894D01*
G01X34100Y192901D02*
G01X43099Y192901D01*
G01X43099Y206900D01*
G01X34100Y206900D01*
G01X34100Y192901D01*
G01X47999Y195910D02*
G01X62999Y195910D01*
G01X62999Y206910D01*
G01X47999Y206910D01*
G01X47999Y195910D01*
G01X68300Y197894D02*
G01X99300Y197894D01*
G01X99300Y212894D01*
G01X68300Y212894D01*
G01X68300Y197894D01*
G01X105000Y202395D02*
G01X113000Y202395D01*
G01X113000Y211395D01*
G01X105000Y211395D01*
G01X105000Y202395D01*
G01X111946Y168894D02*
G01X117946Y168894D01*
G01X117946Y182894D01*
G01X111946Y182894D01*
G01X111946Y168894D01*
G54D25*
G01X100330Y212917D02*
G01X100330Y211247D01*
G01X100330Y212042D02*
G01X100091Y212281D01*
G01X99932Y212360D01*
G01X99693Y212360D01*
G01X99534Y212281D01*
G01X99454Y212042D01*
G01X99454Y211247D01*
G01X98691Y212917D02*
G01X98691Y211565D01*
G01X98611Y211326D01*
G01X98452Y211247D01*
G01X98293Y211247D01*
G01X98929Y212360D02*
G01X98373Y212360D01*
G01X97529Y212917D02*
G01X97529Y211565D01*
G01X97450Y211326D01*
G01X97291Y211247D01*
G01X97132Y211247D01*
G01X97768Y212360D02*
G01X97211Y212360D01*
G01X96607Y212360D02*
G01X96607Y210690D01*
G01X96607Y212122D02*
G01X96448Y212281D01*
G01X96288Y212360D01*
G01X96050Y212360D01*
G01X95891Y212281D01*
G01X95732Y212122D01*
G01X95652Y211883D01*
G01X95652Y211724D01*
G01X95732Y211485D01*
G01X95891Y211326D01*
G01X96050Y211247D01*
G01X96288Y211247D01*
G01X96448Y211326D01*
G01X96607Y211485D01*
G01X95047Y212201D02*
G01X95127Y212122D01*
G01X95047Y212042D01*
G01X94968Y212122D01*
G01X95047Y212201D01*
G01X95047Y211644D02*
G01X95127Y211565D01*
G01X95047Y211485D01*
G01X94968Y211565D01*
G01X95047Y211644D01*
G01X93011Y213235D02*
G01X94443Y210690D01*
G01X91054Y213235D02*
G01X92486Y210690D01*
G01X90529Y212917D02*
G01X90529Y211247D01*
G01X90529Y212122D02*
G01X90370Y212281D01*
G01X90211Y212360D01*
G01X89972Y212360D01*
G01X89813Y212281D01*
G01X89654Y212122D01*
G01X89575Y211883D01*
G01X89575Y211724D01*
G01X89654Y211485D01*
G01X89813Y211326D01*
G01X89972Y211247D01*
G01X90211Y211247D01*
G01X90370Y211326D01*
G01X90529Y211485D01*
G01X89050Y212917D02*
G01X89050Y211247D01*
G01X88127Y212360D02*
G01X88286Y212281D01*
G01X88445Y212122D01*
G01X88525Y211883D01*
G01X88525Y211724D01*
G01X88445Y211485D01*
G01X88286Y211326D01*
G01X88127Y211247D01*
G01X87888Y211247D01*
G01X87729Y211326D01*
G01X87570Y211485D01*
G01X87490Y211724D01*
G01X87490Y211883D01*
G01X87570Y212122D01*
G01X87729Y212281D01*
G01X87888Y212360D01*
G01X88127Y212360D01*
G01X86011Y212360D02*
G01X86011Y211087D01*
G01X86090Y210849D01*
G01X86170Y210769D01*
G01X86329Y210690D01*
G01X86568Y210690D01*
G01X86727Y210769D01*
G01X86011Y212122D02*
G01X86170Y212281D01*
G01X86329Y212360D01*
G01X86568Y212360D01*
G01X86727Y212281D01*
G01X86886Y212122D01*
G01X86965Y211883D01*
G01X86965Y211724D01*
G01X86886Y211485D01*
G01X86727Y211326D01*
G01X86568Y211247D01*
G01X86329Y211247D01*
G01X86170Y211326D01*
G01X86011Y211485D01*
G01X85406Y211644D02*
G01X85486Y211565D01*
G01X85406Y211485D01*
G01X85327Y211565D01*
G01X85406Y211644D01*
G01X83927Y212122D02*
G01X84006Y212281D01*
G01X84245Y212360D01*
G01X84484Y212360D01*
G01X84722Y212281D01*
G01X84802Y212122D01*
G01X84722Y211963D01*
G01X84563Y211883D01*
G01X84165Y211803D01*
G01X84006Y211724D01*
G01X83927Y211565D01*
G01X83927Y211485D01*
G01X84006Y211326D01*
G01X84245Y211247D01*
G01X84484Y211247D01*
G01X84722Y211326D01*
G01X84802Y211485D01*
G01X83402Y212917D02*
G01X83402Y211247D01*
G01X83402Y212042D02*
G01X83163Y212281D01*
G01X83004Y212360D01*
G01X82765Y212360D01*
G01X82606Y212281D01*
G01X82527Y212042D01*
G01X82527Y211247D01*
G01X81047Y212360D02*
G01X81047Y211247D01*
G01X81047Y212122D02*
G01X81206Y212281D01*
G01X81365Y212360D01*
G01X81604Y212360D01*
G01X81763Y212281D01*
G01X81922Y212122D01*
G01X82002Y211883D01*
G01X82002Y211724D01*
G01X81922Y211485D01*
G01X81763Y211326D01*
G01X81604Y211247D01*
G01X81365Y211247D01*
G01X81206Y211326D01*
G01X81047Y211485D01*
G01X80522Y212917D02*
G01X80522Y211247D01*
G01X80522Y212042D02*
G01X80283Y212281D01*
G01X80124Y212360D01*
G01X79886Y212360D01*
G01X79727Y212281D01*
G01X79647Y212042D01*
G01X79647Y211247D01*
G01X78167Y212360D02*
G01X78167Y211247D01*
G01X78167Y212122D02*
G01X78326Y212281D01*
G01X78486Y212360D01*
G01X78724Y212360D01*
G01X78883Y212281D01*
G01X79042Y212122D01*
G01X79122Y211883D01*
G01X79122Y211724D01*
G01X79042Y211485D01*
G01X78883Y211326D01*
G01X78724Y211247D01*
G01X78486Y211247D01*
G01X78326Y211326D01*
G01X78167Y211485D01*
G01X76688Y212917D02*
G01X76688Y211247D01*
G01X76688Y212122D02*
G01X76847Y212281D01*
G01X77006Y212360D01*
G01X77245Y212360D01*
G01X77404Y212281D01*
G01X77563Y212122D01*
G01X77642Y211883D01*
G01X77642Y211724D01*
G01X77563Y211485D01*
G01X77404Y211326D01*
G01X77245Y211247D01*
G01X77006Y211247D01*
G01X76847Y211326D01*
G01X76688Y211485D01*
G01X75208Y212360D02*
G01X75208Y211247D01*
G01X75208Y212122D02*
G01X75367Y212281D01*
G01X75526Y212360D01*
G01X75765Y212360D01*
G01X75924Y212281D01*
G01X76083Y212122D01*
G01X76163Y211883D01*
G01X76163Y211724D01*
G01X76083Y211485D01*
G01X75924Y211326D01*
G01X75765Y211247D01*
G01X75526Y211247D01*
G01X75367Y211326D01*
G01X75208Y211485D01*
G01X74604Y211644D02*
G01X74683Y211565D01*
G01X74604Y211485D01*
G01X74524Y211565D01*
G01X74604Y211644D01*
G01X73044Y212360D02*
G01X73044Y211247D01*
G01X73044Y212122D02*
G01X73204Y212281D01*
G01X73363Y212360D01*
G01X73601Y212360D01*
G01X73760Y212281D01*
G01X73919Y212122D01*
G01X73999Y211883D01*
G01X73999Y211724D01*
G01X73919Y211485D01*
G01X73760Y211326D01*
G01X73601Y211247D01*
G01X73363Y211247D01*
G01X73204Y211326D01*
G01X73044Y211485D01*
G01X72519Y212917D02*
G01X72519Y211247D01*
G01X72519Y212122D02*
G01X72360Y212281D01*
G01X72201Y212360D01*
G01X71963Y212360D01*
G01X71804Y212281D01*
G01X71644Y212122D01*
G01X71565Y211883D01*
G01X71565Y211724D01*
G01X71644Y211485D01*
G01X71804Y211326D01*
G01X71963Y211247D01*
G01X72201Y211247D01*
G01X72360Y211326D01*
G01X72519Y211485D01*
G01X71040Y212360D02*
G01X71040Y211565D01*
G01X70960Y211326D01*
G01X70801Y211247D01*
G01X70563Y211247D01*
G01X70403Y211326D01*
G01X70165Y211565D01*
G01X70165Y212360D02*
G01X70165Y211247D01*
G01X69640Y212917D02*
G01X69640Y211247D01*
G01X69640Y212122D02*
G01X69481Y212281D01*
G01X69322Y212360D01*
G01X69083Y212360D01*
G01X68924Y212281D01*
G01X68765Y212122D01*
G01X68685Y211883D01*
G01X68685Y211724D01*
G01X68765Y211485D01*
G01X68924Y211326D01*
G01X69083Y211247D01*
G01X69322Y211247D01*
G01X69481Y211326D01*
G01X69640Y211485D01*
G01X67206Y212360D02*
G01X67206Y211247D01*
G01X67206Y212122D02*
G01X67365Y212281D01*
G01X67524Y212360D01*
G01X67762Y212360D01*
G01X67922Y212281D01*
G01X68081Y212122D01*
G01X68160Y211883D01*
G01X68160Y211724D01*
G01X68081Y211485D01*
G01X67922Y211326D01*
G01X67762Y211247D01*
G01X67524Y211247D01*
G01X67365Y211326D01*
G01X67206Y211485D01*
G01X66681Y212917D02*
G01X66681Y211247D01*
G01X65885Y212360D02*
G01X66681Y211565D01*
G01X66362Y211883D02*
G01X65806Y211247D01*
G01X64326Y212360D02*
G01X64326Y211247D01*
G01X64326Y212122D02*
G01X64485Y212281D01*
G01X64644Y212360D01*
G01X64883Y212360D01*
G01X65042Y212281D01*
G01X65201Y212122D01*
G01X65281Y211883D01*
G01X65281Y211724D01*
G01X65201Y211485D01*
G01X65042Y211326D01*
G01X64883Y211247D01*
G01X64644Y211247D01*
G01X64485Y211326D01*
G01X64326Y211485D01*
G01X63801Y212360D02*
G01X63801Y211247D01*
G01X63801Y211883D02*
G01X63721Y212122D01*
G01X63562Y212281D01*
G01X63403Y212360D01*
G01X63165Y212360D01*
G01X62560Y211644D02*
G01X62640Y211565D01*
G01X62560Y211485D01*
G01X62480Y211565D01*
G01X62560Y211644D01*
G01X61955Y212360D02*
G01X61955Y211247D01*
G01X61955Y212042D02*
G01X61717Y212281D01*
G01X61558Y212360D01*
G01X61319Y212360D01*
G01X61160Y212281D01*
G01X61080Y212042D01*
G01X61080Y211247D01*
G01X60555Y211883D02*
G01X59601Y211883D01*
G01X59601Y212042D01*
G01X59680Y212201D01*
G01X59760Y212281D01*
G01X59919Y212360D01*
G01X60158Y212360D01*
G01X60317Y212281D01*
G01X60476Y212122D01*
G01X60555Y211883D01*
G01X60555Y211724D01*
G01X60476Y211485D01*
G01X60317Y211326D01*
G01X60158Y211247D01*
G01X59919Y211247D01*
G01X59760Y211326D01*
G01X59601Y211485D01*
G01X58837Y212917D02*
G01X58837Y211565D01*
G01X58758Y211326D01*
G01X58599Y211247D01*
G01X58439Y211247D01*
G01X59076Y212360D02*
G01X58519Y212360D01*
G01X56483Y213235D02*
G01X57914Y210690D01*
G01X55719Y212917D02*
G01X55719Y211565D01*
G01X55639Y211326D01*
G01X55480Y211247D01*
G01X55321Y211247D01*
G01X55958Y212360D02*
G01X55401Y212360D01*
G01X53842Y212360D02*
G01X53842Y211247D01*
G01X53842Y212122D02*
G01X54001Y212281D01*
G01X54160Y212360D01*
G01X54398Y212360D01*
G01X54557Y212281D01*
G01X54717Y212122D01*
G01X54796Y211883D01*
G01X54796Y211724D01*
G01X54717Y211485D01*
G01X54557Y211326D01*
G01X54398Y211247D01*
G01X54160Y211247D01*
G01X54001Y211326D01*
G01X53842Y211485D01*
G01X52362Y212360D02*
G01X52362Y211087D01*
G01X52441Y210849D01*
G01X52521Y210769D01*
G01X52680Y210690D01*
G01X52919Y210690D01*
G01X53078Y210769D01*
G01X52362Y212122D02*
G01X52521Y212281D01*
G01X52680Y212360D01*
G01X52919Y212360D01*
G01X53078Y212281D01*
G01X53237Y212122D01*
G01X53317Y211883D01*
G01X53317Y211724D01*
G01X53237Y211485D01*
G01X53078Y211326D01*
G01X52919Y211247D01*
G01X52680Y211247D01*
G01X52521Y211326D01*
G01X52362Y211485D01*
G01X50405Y213235D02*
G01X51837Y210690D01*
G01X48766Y212917D02*
G01X49562Y211247D01*
G01X49880Y212917D02*
G01X48766Y212917D01*
G01X48082Y212917D02*
G01X47207Y212917D01*
G01X47685Y212281D01*
G01X47446Y212281D01*
G01X47287Y212201D01*
G01X47207Y212122D01*
G01X47128Y211883D01*
G01X47128Y211724D01*
G01X47207Y211485D01*
G01X47366Y211326D01*
G01X47605Y211247D01*
G01X47844Y211247D01*
G01X48082Y211326D01*
G01X48162Y211406D01*
G01X48241Y211565D01*
G01X45489Y212917D02*
G01X46284Y211247D01*
G01X46603Y212917D02*
G01X45489Y212917D01*
G01X44328Y212917D02*
G01X44487Y212917D01*
G01X44646Y212838D01*
G01X44725Y212599D01*
G01X44725Y211247D01*
G01X44964Y212360D02*
G01X44407Y212360D01*
G01X43803Y212360D02*
G01X43803Y211247D01*
G01X43803Y212042D02*
G01X43564Y212281D01*
G01X43405Y212360D01*
G01X43166Y212360D01*
G01X43007Y212281D01*
G01X42928Y212042D01*
G01X42928Y211247D01*
G01X42928Y212042D02*
G01X42689Y212281D01*
G01X42530Y212360D01*
G01X42291Y212360D01*
G01X42132Y212281D01*
G01X42053Y212042D01*
G01X42053Y211247D01*
G01X40573Y212122D02*
G01X40732Y212281D01*
G01X40891Y212360D01*
G01X41130Y212360D01*
G01X41289Y212281D01*
G01X41448Y212122D01*
G01X41527Y211883D01*
G01X41527Y211724D01*
G01X41448Y211485D01*
G01X41289Y211326D01*
G01X41130Y211247D01*
G01X40891Y211247D01*
G01X40732Y211326D01*
G01X40573Y211485D01*
G01X39093Y212122D02*
G01X39252Y212281D01*
G01X39412Y212360D01*
G01X39650Y212360D01*
G01X39809Y212281D01*
G01X39968Y212122D01*
G01X40048Y211883D01*
G01X40048Y211724D01*
G01X39968Y211485D01*
G01X39809Y211326D01*
G01X39650Y211247D01*
G01X39412Y211247D01*
G01X39252Y211326D01*
G01X39093Y211485D01*
G01X37614Y212917D02*
G01X37614Y211247D01*
G01X37614Y212122D02*
G01X37773Y212281D01*
G01X37932Y212360D01*
G01X38171Y212360D01*
G01X38330Y212281D01*
G01X38489Y212122D01*
G01X38568Y211883D01*
G01X38568Y211724D01*
G01X38489Y211485D01*
G01X38330Y211326D01*
G01X38171Y211247D01*
G01X37932Y211247D01*
G01X37773Y211326D01*
G01X37614Y211485D01*
G01X37089Y212360D02*
G01X37089Y211565D01*
G01X37009Y211326D01*
G01X36850Y211247D01*
G01X36611Y211247D01*
G01X36452Y211326D01*
G01X36214Y211565D01*
G01X36214Y212360D02*
G01X36214Y211247D01*
G01X84050Y215992D02*
G01X84974Y214052D01*
G01X85344Y215992D02*
G01X84050Y215992D01*
G01X83256Y215992D02*
G01X82240Y215992D01*
G01X82794Y215253D01*
G01X82517Y215253D01*
G01X82332Y215161D01*
G01X82240Y215068D01*
G01X82148Y214791D01*
G01X82148Y214606D01*
G01X82240Y214329D01*
G01X82425Y214145D01*
G01X82702Y214052D01*
G01X82979Y214052D01*
G01X83256Y214145D01*
G01X83348Y214237D01*
G01X83441Y214422D01*
G01X80245Y215992D02*
G01X81169Y214052D01*
G01X81538Y215992D02*
G01X80245Y215992D01*
G01X78213Y215992D02*
G01X78213Y214052D01*
G01X78213Y215992D02*
G01X77012Y215992D01*
G01X78213Y215068D02*
G01X77474Y215068D01*
G01X76403Y215992D02*
G01X76403Y214052D01*
G01X76403Y215992D02*
G01X75664Y214052D01*
G01X74925Y215992D02*
G01X75664Y214052D01*
G01X74925Y215992D02*
G01X74925Y214052D01*
G01X72930Y215530D02*
G01X73022Y215715D01*
G01X73207Y215900D01*
G01X73392Y215992D01*
G01X73761Y215992D01*
G01X73946Y215900D01*
G01X74131Y215715D01*
G01X74223Y215530D01*
G01X74315Y215253D01*
G01X74315Y214791D01*
G01X74223Y214514D01*
G01X74131Y214329D01*
G01X73946Y214145D01*
G01X73761Y214052D01*
G01X73392Y214052D01*
G01X73207Y214145D01*
G01X73022Y214329D01*
G01X72930Y214514D01*
G01X69512Y215530D02*
G01X69605Y215715D01*
G01X69789Y215900D01*
G01X69974Y215992D01*
G01X70344Y215992D01*
G01X70528Y215900D01*
G01X70713Y215715D01*
G01X70805Y215530D01*
G01X70898Y215253D01*
G01X70898Y214791D01*
G01X70805Y214514D01*
G01X70713Y214329D01*
G01X70528Y214145D01*
G01X70344Y214052D01*
G01X69974Y214052D01*
G01X69789Y214145D01*
G01X69605Y214329D01*
G01X69512Y214514D01*
G01X68903Y215992D02*
G01X68903Y214052D01*
G01X68903Y215992D02*
G01X68256Y215992D01*
G01X67979Y215900D01*
G01X67794Y215715D01*
G01X67702Y215530D01*
G01X67610Y215253D01*
G01X67610Y214791D01*
G01X67702Y214514D01*
G01X67794Y214329D01*
G01X67979Y214145D01*
G01X68256Y214052D01*
G01X68903Y214052D01*
G01X67000Y215992D02*
G01X67000Y214606D01*
G01X66908Y214329D01*
G01X66723Y214145D01*
G01X66446Y214052D01*
G01X66261Y214052D01*
G01X65984Y214145D01*
G01X65799Y214329D01*
G01X65707Y214606D01*
G01X65707Y215992D01*
G01X63675Y215992D02*
G01X63675Y214052D01*
G01X63675Y215992D02*
G01X62844Y215992D01*
G01X62567Y215900D01*
G01X62474Y215807D01*
G01X62382Y215622D01*
G01X62382Y215438D01*
G01X62474Y215253D01*
G01X62567Y215161D01*
G01X62844Y215068D01*
G01X63675Y215068D01*
G01X63028Y215068D02*
G01X62382Y214052D01*
G01X61772Y214791D02*
G01X60664Y214791D01*
G01X60664Y214976D01*
G01X60756Y215161D01*
G01X60849Y215253D01*
G01X61033Y215345D01*
G01X61310Y215345D01*
G01X61495Y215253D01*
G01X61680Y215068D01*
G01X61772Y214791D01*
G01X61772Y214606D01*
G01X61680Y214329D01*
G01X61495Y214145D01*
G01X61310Y214052D01*
G01X61033Y214052D01*
G01X60849Y214145D01*
G01X60664Y214329D01*
G01X60054Y215345D02*
G01X59500Y214052D01*
G01X58946Y215345D02*
G01X59500Y214052D01*
G01X56729Y215992D02*
G01X55713Y215992D01*
G01X56267Y215253D01*
G01X55990Y215253D01*
G01X55806Y215161D01*
G01X55713Y215068D01*
G01X55621Y214791D01*
G01X55621Y214606D01*
G01X55713Y214329D01*
G01X55898Y214145D01*
G01X56175Y214052D01*
G01X56452Y214052D01*
G01X56729Y214145D01*
G01X56822Y214237D01*
G01X56914Y214422D01*
G01X54919Y214514D02*
G01X55011Y214422D01*
G01X54919Y214329D01*
G01X54827Y214422D01*
G01X54919Y214514D01*
G01X54032Y215992D02*
G01X53016Y215992D01*
G01X53570Y215253D01*
G01X53293Y215253D01*
G01X53109Y215161D01*
G01X53016Y215068D01*
G01X52924Y214791D01*
G01X52924Y214606D01*
G01X53016Y214329D01*
G01X53201Y214145D01*
G01X53478Y214052D01*
G01X53755Y214052D01*
G01X54032Y214145D01*
G01X54125Y214237D01*
G01X54217Y214422D01*
G01X101415Y89477D02*
G01X101461Y89569D01*
G01X101553Y89662D01*
G01X101646Y89708D01*
G01X101830Y89708D01*
G01X101923Y89662D01*
G01X102015Y89569D01*
G01X102061Y89477D01*
G01X102108Y89338D01*
G01X102108Y89107D01*
G01X102061Y88969D01*
G01X102015Y88876D01*
G01X101923Y88784D01*
G01X101830Y88738D01*
G01X101646Y88738D01*
G01X101553Y88784D01*
G01X101461Y88876D01*
G01X101415Y88969D01*
G01X100879Y89384D02*
G01X100971Y89338D01*
G01X101064Y89246D01*
G01X101110Y89107D01*
G01X101110Y89015D01*
G01X101064Y88876D01*
G01X100971Y88784D01*
G01X100879Y88738D01*
G01X100741Y88738D01*
G01X100648Y88784D01*
G01X100556Y88876D01*
G01X100510Y89015D01*
G01X100510Y89107D01*
G01X100556Y89246D01*
G01X100648Y89338D01*
G01X100741Y89384D01*
G01X100879Y89384D01*
G01X100205Y89384D02*
G01X100205Y88415D01*
G01X100205Y89246D02*
G01X100112Y89338D01*
G01X100020Y89384D01*
G01X99882Y89384D01*
G01X99789Y89338D01*
G01X99697Y89246D01*
G01X99651Y89107D01*
G01X99651Y89015D01*
G01X99697Y88876D01*
G01X99789Y88784D01*
G01X99882Y88738D01*
G01X100020Y88738D01*
G01X100112Y88784D01*
G01X100205Y88876D01*
G01X99300Y89384D02*
G01X99023Y88738D01*
G01X98745Y89384D02*
G01X99023Y88738D01*
G01X99115Y88553D01*
G01X99207Y88461D01*
G01X99300Y88415D01*
G01X99346Y88415D01*
G01X98441Y89384D02*
G01X98441Y88738D01*
G01X98441Y89107D02*
G01X98394Y89246D01*
G01X98302Y89338D01*
G01X98210Y89384D01*
G01X98071Y89384D01*
G01X97766Y89708D02*
G01X97720Y89662D01*
G01X97674Y89708D01*
G01X97720Y89754D01*
G01X97766Y89708D01*
G01X97720Y89384D02*
G01X97720Y88738D01*
G01X96815Y89384D02*
G01X96815Y88646D01*
G01X96861Y88507D01*
G01X96907Y88461D01*
G01X97000Y88415D01*
G01X97138Y88415D01*
G01X97231Y88461D01*
G01X96815Y89246D02*
G01X96907Y89338D01*
G01X97000Y89384D01*
G01X97138Y89384D01*
G01X97231Y89338D01*
G01X97323Y89246D01*
G01X97369Y89107D01*
G01X97369Y89015D01*
G01X97323Y88876D01*
G01X97231Y88784D01*
G01X97138Y88738D01*
G01X97000Y88738D01*
G01X96907Y88784D01*
G01X96815Y88876D01*
G01X96510Y89708D02*
G01X96510Y88738D01*
G01X96510Y89200D02*
G01X96372Y89338D01*
G01X96279Y89384D01*
G01X96141Y89384D01*
G01X96048Y89338D01*
G01X96002Y89200D01*
G01X96002Y88738D01*
G01X95559Y89708D02*
G01X95559Y88923D01*
G01X95513Y88784D01*
G01X95420Y88738D01*
G01X95328Y88738D01*
G01X95697Y89384D02*
G01X95374Y89384D01*
G01X93989Y89892D02*
G01X94081Y89800D01*
G01X94173Y89662D01*
G01X94266Y89477D01*
G01X94312Y89246D01*
G01X94312Y89061D01*
G01X94266Y88830D01*
G01X94173Y88646D01*
G01X94081Y88507D01*
G01X93989Y88415D01*
G01X92991Y89477D02*
G01X93037Y89569D01*
G01X93130Y89662D01*
G01X93222Y89708D01*
G01X93407Y89708D01*
G01X93499Y89662D01*
G01X93592Y89569D01*
G01X93638Y89477D01*
G01X93684Y89338D01*
G01X93684Y89107D01*
G01X93638Y88969D01*
G01X93592Y88876D01*
G01X93499Y88784D01*
G01X93407Y88738D01*
G01X93222Y88738D01*
G01X93130Y88784D01*
G01X93037Y88876D01*
G01X92991Y88969D01*
G01X92686Y89892D02*
G01X92594Y89800D01*
G01X92502Y89662D01*
G01X92409Y89477D01*
G01X92363Y89246D01*
G01X92363Y89061D01*
G01X92409Y88830D01*
G01X92502Y88646D01*
G01X92594Y88507D01*
G01X92686Y88415D01*
G01X91301Y89477D02*
G01X91301Y89523D01*
G01X91255Y89615D01*
G01X91209Y89662D01*
G01X91116Y89708D01*
G01X90932Y89708D01*
G01X90839Y89662D01*
G01X90793Y89615D01*
G01X90747Y89523D01*
G01X90747Y89431D01*
G01X90793Y89338D01*
G01X90885Y89200D01*
G01X91347Y88738D01*
G01X90701Y88738D01*
G01X90119Y89708D02*
G01X90257Y89662D01*
G01X90350Y89523D01*
G01X90396Y89292D01*
G01X90396Y89154D01*
G01X90350Y88923D01*
G01X90257Y88784D01*
G01X90119Y88738D01*
G01X90026Y88738D01*
G01X89888Y88784D01*
G01X89795Y88923D01*
G01X89749Y89154D01*
G01X89749Y89292D01*
G01X89795Y89523D01*
G01X89888Y89662D01*
G01X90026Y89708D01*
G01X90119Y89708D01*
G01X89444Y89523D02*
G01X89352Y89569D01*
G01X89214Y89708D01*
G01X89214Y88738D01*
G01X88262Y89708D02*
G01X88724Y88738D01*
G01X88909Y89708D02*
G01X88262Y89708D01*
G01X87957Y89154D02*
G01X87126Y89154D01*
G01X86775Y89477D02*
G01X86775Y89523D01*
G01X86729Y89615D01*
G01X86683Y89662D01*
G01X86590Y89708D01*
G01X86406Y89708D01*
G01X86313Y89662D01*
G01X86267Y89615D01*
G01X86221Y89523D01*
G01X86221Y89431D01*
G01X86267Y89338D01*
G01X86360Y89200D01*
G01X86821Y88738D01*
G01X86175Y88738D01*
G01X85593Y89708D02*
G01X85731Y89662D01*
G01X85824Y89523D01*
G01X85870Y89292D01*
G01X85870Y89154D01*
G01X85824Y88923D01*
G01X85731Y88784D01*
G01X85593Y88738D01*
G01X85501Y88738D01*
G01X85362Y88784D01*
G01X85270Y88923D01*
G01X85223Y89154D01*
G01X85223Y89292D01*
G01X85270Y89523D01*
G01X85362Y89662D01*
G01X85501Y89708D01*
G01X85593Y89708D01*
G01X84919Y89523D02*
G01X84826Y89569D01*
G01X84688Y89708D01*
G01X84688Y88738D01*
G01X83783Y89384D02*
G01X83829Y89246D01*
G01X83921Y89154D01*
G01X84060Y89107D01*
G01X84106Y89107D01*
G01X84244Y89154D01*
G01X84337Y89246D01*
G01X84383Y89384D01*
G01X84383Y89431D01*
G01X84337Y89569D01*
G01X84244Y89662D01*
G01X84106Y89708D01*
G01X84060Y89708D01*
G01X83921Y89662D01*
G01X83829Y89569D01*
G01X83783Y89384D01*
G01X83783Y89154D01*
G01X83829Y88923D01*
G01X83921Y88784D01*
G01X84060Y88738D01*
G01X84152Y88738D01*
G01X84291Y88784D01*
G01X84337Y88876D01*
G01X83385Y88923D02*
G01X83432Y88876D01*
G01X83478Y88923D01*
G01X83432Y88969D01*
G01X83385Y88923D01*
G01X83385Y88830D01*
G01X83478Y88738D01*
G01X81723Y89569D02*
G01X81815Y89662D01*
G01X81954Y89708D01*
G01X82138Y89708D01*
G01X82277Y89662D01*
G01X82369Y89569D01*
G01X82369Y89477D01*
G01X82323Y89384D01*
G01X82277Y89338D01*
G01X82185Y89292D01*
G01X81908Y89200D01*
G01X81815Y89154D01*
G01X81769Y89107D01*
G01X81723Y89015D01*
G01X81723Y88876D01*
G01X81815Y88784D01*
G01X81954Y88738D01*
G01X82138Y88738D01*
G01X82277Y88784D01*
G01X82369Y88876D01*
G01X81418Y89708D02*
G01X81418Y88738D01*
G01X81418Y89200D02*
G01X81280Y89338D01*
G01X81187Y89384D01*
G01X81049Y89384D01*
G01X80956Y89338D01*
G01X80910Y89200D01*
G01X80910Y88738D01*
G01X80051Y89384D02*
G01X80051Y88738D01*
G01X80051Y89246D02*
G01X80143Y89338D01*
G01X80236Y89384D01*
G01X80374Y89384D01*
G01X80467Y89338D01*
G01X80559Y89246D01*
G01X80605Y89107D01*
G01X80605Y89015D01*
G01X80559Y88876D01*
G01X80467Y88784D01*
G01X80374Y88738D01*
G01X80236Y88738D01*
G01X80143Y88784D01*
G01X80051Y88876D01*
G01X79746Y89708D02*
G01X79746Y88738D01*
G01X79746Y89200D02*
G01X79608Y89338D01*
G01X79515Y89384D01*
G01X79377Y89384D01*
G01X79284Y89338D01*
G01X79238Y89200D01*
G01X79238Y88738D01*
G01X78379Y89384D02*
G01X78379Y88738D01*
G01X78379Y89246D02*
G01X78472Y89338D01*
G01X78564Y89384D01*
G01X78703Y89384D01*
G01X78795Y89338D01*
G01X78887Y89246D01*
G01X78933Y89107D01*
G01X78933Y89015D01*
G01X78887Y88876D01*
G01X78795Y88784D01*
G01X78703Y88738D01*
G01X78564Y88738D01*
G01X78472Y88784D01*
G01X78379Y88876D01*
G01X77520Y89708D02*
G01X77520Y88738D01*
G01X77520Y89246D02*
G01X77613Y89338D01*
G01X77705Y89384D01*
G01X77844Y89384D01*
G01X77936Y89338D01*
G01X78028Y89246D01*
G01X78074Y89107D01*
G01X78074Y89015D01*
G01X78028Y88876D01*
G01X77936Y88784D01*
G01X77844Y88738D01*
G01X77705Y88738D01*
G01X77613Y88784D01*
G01X77520Y88876D01*
G01X76661Y89384D02*
G01X76661Y88738D01*
G01X76661Y89246D02*
G01X76754Y89338D01*
G01X76846Y89384D01*
G01X76985Y89384D01*
G01X77077Y89338D01*
G01X77169Y89246D01*
G01X77216Y89107D01*
G01X77216Y89015D01*
G01X77169Y88876D01*
G01X77077Y88784D01*
G01X76985Y88738D01*
G01X76846Y88738D01*
G01X76754Y88784D01*
G01X76661Y88876D01*
G01X75276Y89708D02*
G01X75645Y88738D01*
G01X75276Y89708D02*
G01X74906Y88738D01*
G01X75507Y89061D02*
G01X75045Y89061D01*
G01X74602Y89708D02*
G01X74602Y88738D01*
G01X74602Y89246D02*
G01X74509Y89338D01*
G01X74417Y89384D01*
G01X74278Y89384D01*
G01X74186Y89338D01*
G01X74094Y89246D01*
G01X74047Y89107D01*
G01X74047Y89015D01*
G01X74094Y88876D01*
G01X74186Y88784D01*
G01X74278Y88738D01*
G01X74417Y88738D01*
G01X74509Y88784D01*
G01X74602Y88876D01*
G01X73743Y89384D02*
G01X73743Y88923D01*
G01X73696Y88784D01*
G01X73604Y88738D01*
G01X73466Y88738D01*
G01X73373Y88784D01*
G01X73235Y88923D01*
G01X73235Y89384D02*
G01X73235Y88738D01*
G01X72930Y89708D02*
G01X72930Y88738D01*
G01X72930Y89246D02*
G01X72837Y89338D01*
G01X72745Y89384D01*
G01X72607Y89384D01*
G01X72514Y89338D01*
G01X72422Y89246D01*
G01X72376Y89107D01*
G01X72376Y89015D01*
G01X72422Y88876D01*
G01X72514Y88784D01*
G01X72607Y88738D01*
G01X72745Y88738D01*
G01X72837Y88784D01*
G01X72930Y88876D01*
G01X71517Y89384D02*
G01X71517Y88738D01*
G01X71517Y89246D02*
G01X71609Y89338D01*
G01X71701Y89384D01*
G01X71840Y89384D01*
G01X71932Y89338D01*
G01X72025Y89246D01*
G01X72071Y89107D01*
G01X72071Y89015D01*
G01X72025Y88876D01*
G01X71932Y88784D01*
G01X71840Y88738D01*
G01X71701Y88738D01*
G01X71609Y88784D01*
G01X71517Y88876D01*
G01X71212Y89708D02*
G01X71212Y88738D01*
G01X70750Y89384D02*
G01X71212Y88923D01*
G01X71027Y89107D02*
G01X70704Y88738D01*
G01X69845Y89384D02*
G01X69845Y88738D01*
G01X69845Y89246D02*
G01X69937Y89338D01*
G01X70030Y89384D01*
G01X70168Y89384D01*
G01X70261Y89338D01*
G01X70353Y89246D01*
G01X70399Y89107D01*
G01X70399Y89015D01*
G01X70353Y88876D01*
G01X70261Y88784D01*
G01X70168Y88738D01*
G01X70030Y88738D01*
G01X69937Y88784D01*
G01X69845Y88876D01*
G01X69540Y89384D02*
G01X69540Y88738D01*
G01X69540Y89107D02*
G01X69494Y89246D01*
G01X69402Y89338D01*
G01X69309Y89384D01*
G01X69171Y89384D01*
G01X68820Y88969D02*
G01X68866Y88923D01*
G01X68820Y88876D01*
G01X68773Y88923D01*
G01X68820Y88969D01*
G01X67434Y89708D02*
G01X67434Y88738D01*
G01X67757Y89708D02*
G01X67111Y89708D01*
G01X66806Y89708D02*
G01X66806Y88738D01*
G01X66806Y89200D02*
G01X66668Y89338D01*
G01X66575Y89384D01*
G01X66437Y89384D01*
G01X66344Y89338D01*
G01X66298Y89200D01*
G01X66298Y88738D01*
G01X65993Y89708D02*
G01X65947Y89662D01*
G01X65901Y89708D01*
G01X65947Y89754D01*
G01X65993Y89708D01*
G01X65947Y89384D02*
G01X65947Y88738D01*
G01X65088Y89246D02*
G01X65134Y89338D01*
G01X65273Y89384D01*
G01X65411Y89384D01*
G01X65550Y89338D01*
G01X65596Y89246D01*
G01X65550Y89154D01*
G01X65458Y89107D01*
G01X65227Y89061D01*
G01X65134Y89015D01*
G01X65088Y88923D01*
G01X65088Y88876D01*
G01X65134Y88784D01*
G01X65273Y88738D01*
G01X65411Y88738D01*
G01X65550Y88784D01*
G01X65596Y88876D01*
G01X64072Y89708D02*
G01X64072Y88738D01*
G01X64072Y89708D02*
G01X63749Y89708D01*
G01X63610Y89662D01*
G01X63518Y89569D01*
G01X63472Y89477D01*
G01X63426Y89338D01*
G01X63426Y89107D01*
G01X63472Y88969D01*
G01X63518Y88876D01*
G01X63610Y88784D01*
G01X63749Y88738D01*
G01X64072Y88738D01*
G01X63121Y89107D02*
G01X62567Y89107D01*
G01X62567Y89200D01*
G01X62613Y89292D01*
G01X62659Y89338D01*
G01X62751Y89384D01*
G01X62890Y89384D01*
G01X62982Y89338D01*
G01X63075Y89246D01*
G01X63121Y89107D01*
G01X63121Y89015D01*
G01X63075Y88876D01*
G01X62982Y88784D01*
G01X62890Y88738D01*
G01X62751Y88738D01*
G01X62659Y88784D01*
G01X62567Y88876D01*
G01X61754Y89246D02*
G01X61800Y89338D01*
G01X61939Y89384D01*
G01X62077Y89384D01*
G01X62216Y89338D01*
G01X62262Y89246D01*
G01X62216Y89154D01*
G01X62123Y89107D01*
G01X61892Y89061D01*
G01X61800Y89015D01*
G01X61754Y88923D01*
G01X61754Y88876D01*
G01X61800Y88784D01*
G01X61939Y88738D01*
G01X62077Y88738D01*
G01X62216Y88784D01*
G01X62262Y88876D01*
G01X61449Y89708D02*
G01X61403Y89662D01*
G01X61357Y89708D01*
G01X61403Y89754D01*
G01X61449Y89708D01*
G01X61403Y89384D02*
G01X61403Y88738D01*
G01X60498Y89384D02*
G01X60498Y88646D01*
G01X60544Y88507D01*
G01X60590Y88461D01*
G01X60682Y88415D01*
G01X60821Y88415D01*
G01X60913Y88461D01*
G01X60498Y89246D02*
G01X60590Y89338D01*
G01X60682Y89384D01*
G01X60821Y89384D01*
G01X60913Y89338D01*
G01X61006Y89246D01*
G01X61052Y89107D01*
G01X61052Y89015D01*
G01X61006Y88876D01*
G01X60913Y88784D01*
G01X60821Y88738D01*
G01X60682Y88738D01*
G01X60590Y88784D01*
G01X60498Y88876D01*
G01X60193Y89384D02*
G01X60193Y88738D01*
G01X60193Y89200D02*
G01X60054Y89338D01*
G01X59962Y89384D01*
G01X59823Y89384D01*
G01X59731Y89338D01*
G01X59685Y89200D01*
G01X59685Y88738D01*
G01X58669Y89708D02*
G01X58623Y89662D01*
G01X58577Y89708D01*
G01X58623Y89754D01*
G01X58669Y89708D01*
G01X58623Y89384D02*
G01X58623Y88738D01*
G01X57764Y89246D02*
G01X57810Y89338D01*
G01X57948Y89384D01*
G01X58087Y89384D01*
G01X58226Y89338D01*
G01X58272Y89246D01*
G01X58226Y89154D01*
G01X58133Y89107D01*
G01X57902Y89061D01*
G01X57810Y89015D01*
G01X57764Y88923D01*
G01X57764Y88876D01*
G01X57810Y88784D01*
G01X57948Y88738D01*
G01X58087Y88738D01*
G01X58226Y88784D01*
G01X58272Y88876D01*
G01X56748Y89708D02*
G01X56748Y88738D01*
G01X56443Y89708D02*
G01X56397Y89662D01*
G01X56351Y89708D01*
G01X56397Y89754D01*
G01X56443Y89708D01*
G01X56397Y89384D02*
G01X56397Y88738D01*
G01X55492Y89246D02*
G01X55584Y89338D01*
G01X55676Y89384D01*
G01X55815Y89384D01*
G01X55907Y89338D01*
G01X56000Y89246D01*
G01X56046Y89107D01*
G01X56046Y89015D01*
G01X56000Y88876D01*
G01X55907Y88784D01*
G01X55815Y88738D01*
G01X55676Y88738D01*
G01X55584Y88784D01*
G01X55492Y88876D01*
G01X55187Y89107D02*
G01X54633Y89107D01*
G01X54633Y89200D01*
G01X54679Y89292D01*
G01X54725Y89338D01*
G01X54817Y89384D01*
G01X54956Y89384D01*
G01X55048Y89338D01*
G01X55141Y89246D01*
G01X55187Y89107D01*
G01X55187Y89015D01*
G01X55141Y88876D01*
G01X55048Y88784D01*
G01X54956Y88738D01*
G01X54817Y88738D01*
G01X54725Y88784D01*
G01X54633Y88876D01*
G01X54328Y89384D02*
G01X54328Y88738D01*
G01X54328Y89200D02*
G01X54189Y89338D01*
G01X54097Y89384D01*
G01X53958Y89384D01*
G01X53866Y89338D01*
G01X53820Y89200D01*
G01X53820Y88738D01*
G01X53007Y89246D02*
G01X53053Y89338D01*
G01X53192Y89384D01*
G01X53330Y89384D01*
G01X53469Y89338D01*
G01X53515Y89246D01*
G01X53469Y89154D01*
G01X53376Y89107D01*
G01X53146Y89061D01*
G01X53053Y89015D01*
G01X53007Y88923D01*
G01X53007Y88876D01*
G01X53053Y88784D01*
G01X53192Y88738D01*
G01X53330Y88738D01*
G01X53469Y88784D01*
G01X53515Y88876D01*
G01X52702Y89107D02*
G01X52148Y89107D01*
G01X52148Y89200D01*
G01X52194Y89292D01*
G01X52240Y89338D01*
G01X52333Y89384D01*
G01X52471Y89384D01*
G01X52564Y89338D01*
G01X52656Y89246D01*
G01X52702Y89107D01*
G01X52702Y89015D01*
G01X52656Y88876D01*
G01X52564Y88784D01*
G01X52471Y88738D01*
G01X52333Y88738D01*
G01X52240Y88784D01*
G01X52148Y88876D01*
G01X51289Y89708D02*
G01X51289Y88738D01*
G01X51289Y89246D02*
G01X51381Y89338D01*
G01X51474Y89384D01*
G01X51612Y89384D01*
G01X51705Y89338D01*
G01X51797Y89246D01*
G01X51843Y89107D01*
G01X51843Y89015D01*
G01X51797Y88876D01*
G01X51705Y88784D01*
G01X51612Y88738D01*
G01X51474Y88738D01*
G01X51381Y88784D01*
G01X51289Y88876D01*
G01X49904Y89708D02*
G01X49996Y89708D01*
G01X50088Y89662D01*
G01X50134Y89523D01*
G01X50134Y88738D01*
G01X50273Y89384D02*
G01X49950Y89384D01*
G01X49599Y89384D02*
G01X49599Y88738D01*
G01X49599Y89107D02*
G01X49553Y89246D01*
G01X49460Y89338D01*
G01X49368Y89384D01*
G01X49229Y89384D01*
G01X48925Y89107D02*
G01X48370Y89107D01*
G01X48370Y89200D01*
G01X48417Y89292D01*
G01X48463Y89338D01*
G01X48555Y89384D01*
G01X48694Y89384D01*
G01X48786Y89338D01*
G01X48878Y89246D01*
G01X48925Y89107D01*
G01X48925Y89015D01*
G01X48878Y88876D01*
G01X48786Y88784D01*
G01X48694Y88738D01*
G01X48555Y88738D01*
G01X48463Y88784D01*
G01X48370Y88876D01*
G01X48066Y89107D02*
G01X47511Y89107D01*
G01X47511Y89200D01*
G01X47558Y89292D01*
G01X47604Y89338D01*
G01X47696Y89384D01*
G01X47835Y89384D01*
G01X47927Y89338D01*
G01X48019Y89246D01*
G01X48066Y89107D01*
G01X48066Y89015D01*
G01X48019Y88876D01*
G01X47927Y88784D01*
G01X47835Y88738D01*
G01X47696Y88738D01*
G01X47604Y88784D01*
G01X47511Y88876D01*
G01X47207Y89708D02*
G01X47207Y88738D01*
G01X46856Y89384D02*
G01X46578Y88738D01*
G01X46301Y89384D02*
G01X46578Y88738D01*
G01X46671Y88553D01*
G01X46763Y88461D01*
G01X46856Y88415D01*
G01X46902Y88415D01*
G01X44731Y89384D02*
G01X44731Y88738D01*
G01X44731Y89246D02*
G01X44824Y89338D01*
G01X44916Y89384D01*
G01X45054Y89384D01*
G01X45147Y89338D01*
G01X45239Y89246D01*
G01X45285Y89107D01*
G01X45285Y89015D01*
G01X45239Y88876D01*
G01X45147Y88784D01*
G01X45054Y88738D01*
G01X44916Y88738D01*
G01X44824Y88784D01*
G01X44731Y88876D01*
G01X44426Y89384D02*
G01X44426Y88738D01*
G01X44426Y89200D02*
G01X44288Y89338D01*
G01X44196Y89384D01*
G01X44057Y89384D01*
G01X43965Y89338D01*
G01X43918Y89200D01*
G01X43918Y88738D01*
G01X43059Y89708D02*
G01X43059Y88738D01*
G01X43059Y89246D02*
G01X43152Y89338D01*
G01X43244Y89384D01*
G01X43383Y89384D01*
G01X43475Y89338D01*
G01X43567Y89246D01*
G01X43614Y89107D01*
G01X43614Y89015D01*
G01X43567Y88876D01*
G01X43475Y88784D01*
G01X43383Y88738D01*
G01X43244Y88738D01*
G01X43152Y88784D01*
G01X43059Y88876D01*
G01X42043Y89384D02*
G01X41859Y88738D01*
G01X41674Y89384D02*
G01X41859Y88738D01*
G01X41674Y89384D02*
G01X41489Y88738D01*
G01X41305Y89384D02*
G01X41489Y88738D01*
G01X41000Y89708D02*
G01X40954Y89662D01*
G01X40907Y89708D01*
G01X40954Y89754D01*
G01X41000Y89708D01*
G01X40954Y89384D02*
G01X40954Y88738D01*
G01X40464Y89708D02*
G01X40464Y88923D01*
G01X40418Y88784D01*
G01X40325Y88738D01*
G01X40233Y88738D01*
G01X40603Y89384D02*
G01X40279Y89384D01*
G01X39928Y89708D02*
G01X39928Y88738D01*
G01X39928Y89200D02*
G01X39790Y89338D01*
G01X39697Y89384D01*
G01X39559Y89384D01*
G01X39466Y89338D01*
G01X39420Y89200D01*
G01X39420Y88738D01*
G01X38885Y89384D02*
G01X38977Y89338D01*
G01X39069Y89246D01*
G01X39116Y89107D01*
G01X39116Y89015D01*
G01X39069Y88876D01*
G01X38977Y88784D01*
G01X38885Y88738D01*
G01X38746Y88738D01*
G01X38654Y88784D01*
G01X38561Y88876D01*
G01X38515Y89015D01*
G01X38515Y89107D01*
G01X38561Y89246D01*
G01X38654Y89338D01*
G01X38746Y89384D01*
G01X38885Y89384D01*
G01X38210Y89384D02*
G01X38210Y88923D01*
G01X38164Y88784D01*
G01X38072Y88738D01*
G01X37933Y88738D01*
G01X37841Y88784D01*
G01X37702Y88923D01*
G01X37702Y89384D02*
G01X37702Y88738D01*
G01X37259Y89708D02*
G01X37259Y88923D01*
G01X37213Y88784D01*
G01X37120Y88738D01*
G01X37028Y88738D01*
G01X37398Y89384D02*
G01X37074Y89384D01*
G01X102362Y87988D02*
G01X102176Y87340D01*
G01X101993Y87988D02*
G01X102176Y87340D01*
G01X101993Y87988D02*
G01X101808Y87340D01*
G01X101622Y87988D02*
G01X101808Y87340D01*
G01X100764Y87988D02*
G01X100764Y87340D01*
G01X100764Y87848D02*
G01X100855Y87942D01*
G01X100949Y87988D01*
G01X101086Y87988D01*
G01X101180Y87942D01*
G01X101272Y87848D01*
G01X101318Y87711D01*
G01X101318Y87617D01*
G01X101272Y87480D01*
G01X101180Y87388D01*
G01X101086Y87340D01*
G01X100949Y87340D01*
G01X100855Y87388D01*
G01X100764Y87480D01*
G01X100459Y87988D02*
G01X100459Y87340D01*
G01X100459Y87711D02*
G01X100413Y87848D01*
G01X100319Y87942D01*
G01X100228Y87988D01*
G01X100088Y87988D01*
G01X99783Y87988D02*
G01X99783Y87340D01*
G01X99783Y87711D02*
G01X99738Y87848D01*
G01X99646Y87942D01*
G01X99555Y87988D01*
G01X99415Y87988D01*
G01X98557Y87988D02*
G01X98557Y87340D01*
G01X98557Y87848D02*
G01X98648Y87942D01*
G01X98742Y87988D01*
G01X98879Y87988D01*
G01X98971Y87942D01*
G01X99065Y87848D01*
G01X99110Y87711D01*
G01X99110Y87617D01*
G01X99065Y87480D01*
G01X98971Y87388D01*
G01X98879Y87340D01*
G01X98742Y87340D01*
G01X98648Y87388D01*
G01X98557Y87480D01*
G01X98252Y87988D02*
G01X98252Y87340D01*
G01X98252Y87802D02*
G01X98112Y87942D01*
G01X98021Y87988D01*
G01X97881Y87988D01*
G01X97790Y87942D01*
G01X97744Y87802D01*
G01X97744Y87340D01*
G01X97299Y88310D02*
G01X97299Y87525D01*
G01X97254Y87388D01*
G01X97162Y87340D01*
G01X97068Y87340D01*
G01X97439Y87988D02*
G01X97116Y87988D01*
G01X96718Y87988D02*
G01X96441Y87340D01*
G01X96164Y87988D02*
G01X96441Y87340D01*
G01X96532Y87157D01*
G01X96626Y87063D01*
G01X96718Y87017D01*
G01X96763Y87017D01*
G01X95148Y87988D02*
G01X95148Y87525D01*
G01X95102Y87388D01*
G01X95008Y87340D01*
G01X94871Y87340D01*
G01X94780Y87388D01*
G01X94640Y87525D01*
G01X94640Y87988D02*
G01X94640Y87340D01*
G01X94335Y87988D02*
G01X94335Y87340D01*
G01X94335Y87802D02*
G01X94195Y87942D01*
G01X94104Y87988D01*
G01X93967Y87988D01*
G01X93873Y87942D01*
G01X93827Y87802D01*
G01X93827Y87340D01*
G01X92969Y88310D02*
G01X92969Y87340D01*
G01X92969Y87848D02*
G01X93060Y87942D01*
G01X93154Y87988D01*
G01X93291Y87988D01*
G01X93383Y87942D01*
G01X93477Y87848D01*
G01X93522Y87711D01*
G01X93522Y87617D01*
G01X93477Y87480D01*
G01X93383Y87388D01*
G01X93291Y87340D01*
G01X93154Y87340D01*
G01X93060Y87388D01*
G01X92969Y87480D01*
G01X92664Y87711D02*
G01X92110Y87711D01*
G01X92110Y87802D01*
G01X92156Y87896D01*
G01X92202Y87942D01*
G01X92293Y87988D01*
G01X92433Y87988D01*
G01X92524Y87942D01*
G01X92618Y87848D01*
G01X92664Y87711D01*
G01X92664Y87617D01*
G01X92618Y87480D01*
G01X92524Y87388D01*
G01X92433Y87340D01*
G01X92293Y87340D01*
G01X92202Y87388D01*
G01X92110Y87480D01*
G01X91805Y87988D02*
G01X91805Y87340D01*
G01X91805Y87711D02*
G01X91757Y87848D01*
G01X91666Y87942D01*
G01X91574Y87988D01*
G01X91434Y87988D01*
G01X89725Y88079D02*
G01X89773Y88173D01*
G01X89865Y88265D01*
G01X89956Y88310D01*
G01X90142Y88310D01*
G01X90233Y88265D01*
G01X90327Y88173D01*
G01X90373Y88079D01*
G01X90418Y87942D01*
G01X90418Y87711D01*
G01X90373Y87571D01*
G01X90327Y87480D01*
G01X90233Y87388D01*
G01X90142Y87340D01*
G01X89956Y87340D01*
G01X89865Y87388D01*
G01X89773Y87480D01*
G01X89725Y87571D01*
G01X89420Y87988D02*
G01X89420Y87340D01*
G01X89420Y87711D02*
G01X89374Y87848D01*
G01X89283Y87942D01*
G01X89192Y87988D01*
G01X89052Y87988D01*
G01X88747Y87711D02*
G01X88193Y87711D01*
G01X88193Y87802D01*
G01X88239Y87896D01*
G01X88285Y87942D01*
G01X88379Y87988D01*
G01X88516Y87988D01*
G01X88607Y87942D01*
G01X88701Y87848D01*
G01X88747Y87711D01*
G01X88747Y87617D01*
G01X88701Y87480D01*
G01X88607Y87388D01*
G01X88516Y87340D01*
G01X88379Y87340D01*
G01X88285Y87388D01*
G01X88193Y87480D01*
G01X87335Y87988D02*
G01X87335Y87340D01*
G01X87335Y87848D02*
G01X87426Y87942D01*
G01X87518Y87988D01*
G01X87657Y87988D01*
G01X87749Y87942D01*
G01X87843Y87848D01*
G01X87889Y87711D01*
G01X87889Y87617D01*
G01X87843Y87480D01*
G01X87749Y87388D01*
G01X87657Y87340D01*
G01X87518Y87340D01*
G01X87426Y87388D01*
G01X87335Y87480D01*
G01X86890Y88310D02*
G01X86890Y87525D01*
G01X86845Y87388D01*
G01X86753Y87340D01*
G01X86659Y87340D01*
G01X87030Y87988D02*
G01X86705Y87988D01*
G01X86354Y88310D02*
G01X86309Y88265D01*
G01X86263Y88310D01*
G01X86309Y88356D01*
G01X86354Y88310D01*
G01X86309Y87988D02*
G01X86309Y87340D01*
G01X85958Y87988D02*
G01X85681Y87340D01*
G01X85404Y87988D02*
G01X85681Y87340D01*
G01X85100Y87711D02*
G01X84543Y87711D01*
G01X84543Y87802D01*
G01X84592Y87896D01*
G01X84637Y87942D01*
G01X84729Y87988D01*
G01X84869Y87988D01*
G01X84960Y87942D01*
G01X85051Y87848D01*
G01X85100Y87711D01*
G01X85100Y87617D01*
G01X85051Y87480D01*
G01X84960Y87388D01*
G01X84869Y87340D01*
G01X84729Y87340D01*
G01X84637Y87388D01*
G01X84543Y87480D01*
G01X82837Y88079D02*
G01X82882Y88173D01*
G01X82974Y88265D01*
G01X83068Y88310D01*
G01X83251Y88310D01*
G01X83345Y88265D01*
G01X83436Y88173D01*
G01X83482Y88079D01*
G01X83527Y87942D01*
G01X83527Y87711D01*
G01X83482Y87571D01*
G01X83436Y87480D01*
G01X83345Y87388D01*
G01X83251Y87340D01*
G01X83068Y87340D01*
G01X82974Y87388D01*
G01X82882Y87480D01*
G01X82837Y87571D01*
G01X82301Y87988D02*
G01X82392Y87942D01*
G01X82486Y87848D01*
G01X82532Y87711D01*
G01X82532Y87617D01*
G01X82486Y87480D01*
G01X82392Y87388D01*
G01X82301Y87340D01*
G01X82161Y87340D01*
G01X82069Y87388D01*
G01X81978Y87480D01*
G01X81930Y87617D01*
G01X81930Y87711D01*
G01X81978Y87848D01*
G01X82069Y87942D01*
G01X82161Y87988D01*
G01X82301Y87988D01*
G01X81625Y87988D02*
G01X81625Y87340D01*
G01X81625Y87802D02*
G01X81488Y87942D01*
G01X81394Y87988D01*
G01X81257Y87988D01*
G01X81165Y87942D01*
G01X81117Y87802D01*
G01X81117Y87340D01*
G01X81117Y87802D02*
G01X80980Y87942D01*
G01X80886Y87988D01*
G01X80749Y87988D01*
G01X80657Y87942D01*
G01X80609Y87802D01*
G01X80609Y87340D01*
G01X80304Y87988D02*
G01X80304Y87340D01*
G01X80304Y87802D02*
G01X80167Y87942D01*
G01X80073Y87988D01*
G01X79936Y87988D01*
G01X79844Y87942D01*
G01X79796Y87802D01*
G01X79796Y87340D01*
G01X79796Y87802D02*
G01X79659Y87942D01*
G01X79565Y87988D01*
G01X79428Y87988D01*
G01X79336Y87942D01*
G01X79288Y87802D01*
G01X79288Y87340D01*
G01X78752Y87988D02*
G01X78846Y87942D01*
G01X78938Y87848D01*
G01X78983Y87711D01*
G01X78983Y87617D01*
G01X78938Y87480D01*
G01X78846Y87388D01*
G01X78752Y87340D01*
G01X78615Y87340D01*
G01X78524Y87388D01*
G01X78430Y87480D01*
G01X78384Y87617D01*
G01X78384Y87711D01*
G01X78430Y87848D01*
G01X78524Y87942D01*
G01X78615Y87988D01*
G01X78752Y87988D01*
G01X78079Y87988D02*
G01X78079Y87340D01*
G01X78079Y87802D02*
G01X77939Y87942D01*
G01X77848Y87988D01*
G01X77711Y87988D01*
G01X77617Y87942D01*
G01X77571Y87802D01*
G01X77571Y87340D01*
G01X76758Y87848D02*
G01X76804Y87942D01*
G01X76944Y87988D01*
G01X77081Y87988D01*
G01X77221Y87942D01*
G01X77266Y87848D01*
G01X77221Y87757D01*
G01X77127Y87711D01*
G01X76898Y87665D01*
G01X76804Y87617D01*
G01X76758Y87525D01*
G01X76758Y87480D01*
G01X76804Y87388D01*
G01X76944Y87340D01*
G01X77081Y87340D01*
G01X77221Y87388D01*
G01X77266Y87480D01*
G01X75742Y88310D02*
G01X75742Y87340D01*
G01X75742Y87340D02*
G01X75189Y87340D01*
G01X74884Y88310D02*
G01X74838Y88265D01*
G01X74790Y88310D01*
G01X74838Y88356D01*
G01X74884Y88310D01*
G01X74838Y87988D02*
G01X74838Y87340D01*
G01X73931Y87848D02*
G01X74025Y87942D01*
G01X74117Y87988D01*
G01X74256Y87988D01*
G01X74348Y87942D01*
G01X74439Y87848D01*
G01X74485Y87711D01*
G01X74485Y87617D01*
G01X74439Y87480D01*
G01X74348Y87388D01*
G01X74256Y87340D01*
G01X74117Y87340D01*
G01X74025Y87388D01*
G01X73931Y87480D01*
G01X73626Y87711D02*
G01X73073Y87711D01*
G01X73073Y87802D01*
G01X73118Y87896D01*
G01X73164Y87942D01*
G01X73258Y87988D01*
G01X73395Y87988D01*
G01X73489Y87942D01*
G01X73581Y87848D01*
G01X73626Y87711D01*
G01X73626Y87617D01*
G01X73581Y87480D01*
G01X73489Y87388D01*
G01X73395Y87340D01*
G01X73258Y87340D01*
G01X73164Y87388D01*
G01X73073Y87480D01*
G01X72768Y87988D02*
G01X72768Y87340D01*
G01X72768Y87802D02*
G01X72631Y87942D01*
G01X72537Y87988D01*
G01X72400Y87988D01*
G01X72306Y87942D01*
G01X72260Y87802D01*
G01X72260Y87340D01*
G01X71447Y87848D02*
G01X71493Y87942D01*
G01X71633Y87988D01*
G01X71770Y87988D01*
G01X71909Y87942D01*
G01X71955Y87848D01*
G01X71909Y87757D01*
G01X71818Y87711D01*
G01X71587Y87665D01*
G01X71493Y87617D01*
G01X71447Y87525D01*
G01X71447Y87480D01*
G01X71493Y87388D01*
G01X71633Y87340D01*
G01X71770Y87340D01*
G01X71909Y87388D01*
G01X71955Y87480D01*
G01X71142Y87711D02*
G01X70589Y87711D01*
G01X70589Y87802D01*
G01X70634Y87896D01*
G01X70680Y87942D01*
G01X70774Y87988D01*
G01X70911Y87988D01*
G01X71005Y87942D01*
G01X71097Y87848D01*
G01X71142Y87711D01*
G01X71142Y87617D01*
G01X71097Y87480D01*
G01X71005Y87388D01*
G01X70911Y87340D01*
G01X70774Y87340D01*
G01X70680Y87388D01*
G01X70589Y87480D01*
G01X68879Y88079D02*
G01X68925Y88173D01*
G01X69019Y88265D01*
G01X69110Y88310D01*
G01X69296Y88310D01*
G01X69387Y88265D01*
G01X69481Y88173D01*
G01X69527Y88079D01*
G01X69573Y87942D01*
G01X69573Y87711D01*
G01X69527Y87571D01*
G01X69481Y87480D01*
G01X69387Y87388D01*
G01X69296Y87340D01*
G01X69110Y87340D01*
G01X69019Y87388D01*
G01X68925Y87480D01*
G01X68879Y87571D01*
G01X67881Y88079D02*
G01X67929Y88173D01*
G01X68021Y88265D01*
G01X68112Y88310D01*
G01X68298Y88310D01*
G01X68389Y88265D01*
G01X68483Y88173D01*
G01X68529Y88079D01*
G01X68574Y87942D01*
G01X68574Y87711D01*
G01X68529Y87571D01*
G01X68483Y87480D01*
G01X68389Y87388D01*
G01X68298Y87340D01*
G01X68112Y87340D01*
G01X68021Y87388D01*
G01X67929Y87480D01*
G01X67881Y87571D01*
G01X67576Y87757D02*
G01X66746Y87757D01*
G01X66441Y88310D02*
G01X66441Y87340D01*
G01X66441Y88310D02*
G01X66027Y88310D01*
G01X65887Y88265D01*
G01X65841Y88219D01*
G01X65796Y88125D01*
G01X65796Y88033D01*
G01X65841Y87942D01*
G01X65887Y87896D01*
G01X66027Y87848D01*
G01X66441Y87848D02*
G01X66027Y87848D01*
G01X65887Y87802D01*
G01X65841Y87757D01*
G01X65796Y87665D01*
G01X65796Y87525D01*
G01X65841Y87434D01*
G01X65887Y87388D01*
G01X66027Y87340D01*
G01X66441Y87340D01*
G01X65491Y88310D02*
G01X65120Y87848D01*
G01X65120Y87340D01*
G01X64752Y88310D02*
G01X65120Y87848D01*
G01X64447Y87757D02*
G01X63614Y87757D01*
G01X63309Y88310D02*
G01X63309Y87340D01*
G01X63309Y88310D02*
G01X62664Y87340D01*
G01X62664Y88310D02*
G01X62664Y87340D01*
G01X61666Y88079D02*
G01X61711Y88173D01*
G01X61805Y88265D01*
G01X61897Y88310D01*
G01X62082Y88310D01*
G01X62174Y88265D01*
G01X62268Y88173D01*
G01X62313Y88079D01*
G01X62359Y87942D01*
G01X62359Y87711D01*
G01X62313Y87571D01*
G01X62268Y87480D01*
G01X62174Y87388D01*
G01X62082Y87340D01*
G01X61897Y87340D01*
G01X61805Y87388D01*
G01X61711Y87480D01*
G01X61666Y87571D01*
G01X61361Y87757D02*
G01X60530Y87757D01*
G01X59578Y88173D02*
G01X59672Y88265D01*
G01X59809Y88310D01*
G01X59994Y88310D01*
G01X60134Y88265D01*
G01X60225Y88173D01*
G01X60225Y88079D01*
G01X60180Y87988D01*
G01X60134Y87942D01*
G01X60040Y87896D01*
G01X59763Y87802D01*
G01X59672Y87757D01*
G01X59626Y87711D01*
G01X59578Y87617D01*
G01X59578Y87480D01*
G01X59672Y87388D01*
G01X59809Y87340D01*
G01X59994Y87340D01*
G01X60134Y87388D01*
G01X60225Y87480D01*
G01X58905Y88310D02*
G01X59273Y87340D01*
G01X58905Y88310D02*
G01X58534Y87340D01*
G01X59136Y87665D02*
G01X58674Y87665D01*
G01X57058Y88310D02*
G01X57518Y87665D01*
G01X56827Y87665D01*
G01X57058Y88310D02*
G01X57058Y87340D01*
G01X56476Y87571D02*
G01X56522Y87525D01*
G01X56476Y87480D01*
G01X56428Y87525D01*
G01X56476Y87571D01*
G01X55846Y88310D02*
G01X55986Y88265D01*
G01X56078Y88125D01*
G01X56123Y87896D01*
G01X56123Y87757D01*
G01X56078Y87525D01*
G01X55986Y87388D01*
G01X55846Y87340D01*
G01X55755Y87340D01*
G01X55615Y87388D01*
G01X55524Y87525D01*
G01X55478Y87757D01*
G01X55478Y87896D01*
G01X55524Y88125D01*
G01X55615Y88265D01*
G01X55755Y88310D01*
G01X55846Y88310D01*
G01X54140Y88496D02*
G01X54231Y88404D01*
G01X54322Y88265D01*
G01X54416Y88079D01*
G01X54462Y87848D01*
G01X54462Y87665D01*
G01X54416Y87434D01*
G01X54322Y87249D01*
G01X54231Y87109D01*
G01X54140Y87017D01*
G01X53835Y88310D02*
G01X53835Y87340D01*
G01X53835Y87802D02*
G01X53695Y87942D01*
G01X53604Y87988D01*
G01X53464Y87988D01*
G01X53373Y87942D01*
G01X53327Y87802D01*
G01X53327Y87340D01*
G01X52882Y88310D02*
G01X52882Y87525D01*
G01X52837Y87388D01*
G01X52743Y87340D01*
G01X52651Y87340D01*
G01X53022Y87988D02*
G01X52697Y87988D01*
G01X52209Y88310D02*
G01X52209Y87525D01*
G01X52161Y87388D01*
G01X52070Y87340D01*
G01X51978Y87340D01*
G01X52346Y87988D02*
G01X52024Y87988D01*
G01X51673Y87988D02*
G01X51673Y87017D01*
G01X51673Y87848D02*
G01X51579Y87942D01*
G01X51488Y87988D01*
G01X51348Y87988D01*
G01X51257Y87942D01*
G01X51165Y87848D01*
G01X51117Y87711D01*
G01X51117Y87617D01*
G01X51165Y87480D01*
G01X51257Y87388D01*
G01X51348Y87340D01*
G01X51488Y87340D01*
G01X51579Y87388D01*
G01X51673Y87480D01*
G01X50304Y87848D02*
G01X50352Y87942D01*
G01X50490Y87988D01*
G01X50629Y87988D01*
G01X50766Y87942D01*
G01X50812Y87848D01*
G01X50766Y87757D01*
G01X50675Y87711D01*
G01X50444Y87665D01*
G01X50352Y87617D01*
G01X50304Y87525D01*
G01X50304Y87480D01*
G01X50352Y87388D01*
G01X50490Y87340D01*
G01X50629Y87340D01*
G01X50766Y87388D01*
G01X50812Y87480D01*
G01X49954Y87896D02*
G01X49999Y87848D01*
G01X49954Y87802D01*
G01X49908Y87848D01*
G01X49954Y87896D01*
G01X49954Y87571D02*
G01X49999Y87525D01*
G01X49954Y87480D01*
G01X49908Y87525D01*
G01X49954Y87571D01*
G01X48773Y88496D02*
G01X49603Y87017D01*
G01X47637Y88496D02*
G01X48468Y87017D01*
G01X46776Y87988D02*
G01X46776Y87249D01*
G01X46824Y87109D01*
G01X46870Y87063D01*
G01X46962Y87017D01*
G01X47101Y87017D01*
G01X47193Y87063D01*
G01X46776Y87848D02*
G01X46870Y87942D01*
G01X46962Y87988D01*
G01X47101Y87988D01*
G01X47193Y87942D01*
G01X47284Y87848D01*
G01X47332Y87711D01*
G01X47332Y87617D01*
G01X47284Y87480D01*
G01X47193Y87388D01*
G01X47101Y87340D01*
G01X46962Y87340D01*
G01X46870Y87388D01*
G01X46776Y87480D01*
G01X46240Y87988D02*
G01X46334Y87942D01*
G01X46426Y87848D01*
G01X46471Y87711D01*
G01X46471Y87617D01*
G01X46426Y87480D01*
G01X46334Y87388D01*
G01X46240Y87340D01*
G01X46103Y87340D01*
G01X46012Y87388D01*
G01X45918Y87480D01*
G01X45872Y87617D01*
G01X45872Y87711D01*
G01X45918Y87848D01*
G01X46012Y87942D01*
G01X46103Y87988D01*
G01X46240Y87988D01*
G01X45336Y87988D02*
G01X45427Y87942D01*
G01X45521Y87848D01*
G01X45567Y87711D01*
G01X45567Y87617D01*
G01X45521Y87480D01*
G01X45427Y87388D01*
G01X45336Y87340D01*
G01X45199Y87340D01*
G01X45105Y87388D01*
G01X45013Y87480D01*
G01X44968Y87617D01*
G01X44968Y87711D01*
G01X45013Y87848D01*
G01X45105Y87942D01*
G01X45199Y87988D01*
G01X45336Y87988D01*
G01X44615Y87571D02*
G01X44663Y87525D01*
G01X44615Y87480D01*
G01X44569Y87525D01*
G01X44615Y87571D01*
G01X43710Y87988D02*
G01X43710Y87249D01*
G01X43756Y87109D01*
G01X43802Y87063D01*
G01X43896Y87017D01*
G01X44033Y87017D01*
G01X44127Y87063D01*
G01X43710Y87848D02*
G01X43802Y87942D01*
G01X43896Y87988D01*
G01X44033Y87988D01*
G01X44127Y87942D01*
G01X44218Y87848D01*
G01X44264Y87711D01*
G01X44264Y87617D01*
G01X44218Y87480D01*
G01X44127Y87388D01*
G01X44033Y87340D01*
G01X43896Y87340D01*
G01X43802Y87388D01*
G01X43710Y87480D01*
G01X43406Y88310D02*
G01X43406Y87340D01*
G01X42270Y88496D02*
G01X43101Y87017D01*
G01X41965Y88310D02*
G01X41965Y87340D01*
G01X41965Y88310D02*
G01X41549Y88310D01*
G01X41412Y88265D01*
G01X41363Y88219D01*
G01X41318Y88125D01*
G01X41318Y87988D01*
G01X41363Y87896D01*
G01X41412Y87848D01*
G01X41549Y87802D01*
G01X41965Y87802D01*
G01X40551Y88310D02*
G01X40551Y87571D01*
G01X40599Y87434D01*
G01X40645Y87388D01*
G01X40736Y87340D01*
G01X40830Y87340D01*
G01X40921Y87388D01*
G01X40967Y87434D01*
G01X41013Y87571D01*
G01X41013Y87665D01*
G01X40246Y87988D02*
G01X39969Y87340D01*
G01X39692Y87988D02*
G01X39969Y87340D01*
G01X39387Y88310D02*
G01X39019Y87848D01*
G01X39019Y87340D01*
G01X38648Y88310D02*
G01X39019Y87848D01*
G01X37744Y87988D02*
G01X37790Y87848D01*
G01X37884Y87757D01*
G01X38021Y87711D01*
G01X38066Y87711D01*
G01X38206Y87757D01*
G01X38298Y87848D01*
G01X38343Y87988D01*
G01X38343Y88033D01*
G01X38298Y88173D01*
G01X38206Y88265D01*
G01X38066Y88310D01*
G01X38021Y88310D01*
G01X37884Y88265D01*
G01X37790Y88173D01*
G01X37744Y87988D01*
G01X37744Y87757D01*
G01X37790Y87525D01*
G01X37884Y87388D01*
G01X38021Y87340D01*
G01X38112Y87340D01*
G01X38252Y87388D01*
G01X38298Y87480D01*
G01X37162Y88310D02*
G01X37254Y88265D01*
G01X37348Y88173D01*
G01X37393Y88079D01*
G01X37439Y87942D01*
G01X37439Y87711D01*
G01X37393Y87571D01*
G01X37348Y87480D01*
G01X37254Y87388D01*
G01X37162Y87340D01*
G01X36977Y87340D01*
G01X36885Y87388D01*
G01X36791Y87480D01*
G01X36746Y87571D01*
G01X36700Y87711D01*
G01X36700Y87942D01*
G01X36746Y88079D01*
G01X36791Y88173D01*
G01X36885Y88265D01*
G01X36977Y88310D01*
G01X37162Y88310D01*
G01X37023Y87525D02*
G01X36746Y87249D01*
G01X36395Y88496D02*
G01X36304Y88404D01*
G01X36210Y88265D01*
G01X36118Y88079D01*
G01X36073Y87848D01*
G01X36073Y87665D01*
G01X36118Y87434D01*
G01X36210Y87249D01*
G01X36304Y87109D01*
G01X36395Y87017D01*
G01X8416Y125764D02*
G01X8532Y125706D01*
G01X8647Y125591D01*
G01X8705Y125476D01*
G01X8705Y125245D01*
G01X8647Y125129D01*
G01X8532Y125014D01*
G01X8416Y124956D01*
G01X8243Y124898D01*
G01X7954Y124898D01*
G01X7781Y124956D01*
G01X7666Y125014D01*
G01X7550Y125129D01*
G01X7493Y125245D01*
G01X7493Y125476D01*
G01X7550Y125591D01*
G01X7666Y125706D01*
G01X7781Y125764D01*
G01X7954Y125764D01*
G01X7954Y125476D02*
G01X7954Y125764D01*
G01X8705Y126145D02*
G01X7493Y126145D01*
G01X8705Y126145D02*
G01X7493Y126953D01*
G01X8705Y126953D02*
G01X7493Y126953D01*
G01X8705Y127334D02*
G01X7493Y127334D01*
G01X8705Y127334D02*
G01X8705Y127738D01*
G01X8647Y127912D01*
G01X8532Y128027D01*
G01X8416Y128085D01*
G01X8243Y128143D01*
G01X7954Y128143D01*
G01X7781Y128085D01*
G01X7666Y128027D01*
G01X7550Y127912D01*
G01X7493Y127738D01*
G01X7493Y127334D01*
G01X4537Y124702D02*
G01X4595Y124817D01*
G01X4768Y124991D01*
G01X3556Y124991D01*
G01X4479Y125429D02*
G01X4537Y125429D01*
G01X4652Y125487D01*
G01X4710Y125545D01*
G01X4768Y125660D01*
G01X4768Y125891D01*
G01X4710Y126007D01*
G01X4652Y126064D01*
G01X4537Y126122D01*
G01X4421Y126122D01*
G01X4306Y126064D01*
G01X4133Y125949D01*
G01X3556Y125372D01*
G01X3556Y126180D01*
G01X4768Y126561D02*
G01X3556Y127023D01*
G01X4768Y127484D02*
G01X3556Y127023D01*
G01X4595Y128385D02*
G01X3556Y128385D01*
G01X4075Y127865D02*
G01X4075Y128905D01*
G01X10090Y116332D02*
G01X10090Y115119D01*
G01X10090Y115119D02*
G01X9398Y115119D01*
G01X8151Y116043D02*
G01X8208Y116158D01*
G01X8324Y116274D01*
G01X8439Y116332D01*
G01X8670Y116332D01*
G01X8786Y116274D01*
G01X8901Y116158D01*
G01X8959Y116043D01*
G01X9017Y115870D01*
G01X9017Y115581D01*
G01X8959Y115408D01*
G01X8901Y115292D01*
G01X8786Y115177D01*
G01X8670Y115119D01*
G01X8439Y115119D01*
G01X8324Y115177D01*
G01X8208Y115292D01*
G01X8151Y115408D01*
G01X7770Y116332D02*
G01X7770Y115119D01*
G01X7770Y116332D02*
G01X7366Y116332D01*
G01X7192Y116274D01*
G01X7077Y116158D01*
G01X7019Y116043D01*
G01X6961Y115870D01*
G01X6961Y115581D01*
G01X7019Y115408D01*
G01X7077Y115292D01*
G01X7192Y115177D01*
G01X7366Y115119D01*
G01X7770Y115119D01*
G01X5691Y116332D02*
G01X5691Y115119D01*
G01X5691Y116332D02*
G01X5172Y116332D01*
G01X4999Y116274D01*
G01X4941Y116216D01*
G01X4883Y116101D01*
G01X4883Y115927D01*
G01X4941Y115812D01*
G01X4999Y115754D01*
G01X5172Y115697D01*
G01X5691Y115697D01*
G01X4502Y116332D02*
G01X4214Y115119D01*
G01X3925Y116332D02*
G01X4214Y115119D01*
G01X3925Y116332D02*
G01X3636Y115119D01*
G01X3348Y116332D02*
G01X3636Y115119D01*
G01X2967Y116332D02*
G01X2967Y115119D01*
G01X2967Y116332D02*
G01X2447Y116332D01*
G01X2274Y116274D01*
G01X2216Y116216D01*
G01X2159Y116101D01*
G01X2159Y115985D01*
G01X2216Y115870D01*
G01X2274Y115812D01*
G01X2447Y115754D01*
G01X2967Y115754D01*
G01X2563Y115754D02*
G01X2159Y115119D01*
G01X133915Y81106D02*
G01X133800Y81164D01*
G01X133626Y81337D01*
G01X133626Y80125D01*
G01X133188Y81049D02*
G01X133188Y81106D01*
G01X133130Y81222D01*
G01X133072Y81279D01*
G01X132957Y81337D01*
G01X132726Y81337D01*
G01X132610Y81279D01*
G01X132553Y81222D01*
G01X132495Y81106D01*
G01X132495Y80991D01*
G01X132553Y80875D01*
G01X132668Y80702D01*
G01X133245Y80125D01*
G01X132437Y80125D01*
G01X132056Y81337D02*
G01X131594Y80125D01*
G01X131133Y81337D02*
G01X131594Y80125D01*
G01X130232Y81164D02*
G01X130232Y80125D01*
G01X130752Y80644D02*
G01X129713Y80644D01*
G01X131479Y76557D02*
G01X131421Y76442D01*
G01X131306Y76327D01*
G01X131190Y76269D01*
G01X130960Y76269D01*
G01X130844Y76327D01*
G01X130729Y76442D01*
G01X130671Y76557D01*
G01X130613Y76731D01*
G01X130613Y77019D01*
G01X130671Y77192D01*
G01X130729Y77308D01*
G01X130844Y77423D01*
G01X130960Y77481D01*
G01X131190Y77481D01*
G01X131306Y77423D01*
G01X131421Y77308D01*
G01X131479Y77192D01*
G01X131479Y77019D01*
G01X131190Y77019D02*
G01X131479Y77019D01*
G01X131860Y76269D02*
G01X131860Y77481D01*
G01X131860Y76269D02*
G01X132668Y77481D01*
G01X132668Y76269D02*
G01X132668Y77481D01*
G01X133049Y76269D02*
G01X133049Y77481D01*
G01X133049Y76269D02*
G01X133453Y76269D01*
G01X133627Y76327D01*
G01X133742Y76442D01*
G01X133800Y76557D01*
G01X133857Y76731D01*
G01X133857Y77019D01*
G01X133800Y77192D01*
G01X133742Y77308D01*
G01X133627Y77423D01*
G01X133453Y77481D01*
G01X133049Y77481D01*
G01X142205Y81984D02*
G01X143417Y81984D01*
G01X142205Y81984D02*
G01X142205Y81464D01*
G01X142263Y81291D01*
G01X142320Y81233D01*
G01X142436Y81176D01*
G01X142609Y81176D01*
G01X142725Y81233D01*
G01X142782Y81291D01*
G01X142840Y81464D01*
G01X142840Y81984D01*
G01X142205Y80795D02*
G01X143417Y80506D01*
G01X142205Y80217D02*
G01X143417Y80506D01*
G01X142205Y80217D02*
G01X143417Y79929D01*
G01X142205Y79640D02*
G01X143417Y79929D01*
G01X142205Y79259D02*
G01X143417Y79259D01*
G01X142205Y79259D02*
G01X142205Y78740D01*
G01X142263Y78566D01*
G01X142320Y78509D01*
G01X142436Y78451D01*
G01X142551Y78451D01*
G01X142667Y78509D01*
G01X142725Y78566D01*
G01X142782Y78740D01*
G01X142782Y79259D01*
G01X142782Y78855D02*
G01X143417Y78451D01*
G01X142205Y77181D02*
G01X143417Y77181D01*
G01X142205Y76800D02*
G01X143417Y76800D01*
G01X142205Y76800D02*
G01X143417Y75992D01*
G01X142205Y75992D02*
G01X143417Y75992D01*
G01X65785Y27385D02*
G01X65785Y27847D01*
G01X66201Y27893D01*
G01X66155Y27847D01*
G01X66109Y27709D01*
G01X66109Y27570D01*
G01X66155Y27432D01*
G01X66247Y27339D01*
G01X66386Y27293D01*
G01X66478Y27293D01*
G01X66617Y27339D01*
G01X66709Y27432D01*
G01X66755Y27570D01*
G01X66755Y27709D01*
G01X66709Y27847D01*
G01X66663Y27893D01*
G01X66571Y27940D01*
G01X65785Y26988D02*
G01X66755Y26619D01*
G01X65785Y26249D02*
G01X66755Y26619D01*
G01X61698Y27120D02*
G01X61606Y27166D01*
G01X61514Y27258D01*
G01X61468Y27351D01*
G01X61468Y27535D01*
G01X61514Y27628D01*
G01X61606Y27720D01*
G01X61698Y27766D01*
G01X61837Y27813D01*
G01X62068Y27813D01*
G01X62206Y27766D01*
G01X62299Y27720D01*
G01X62391Y27628D01*
G01X62437Y27535D01*
G01X62437Y27351D01*
G01X62391Y27258D01*
G01X62299Y27166D01*
G01X62206Y27120D01*
G01X62068Y27120D01*
G01X62068Y27351D02*
G01X62068Y27120D01*
G01X61468Y26815D02*
G01X62437Y26815D01*
G01X61468Y26815D02*
G01X62437Y26168D01*
G01X61468Y26168D02*
G01X62437Y26168D01*
G01X61468Y25864D02*
G01X62437Y25864D01*
G01X61468Y25864D02*
G01X61468Y25540D01*
G01X61514Y25402D01*
G01X61606Y25309D01*
G01X61698Y25263D01*
G01X61837Y25217D01*
G01X62068Y25217D01*
G01X62206Y25263D01*
G01X62299Y25309D01*
G01X62391Y25402D01*
G01X62437Y25540D01*
G01X62437Y25864D01*
G01X23367Y35052D02*
G01X24337Y35052D01*
G01X23367Y35052D02*
G01X23367Y34636D01*
G01X23414Y34497D01*
G01X23460Y34451D01*
G01X23552Y34405D01*
G01X23645Y34405D01*
G01X23737Y34451D01*
G01X23783Y34497D01*
G01X23829Y34636D01*
G01X23829Y35052D02*
G01X23829Y34636D01*
G01X23875Y34497D01*
G01X23922Y34451D01*
G01X24014Y34405D01*
G01X24153Y34405D01*
G01X24245Y34451D01*
G01X24291Y34497D01*
G01X24337Y34636D01*
G01X24337Y35052D01*
G01X23367Y34100D02*
G01X24337Y34100D01*
G01X24337Y34100D02*
G01X24337Y33546D01*
G01X59066Y27120D02*
G01X58974Y27166D01*
G01X58881Y27258D01*
G01X58835Y27351D01*
G01X58835Y27535D01*
G01X58881Y27628D01*
G01X58974Y27720D01*
G01X59066Y27766D01*
G01X59205Y27813D01*
G01X59436Y27813D01*
G01X59574Y27766D01*
G01X59666Y27720D01*
G01X59759Y27628D01*
G01X59805Y27535D01*
G01X59805Y27351D01*
G01X59759Y27258D01*
G01X59666Y27166D01*
G01X59574Y27120D01*
G01X59020Y26815D02*
G01X58974Y26723D01*
G01X58835Y26584D01*
G01X59805Y26584D01*
G01X64388Y27385D02*
G01X64388Y27847D01*
G01X64804Y27893D01*
G01X64758Y27847D01*
G01X64712Y27709D01*
G01X64712Y27570D01*
G01X64758Y27432D01*
G01X64850Y27339D01*
G01X64989Y27293D01*
G01X65081Y27293D01*
G01X65220Y27339D01*
G01X65312Y27432D01*
G01X65358Y27570D01*
G01X65358Y27709D01*
G01X65312Y27847D01*
G01X65266Y27893D01*
G01X65174Y27940D01*
G01X64388Y26988D02*
G01X65358Y26619D01*
G01X64388Y26249D02*
G01X65358Y26619D01*
G01X56399Y27120D02*
G01X56307Y27166D01*
G01X56214Y27258D01*
G01X56168Y27351D01*
G01X56168Y27535D01*
G01X56214Y27628D01*
G01X56307Y27720D01*
G01X56399Y27766D01*
G01X56538Y27813D01*
G01X56769Y27813D01*
G01X56907Y27766D01*
G01X56999Y27720D01*
G01X57092Y27628D01*
G01X57138Y27535D01*
G01X57138Y27351D01*
G01X57092Y27258D01*
G01X56999Y27166D01*
G01X56907Y27120D01*
G01X56399Y26769D02*
G01X56353Y26769D01*
G01X56261Y26723D01*
G01X56214Y26676D01*
G01X56168Y26584D01*
G01X56168Y26399D01*
G01X56214Y26307D01*
G01X56261Y26261D01*
G01X56353Y26215D01*
G01X56445Y26215D01*
G01X56538Y26261D01*
G01X56676Y26353D01*
G01X57138Y26815D01*
G01X57138Y26168D01*
G01X53859Y27120D02*
G01X53767Y27166D01*
G01X53674Y27258D01*
G01X53628Y27351D01*
G01X53628Y27535D01*
G01X53674Y27628D01*
G01X53767Y27720D01*
G01X53859Y27766D01*
G01X53998Y27813D01*
G01X54229Y27813D01*
G01X54367Y27766D01*
G01X54459Y27720D01*
G01X54552Y27628D01*
G01X54598Y27535D01*
G01X54598Y27351D01*
G01X54552Y27258D01*
G01X54459Y27166D01*
G01X54367Y27120D01*
G01X53628Y26723D02*
G01X53628Y26215D01*
G01X53998Y26492D01*
G01X53998Y26353D01*
G01X54044Y26261D01*
G01X54090Y26215D01*
G01X54229Y26168D01*
G01X54321Y26168D01*
G01X54459Y26215D01*
G01X54552Y26307D01*
G01X54598Y26446D01*
G01X54598Y26584D01*
G01X54552Y26723D01*
G01X54506Y26769D01*
G01X54413Y26815D01*
G01X48825Y27120D02*
G01X48733Y27166D01*
G01X48641Y27258D01*
G01X48594Y27351D01*
G01X48594Y27535D01*
G01X48641Y27628D01*
G01X48733Y27720D01*
G01X48825Y27766D01*
G01X48964Y27813D01*
G01X49195Y27813D01*
G01X49333Y27766D01*
G01X49426Y27720D01*
G01X49518Y27628D01*
G01X49564Y27535D01*
G01X49564Y27351D01*
G01X49518Y27258D01*
G01X49426Y27166D01*
G01X49333Y27120D01*
G01X48594Y26353D02*
G01X49241Y26815D01*
G01X49241Y26122D01*
G01X48594Y26353D02*
G01X49564Y26353D01*
G01X46412Y27120D02*
G01X46320Y27166D01*
G01X46228Y27258D01*
G01X46181Y27351D01*
G01X46181Y27535D01*
G01X46228Y27628D01*
G01X46320Y27720D01*
G01X46412Y27766D01*
G01X46551Y27813D01*
G01X46782Y27813D01*
G01X46920Y27766D01*
G01X47013Y27720D01*
G01X47105Y27628D01*
G01X47151Y27535D01*
G01X47151Y27351D01*
G01X47105Y27258D01*
G01X47013Y27166D01*
G01X46920Y27120D01*
G01X46181Y26261D02*
G01X46181Y26723D01*
G01X46597Y26769D01*
G01X46551Y26723D01*
G01X46505Y26584D01*
G01X46505Y26446D01*
G01X46551Y26307D01*
G01X46643Y26215D01*
G01X46782Y26168D01*
G01X46874Y26168D01*
G01X47013Y26215D01*
G01X47105Y26307D01*
G01X47151Y26446D01*
G01X47151Y26584D01*
G01X47105Y26723D01*
G01X47059Y26769D01*
G01X46966Y26815D01*
G01X41251Y27120D02*
G01X41159Y27166D01*
G01X41067Y27258D01*
G01X41020Y27351D01*
G01X41020Y27535D01*
G01X41067Y27628D01*
G01X41159Y27720D01*
G01X41251Y27766D01*
G01X41390Y27813D01*
G01X41621Y27813D01*
G01X41759Y27766D01*
G01X41852Y27720D01*
G01X41944Y27628D01*
G01X41990Y27535D01*
G01X41990Y27351D01*
G01X41944Y27258D01*
G01X41852Y27166D01*
G01X41759Y27120D01*
G01X41159Y26261D02*
G01X41067Y26307D01*
G01X41020Y26446D01*
G01X41020Y26538D01*
G01X41067Y26676D01*
G01X41205Y26769D01*
G01X41436Y26815D01*
G01X41667Y26815D01*
G01X41852Y26769D01*
G01X41944Y26676D01*
G01X41990Y26538D01*
G01X41990Y26492D01*
G01X41944Y26353D01*
G01X41852Y26261D01*
G01X41713Y26215D01*
G01X41667Y26215D01*
G01X41528Y26261D01*
G01X41436Y26353D01*
G01X41390Y26492D01*
G01X41390Y26538D01*
G01X41436Y26676D01*
G01X41528Y26769D01*
G01X41667Y26815D01*
G01X38665Y27120D02*
G01X38573Y27166D01*
G01X38481Y27258D01*
G01X38434Y27351D01*
G01X38434Y27535D01*
G01X38481Y27628D01*
G01X38573Y27720D01*
G01X38665Y27766D01*
G01X38804Y27813D01*
G01X39035Y27813D01*
G01X39173Y27766D01*
G01X39266Y27720D01*
G01X39358Y27628D01*
G01X39404Y27535D01*
G01X39404Y27351D01*
G01X39358Y27258D01*
G01X39266Y27166D01*
G01X39173Y27120D01*
G01X38434Y26168D02*
G01X39404Y26630D01*
G01X38434Y26815D02*
G01X38434Y26168D01*
G01X36125Y27120D02*
G01X36033Y27166D01*
G01X35941Y27258D01*
G01X35894Y27351D01*
G01X35894Y27535D01*
G01X35941Y27628D01*
G01X36033Y27720D01*
G01X36125Y27766D01*
G01X36264Y27813D01*
G01X36495Y27813D01*
G01X36633Y27766D01*
G01X36726Y27720D01*
G01X36818Y27628D01*
G01X36864Y27535D01*
G01X36864Y27351D01*
G01X36818Y27258D01*
G01X36726Y27166D01*
G01X36633Y27120D01*
G01X35894Y26584D02*
G01X35941Y26723D01*
G01X36033Y26769D01*
G01X36125Y26769D01*
G01X36218Y26723D01*
G01X36264Y26630D01*
G01X36310Y26446D01*
G01X36356Y26307D01*
G01X36449Y26215D01*
G01X36541Y26168D01*
G01X36679Y26168D01*
G01X36772Y26215D01*
G01X36818Y26261D01*
G01X36864Y26399D01*
G01X36864Y26584D01*
G01X36818Y26723D01*
G01X36772Y26769D01*
G01X36679Y26815D01*
G01X36541Y26815D01*
G01X36449Y26769D01*
G01X36356Y26676D01*
G01X36310Y26538D01*
G01X36264Y26353D01*
G01X36218Y26261D01*
G01X36125Y26215D01*
G01X36033Y26215D01*
G01X35941Y26261D01*
G01X35894Y26399D01*
G01X35894Y26584D01*
G01X23933Y27247D02*
G01X23841Y27293D01*
G01X23749Y27385D01*
G01X23702Y27478D01*
G01X23702Y27662D01*
G01X23749Y27755D01*
G01X23841Y27847D01*
G01X23933Y27893D01*
G01X24072Y27940D01*
G01X24303Y27940D01*
G01X24441Y27893D01*
G01X24534Y27847D01*
G01X24626Y27755D01*
G01X24672Y27662D01*
G01X24672Y27478D01*
G01X24626Y27385D01*
G01X24534Y27293D01*
G01X24441Y27247D01*
G01X24026Y26342D02*
G01X24164Y26388D01*
G01X24257Y26480D01*
G01X24303Y26619D01*
G01X24303Y26665D01*
G01X24257Y26803D01*
G01X24164Y26896D01*
G01X24026Y26942D01*
G01X23979Y26942D01*
G01X23841Y26896D01*
G01X23749Y26803D01*
G01X23702Y26665D01*
G01X23702Y26619D01*
G01X23749Y26480D01*
G01X23841Y26388D01*
G01X24026Y26342D01*
G01X24257Y26342D01*
G01X24487Y26388D01*
G01X24626Y26480D01*
G01X24672Y26619D01*
G01X24672Y26711D01*
G01X24626Y26850D01*
G01X24534Y26896D01*
G01X18241Y27940D02*
G01X19211Y27940D01*
G01X18241Y27940D02*
G01X18241Y27524D01*
G01X18288Y27385D01*
G01X18334Y27339D01*
G01X18426Y27293D01*
G01X18518Y27293D01*
G01X18611Y27339D01*
G01X18657Y27385D01*
G01X18703Y27524D01*
G01X18703Y27940D01*
G01X18703Y27616D02*
G01X19211Y27293D01*
G01X18426Y26988D02*
G01X18380Y26896D01*
G01X18241Y26757D01*
G01X19211Y26757D01*
G01X64389Y35306D02*
G01X65358Y35306D01*
G01X64389Y35306D02*
G01X64389Y34890D01*
G01X64435Y34751D01*
G01X64481Y34705D01*
G01X64573Y34659D01*
G01X64666Y34659D01*
G01X64758Y34705D01*
G01X64804Y34751D01*
G01X64850Y34890D01*
G01X64850Y35306D01*
G01X64850Y34982D02*
G01X65358Y34659D01*
G01X64619Y34308D02*
G01X64573Y34308D01*
G01X64481Y34262D01*
G01X64435Y34216D01*
G01X64389Y34123D01*
G01X64389Y33939D01*
G01X64435Y33846D01*
G01X64481Y33800D01*
G01X64573Y33754D01*
G01X64666Y33754D01*
G01X64758Y33800D01*
G01X64897Y33892D01*
G01X65358Y34354D01*
G01X65358Y33708D01*
G01X61421Y35306D02*
G01X62391Y35306D01*
G01X61421Y35306D02*
G01X61421Y34890D01*
G01X61468Y34751D01*
G01X61514Y34705D01*
G01X61606Y34659D01*
G01X61698Y34659D01*
G01X61791Y34705D01*
G01X61837Y34751D01*
G01X61883Y34890D01*
G01X61883Y35306D01*
G01X61883Y34982D02*
G01X62391Y34659D01*
G01X61421Y34262D02*
G01X61421Y33754D01*
G01X61791Y34031D01*
G01X61791Y33892D01*
G01X61837Y33800D01*
G01X61883Y33754D01*
G01X62022Y33708D01*
G01X62114Y33708D01*
G01X62253Y33754D01*
G01X62345Y33846D01*
G01X62391Y33985D01*
G01X62391Y34123D01*
G01X62345Y34262D01*
G01X62299Y34308D01*
G01X62206Y34354D01*
G01X58754Y35306D02*
G01X59724Y35306D01*
G01X58754Y35306D02*
G01X58754Y34890D01*
G01X58801Y34751D01*
G01X58847Y34705D01*
G01X58939Y34659D01*
G01X59031Y34659D01*
G01X59124Y34705D01*
G01X59170Y34751D01*
G01X59216Y34890D01*
G01X59216Y35306D01*
G01X59216Y34982D02*
G01X59724Y34659D01*
G01X58754Y33892D02*
G01X59401Y34354D01*
G01X59401Y33661D01*
G01X58754Y33892D02*
G01X59724Y33892D01*
G01X53674Y35306D02*
G01X54644Y35306D01*
G01X53674Y35306D02*
G01X53674Y34890D01*
G01X53721Y34751D01*
G01X53767Y34705D01*
G01X53859Y34659D01*
G01X53951Y34659D01*
G01X54044Y34705D01*
G01X54090Y34751D01*
G01X54136Y34890D01*
G01X54136Y35306D01*
G01X54136Y34982D02*
G01X54644Y34659D01*
G01X53674Y33800D02*
G01X53674Y34262D01*
G01X54090Y34308D01*
G01X54044Y34262D01*
G01X53998Y34123D01*
G01X53998Y33985D01*
G01X54044Y33846D01*
G01X54136Y33754D01*
G01X54275Y33708D01*
G01X54367Y33708D01*
G01X54506Y33754D01*
G01X54598Y33846D01*
G01X54644Y33985D01*
G01X54644Y34123D01*
G01X54598Y34262D01*
G01X54552Y34308D01*
G01X54459Y34354D01*
G01X51134Y35306D02*
G01X52104Y35306D01*
G01X51134Y35306D02*
G01X51134Y34890D01*
G01X51181Y34751D01*
G01X51227Y34705D01*
G01X51319Y34659D01*
G01X51411Y34659D01*
G01X51504Y34705D01*
G01X51550Y34751D01*
G01X51596Y34890D01*
G01X51596Y35306D01*
G01X51596Y34982D02*
G01X52104Y34659D01*
G01X51273Y33800D02*
G01X51181Y33846D01*
G01X51134Y33985D01*
G01X51134Y34077D01*
G01X51181Y34216D01*
G01X51319Y34308D01*
G01X51550Y34354D01*
G01X51781Y34354D01*
G01X51966Y34308D01*
G01X52058Y34216D01*
G01X52104Y34077D01*
G01X52104Y34031D01*
G01X52058Y33892D01*
G01X51966Y33800D01*
G01X51827Y33754D01*
G01X51781Y33754D01*
G01X51642Y33800D01*
G01X51550Y33892D01*
G01X51504Y34031D01*
G01X51504Y34077D01*
G01X51550Y34216D01*
G01X51642Y34308D01*
G01X51781Y34354D01*
G01X48594Y35433D02*
G01X49564Y35433D01*
G01X48594Y35433D02*
G01X48594Y35017D01*
G01X48641Y34878D01*
G01X48687Y34832D01*
G01X48779Y34786D01*
G01X48871Y34786D01*
G01X48964Y34832D01*
G01X49010Y34878D01*
G01X49056Y35017D01*
G01X49056Y35433D01*
G01X49056Y35109D02*
G01X49564Y34786D01*
G01X48594Y33835D02*
G01X49564Y34296D01*
G01X48594Y34481D02*
G01X48594Y33835D01*
G01X43514Y35433D02*
G01X44484Y35433D01*
G01X43514Y35433D02*
G01X43514Y35017D01*
G01X43561Y34878D01*
G01X43607Y34832D01*
G01X43699Y34786D01*
G01X43791Y34786D01*
G01X43884Y34832D01*
G01X43930Y34878D01*
G01X43976Y35017D01*
G01X43976Y35433D01*
G01X43976Y35109D02*
G01X44484Y34786D01*
G01X43514Y34250D02*
G01X43561Y34389D01*
G01X43653Y34435D01*
G01X43745Y34435D01*
G01X43838Y34389D01*
G01X43884Y34296D01*
G01X43930Y34112D01*
G01X43976Y33973D01*
G01X44069Y33881D01*
G01X44161Y33835D01*
G01X44299Y33835D01*
G01X44392Y33881D01*
G01X44438Y33927D01*
G01X44484Y34066D01*
G01X44484Y34250D01*
G01X44438Y34389D01*
G01X44392Y34435D01*
G01X44299Y34481D01*
G01X44161Y34481D01*
G01X44069Y34435D01*
G01X43976Y34343D01*
G01X43930Y34204D01*
G01X43884Y34019D01*
G01X43838Y33927D01*
G01X43745Y33881D01*
G01X43653Y33881D01*
G01X43561Y33927D01*
G01X43514Y34066D01*
G01X43514Y34250D01*
G01X38434Y35306D02*
G01X39404Y35306D01*
G01X38434Y35306D02*
G01X39404Y34936D01*
G01X38434Y34567D02*
G01X39404Y34936D01*
G01X38434Y34567D02*
G01X39404Y34567D01*
G01X38573Y33615D02*
G01X38481Y33708D01*
G01X38434Y33846D01*
G01X38434Y34031D01*
G01X38481Y34169D01*
G01X38573Y34262D01*
G01X38665Y34262D01*
G01X38758Y34216D01*
G01X38804Y34169D01*
G01X38850Y34077D01*
G01X38942Y33800D01*
G01X38989Y33708D01*
G01X39035Y33661D01*
G01X39127Y33615D01*
G01X39266Y33615D01*
G01X39358Y33708D01*
G01X39404Y33846D01*
G01X39404Y34031D01*
G01X39358Y34169D01*
G01X39266Y34262D01*
G01X28274Y35028D02*
G01X28321Y35121D01*
G01X28413Y35213D01*
G01X28505Y35259D01*
G01X28644Y35306D01*
G01X28875Y35306D01*
G01X29013Y35259D01*
G01X29106Y35213D01*
G01X29198Y35121D01*
G01X29244Y35028D01*
G01X29244Y34844D01*
G01X29198Y34751D01*
G01X29106Y34659D01*
G01X29013Y34613D01*
G01X28875Y34567D01*
G01X28644Y34567D01*
G01X28505Y34613D01*
G01X28413Y34659D01*
G01X28321Y34751D01*
G01X28274Y34844D01*
G01X28274Y35028D01*
G01X28274Y34262D02*
G01X29244Y34262D01*
G01X28274Y34262D02*
G01X28274Y33661D01*
G01X28736Y34262D02*
G01X28736Y33892D01*
G01X41020Y35306D02*
G01X41990Y35306D01*
G01X41020Y35306D02*
G01X41020Y34705D01*
G01X41482Y35306D02*
G01X41482Y34936D01*
G01X41990Y35306D02*
G01X41990Y34705D01*
G01X41020Y34400D02*
G01X41990Y33754D01*
G01X41020Y33754D02*
G01X41990Y34400D01*
G01X31195Y35306D02*
G01X32165Y35306D01*
G01X31195Y35306D02*
G01X31195Y34982D01*
G01X31242Y34844D01*
G01X31334Y34751D01*
G01X31426Y34705D01*
G01X31565Y34659D01*
G01X31796Y34659D01*
G01X31934Y34705D01*
G01X32027Y34751D01*
G01X32119Y34844D01*
G01X32165Y34982D01*
G01X32165Y35306D01*
G01X31334Y33708D02*
G01X31242Y33800D01*
G01X31195Y33939D01*
G01X31195Y34123D01*
G01X31242Y34262D01*
G01X31334Y34354D01*
G01X31426Y34354D01*
G01X31519Y34308D01*
G01X31565Y34262D01*
G01X31611Y34169D01*
G01X31703Y33892D01*
G01X31750Y33800D01*
G01X31796Y33754D01*
G01X31888Y33708D01*
G01X32027Y33708D01*
G01X32119Y33800D01*
G01X32165Y33939D01*
G01X32165Y34123D01*
G01X32119Y34262D01*
G01X32027Y34354D01*
G01X25861Y35306D02*
G01X26831Y35306D01*
G01X25861Y35306D02*
G01X25861Y34705D01*
G01X26323Y35306D02*
G01X26323Y34936D01*
G01X25861Y34400D02*
G01X26831Y34400D01*
G01X26831Y34400D02*
G01X26831Y33846D01*
G54D26*
G01X42799Y37157D02*
G01X42799Y36068D01*
G01X42799Y37157D02*
G01X42331Y37157D01*
G01X42176Y37106D01*
G01X42123Y37056D01*
G01X42072Y36951D01*
G01X42072Y36794D01*
G01X42123Y36690D01*
G01X42176Y36639D01*
G01X42331Y36586D01*
G01X42799Y36586D01*
G01X40949Y36898D02*
G01X41000Y37002D01*
G01X41104Y37106D01*
G01X41208Y37157D01*
G01X41417Y37157D01*
G01X41521Y37106D01*
G01X41625Y37002D01*
G01X41676Y36898D01*
G01X41729Y36743D01*
G01X41729Y36484D01*
G01X41676Y36327D01*
G01X41625Y36222D01*
G01X41521Y36118D01*
G01X41417Y36068D01*
G01X41208Y36068D01*
G01X41104Y36118D01*
G01X41000Y36222D01*
G01X40949Y36327D01*
G01X40606Y37157D02*
G01X40606Y36068D01*
G01X40606Y37157D02*
G01X40139Y37157D01*
G01X39982Y37106D01*
G01X39931Y37056D01*
G01X39878Y36951D01*
G01X39878Y36847D01*
G01X39931Y36743D01*
G01X39982Y36690D01*
G01X40139Y36639D01*
G01X40606Y36639D02*
G01X40139Y36639D01*
G01X39982Y36586D01*
G01X39931Y36535D01*
G01X39878Y36431D01*
G01X39878Y36276D01*
G01X39931Y36172D01*
G01X39982Y36118D01*
G01X40139Y36068D01*
G01X40606Y36068D01*
G01X39535Y36951D02*
G01X39433Y37002D01*
G01X39276Y37157D01*
G01X39276Y36068D01*
G54D25*
G01X55709Y43586D02*
G01X55709Y41645D01*
G01X55709Y43586D02*
G01X54879Y43586D01*
G01X54602Y43492D01*
G01X54510Y43400D01*
G01X54416Y43215D01*
G01X54416Y43030D01*
G01X54510Y42847D01*
G01X54602Y42753D01*
G01X54879Y42661D01*
G01X55709Y42661D01*
G01X55064Y42661D02*
G01X54416Y41645D01*
G01X52699Y42938D02*
G01X52699Y41645D01*
G01X52699Y42661D02*
G01X52885Y42847D01*
G01X53068Y42938D01*
G01X53345Y42938D01*
G01X53530Y42847D01*
G01X53715Y42661D01*
G01X53807Y42384D01*
G01X53807Y42199D01*
G01X53715Y41922D01*
G01X53530Y41737D01*
G01X53345Y41645D01*
G01X53068Y41645D01*
G01X52885Y41737D01*
G01X52699Y41922D01*
G01X51074Y42661D02*
G01X51165Y42847D01*
G01X51442Y42938D01*
G01X51719Y42938D01*
G01X51998Y42847D01*
G01X52090Y42661D01*
G01X51998Y42476D01*
G01X51813Y42384D01*
G01X51351Y42293D01*
G01X51165Y42199D01*
G01X51074Y42014D01*
G01X51074Y41922D01*
G01X51165Y41737D01*
G01X51442Y41645D01*
G01X51719Y41645D01*
G01X51998Y41737D01*
G01X52090Y41922D01*
G01X50464Y42938D02*
G01X50464Y40998D01*
G01X50464Y42661D02*
G01X50279Y42847D01*
G01X50093Y42938D01*
G01X49817Y42938D01*
G01X49634Y42847D01*
G01X49448Y42661D01*
G01X49357Y42384D01*
G01X49357Y42199D01*
G01X49448Y41922D01*
G01X49634Y41737D01*
G01X49817Y41645D01*
G01X50093Y41645D01*
G01X50279Y41737D01*
G01X50464Y41922D01*
G01X48747Y43586D02*
G01X48747Y41645D01*
G01X48747Y42661D02*
G01X48562Y42847D01*
G01X48376Y42938D01*
G01X48099Y42938D01*
G01X47914Y42847D01*
G01X47731Y42661D01*
G01X47637Y42384D01*
G01X47637Y42199D01*
G01X47731Y41922D01*
G01X47914Y41737D01*
G01X48099Y41645D01*
G01X48376Y41645D01*
G01X48562Y41737D01*
G01X48747Y41922D01*
G01X47028Y42384D02*
G01X45920Y42384D01*
G01X45920Y42570D01*
G01X46012Y42753D01*
G01X46106Y42847D01*
G01X46288Y42938D01*
G01X46565Y42938D01*
G01X46751Y42847D01*
G01X46936Y42661D01*
G01X47028Y42384D01*
G01X47028Y42199D01*
G01X46936Y41922D01*
G01X46751Y41737D01*
G01X46565Y41645D01*
G01X46288Y41645D01*
G01X46106Y41737D01*
G01X45920Y41922D01*
G01X45311Y42938D02*
G01X45311Y41645D01*
G01X45311Y42384D02*
G01X45217Y42661D01*
G01X45034Y42847D01*
G01X44848Y42938D01*
G01X44571Y42938D01*
G01X43962Y42938D02*
G01X43962Y41645D01*
G01X43962Y42384D02*
G01X43870Y42661D01*
G01X43685Y42847D01*
G01X43500Y42938D01*
G01X43223Y42938D01*
G01X42522Y42938D02*
G01X41965Y41645D01*
G01X41412Y42938D02*
G01X41965Y41645D01*
G01X42151Y41277D01*
G01X42336Y41092D01*
G01X42522Y40998D01*
G01X42613Y40998D01*
G01X39380Y43586D02*
G01X39380Y41645D01*
G01X39380Y43586D02*
G01X38549Y43586D01*
G01X38272Y43492D01*
G01X38181Y43400D01*
G01X38087Y43215D01*
G01X38087Y42938D01*
G01X38181Y42753D01*
G01X38272Y42661D01*
G01X38549Y42570D01*
G01X39380Y42570D01*
G01X37477Y43586D02*
G01X37386Y43492D01*
G01X37292Y43586D01*
G01X37386Y43677D01*
G01X37477Y43586D01*
G01X37386Y42938D02*
G01X37386Y41645D01*
G01X33967Y43586D02*
G01X35260Y41645D01*
G01X35260Y43586D02*
G01X33967Y43586D01*
G01X35260Y41645D02*
G01X33967Y41645D01*
G01X33357Y42384D02*
G01X32250Y42384D01*
G01X32250Y42570D01*
G01X32341Y42753D01*
G01X32435Y42847D01*
G01X32618Y42938D01*
G01X32898Y42938D01*
G01X33080Y42847D01*
G01X33266Y42661D01*
G01X33357Y42384D01*
G01X33357Y42199D01*
G01X33266Y41922D01*
G01X33080Y41737D01*
G01X32898Y41645D01*
G01X32618Y41645D01*
G01X32435Y41737D01*
G01X32250Y41922D01*
G01X31640Y42938D02*
G01X31640Y41645D01*
G01X31640Y42384D02*
G01X31549Y42661D01*
G01X31363Y42847D01*
G01X31178Y42938D01*
G01X30901Y42938D01*
G01X29829Y42938D02*
G01X30015Y42847D01*
G01X30200Y42661D01*
G01X30292Y42384D01*
G01X30292Y42199D01*
G01X30200Y41922D01*
G01X30015Y41737D01*
G01X29829Y41645D01*
G01X29552Y41645D01*
G01X29367Y41737D01*
G01X29184Y41922D01*
G01X29090Y42199D01*
G01X29090Y42384D01*
G01X29184Y42661D01*
G01X29367Y42847D01*
G01X29552Y42938D01*
G01X29829Y42938D01*
G54D26*
G01X136344Y37465D02*
G01X135567Y37465D01*
G01X135409Y37515D01*
G01X135305Y37619D01*
G01X135255Y37777D01*
G01X135255Y37881D01*
G01X135305Y38036D01*
G01X135409Y38140D01*
G01X135567Y38191D01*
G01X136344Y38191D01*
G01X136138Y38534D02*
G01X136189Y38638D01*
G01X136344Y38795D01*
G01X135255Y38795D01*
G54D25*
G01X134239Y36830D02*
G01X133024Y36830D01*
G01X134239Y37211D02*
G01X133024Y37211D01*
G01X134239Y37211D02*
G01X133024Y38018D01*
G01X134239Y38018D02*
G01X133024Y38018D01*
G01X115062Y36032D02*
G01X115003Y35918D01*
G01X114889Y35801D01*
G01X114772Y35745D01*
G01X114599Y35687D01*
G01X114310Y35687D01*
G01X114137Y35745D01*
G01X114023Y35801D01*
G01X113906Y35918D01*
G01X113847Y36032D01*
G01X113847Y36263D01*
G01X113906Y36380D01*
G01X114023Y36494D01*
G01X114137Y36553D01*
G01X114310Y36611D01*
G01X114599Y36611D01*
G01X114772Y36553D01*
G01X114889Y36494D01*
G01X115003Y36380D01*
G01X115062Y36263D01*
G01X115062Y36032D01*
G01X115062Y36992D02*
G01X114195Y36992D01*
G01X114023Y37048D01*
G01X113906Y37165D01*
G01X113847Y37338D01*
G01X113847Y37452D01*
G01X113906Y37627D01*
G01X114023Y37741D01*
G01X114195Y37800D01*
G01X115062Y37800D01*
G01X115062Y38585D02*
G01X113847Y38585D01*
G01X115062Y38181D02*
G01X115062Y38989D01*
G01X117729Y30746D02*
G01X116687Y30746D01*
G01X117208Y30226D02*
G01X117208Y31264D01*
G01X131826Y30619D02*
G01X130784Y30619D01*
G01X131305Y30099D02*
G01X131305Y31137D01*
G01X131191Y44069D02*
G01X131191Y45107D01*
G01X117221Y44069D02*
G01X117221Y45107D01*
G54D26*
G01X138838Y73096D02*
G01X138734Y73149D01*
G01X138630Y73253D01*
G01X138579Y73355D01*
G01X138579Y73563D01*
G01X138630Y73667D01*
G01X138734Y73771D01*
G01X138838Y73825D01*
G01X138996Y73875D01*
G01X139255Y73875D01*
G01X139410Y73825D01*
G01X139514Y73771D01*
G01X139618Y73667D01*
G01X139672Y73563D01*
G01X139672Y73355D01*
G01X139618Y73253D01*
G01X139514Y73149D01*
G01X139410Y73096D01*
G01X138579Y72753D02*
G01X139672Y72753D01*
G01X138579Y72753D02*
G01X139672Y72026D01*
G01X138579Y72026D02*
G01X139672Y72026D01*
G01X138788Y71683D02*
G01X138734Y71579D01*
G01X138579Y71424D01*
G01X139672Y71424D01*
G01X956Y121405D02*
G01X852Y121458D01*
G01X748Y121563D01*
G01X697Y121664D01*
G01X697Y121873D01*
G01X748Y121977D01*
G01X852Y122081D01*
G01X956Y122134D01*
G01X1113Y122185D01*
G01X1372Y122185D01*
G01X1527Y122134D01*
G01X1631Y122081D01*
G01X1736Y121977D01*
G01X1789Y121873D01*
G01X1789Y121664D01*
G01X1736Y121563D01*
G01X1631Y121458D01*
G01X1527Y121405D01*
G01X697Y121062D02*
G01X1789Y121062D01*
G01X697Y121062D02*
G01X1789Y120336D01*
G01X697Y120336D02*
G01X1789Y120336D01*
G01X956Y119940D02*
G01X905Y119940D01*
G01X801Y119889D01*
G01X748Y119835D01*
G01X697Y119734D01*
G01X697Y119526D01*
G01X748Y119421D01*
G01X801Y119368D01*
G01X905Y119317D01*
G01X1009Y119317D01*
G01X1113Y119368D01*
G01X1268Y119472D01*
G01X1789Y119993D01*
G01X1789Y119264D01*
G54D30*
G01X123190Y119126D02*
G01X124279Y119126D01*
G01X123190Y119126D02*
G01X123190Y118762D01*
G01X123240Y118605D01*
G01X123344Y118503D01*
G01X123449Y118450D01*
G01X123604Y118399D01*
G01X123863Y118399D01*
G01X124020Y118450D01*
G01X124124Y118503D01*
G01X124228Y118605D01*
G01X124279Y118762D01*
G01X124279Y119126D01*
G01X123395Y118056D02*
G01X123344Y117952D01*
G01X123190Y117795D01*
G01X124279Y117795D01*
G01X115570Y119126D02*
G01X116659Y119126D01*
G01X115570Y119126D02*
G01X115570Y118762D01*
G01X115620Y118605D01*
G01X115724Y118503D01*
G01X115829Y118450D01*
G01X115984Y118399D01*
G01X116243Y118399D01*
G01X116400Y118450D01*
G01X116504Y118503D01*
G01X116608Y118605D01*
G01X116659Y118762D01*
G01X116659Y119126D01*
G01X115570Y117952D02*
G01X115570Y117381D01*
G01X115984Y117690D01*
G01X115984Y117535D01*
G01X116037Y117431D01*
G01X116088Y117381D01*
G01X116243Y117327D01*
G01X116347Y117327D01*
G01X116504Y117381D01*
G01X116608Y117485D01*
G01X116659Y117640D01*
G01X116659Y117795D01*
G01X116608Y117952D01*
G01X116555Y118003D01*
G01X116451Y118056D01*
G01X119253Y119126D02*
G01X120342Y119126D01*
G01X119253Y119126D02*
G01X119253Y118762D01*
G01X119303Y118605D01*
G01X119407Y118503D01*
G01X119512Y118450D01*
G01X119667Y118399D01*
G01X119926Y118399D01*
G01X120083Y118450D01*
G01X120187Y118503D01*
G01X120291Y118605D01*
G01X120342Y118762D01*
G01X120342Y119126D01*
G01X119512Y118003D02*
G01X119458Y118003D01*
G01X119354Y117952D01*
G01X119303Y117899D01*
G01X119253Y117795D01*
G01X119253Y117589D01*
G01X119303Y117485D01*
G01X119354Y117431D01*
G01X119458Y117381D01*
G01X119562Y117381D01*
G01X119667Y117431D01*
G01X119824Y117535D01*
G01X120342Y118056D01*
G01X120342Y117327D01*
G01X111760Y119126D02*
G01X112849Y119126D01*
G01X111760Y119126D02*
G01X111760Y118762D01*
G01X111810Y118605D01*
G01X111914Y118503D01*
G01X112019Y118450D01*
G01X112174Y118399D01*
G01X112433Y118399D01*
G01X112590Y118450D01*
G01X112694Y118503D01*
G01X112798Y118605D01*
G01X112849Y118762D01*
G01X112849Y119126D01*
G01X111760Y117535D02*
G01X112486Y118056D01*
G01X112486Y117276D01*
G01X111760Y117535D02*
G01X112849Y117535D01*
G01X107950Y119125D02*
G01X109039Y119125D01*
G01X107950Y119125D02*
G01X107950Y118762D01*
G01X108000Y118605D01*
G01X108104Y118503D01*
G01X108209Y118450D01*
G01X108364Y118399D01*
G01X108623Y118399D01*
G01X108780Y118450D01*
G01X108884Y118503D01*
G01X108988Y118605D01*
G01X109039Y118762D01*
G01X109039Y119125D01*
G01X107950Y117431D02*
G01X107950Y117952D01*
G01X108417Y118003D01*
G01X108364Y117952D01*
G01X108313Y117795D01*
G01X108313Y117640D01*
G01X108364Y117485D01*
G01X108468Y117380D01*
G01X108623Y117327D01*
G01X108727Y117327D01*
G01X108884Y117380D01*
G01X108988Y117485D01*
G01X109039Y117640D01*
G01X109039Y117795D01*
G01X108988Y117952D01*
G01X108935Y118003D01*
G01X108831Y118056D01*
G01X92583Y119126D02*
G01X93672Y119126D01*
G01X92583Y119126D02*
G01X92583Y118762D01*
G01X92633Y118605D01*
G01X92737Y118503D01*
G01X92842Y118450D01*
G01X92997Y118399D01*
G01X93256Y118399D01*
G01X93413Y118450D01*
G01X93517Y118503D01*
G01X93621Y118605D01*
G01X93672Y118762D01*
G01X93672Y119126D01*
G01X92946Y117381D02*
G01X93101Y117431D01*
G01X93205Y117535D01*
G01X93256Y117690D01*
G01X93256Y117744D01*
G01X93205Y117899D01*
G01X93101Y118003D01*
G01X92946Y118056D01*
G01X92892Y118056D01*
G01X92737Y118003D01*
G01X92633Y117899D01*
G01X92583Y117744D01*
G01X92583Y117690D01*
G01X92633Y117535D01*
G01X92737Y117431D01*
G01X92946Y117381D01*
G01X93205Y117381D01*
G01X93464Y117431D01*
G01X93621Y117535D01*
G01X93672Y117690D01*
G01X93672Y117795D01*
G01X93621Y117952D01*
G01X93517Y118003D01*
G01X96647Y119126D02*
G01X97739Y119126D01*
G01X96647Y119126D02*
G01X96647Y118765D01*
G01X96690Y118607D01*
G01X96796Y118501D01*
G01X96901Y118447D01*
G01X97061Y118404D01*
G01X97315Y118404D01*
G01X97472Y118447D01*
G01X97579Y118501D01*
G01X97685Y118607D01*
G01X97739Y118765D01*
G01X97739Y119126D01*
G01X96647Y117802D02*
G01X96690Y117950D01*
G01X96796Y118003D01*
G01X96901Y118003D01*
G01X97007Y117950D01*
G01X97061Y117856D01*
G01X97114Y117642D01*
G01X97167Y117485D01*
G01X97261Y117378D01*
G01X97368Y117325D01*
G01X97525Y117325D01*
G01X97632Y117378D01*
G01X97685Y117431D01*
G01X97739Y117591D01*
G01X97739Y117802D01*
G01X97685Y117950D01*
G01X97632Y118003D01*
G01X97525Y118056D01*
G01X97368Y118056D01*
G01X97261Y118003D01*
G01X97167Y117896D01*
G01X97114Y117749D01*
G01X97061Y117538D01*
G01X97007Y117431D01*
G01X96901Y117378D01*
G01X96796Y117378D01*
G01X96690Y117431D01*
G01X96647Y117591D01*
G01X96647Y117802D01*
G01X100457Y119126D02*
G01X101546Y119126D01*
G01X100457Y119126D02*
G01X100457Y118760D01*
G01X100507Y118605D01*
G01X100611Y118503D01*
G01X100716Y118450D01*
G01X100871Y118397D01*
G01X101130Y118397D01*
G01X101287Y118450D01*
G01X101391Y118503D01*
G01X101495Y118605D01*
G01X101546Y118760D01*
G01X101546Y119126D01*
G01X100457Y117327D02*
G01X101546Y117848D01*
G01X100457Y118056D02*
G01X100457Y117327D01*
G01X104267Y119126D02*
G01X105356Y119126D01*
G01X104267Y119126D02*
G01X104267Y118760D01*
G01X104315Y118605D01*
G01X104419Y118503D01*
G01X104523Y118450D01*
G01X104681Y118399D01*
G01X104937Y118399D01*
G01X105095Y118450D01*
G01X105201Y118503D01*
G01X105305Y118605D01*
G01X105356Y118760D01*
G01X105356Y119126D01*
G01X104419Y117431D02*
G01X104315Y117485D01*
G01X104267Y117637D01*
G01X104267Y117741D01*
G01X104315Y117899D01*
G01X104470Y118003D01*
G01X104734Y118056D01*
G01X104990Y118056D01*
G01X105201Y118003D01*
G01X105305Y117899D01*
G01X105356Y117741D01*
G01X105356Y117688D01*
G01X105305Y117530D01*
G01X105201Y117431D01*
G01X105041Y117381D01*
G01X104990Y117381D01*
G01X104838Y117431D01*
G01X104734Y117530D01*
G01X104681Y117688D01*
G01X104681Y117741D01*
G01X104734Y117899D01*
G01X104838Y118003D01*
G01X104990Y118056D01*
G54D26*
G01X46481Y118872D02*
G01X47571Y118872D01*
G01X46481Y118872D02*
G01X46481Y118404D01*
G01X46532Y118249D01*
G01X46583Y118196D01*
G01X46687Y118145D01*
G01X46791Y118145D01*
G01X46895Y118196D01*
G01X46949Y118249D01*
G01X47000Y118404D01*
G01X47000Y118872D01*
G01X47000Y118508D02*
G01X47571Y118145D01*
G01X46687Y117802D02*
G01X46636Y117698D01*
G01X46481Y117541D01*
G01X47571Y117541D01*
G01X46481Y117094D02*
G01X46481Y116522D01*
G01X46895Y116834D01*
G01X46895Y116680D01*
G01X46949Y116575D01*
G01X47000Y116522D01*
G01X47155Y116471D01*
G01X47259Y116471D01*
G01X47416Y116522D01*
G01X47520Y116626D01*
G01X47571Y116784D01*
G01X47571Y116939D01*
G01X47520Y117094D01*
G01X47467Y117147D01*
G01X47363Y117198D01*
G01X28574Y118999D02*
G01X29664Y118999D01*
G01X28574Y118999D02*
G01X28574Y118531D01*
G01X28625Y118376D01*
G01X28676Y118323D01*
G01X28780Y118272D01*
G01X28884Y118272D01*
G01X28988Y118323D01*
G01X29042Y118376D01*
G01X29093Y118531D01*
G01X29093Y118999D01*
G01X29093Y118635D02*
G01X29664Y118272D01*
G01X28729Y117304D02*
G01X28625Y117358D01*
G01X28574Y117513D01*
G01X28574Y117617D01*
G01X28625Y117772D01*
G01X28780Y117876D01*
G01X29042Y117929D01*
G01X29301Y117929D01*
G01X29509Y117876D01*
G01X29613Y117772D01*
G01X29664Y117617D01*
G01X29664Y117563D01*
G01X29613Y117408D01*
G01X29509Y117304D01*
G01X29352Y117254D01*
G01X29301Y117254D01*
G01X29146Y117304D01*
G01X29042Y117408D01*
G01X28988Y117563D01*
G01X28988Y117617D01*
G01X29042Y117772D01*
G01X29146Y117876D01*
G01X29301Y117929D01*
G01X16002Y119126D02*
G01X17091Y119126D01*
G01X16002Y119126D02*
G01X16002Y118658D01*
G01X16052Y118503D01*
G01X16103Y118450D01*
G01X16207Y118399D01*
G01X16311Y118399D01*
G01X16416Y118450D01*
G01X16469Y118503D01*
G01X16520Y118658D01*
G01X16520Y119126D01*
G01X16520Y118762D02*
G01X17091Y118399D01*
G01X16207Y118056D02*
G01X16156Y117952D01*
G01X16002Y117795D01*
G01X17091Y117795D01*
G01X18541Y119125D02*
G01X19631Y119125D01*
G01X18541Y119125D02*
G01X18541Y118658D01*
G01X18592Y118503D01*
G01X18643Y118450D01*
G01X18747Y118399D01*
G01X18851Y118399D01*
G01X18955Y118450D01*
G01X19009Y118503D01*
G01X19060Y118658D01*
G01X19060Y119125D01*
G01X19060Y118762D02*
G01X19631Y118399D01*
G01X18801Y118003D02*
G01X18747Y118003D01*
G01X18643Y117952D01*
G01X18592Y117899D01*
G01X18541Y117795D01*
G01X18541Y117589D01*
G01X18592Y117485D01*
G01X18643Y117431D01*
G01X18747Y117380D01*
G01X18851Y117380D01*
G01X18955Y117431D01*
G01X19113Y117535D01*
G01X19631Y118056D01*
G01X19631Y117327D01*
G01X38735Y118999D02*
G01X39824Y118999D01*
G01X38735Y118999D02*
G01X38735Y118531D01*
G01X38785Y118376D01*
G01X38836Y118323D01*
G01X38940Y118272D01*
G01X39044Y118272D01*
G01X39149Y118323D01*
G01X39202Y118376D01*
G01X39253Y118531D01*
G01X39253Y118999D01*
G01X39253Y118635D02*
G01X39824Y118272D01*
G01X38940Y117929D02*
G01X38889Y117825D01*
G01X38735Y117668D01*
G01X39824Y117668D01*
G01X38735Y117015D02*
G01X38785Y117170D01*
G01X38940Y117274D01*
G01X39202Y117325D01*
G01X39357Y117325D01*
G01X39616Y117274D01*
G01X39773Y117170D01*
G01X39824Y117015D01*
G01X39824Y116911D01*
G01X39773Y116753D01*
G01X39616Y116649D01*
G01X39357Y116598D01*
G01X39202Y116598D01*
G01X38940Y116649D01*
G01X38785Y116753D01*
G01X38735Y116911D01*
G01X38735Y117015D01*
G01X43942Y118872D02*
G01X45031Y118872D01*
G01X43942Y118872D02*
G01X43942Y118404D01*
G01X43992Y118249D01*
G01X44043Y118196D01*
G01X44147Y118145D01*
G01X44251Y118145D01*
G01X44356Y118196D01*
G01X44409Y118249D01*
G01X44460Y118404D01*
G01X44460Y118872D01*
G01X44460Y118508D02*
G01X45031Y118145D01*
G01X44147Y117802D02*
G01X44096Y117698D01*
G01X43942Y117541D01*
G01X45031Y117541D01*
G01X44201Y117147D02*
G01X44147Y117147D01*
G01X44043Y117094D01*
G01X43992Y117043D01*
G01X43942Y116939D01*
G01X43942Y116730D01*
G01X43992Y116626D01*
G01X44043Y116575D01*
G01X44147Y116522D01*
G01X44251Y116522D01*
G01X44356Y116575D01*
G01X44513Y116680D01*
G01X45031Y117198D01*
G01X45031Y116471D01*
G01X41442Y118884D02*
G01X42532Y118884D01*
G01X41442Y118884D02*
G01X41442Y118417D01*
G01X41493Y118262D01*
G01X41544Y118209D01*
G01X41648Y118158D01*
G01X41752Y118158D01*
G01X41856Y118209D01*
G01X41909Y118262D01*
G01X41960Y118417D01*
G01X41960Y118884D01*
G01X41960Y118521D02*
G01X42532Y118158D01*
G01X41648Y117815D02*
G01X41597Y117711D01*
G01X41442Y117553D01*
G01X42532Y117553D01*
G01X41648Y117210D02*
G01X41597Y117106D01*
G01X41442Y116951D01*
G01X42532Y116951D01*
G01X48994Y118833D02*
G01X50083Y118833D01*
G01X48994Y118833D02*
G01X48994Y118366D01*
G01X49044Y118211D01*
G01X49095Y118158D01*
G01X49199Y118107D01*
G01X49303Y118107D01*
G01X49408Y118158D01*
G01X49461Y118211D01*
G01X49512Y118366D01*
G01X49512Y118833D01*
G01X49512Y118470D02*
G01X50083Y118107D01*
G01X49199Y117764D02*
G01X49149Y117660D01*
G01X48994Y117502D01*
G01X50083Y117502D01*
G01X48994Y116641D02*
G01X49720Y117160D01*
G01X49720Y116382D01*
G01X48994Y116641D02*
G01X50083Y116641D01*
G01X33782Y118998D02*
G01X34871Y118998D01*
G01X33782Y118998D02*
G01X33782Y118531D01*
G01X33832Y118376D01*
G01X33883Y118323D01*
G01X33987Y118272D01*
G01X34091Y118272D01*
G01X34196Y118323D01*
G01X34249Y118376D01*
G01X34300Y118531D01*
G01X34300Y118998D01*
G01X34300Y118635D02*
G01X34871Y118272D01*
G01X33782Y117668D02*
G01X33832Y117825D01*
G01X33936Y117876D01*
G01X34041Y117876D01*
G01X34145Y117825D01*
G01X34196Y117721D01*
G01X34249Y117513D01*
G01X34300Y117358D01*
G01X34404Y117253D01*
G01X34508Y117200D01*
G01X34663Y117200D01*
G01X34767Y117253D01*
G01X34820Y117304D01*
G01X34871Y117462D01*
G01X34871Y117668D01*
G01X34820Y117825D01*
G01X34767Y117876D01*
G01X34663Y117929D01*
G01X34508Y117929D01*
G01X34404Y117876D01*
G01X34300Y117772D01*
G01X34249Y117617D01*
G01X34196Y117408D01*
G01X34145Y117304D01*
G01X34041Y117253D01*
G01X33936Y117253D01*
G01X33832Y117304D01*
G01X33782Y117462D01*
G01X33782Y117668D01*
G01X36322Y118871D02*
G01X37411Y118871D01*
G01X36322Y118871D02*
G01X36322Y118404D01*
G01X36372Y118249D01*
G01X36423Y118196D01*
G01X36527Y118145D01*
G01X36631Y118145D01*
G01X36736Y118196D01*
G01X36789Y118249D01*
G01X36840Y118404D01*
G01X36840Y118871D01*
G01X36840Y118508D02*
G01X37411Y118145D01*
G01X36685Y117126D02*
G01X36840Y117177D01*
G01X36944Y117281D01*
G01X36995Y117436D01*
G01X36995Y117490D01*
G01X36944Y117645D01*
G01X36840Y117749D01*
G01X36685Y117802D01*
G01X36631Y117802D01*
G01X36476Y117749D01*
G01X36372Y117645D01*
G01X36322Y117490D01*
G01X36322Y117436D01*
G01X36372Y117281D01*
G01X36476Y117177D01*
G01X36685Y117126D01*
G01X36944Y117126D01*
G01X37203Y117177D01*
G01X37360Y117281D01*
G01X37411Y117436D01*
G01X37411Y117541D01*
G01X37360Y117698D01*
G01X37256Y117749D01*
G01X26261Y118978D02*
G01X27350Y118978D01*
G01X26261Y118978D02*
G01X26261Y118511D01*
G01X26311Y118356D01*
G01X26362Y118303D01*
G01X26466Y118252D01*
G01X26570Y118252D01*
G01X26675Y118303D01*
G01X26728Y118356D01*
G01X26779Y118511D01*
G01X26779Y118978D01*
G01X26779Y118615D02*
G01X27350Y118252D01*
G01X26261Y117284D02*
G01X26261Y117805D01*
G01X26728Y117856D01*
G01X26675Y117805D01*
G01X26624Y117647D01*
G01X26624Y117492D01*
G01X26675Y117337D01*
G01X26779Y117233D01*
G01X26934Y117180D01*
G01X27038Y117180D01*
G01X27195Y117233D01*
G01X27299Y117337D01*
G01X27350Y117492D01*
G01X27350Y117647D01*
G01X27299Y117805D01*
G01X27246Y117856D01*
G01X27142Y117909D01*
G01X31214Y118978D02*
G01X32303Y118978D01*
G01X31214Y118978D02*
G01X31214Y118511D01*
G01X31264Y118356D01*
G01X31315Y118303D01*
G01X31419Y118252D01*
G01X31523Y118252D01*
G01X31628Y118303D01*
G01X31681Y118356D01*
G01X31732Y118511D01*
G01X31732Y118978D01*
G01X31732Y118615D02*
G01X32303Y118252D01*
G01X31214Y117180D02*
G01X32303Y117701D01*
G01X31214Y117909D02*
G01X31214Y117180D01*
G01X23594Y119054D02*
G01X24683Y119054D01*
G01X23594Y119054D02*
G01X23594Y118587D01*
G01X23644Y118432D01*
G01X23695Y118379D01*
G01X23799Y118328D01*
G01X23903Y118328D01*
G01X24008Y118379D01*
G01X24061Y118432D01*
G01X24112Y118587D01*
G01X24112Y119054D01*
G01X24112Y118691D02*
G01X24683Y118328D01*
G01X23594Y117464D02*
G01X24320Y117985D01*
G01X24320Y117205D01*
G01X23594Y117464D02*
G01X24683Y117464D01*
G01X51561Y118872D02*
G01X52654Y118872D01*
G01X51561Y118872D02*
G01X51561Y118404D01*
G01X51615Y118249D01*
G01X51666Y118196D01*
G01X51770Y118145D01*
G01X51874Y118145D01*
G01X51978Y118196D01*
G01X52029Y118249D01*
G01X52082Y118404D01*
G01X52082Y118872D01*
G01X52082Y118508D02*
G01X52654Y118145D01*
G01X51561Y117698D02*
G01X51561Y117127D01*
G01X51978Y117436D01*
G01X51978Y117281D01*
G01X52029Y117177D01*
G01X52082Y117127D01*
G01X52237Y117073D01*
G01X52341Y117073D01*
G01X52496Y117127D01*
G01X52600Y117231D01*
G01X52654Y117386D01*
G01X52654Y117541D01*
G01X52600Y117698D01*
G01X52550Y117749D01*
G01X52445Y117802D01*
G01X51561Y116626D02*
G01X51561Y116055D01*
G01X51978Y116367D01*
G01X51978Y116212D01*
G01X52029Y116108D01*
G01X52082Y116055D01*
G01X52237Y116004D01*
G01X52341Y116004D01*
G01X52496Y116055D01*
G01X52600Y116159D01*
G01X52654Y116316D01*
G01X52654Y116471D01*
G01X52600Y116626D01*
G01X52550Y116680D01*
G01X52445Y116730D01*
G01X53974Y118872D02*
G01X55067Y118872D01*
G01X53974Y118872D02*
G01X53974Y118404D01*
G01X54028Y118249D01*
G01X54079Y118196D01*
G01X54183Y118145D01*
G01X54287Y118145D01*
G01X54391Y118196D01*
G01X54442Y118249D01*
G01X54495Y118404D01*
G01X54495Y118872D01*
G01X54495Y118508D02*
G01X55067Y118145D01*
G01X53974Y117698D02*
G01X53974Y117127D01*
G01X54391Y117436D01*
G01X54391Y117281D01*
G01X54442Y117177D01*
G01X54495Y117127D01*
G01X54650Y117073D01*
G01X54754Y117073D01*
G01X54909Y117127D01*
G01X55013Y117231D01*
G01X55067Y117386D01*
G01X55067Y117541D01*
G01X55013Y117698D01*
G01X54963Y117749D01*
G01X54858Y117802D01*
G01X53974Y116212D02*
G01X54701Y116730D01*
G01X54701Y115951D01*
G01X53974Y116212D02*
G01X55067Y116212D01*
G01X56768Y118872D02*
G01X57861Y118872D01*
G01X56768Y118872D02*
G01X56768Y118404D01*
G01X56822Y118249D01*
G01X56873Y118196D01*
G01X56977Y118145D01*
G01X57081Y118145D01*
G01X57185Y118196D01*
G01X57236Y118249D01*
G01X57289Y118404D01*
G01X57289Y118872D01*
G01X57289Y118508D02*
G01X57861Y118145D01*
G01X56768Y117698D02*
G01X56768Y117127D01*
G01X57185Y117436D01*
G01X57185Y117281D01*
G01X57236Y117177D01*
G01X57289Y117127D01*
G01X57444Y117073D01*
G01X57548Y117073D01*
G01X57703Y117127D01*
G01X57807Y117231D01*
G01X57861Y117386D01*
G01X57861Y117541D01*
G01X57807Y117698D01*
G01X57757Y117749D01*
G01X57652Y117802D01*
G01X56768Y116108D02*
G01X56768Y116626D01*
G01X57236Y116679D01*
G01X57185Y116626D01*
G01X57132Y116471D01*
G01X57132Y116316D01*
G01X57185Y116159D01*
G01X57289Y116055D01*
G01X57444Y116004D01*
G01X57548Y116004D01*
G01X57703Y116055D01*
G01X57807Y116159D01*
G01X57861Y116316D01*
G01X57861Y116471D01*
G01X57807Y116626D01*
G01X57757Y116679D01*
G01X57652Y116730D01*
G01X59182Y118745D02*
G01X60274Y118745D01*
G01X59182Y118745D02*
G01X59182Y118277D01*
G01X59235Y118122D01*
G01X59286Y118069D01*
G01X59390Y118018D01*
G01X59494Y118018D01*
G01X59598Y118069D01*
G01X59649Y118122D01*
G01X59702Y118277D01*
G01X59702Y118745D01*
G01X59702Y118381D02*
G01X60274Y118018D01*
G01X59182Y117571D02*
G01X59182Y117000D01*
G01X59598Y117309D01*
G01X59598Y117154D01*
G01X59649Y117050D01*
G01X59702Y117000D01*
G01X59857Y116946D01*
G01X59961Y116946D01*
G01X60116Y117000D01*
G01X60220Y117104D01*
G01X60274Y117259D01*
G01X60274Y117414D01*
G01X60220Y117571D01*
G01X60170Y117622D01*
G01X60065Y117675D01*
G01X59336Y115981D02*
G01X59235Y116032D01*
G01X59182Y116189D01*
G01X59182Y116293D01*
G01X59235Y116448D01*
G01X59390Y116552D01*
G01X59649Y116603D01*
G01X59908Y116603D01*
G01X60116Y116552D01*
G01X60220Y116448D01*
G01X60274Y116293D01*
G01X60274Y116240D01*
G01X60220Y116085D01*
G01X60116Y115981D01*
G01X59961Y115928D01*
G01X59908Y115928D01*
G01X59753Y115981D01*
G01X59649Y116085D01*
G01X59598Y116240D01*
G01X59598Y116293D01*
G01X59649Y116448D01*
G01X59753Y116552D01*
G01X59908Y116603D01*
G01X61722Y118745D02*
G01X62814Y118745D01*
G01X61722Y118745D02*
G01X61722Y118277D01*
G01X61775Y118122D01*
G01X61826Y118069D01*
G01X61930Y118018D01*
G01X62034Y118018D01*
G01X62138Y118069D01*
G01X62189Y118122D01*
G01X62242Y118277D01*
G01X62242Y118745D01*
G01X62242Y118381D02*
G01X62814Y118018D01*
G01X61722Y117571D02*
G01X61722Y117000D01*
G01X62138Y117309D01*
G01X62138Y117154D01*
G01X62189Y117050D01*
G01X62242Y117000D01*
G01X62397Y116946D01*
G01X62501Y116946D01*
G01X62656Y117000D01*
G01X62760Y117104D01*
G01X62814Y117259D01*
G01X62814Y117414D01*
G01X62760Y117571D01*
G01X62710Y117622D01*
G01X62605Y117675D01*
G01X61722Y115877D02*
G01X62814Y116395D01*
G01X61722Y116603D02*
G01X61722Y115877D01*
G01X64135Y118745D02*
G01X65227Y118745D01*
G01X64135Y118745D02*
G01X64135Y118277D01*
G01X64188Y118122D01*
G01X64239Y118069D01*
G01X64343Y118018D01*
G01X64447Y118018D01*
G01X64551Y118069D01*
G01X64602Y118122D01*
G01X64655Y118277D01*
G01X64655Y118745D01*
G01X64655Y118381D02*
G01X65227Y118018D01*
G01X64135Y117571D02*
G01X64135Y117000D01*
G01X64551Y117309D01*
G01X64551Y117154D01*
G01X64602Y117050D01*
G01X64655Y117000D01*
G01X64810Y116946D01*
G01X64914Y116946D01*
G01X65069Y117000D01*
G01X65173Y117104D01*
G01X65227Y117259D01*
G01X65227Y117414D01*
G01X65173Y117571D01*
G01X65123Y117622D01*
G01X65018Y117675D01*
G01X64135Y116344D02*
G01X64188Y116499D01*
G01X64289Y116552D01*
G01X64394Y116552D01*
G01X64498Y116499D01*
G01X64551Y116395D01*
G01X64602Y116189D01*
G01X64655Y116032D01*
G01X64759Y115928D01*
G01X64861Y115877D01*
G01X65018Y115877D01*
G01X65123Y115928D01*
G01X65173Y115981D01*
G01X65227Y116136D01*
G01X65227Y116344D01*
G01X65173Y116499D01*
G01X65123Y116552D01*
G01X65018Y116603D01*
G01X64861Y116603D01*
G01X64759Y116552D01*
G01X64655Y116448D01*
G01X64602Y116293D01*
G01X64551Y116085D01*
G01X64498Y115981D01*
G01X64394Y115928D01*
G01X64289Y115928D01*
G01X64188Y115981D01*
G01X64135Y116136D01*
G01X64135Y116344D01*
G01X66801Y118745D02*
G01X67894Y118745D01*
G01X66801Y118745D02*
G01X66801Y118277D01*
G01X66855Y118122D01*
G01X66906Y118069D01*
G01X67010Y118018D01*
G01X67114Y118018D01*
G01X67218Y118069D01*
G01X67269Y118122D01*
G01X67322Y118277D01*
G01X67322Y118745D01*
G01X67322Y118381D02*
G01X67894Y118018D01*
G01X66801Y117571D02*
G01X66801Y117000D01*
G01X67218Y117309D01*
G01X67218Y117154D01*
G01X67269Y117050D01*
G01X67322Y117000D01*
G01X67477Y116946D01*
G01X67581Y116946D01*
G01X67736Y117000D01*
G01X67840Y117104D01*
G01X67894Y117259D01*
G01X67894Y117414D01*
G01X67840Y117571D01*
G01X67790Y117622D01*
G01X67685Y117675D01*
G01X67165Y115928D02*
G01X67322Y115981D01*
G01X67426Y116085D01*
G01X67477Y116240D01*
G01X67477Y116293D01*
G01X67426Y116448D01*
G01X67322Y116552D01*
G01X67165Y116603D01*
G01X67114Y116603D01*
G01X66956Y116552D01*
G01X66855Y116448D01*
G01X66801Y116293D01*
G01X66801Y116240D01*
G01X66855Y116085D01*
G01X66956Y115981D01*
G01X67165Y115928D01*
G01X67426Y115928D01*
G01X67685Y115981D01*
G01X67840Y116085D01*
G01X67894Y116240D01*
G01X67894Y116344D01*
G01X67840Y116499D01*
G01X67736Y116552D01*
G01X69215Y118745D02*
G01X70307Y118745D01*
G01X69215Y118745D02*
G01X69215Y118277D01*
G01X69268Y118122D01*
G01X69319Y118069D01*
G01X69423Y118018D01*
G01X69527Y118018D01*
G01X69631Y118069D01*
G01X69682Y118122D01*
G01X69735Y118277D01*
G01X69735Y118745D01*
G01X69735Y118381D02*
G01X70307Y118018D01*
G01X69215Y117154D02*
G01X69941Y117675D01*
G01X69941Y116895D01*
G01X69215Y117154D02*
G01X70307Y117154D01*
G01X69215Y116240D02*
G01X69268Y116395D01*
G01X69423Y116499D01*
G01X69682Y116552D01*
G01X69839Y116552D01*
G01X70098Y116499D01*
G01X70253Y116395D01*
G01X70307Y116240D01*
G01X70307Y116136D01*
G01X70253Y115981D01*
G01X70098Y115877D01*
G01X69839Y115824D01*
G01X69682Y115824D01*
G01X69423Y115877D01*
G01X69268Y115981D01*
G01X69215Y116136D01*
G01X69215Y116240D01*
G01X71755Y118745D02*
G01X72847Y118745D01*
G01X71755Y118745D02*
G01X71755Y118277D01*
G01X71808Y118122D01*
G01X71859Y118069D01*
G01X71963Y118018D01*
G01X72067Y118018D01*
G01X72171Y118069D01*
G01X72222Y118122D01*
G01X72275Y118277D01*
G01X72275Y118745D01*
G01X72275Y118381D02*
G01X72847Y118018D01*
G01X71755Y117154D02*
G01X72481Y117675D01*
G01X72481Y116895D01*
G01X71755Y117154D02*
G01X72847Y117154D01*
G01X71963Y116552D02*
G01X71909Y116448D01*
G01X71755Y116293D01*
G01X72847Y116293D01*
G01X140738Y117360D02*
G01X139649Y117360D01*
G01X140738Y117360D02*
G01X140738Y117828D01*
G01X140688Y117983D01*
G01X140637Y118036D01*
G01X140533Y118087D01*
G01X140428Y118087D01*
G01X140324Y118036D01*
G01X140271Y117983D01*
G01X140220Y117828D01*
G01X140220Y117360D01*
G01X140220Y117723D02*
G01X139649Y118087D01*
G01X140533Y118430D02*
G01X140583Y118534D01*
G01X140738Y118691D01*
G01X139649Y118691D01*
G01X140738Y119293D02*
G01X140688Y119138D01*
G01X140583Y119085D01*
G01X140479Y119085D01*
G01X140375Y119138D01*
G01X140324Y119240D01*
G01X140271Y119448D01*
G01X140220Y119606D01*
G01X140116Y119710D01*
G01X140012Y119761D01*
G01X139857Y119761D01*
G01X139753Y119710D01*
G01X139700Y119656D01*
G01X139649Y119501D01*
G01X139649Y119293D01*
G01X139700Y119138D01*
G01X139753Y119085D01*
G01X139857Y119034D01*
G01X140012Y119034D01*
G01X140116Y119085D01*
G01X140220Y119189D01*
G01X140271Y119344D01*
G01X140324Y119552D01*
G01X140375Y119656D01*
G01X140479Y119710D01*
G01X140583Y119710D01*
G01X140688Y119656D01*
G01X140738Y119501D01*
G01X140738Y119293D01*
G01X143256Y119380D02*
G01X144345Y119380D01*
G01X143256Y119380D02*
G01X143256Y118912D01*
G01X143306Y118757D01*
G01X143357Y118704D01*
G01X143461Y118653D01*
G01X143565Y118653D01*
G01X143670Y118704D01*
G01X143723Y118757D01*
G01X143774Y118912D01*
G01X143774Y119380D01*
G01X143774Y119016D02*
G01X144345Y118653D01*
G01X143461Y118310D02*
G01X143410Y118206D01*
G01X143256Y118049D01*
G01X144345Y118049D01*
G01X143256Y116979D02*
G01X144345Y117500D01*
G01X143256Y117706D02*
G01X143256Y116979D01*
G01X129222Y87122D02*
G01X129222Y86032D01*
G01X129222Y87122D02*
G01X128755Y87122D01*
G01X128600Y87071D01*
G01X128546Y87020D01*
G01X128496Y86916D01*
G01X128496Y86812D01*
G01X128546Y86707D01*
G01X128600Y86654D01*
G01X128755Y86603D01*
G01X129222Y86603D01*
G01X128859Y86603D02*
G01X128496Y86032D01*
G01X128153Y86916D02*
G01X128048Y86967D01*
G01X127891Y87122D01*
G01X127891Y86032D01*
G01X126872Y86758D02*
G01X126926Y86603D01*
G01X127030Y86499D01*
G01X127185Y86448D01*
G01X127238Y86448D01*
G01X127393Y86499D01*
G01X127497Y86603D01*
G01X127548Y86758D01*
G01X127548Y86812D01*
G01X127497Y86967D01*
G01X127393Y87071D01*
G01X127238Y87122D01*
G01X127185Y87122D01*
G01X127030Y87071D01*
G01X126926Y86967D01*
G01X126872Y86758D01*
G01X126872Y86499D01*
G01X126926Y86240D01*
G01X127030Y86083D01*
G01X127185Y86032D01*
G01X127289Y86032D01*
G01X127444Y86083D01*
G01X127497Y86187D01*
G01X113157Y91871D02*
G01X113157Y90782D01*
G01X113157Y91871D02*
G01X112689Y91871D01*
G01X112534Y91820D01*
G01X112481Y91770D01*
G01X112430Y91666D01*
G01X112430Y91561D01*
G01X112481Y91457D01*
G01X112534Y91404D01*
G01X112689Y91353D01*
G01X113157Y91353D01*
G01X112793Y91353D02*
G01X112430Y90782D01*
G01X112034Y91612D02*
G01X112034Y91666D01*
G01X111983Y91770D01*
G01X111930Y91820D01*
G01X111826Y91871D01*
G01X111620Y91871D01*
G01X111516Y91820D01*
G01X111462Y91770D01*
G01X111412Y91666D01*
G01X111412Y91561D01*
G01X111462Y91457D01*
G01X111566Y91300D01*
G01X112087Y90782D01*
G01X111358Y90782D01*
G01X110705Y91871D02*
G01X110860Y91820D01*
G01X110964Y91666D01*
G01X111015Y91404D01*
G01X111015Y91249D01*
G01X110964Y90990D01*
G01X110860Y90832D01*
G01X110705Y90782D01*
G01X110601Y90782D01*
G01X110444Y90832D01*
G01X110340Y90990D01*
G01X110289Y91249D01*
G01X110289Y91404D01*
G01X110340Y91666D01*
G01X110444Y91820D01*
G01X110601Y91871D01*
G01X110705Y91871D01*
G01X14605Y62354D02*
G01X14605Y61264D01*
G01X14605Y62354D02*
G01X14137Y62354D01*
G01X13982Y62303D01*
G01X13929Y62252D01*
G01X13878Y62148D01*
G01X13878Y62044D01*
G01X13929Y61940D01*
G01X13982Y61887D01*
G01X14137Y61836D01*
G01X14605Y61836D01*
G01X14241Y61836D02*
G01X13878Y61264D01*
G01X13482Y62095D02*
G01X13482Y62148D01*
G01X13431Y62252D01*
G01X13378Y62303D01*
G01X13274Y62354D01*
G01X13068Y62354D01*
G01X12964Y62303D01*
G01X12910Y62252D01*
G01X12860Y62148D01*
G01X12860Y62044D01*
G01X12910Y61940D01*
G01X13014Y61782D01*
G01X13535Y61264D01*
G01X12806Y61264D01*
G01X12359Y62354D02*
G01X11788Y62354D01*
G01X12100Y61940D01*
G01X11945Y61940D01*
G01X11841Y61887D01*
G01X11788Y61836D01*
G01X11737Y61681D01*
G01X11737Y61577D01*
G01X11788Y61419D01*
G01X11892Y61315D01*
G01X12049Y61264D01*
G01X12204Y61264D01*
G01X12359Y61315D01*
G01X12412Y61368D01*
G01X12463Y61473D01*
G01X9268Y44196D02*
G01X10358Y44196D01*
G01X9268Y44196D02*
G01X9268Y43728D01*
G01X9319Y43573D01*
G01X9370Y43520D01*
G01X9474Y43469D01*
G01X9578Y43469D01*
G01X9682Y43520D01*
G01X9735Y43573D01*
G01X9786Y43728D01*
G01X9786Y44196D01*
G01X9786Y43832D02*
G01X10358Y43469D01*
G01X9527Y43073D02*
G01X9474Y43073D01*
G01X9370Y43022D01*
G01X9319Y42969D01*
G01X9268Y42865D01*
G01X9268Y42659D01*
G01X9319Y42555D01*
G01X9370Y42501D01*
G01X9474Y42451D01*
G01X9578Y42451D01*
G01X9682Y42501D01*
G01X9839Y42605D01*
G01X10358Y43126D01*
G01X10358Y42397D01*
G01X9474Y42054D02*
G01X9423Y41950D01*
G01X9268Y41795D01*
G01X10358Y41795D01*
G01X13027Y39497D02*
G01X14117Y39497D01*
G01X13027Y39497D02*
G01X13027Y39029D01*
G01X13078Y38874D01*
G01X13129Y38821D01*
G01X13233Y38770D01*
G01X13337Y38770D01*
G01X13441Y38821D01*
G01X13495Y38874D01*
G01X13545Y39029D01*
G01X13545Y39497D01*
G01X13545Y39133D02*
G01X14117Y38770D01*
G01X13286Y38374D02*
G01X13233Y38374D01*
G01X13129Y38323D01*
G01X13078Y38270D01*
G01X13027Y38166D01*
G01X13027Y37960D01*
G01X13078Y37856D01*
G01X13129Y37802D01*
G01X13233Y37752D01*
G01X13337Y37752D01*
G01X13441Y37802D01*
G01X13599Y37906D01*
G01X14117Y38427D01*
G01X14117Y37698D01*
G01X13182Y36733D02*
G01X13078Y36784D01*
G01X13027Y36941D01*
G01X13027Y37045D01*
G01X13078Y37200D01*
G01X13233Y37304D01*
G01X13495Y37355D01*
G01X13754Y37355D01*
G01X13962Y37304D01*
G01X14066Y37200D01*
G01X14117Y37045D01*
G01X14117Y36992D01*
G01X14066Y36837D01*
G01X13962Y36733D01*
G01X13804Y36680D01*
G01X13754Y36680D01*
G01X13599Y36733D01*
G01X13495Y36837D01*
G01X13441Y36992D01*
G01X13441Y37045D01*
G01X13495Y37200D01*
G01X13599Y37304D01*
G01X13754Y37355D01*
G01X5968Y29337D02*
G01X7058Y29337D01*
G01X5968Y29337D02*
G01X5968Y28869D01*
G01X6019Y28714D01*
G01X6070Y28661D01*
G01X6174Y28610D01*
G01X6278Y28610D01*
G01X6382Y28661D01*
G01X6436Y28714D01*
G01X6487Y28869D01*
G01X6487Y29337D01*
G01X6487Y28973D02*
G01X7058Y28610D01*
G01X6228Y28214D02*
G01X6174Y28214D01*
G01X6070Y28163D01*
G01X6019Y28110D01*
G01X5968Y28006D01*
G01X5968Y27800D01*
G01X6019Y27696D01*
G01X6070Y27642D01*
G01X6174Y27592D01*
G01X6278Y27592D01*
G01X6382Y27642D01*
G01X6540Y27746D01*
G01X7058Y28267D01*
G01X7058Y27538D01*
G01X5968Y26677D02*
G01X6695Y27195D01*
G01X6695Y26416D01*
G01X5968Y26677D02*
G01X7058Y26677D01*
G01X139318Y44323D02*
G01X140408Y44323D01*
G01X139318Y44323D02*
G01X139318Y43855D01*
G01X139369Y43700D01*
G01X139420Y43647D01*
G01X139524Y43596D01*
G01X139628Y43596D01*
G01X139732Y43647D01*
G01X139786Y43700D01*
G01X139837Y43855D01*
G01X139837Y44323D01*
G01X139837Y43959D02*
G01X140408Y43596D01*
G01X139578Y43200D02*
G01X139524Y43200D01*
G01X139420Y43149D01*
G01X139369Y43096D01*
G01X139318Y42992D01*
G01X139318Y42786D01*
G01X139369Y42682D01*
G01X139420Y42628D01*
G01X139524Y42578D01*
G01X139628Y42578D01*
G01X139732Y42628D01*
G01X139890Y42732D01*
G01X140408Y43253D01*
G01X140408Y42524D01*
G01X139682Y41506D02*
G01X139837Y41559D01*
G01X139941Y41663D01*
G01X139992Y41818D01*
G01X139992Y41871D01*
G01X139941Y42026D01*
G01X139837Y42130D01*
G01X139682Y42181D01*
G01X139628Y42181D01*
G01X139473Y42130D01*
G01X139369Y42026D01*
G01X139318Y41871D01*
G01X139318Y41818D01*
G01X139369Y41663D01*
G01X139473Y41559D01*
G01X139682Y41506D01*
G01X139941Y41506D01*
G01X140200Y41559D01*
G01X140357Y41663D01*
G01X140408Y41818D01*
G01X140408Y41922D01*
G01X140357Y42077D01*
G01X140253Y42130D01*
G01X144271Y30607D02*
G01X145361Y30607D01*
G01X144271Y30607D02*
G01X144271Y30139D01*
G01X144322Y29984D01*
G01X144373Y29931D01*
G01X144477Y29880D01*
G01X144581Y29880D01*
G01X144685Y29931D01*
G01X144739Y29984D01*
G01X144790Y30139D01*
G01X144790Y30607D01*
G01X144790Y30243D02*
G01X145361Y29880D01*
G01X144531Y29484D02*
G01X144477Y29484D01*
G01X144373Y29433D01*
G01X144322Y29380D01*
G01X144271Y29276D01*
G01X144271Y29070D01*
G01X144322Y28966D01*
G01X144373Y28912D01*
G01X144477Y28862D01*
G01X144581Y28862D01*
G01X144685Y28912D01*
G01X144843Y29016D01*
G01X145361Y29537D01*
G01X145361Y28808D01*
G01X144271Y27739D02*
G01X145361Y28257D01*
G01X144271Y28465D02*
G01X144271Y27739D01*
G01X144272Y41021D02*
G01X145361Y41021D01*
G01X144272Y41021D02*
G01X144272Y40553D01*
G01X144322Y40398D01*
G01X144373Y40345D01*
G01X144477Y40294D01*
G01X144581Y40294D01*
G01X144686Y40345D01*
G01X144739Y40398D01*
G01X144790Y40553D01*
G01X144790Y41021D01*
G01X144790Y40657D02*
G01X145361Y40294D01*
G01X144531Y39898D02*
G01X144477Y39898D01*
G01X144373Y39847D01*
G01X144322Y39794D01*
G01X144272Y39690D01*
G01X144272Y39484D01*
G01X144322Y39380D01*
G01X144373Y39326D01*
G01X144477Y39276D01*
G01X144581Y39276D01*
G01X144686Y39326D01*
G01X144843Y39430D01*
G01X145361Y39951D01*
G01X145361Y39222D01*
G01X144272Y38620D02*
G01X144322Y38775D01*
G01X144426Y38828D01*
G01X144531Y38828D01*
G01X144635Y38775D01*
G01X144686Y38671D01*
G01X144739Y38465D01*
G01X144790Y38308D01*
G01X144894Y38204D01*
G01X144998Y38153D01*
G01X145153Y38153D01*
G01X145257Y38204D01*
G01X145310Y38257D01*
G01X145361Y38412D01*
G01X145361Y38620D01*
G01X145310Y38775D01*
G01X145257Y38828D01*
G01X145153Y38879D01*
G01X144998Y38879D01*
G01X144894Y38828D01*
G01X144790Y38724D01*
G01X144739Y38569D01*
G01X144686Y38361D01*
G01X144635Y38257D01*
G01X144531Y38204D01*
G01X144426Y38204D01*
G01X144322Y38257D01*
G01X144272Y38412D01*
G01X144272Y38620D01*
G01X130431Y61976D02*
G01X131521Y61976D01*
G01X130431Y61976D02*
G01X130431Y61508D01*
G01X130482Y61353D01*
G01X130533Y61300D01*
G01X130637Y61249D01*
G01X130741Y61249D01*
G01X130845Y61300D01*
G01X130898Y61353D01*
G01X130949Y61508D01*
G01X130949Y61976D01*
G01X130949Y61612D02*
G01X131521Y61249D01*
G01X130431Y60802D02*
G01X130431Y60231D01*
G01X130845Y60540D01*
G01X130845Y60385D01*
G01X130898Y60281D01*
G01X130949Y60231D01*
G01X131104Y60177D01*
G01X131208Y60177D01*
G01X131366Y60231D01*
G01X131470Y60335D01*
G01X131521Y60490D01*
G01X131521Y60645D01*
G01X131470Y60802D01*
G01X131417Y60853D01*
G01X131312Y60906D01*
G01X130690Y59783D02*
G01X130637Y59783D01*
G01X130533Y59730D01*
G01X130482Y59679D01*
G01X130431Y59575D01*
G01X130431Y59367D01*
G01X130482Y59263D01*
G01X130533Y59212D01*
G01X130637Y59159D01*
G01X130741Y59159D01*
G01X130845Y59212D01*
G01X131003Y59316D01*
G01X131521Y59834D01*
G01X131521Y59108D01*
G01X5661Y86232D02*
G01X5661Y85143D01*
G01X5661Y86232D02*
G01X5194Y86232D01*
G01X5039Y86182D01*
G01X4986Y86131D01*
G01X4935Y86027D01*
G01X4935Y85923D01*
G01X4986Y85818D01*
G01X5039Y85765D01*
G01X5194Y85714D01*
G01X5661Y85714D01*
G01X5298Y85714D02*
G01X4935Y85143D01*
G01X4488Y86232D02*
G01X3916Y86232D01*
G01X4226Y85818D01*
G01X4071Y85818D01*
G01X3967Y85765D01*
G01X3916Y85714D01*
G01X3863Y85559D01*
G01X3863Y85455D01*
G01X3916Y85298D01*
G01X4020Y85194D01*
G01X4175Y85143D01*
G01X4330Y85143D01*
G01X4488Y85194D01*
G01X4538Y85247D01*
G01X4592Y85351D01*
G01X3210Y86232D02*
G01X3365Y86182D01*
G01X3469Y86027D01*
G01X3520Y85765D01*
G01X3520Y85610D01*
G01X3469Y85351D01*
G01X3365Y85194D01*
G01X3210Y85143D01*
G01X3106Y85143D01*
G01X2948Y85194D01*
G01X2844Y85351D01*
G01X2794Y85610D01*
G01X2794Y85765D01*
G01X2844Y86027D01*
G01X2948Y86182D01*
G01X3106Y86232D01*
G01X3210Y86232D01*
G01X138859Y60198D02*
G01X139948Y60198D01*
G01X138859Y60198D02*
G01X138859Y59730D01*
G01X138910Y59575D01*
G01X138960Y59522D01*
G01X139065Y59471D01*
G01X139169Y59471D01*
G01X139273Y59522D01*
G01X139326Y59575D01*
G01X139377Y59730D01*
G01X139377Y60198D01*
G01X139377Y59834D02*
G01X139948Y59471D01*
G01X138859Y59024D02*
G01X138859Y58453D01*
G01X139273Y58762D01*
G01X139273Y58607D01*
G01X139326Y58503D01*
G01X139377Y58453D01*
G01X139532Y58399D01*
G01X139636Y58399D01*
G01X139793Y58453D01*
G01X139898Y58557D01*
G01X139948Y58712D01*
G01X139948Y58867D01*
G01X139898Y59024D01*
G01X139844Y59075D01*
G01X139740Y59128D01*
G01X139065Y58056D02*
G01X139014Y57952D01*
G01X138859Y57797D01*
G01X139948Y57797D01*
G01X5207Y75059D02*
G01X5207Y73969D01*
G01X5207Y75059D02*
G01X4739Y75059D01*
G01X4584Y75008D01*
G01X4531Y74957D01*
G01X4480Y74853D01*
G01X4480Y74749D01*
G01X4531Y74645D01*
G01X4584Y74592D01*
G01X4739Y74541D01*
G01X5207Y74541D01*
G01X4843Y74541D02*
G01X4480Y73969D01*
G01X4137Y74853D02*
G01X4033Y74904D01*
G01X3876Y75059D01*
G01X3876Y73969D01*
G01X2910Y75059D02*
G01X3429Y75059D01*
G01X3482Y74592D01*
G01X3429Y74645D01*
G01X3274Y74696D01*
G01X3119Y74696D01*
G01X2961Y74645D01*
G01X2857Y74541D01*
G01X2806Y74386D01*
G01X2806Y74282D01*
G01X2857Y74124D01*
G01X2961Y74020D01*
G01X3119Y73969D01*
G01X3274Y73969D01*
G01X3429Y74020D01*
G01X3482Y74074D01*
G01X3533Y74178D01*
G01X3047Y36321D02*
G01X4137Y36321D01*
G01X3047Y36321D02*
G01X3047Y35854D01*
G01X3098Y35699D01*
G01X3149Y35646D01*
G01X3253Y35595D01*
G01X3357Y35595D01*
G01X3461Y35646D01*
G01X3515Y35699D01*
G01X3566Y35854D01*
G01X3566Y36321D01*
G01X3566Y35958D02*
G01X4137Y35595D01*
G01X3307Y35199D02*
G01X3253Y35199D01*
G01X3149Y35148D01*
G01X3098Y35095D01*
G01X3047Y34991D01*
G01X3047Y34785D01*
G01X3098Y34681D01*
G01X3149Y34627D01*
G01X3253Y34576D01*
G01X3357Y34576D01*
G01X3461Y34627D01*
G01X3619Y34731D01*
G01X4137Y35252D01*
G01X4137Y34523D01*
G01X3047Y33558D02*
G01X3047Y34076D01*
G01X3515Y34129D01*
G01X3461Y34076D01*
G01X3411Y33921D01*
G01X3411Y33766D01*
G01X3461Y33609D01*
G01X3566Y33505D01*
G01X3721Y33454D01*
G01X3825Y33454D01*
G01X3982Y33505D01*
G01X4086Y33609D01*
G01X4137Y33766D01*
G01X4137Y33921D01*
G01X4086Y34076D01*
G01X4033Y34129D01*
G01X3929Y34180D01*
G01X762Y53086D02*
G01X1851Y53086D01*
G01X762Y53086D02*
G01X762Y52618D01*
G01X812Y52463D01*
G01X863Y52410D01*
G01X967Y52359D01*
G01X1071Y52359D01*
G01X1176Y52410D01*
G01X1229Y52463D01*
G01X1280Y52618D01*
G01X1280Y53086D01*
G01X1280Y52722D02*
G01X1851Y52359D01*
G01X1021Y51963D02*
G01X967Y51963D01*
G01X863Y51912D01*
G01X812Y51859D01*
G01X762Y51755D01*
G01X762Y51549D01*
G01X812Y51445D01*
G01X863Y51391D01*
G01X967Y51341D01*
G01X1071Y51341D01*
G01X1176Y51391D01*
G01X1333Y51495D01*
G01X1851Y52016D01*
G01X1851Y51287D01*
G01X1021Y50893D02*
G01X967Y50893D01*
G01X863Y50840D01*
G01X812Y50789D01*
G01X762Y50685D01*
G01X762Y50477D01*
G01X812Y50373D01*
G01X863Y50322D01*
G01X967Y50269D01*
G01X1071Y50269D01*
G01X1176Y50322D01*
G01X1333Y50426D01*
G01X1851Y50944D01*
G01X1851Y50218D01*
G01X144371Y51689D02*
G01X145460Y51689D01*
G01X144371Y51689D02*
G01X144371Y51221D01*
G01X144421Y51066D01*
G01X144472Y51013D01*
G01X144576Y50962D01*
G01X144680Y50962D01*
G01X144785Y51013D01*
G01X144838Y51066D01*
G01X144889Y51221D01*
G01X144889Y51689D01*
G01X144889Y51325D02*
G01X145460Y50962D01*
G01X144371Y50098D02*
G01X145097Y50619D01*
G01X145097Y49839D01*
G01X144371Y50098D02*
G01X145460Y50098D01*
G01X144630Y49443D02*
G01X144576Y49443D01*
G01X144472Y49392D01*
G01X144421Y49339D01*
G01X144371Y49237D01*
G01X144371Y49029D01*
G01X144421Y48925D01*
G01X144472Y48872D01*
G01X144576Y48821D01*
G01X144680Y48821D01*
G01X144785Y48872D01*
G01X144942Y48976D01*
G01X145460Y49496D01*
G01X145460Y48768D01*
G01X21209Y119126D02*
G01X22298Y119126D01*
G01X21209Y119126D02*
G01X21209Y118658D01*
G01X21259Y118503D01*
G01X21310Y118450D01*
G01X21414Y118399D01*
G01X21518Y118399D01*
G01X21623Y118450D01*
G01X21676Y118503D01*
G01X21727Y118658D01*
G01X21727Y119126D01*
G01X21727Y118762D02*
G01X22298Y118399D01*
G01X21209Y117952D02*
G01X21209Y117381D01*
G01X21623Y117690D01*
G01X21623Y117535D01*
G01X21676Y117431D01*
G01X21727Y117381D01*
G01X21882Y117327D01*
G01X21986Y117327D01*
G01X22143Y117381D01*
G01X22247Y117485D01*
G01X22298Y117640D01*
G01X22298Y117795D01*
G01X22247Y117952D01*
G01X22194Y118003D01*
G01X22090Y118056D01*
G01X995Y80205D02*
G01X1049Y80309D01*
G01X1150Y80413D01*
G01X1254Y80467D01*
G01X1412Y80518D01*
G01X1671Y80518D01*
G01X1826Y80467D01*
G01X1930Y80413D01*
G01X2034Y80309D01*
G01X2087Y80205D01*
G01X2087Y79997D01*
G01X2034Y79895D01*
G01X1930Y79791D01*
G01X1826Y79738D01*
G01X1671Y79687D01*
G01X1412Y79687D01*
G01X1254Y79738D01*
G01X1150Y79791D01*
G01X1049Y79895D01*
G01X995Y79997D01*
G01X995Y80205D01*
G01X1879Y80050D02*
G01X2192Y79738D01*
G01X1150Y78719D02*
G01X1049Y78773D01*
G01X995Y78927D01*
G01X995Y79032D01*
G01X1049Y79187D01*
G01X1203Y79291D01*
G01X1463Y79344D01*
G01X1722Y79344D01*
G01X1930Y79291D01*
G01X2034Y79187D01*
G01X2087Y79032D01*
G01X2087Y78981D01*
G01X2034Y78823D01*
G01X1930Y78719D01*
G01X1775Y78668D01*
G01X1722Y78668D01*
G01X1567Y78719D01*
G01X1463Y78823D01*
G01X1412Y78981D01*
G01X1412Y79032D01*
G01X1463Y79187D01*
G01X1567Y79291D01*
G01X1722Y79344D01*
G01X131551Y26738D02*
G01X131605Y26842D01*
G01X131706Y26946D01*
G01X131810Y27000D01*
G01X131968Y27051D01*
G01X132227Y27051D01*
G01X132382Y27000D01*
G01X132486Y26946D01*
G01X132590Y26842D01*
G01X132643Y26738D01*
G01X132643Y26530D01*
G01X132590Y26428D01*
G01X132486Y26324D01*
G01X132382Y26271D01*
G01X132227Y26220D01*
G01X131968Y26220D01*
G01X131810Y26271D01*
G01X131706Y26324D01*
G01X131605Y26428D01*
G01X131551Y26530D01*
G01X131551Y26738D01*
G01X132435Y26583D02*
G01X132748Y26271D01*
G01X131551Y25356D02*
G01X132278Y25877D01*
G01X132278Y25097D01*
G01X131551Y25356D02*
G01X132643Y25356D01*
G01X143197Y65298D02*
G01X143301Y65244D01*
G01X143405Y65143D01*
G01X143459Y65039D01*
G01X143510Y64881D01*
G01X143510Y64622D01*
G01X143459Y64467D01*
G01X143405Y64363D01*
G01X143301Y64259D01*
G01X143197Y64206D01*
G01X142989Y64206D01*
G01X142887Y64259D01*
G01X142783Y64363D01*
G01X142730Y64467D01*
G01X142679Y64622D01*
G01X142679Y64881D01*
G01X142730Y65039D01*
G01X142783Y65143D01*
G01X142887Y65244D01*
G01X142989Y65298D01*
G01X143197Y65298D01*
G01X143042Y64414D02*
G01X142730Y64101D01*
G01X141711Y65298D02*
G01X142232Y65298D01*
G01X142283Y64830D01*
G01X142232Y64881D01*
G01X142074Y64935D01*
G01X141919Y64935D01*
G01X141765Y64881D01*
G01X141660Y64777D01*
G01X141607Y64622D01*
G01X141607Y64518D01*
G01X141660Y64363D01*
G01X141765Y64259D01*
G01X141919Y64206D01*
G01X142074Y64206D01*
G01X142232Y64259D01*
G01X142283Y64310D01*
G01X142336Y64414D01*
G01X2098Y43814D02*
G01X2202Y43761D01*
G01X2306Y43660D01*
G01X2359Y43555D01*
G01X2410Y43398D01*
G01X2410Y43139D01*
G01X2359Y42984D01*
G01X2306Y42880D01*
G01X2202Y42776D01*
G01X2098Y42722D01*
G01X1889Y42722D01*
G01X1788Y42776D01*
G01X1684Y42880D01*
G01X1630Y42984D01*
G01X1579Y43139D01*
G01X1579Y43398D01*
G01X1630Y43555D01*
G01X1684Y43660D01*
G01X1788Y43761D01*
G01X1889Y43814D01*
G01X2098Y43814D01*
G01X1943Y42931D02*
G01X1630Y42618D01*
G01X1132Y43814D02*
G01X561Y43814D01*
G01X873Y43398D01*
G01X716Y43398D01*
G01X612Y43347D01*
G01X561Y43294D01*
G01X508Y43139D01*
G01X508Y43035D01*
G01X561Y42880D01*
G01X665Y42776D01*
G01X820Y42722D01*
G01X975Y42722D01*
G01X1132Y42776D01*
G01X1183Y42826D01*
G01X1236Y42931D01*
G01X868Y59123D02*
G01X922Y59227D01*
G01X1023Y59331D01*
G01X1127Y59385D01*
G01X1285Y59436D01*
G01X1544Y59436D01*
G01X1699Y59385D01*
G01X1803Y59331D01*
G01X1907Y59227D01*
G01X1960Y59123D01*
G01X1960Y58915D01*
G01X1907Y58813D01*
G01X1803Y58709D01*
G01X1699Y58656D01*
G01X1544Y58605D01*
G01X1285Y58605D01*
G01X1127Y58656D01*
G01X1023Y58709D01*
G01X922Y58813D01*
G01X868Y58915D01*
G01X868Y59123D01*
G01X1752Y58968D02*
G01X2065Y58656D01*
G01X1127Y58209D02*
G01X1076Y58209D01*
G01X972Y58158D01*
G01X922Y58105D01*
G01X868Y58000D01*
G01X868Y57795D01*
G01X922Y57691D01*
G01X972Y57637D01*
G01X1076Y57586D01*
G01X1181Y57586D01*
G01X1285Y57637D01*
G01X1440Y57741D01*
G01X1960Y58262D01*
G01X1960Y57533D01*
G01X111498Y115768D02*
G01X111602Y115714D01*
G01X111706Y115613D01*
G01X111760Y115509D01*
G01X111810Y115351D01*
G01X111810Y115092D01*
G01X111760Y114937D01*
G01X111706Y114833D01*
G01X111602Y114729D01*
G01X111498Y114675D01*
G01X111290Y114675D01*
G01X111188Y114729D01*
G01X111084Y114833D01*
G01X111031Y114937D01*
G01X110980Y115092D01*
G01X110980Y115351D01*
G01X111031Y115509D01*
G01X111084Y115613D01*
G01X111188Y115714D01*
G01X111290Y115768D01*
G01X111498Y115768D01*
G01X111343Y114884D02*
G01X111031Y114571D01*
G01X110637Y115559D02*
G01X110533Y115613D01*
G01X110375Y115768D01*
G01X110375Y114675D01*
G01X72957Y144795D02*
G01X72957Y144018D01*
G01X72907Y143861D01*
G01X72803Y143757D01*
G01X72645Y143706D01*
G01X72541Y143706D01*
G01X72386Y143757D01*
G01X72282Y143861D01*
G01X72231Y144018D01*
G01X72231Y144795D01*
G01X71835Y144536D02*
G01X71835Y144590D01*
G01X71784Y144694D01*
G01X71731Y144745D01*
G01X71626Y144795D01*
G01X71421Y144795D01*
G01X71317Y144745D01*
G01X71263Y144694D01*
G01X71212Y144590D01*
G01X71212Y144486D01*
G01X71263Y144381D01*
G01X71367Y144224D01*
G01X71888Y143706D01*
G01X71159Y143706D01*
G01X82144Y206782D02*
G01X82144Y206002D01*
G01X82094Y205848D01*
G01X81990Y205743D01*
G01X81832Y205690D01*
G01X81728Y205690D01*
G01X81573Y205743D01*
G01X81469Y205848D01*
G01X81418Y206002D01*
G01X81418Y206782D01*
G01X80971Y206782D02*
G01X80400Y206782D01*
G01X80709Y206366D01*
G01X80554Y206366D01*
G01X80450Y206315D01*
G01X80400Y206262D01*
G01X80346Y206107D01*
G01X80346Y206002D01*
G01X80400Y205848D01*
G01X80504Y205743D01*
G01X80659Y205690D01*
G01X80814Y205690D01*
G01X80971Y205743D01*
G01X81022Y205794D01*
G01X81075Y205898D01*
G54D10*
G75*
G01X135567Y62611D02*
G02X135821Y62611I127J238D01*
G01*
G75*
G01X72311Y27178D02*
G03X75311Y30178I0J3000D01*
G01*
G75*
G01X75311Y54178D02*
G03X72311Y57178I-3000J0D01*
G01*
G75*
G01X13312Y57178D02*
G03X10312Y54178I0J-3000D01*
G01*
G75*
G01X10312Y30178D02*
G03X13312Y27178I3000J0D01*
G01*
G54D28*
G75*
G01X7917Y78910D02*
G02X7775Y78677I-2074J1103D01*
G01*
G75*
G01X3909Y78677D02*
G02X3713Y79017I1932J1336D01*
G01*
G54D29*
G75*
G01X9693Y79886D02*
G02X9695Y79886I1J124D01*
G01*
G54D28*
G75*
G01X3713Y81003D02*
G02X7917Y81110I2129J-995D01*
G01*
G75*
G01X138473Y25443D02*
G02X138331Y25210I-2074J1103D01*
G01*
G75*
G01X134465Y25210D02*
G02X134269Y25550I1932J1336D01*
G01*
G54D29*
G75*
G01X140249Y26419D02*
G02X140251Y26419I1J124D01*
G01*
G54D28*
G75*
G01X134269Y27536D02*
G02X138473Y27643I2129J-995D01*
G01*
G75*
G01X141902Y58377D02*
G02X141669Y58519I1103J2074D01*
G01*
G75*
G01X141669Y62385D02*
G02X142009Y62581I1336J-1932D01*
G01*
G54D29*
G75*
G01X142878Y56601D02*
G02X142878Y56599I124J-1D01*
G01*
G54D28*
G75*
G01X143995Y62581D02*
G02X144102Y58377I-995J-2129D01*
G01*
G75*
G01X2964Y39962D02*
G02X2731Y40104I1103J2074D01*
G01*
G75*
G01X2731Y43970D02*
G02X3071Y44166I1336J-1932D01*
G01*
G54D29*
G75*
G01X3940Y38186D02*
G02X3940Y38184I124J-1D01*
G01*
G54D28*
G75*
G01X5057Y44166D02*
G02X5164Y39962I-995J-2129D01*
G01*
G75*
G01X7790Y57828D02*
G02X7648Y57595I-2074J1103D01*
G01*
G75*
G01X3782Y57595D02*
G02X3586Y57935I1932J1336D01*
G01*
G54D29*
G75*
G01X9566Y58804D02*
G02X9568Y58804I1J124D01*
G01*
G54D28*
G75*
G01X3586Y59921D02*
G02X7790Y60028I2129J-995D01*
G01*
G75*
G01X110203Y108847D02*
G02X109969Y108989I1103J2074D01*
G01*
G75*
G01X109969Y112855D02*
G02X110310Y113050I1337J-1932D01*
G01*
G54D29*
G75*
G01X111178Y107071D02*
G02X111178Y107069I125J-1D01*
G01*
G54D28*
G75*
G01X112296Y113050D02*
G02X112403Y108847I-995J-2128D01*
G01*
M00*
M02*
