G04 Layer: TopSilkLayer*
G04 EasyEDA v6.2.41, 2019-09-02T03:45:47+08:00*
G04 cccedabf26fb4476aab39dafb03c201f,018b6882be54474e8367c410bdd36671,10*
G04 Gerber Generator version 0.2*
G04 Scale: 100 percent, Rotated: No, Reflected: No *
G04 Dimensions in millimeters *
G04 leading zeros omitted , absolute positions ,3 integer and 3 decimal *
%FSLAX33Y33*%
%MOMM*%
G90*
G71D02*

%ADD10C,0.254000*%
%ADD25C,0.203200*%
%ADD26C,0.152400*%

%LPD*%
G54D10*
G01X0Y206121D02*
G01X9398Y206121D01*
G01X9398Y194691D01*
G01X0Y194691D01*
G01X146050Y206121D02*
G01X136652Y206121D01*
G01X136652Y194691D01*
G01X146050Y194691D01*
G01X146050Y106045D02*
G01X136652Y106045D01*
G01X136652Y95885D01*
G01X146050Y95885D01*
G01X0Y106045D02*
G01X9144Y106045D01*
G01X9144Y95885D01*
G01X0Y95885D01*
G01X0Y16891D02*
G01X11176Y16891D01*
G01X11176Y127D01*
G01X146050Y16891D02*
G01X134620Y16891D01*
G01X134620Y127D01*
G01X10219Y193634D02*
G01X5901Y193634D01*
G01X5901Y187538D02*
G01X10219Y187538D01*
G01X11108Y191576D02*
G01X11108Y189570D01*
G01X5012Y191602D02*
G01X5012Y189570D01*
G01X8060Y189316D02*
G01X8060Y191602D01*
G01X8060Y191602D01*
G01X8060Y191348D01*
G01X8060Y191602D02*
G01X7552Y191094D01*
G01X8060Y191602D02*
G01X8568Y191094D01*
G01X10219Y183735D02*
G01X5901Y183735D01*
G01X5901Y177639D02*
G01X10219Y177639D01*
G01X11108Y181678D02*
G01X11108Y179671D01*
G01X5012Y181703D02*
G01X5012Y179671D01*
G01X8060Y179417D02*
G01X8060Y181703D01*
G01X8060Y181703D01*
G01X8060Y181449D01*
G01X8060Y181703D02*
G01X7552Y181195D01*
G01X8060Y181703D02*
G01X8568Y181195D01*
G01X10219Y173644D02*
G01X5901Y173644D01*
G01X5901Y167548D02*
G01X10219Y167548D01*
G01X11108Y171587D02*
G01X11108Y169580D01*
G01X5012Y171612D02*
G01X5012Y169580D01*
G01X8060Y169326D02*
G01X8060Y171612D01*
G01X8060Y171612D01*
G01X8060Y171358D01*
G01X8060Y171612D02*
G01X7552Y171104D01*
G01X8060Y171612D02*
G01X8568Y171104D01*
G01X10219Y163654D02*
G01X5901Y163654D01*
G01X5901Y157558D02*
G01X10219Y157558D01*
G01X11108Y161597D02*
G01X11108Y159590D01*
G01X5012Y161622D02*
G01X5012Y159590D01*
G01X8060Y159336D02*
G01X8060Y161622D01*
G01X8060Y161622D01*
G01X8060Y161368D01*
G01X8060Y161622D02*
G01X7552Y161114D01*
G01X8060Y161622D02*
G01X8568Y161114D01*
G01X10219Y153654D02*
G01X5901Y153654D01*
G01X5901Y147558D02*
G01X10219Y147558D01*
G01X11108Y151597D02*
G01X11108Y149590D01*
G01X5012Y151622D02*
G01X5012Y149590D01*
G01X8060Y149336D02*
G01X8060Y151622D01*
G01X8060Y151622D01*
G01X8060Y151368D01*
G01X8060Y151622D02*
G01X7552Y151114D01*
G01X8060Y151622D02*
G01X8568Y151114D01*
G01X10219Y143654D02*
G01X5901Y143654D01*
G01X5901Y137558D02*
G01X10219Y137558D01*
G01X11108Y141597D02*
G01X11108Y139590D01*
G01X5012Y141622D02*
G01X5012Y139590D01*
G01X8060Y139336D02*
G01X8060Y141622D01*
G01X8060Y141622D01*
G01X8060Y141368D01*
G01X8060Y141622D02*
G01X7552Y141114D01*
G01X8060Y141622D02*
G01X8568Y141114D01*
G01X140167Y193634D02*
G01X135849Y193634D01*
G01X135849Y187538D02*
G01X140167Y187538D01*
G01X141056Y191576D02*
G01X141056Y189570D01*
G01X134960Y191602D02*
G01X134960Y189570D01*
G01X138008Y189316D02*
G01X138008Y191602D01*
G01X138008Y191602D01*
G01X138008Y191348D01*
G01X138008Y191602D02*
G01X137500Y191094D01*
G01X138008Y191602D02*
G01X138516Y191094D01*
G01X140167Y183735D02*
G01X135849Y183735D01*
G01X135849Y177639D02*
G01X140167Y177639D01*
G01X141056Y181678D02*
G01X141056Y179671D01*
G01X134960Y181703D02*
G01X134960Y179671D01*
G01X138008Y179417D02*
G01X138008Y181703D01*
G01X138008Y181703D01*
G01X138008Y181449D01*
G01X138008Y181703D02*
G01X137500Y181195D01*
G01X138008Y181703D02*
G01X138516Y181195D01*
G01X140167Y173644D02*
G01X135849Y173644D01*
G01X135849Y167548D02*
G01X140167Y167548D01*
G01X141056Y171587D02*
G01X141056Y169580D01*
G01X134960Y171612D02*
G01X134960Y169580D01*
G01X138008Y169326D02*
G01X138008Y171612D01*
G01X138008Y171612D01*
G01X138008Y171358D01*
G01X138008Y171612D02*
G01X137500Y171104D01*
G01X138008Y171612D02*
G01X138516Y171104D01*
G01X140167Y163644D02*
G01X135849Y163644D01*
G01X135849Y157548D02*
G01X140167Y157548D01*
G01X141056Y161587D02*
G01X141056Y159580D01*
G01X134960Y161612D02*
G01X134960Y159580D01*
G01X138008Y159326D02*
G01X138008Y161612D01*
G01X138008Y161612D01*
G01X138008Y161358D01*
G01X138008Y161612D02*
G01X137500Y161104D01*
G01X138008Y161612D02*
G01X138516Y161104D01*
G01X140167Y153654D02*
G01X135849Y153654D01*
G01X135849Y147558D02*
G01X140167Y147558D01*
G01X141056Y151597D02*
G01X141056Y149590D01*
G01X134960Y151622D02*
G01X134960Y149590D01*
G01X138008Y149336D02*
G01X138008Y151622D01*
G01X138008Y151622D01*
G01X138008Y151368D01*
G01X138008Y151622D02*
G01X137500Y151114D01*
G01X138008Y151622D02*
G01X138516Y151114D01*
G01X140167Y143654D02*
G01X135849Y143654D01*
G01X135849Y137558D02*
G01X140167Y137558D01*
G01X141056Y141597D02*
G01X141056Y139590D01*
G01X134960Y141622D02*
G01X134960Y139590D01*
G01X138008Y139336D02*
G01X138008Y141622D01*
G01X138008Y141622D01*
G01X138008Y141368D01*
G01X138008Y141622D02*
G01X137500Y141114D01*
G01X138008Y141622D02*
G01X138516Y141114D01*
G01X26408Y113634D02*
G01X22090Y113634D01*
G01X22090Y107538D02*
G01X26408Y107538D01*
G01X27297Y111577D02*
G01X27297Y109570D01*
G01X21201Y111602D02*
G01X21201Y109570D01*
G01X24249Y109316D02*
G01X24249Y111602D01*
G01X24249Y111602D01*
G01X24249Y111348D01*
G01X24249Y111602D02*
G01X23741Y111094D01*
G01X24249Y111602D02*
G01X24757Y111094D01*
G01X45918Y113634D02*
G01X41600Y113634D01*
G01X41600Y107538D02*
G01X45918Y107538D01*
G01X46807Y111577D02*
G01X46807Y109570D01*
G01X40711Y111602D02*
G01X40711Y109570D01*
G01X43759Y109316D02*
G01X43759Y111602D01*
G01X43759Y111602D01*
G01X43759Y111348D01*
G01X43759Y111602D02*
G01X43251Y111094D01*
G01X43759Y111602D02*
G01X44267Y111094D01*
G01X65417Y113634D02*
G01X61099Y113634D01*
G01X61099Y107538D02*
G01X65417Y107538D01*
G01X66306Y111577D02*
G01X66306Y109570D01*
G01X60210Y111602D02*
G01X60210Y109570D01*
G01X63258Y109316D02*
G01X63258Y111602D01*
G01X63258Y111602D01*
G01X63258Y111348D01*
G01X63258Y111602D02*
G01X62750Y111094D01*
G01X63258Y111602D02*
G01X63766Y111094D01*
G01X84919Y113634D02*
G01X80601Y113634D01*
G01X80601Y107538D02*
G01X84919Y107538D01*
G01X85808Y111577D02*
G01X85808Y109570D01*
G01X79712Y111602D02*
G01X79712Y109570D01*
G01X82760Y109316D02*
G01X82760Y111602D01*
G01X82760Y111602D01*
G01X82760Y111348D01*
G01X82760Y111602D02*
G01X82252Y111094D01*
G01X82760Y111602D02*
G01X83268Y111094D01*
G01X104419Y113634D02*
G01X100101Y113634D01*
G01X100101Y107538D02*
G01X104419Y107538D01*
G01X105308Y111577D02*
G01X105308Y109570D01*
G01X99212Y111602D02*
G01X99212Y109570D01*
G01X102260Y109316D02*
G01X102260Y111602D01*
G01X102260Y111602D01*
G01X102260Y111348D01*
G01X102260Y111602D02*
G01X101752Y111094D01*
G01X102260Y111602D02*
G01X102768Y111094D01*
G01X26408Y99684D02*
G01X22090Y99684D01*
G01X22090Y93588D02*
G01X26408Y93588D01*
G01X27297Y97627D02*
G01X27297Y95620D01*
G01X21201Y97652D02*
G01X21201Y95620D01*
G01X24249Y95366D02*
G01X24249Y97652D01*
G01X24249Y97652D01*
G01X24249Y97398D01*
G01X24249Y97652D02*
G01X23741Y97144D01*
G01X24249Y97652D02*
G01X24757Y97144D01*
G01X45918Y99684D02*
G01X41600Y99684D01*
G01X41600Y93588D02*
G01X45918Y93588D01*
G01X46807Y97627D02*
G01X46807Y95620D01*
G01X40711Y97652D02*
G01X40711Y95620D01*
G01X43759Y95366D02*
G01X43759Y97652D01*
G01X43759Y97652D01*
G01X43759Y97398D01*
G01X43759Y97652D02*
G01X43251Y97144D01*
G01X43759Y97652D02*
G01X44267Y97144D01*
G01X65417Y99684D02*
G01X61099Y99684D01*
G01X61099Y93588D02*
G01X65417Y93588D01*
G01X66306Y97627D02*
G01X66306Y95620D01*
G01X60210Y97652D02*
G01X60210Y95620D01*
G01X63258Y95366D02*
G01X63258Y97652D01*
G01X63258Y97652D01*
G01X63258Y97398D01*
G01X63258Y97652D02*
G01X62750Y97144D01*
G01X63258Y97652D02*
G01X63766Y97144D01*
G01X84919Y99684D02*
G01X80601Y99684D01*
G01X80601Y93588D02*
G01X84919Y93588D01*
G01X85808Y97627D02*
G01X85808Y95620D01*
G01X79712Y97652D02*
G01X79712Y95620D01*
G01X82760Y95366D02*
G01X82760Y97652D01*
G01X82760Y97652D01*
G01X82760Y97398D01*
G01X82760Y97652D02*
G01X82252Y97144D01*
G01X82760Y97652D02*
G01X83268Y97144D01*
G01X104419Y99684D02*
G01X100101Y99684D01*
G01X100101Y93588D02*
G01X104419Y93588D01*
G01X105308Y97627D02*
G01X105308Y95620D01*
G01X99212Y97652D02*
G01X99212Y95620D01*
G01X102260Y95366D02*
G01X102260Y97652D01*
G01X102260Y97652D01*
G01X102260Y97398D01*
G01X102260Y97652D02*
G01X101752Y97144D01*
G01X102260Y97652D02*
G01X102768Y97144D01*
G01X123825Y101219D02*
G01X119507Y101219D01*
G01X119507Y95123D02*
G01X123825Y95123D01*
G01X124714Y99161D02*
G01X124714Y97155D01*
G01X118618Y99187D02*
G01X118618Y97155D01*
G01X121666Y96901D02*
G01X121666Y99187D01*
G01X121666Y99187D01*
G01X121666Y98933D01*
G01X121666Y99187D02*
G01X121158Y98679D01*
G01X121666Y99187D02*
G01X122174Y98679D01*
G01X26408Y85636D02*
G01X22090Y85636D01*
G01X22090Y79540D02*
G01X26408Y79540D01*
G01X27297Y83578D02*
G01X27297Y81572D01*
G01X21201Y83604D02*
G01X21201Y81572D01*
G01X24249Y81318D02*
G01X24249Y83604D01*
G01X24249Y83604D01*
G01X24249Y83350D01*
G01X24249Y83604D02*
G01X23741Y83096D01*
G01X24249Y83604D02*
G01X24757Y83096D01*
G01X45918Y85636D02*
G01X41600Y85636D01*
G01X41600Y79540D02*
G01X45918Y79540D01*
G01X46807Y83578D02*
G01X46807Y81572D01*
G01X40711Y83604D02*
G01X40711Y81572D01*
G01X43759Y81318D02*
G01X43759Y83604D01*
G01X43759Y83604D01*
G01X43759Y83350D01*
G01X43759Y83604D02*
G01X43251Y83096D01*
G01X43759Y83604D02*
G01X44267Y83096D01*
G01X26408Y72136D02*
G01X22090Y72136D01*
G01X22090Y66040D02*
G01X26408Y66040D01*
G01X27297Y70078D02*
G01X27297Y68072D01*
G01X21201Y70104D02*
G01X21201Y68072D01*
G01X24249Y67818D02*
G01X24249Y70104D01*
G01X24249Y70104D01*
G01X24249Y69850D01*
G01X24249Y70104D02*
G01X23741Y69596D01*
G01X24249Y70104D02*
G01X24757Y69596D01*
G01X45918Y72136D02*
G01X41600Y72136D01*
G01X41600Y66040D02*
G01X45918Y66040D01*
G01X46807Y70078D02*
G01X46807Y68072D01*
G01X40711Y70104D02*
G01X40711Y68072D01*
G01X43759Y67818D02*
G01X43759Y70104D01*
G01X43759Y70104D01*
G01X43759Y69850D01*
G01X43759Y70104D02*
G01X43251Y69596D01*
G01X43759Y70104D02*
G01X44267Y69596D01*
G01X65971Y82537D02*
G01X61653Y82537D01*
G01X61653Y76441D02*
G01X65971Y76441D01*
G01X66860Y80479D02*
G01X66860Y78473D01*
G01X60764Y80505D02*
G01X60764Y78473D01*
G01X63812Y78219D02*
G01X63812Y80505D01*
G01X63812Y80505D01*
G01X63812Y80251D01*
G01X63812Y80505D02*
G01X63304Y79997D01*
G01X63812Y80505D02*
G01X64320Y79997D01*
G01X80868Y82534D02*
G01X76550Y82534D01*
G01X76550Y76438D02*
G01X80868Y76438D01*
G01X81757Y80477D02*
G01X81757Y78470D01*
G01X75661Y80502D02*
G01X75661Y78470D01*
G01X78709Y78216D02*
G01X78709Y80502D01*
G01X78709Y80502D01*
G01X78709Y80248D01*
G01X78709Y80502D02*
G01X78201Y79994D01*
G01X78709Y80502D02*
G01X79217Y79994D01*
G01X95869Y82534D02*
G01X91551Y82534D01*
G01X91551Y76438D02*
G01X95869Y76438D01*
G01X96758Y80477D02*
G01X96758Y78470D01*
G01X90662Y80502D02*
G01X90662Y78470D01*
G01X93710Y78216D02*
G01X93710Y80502D01*
G01X93710Y80502D01*
G01X93710Y80248D01*
G01X93710Y80502D02*
G01X93202Y79994D01*
G01X93710Y80502D02*
G01X94218Y79994D01*
G01X110967Y82534D02*
G01X106649Y82534D01*
G01X106649Y76438D02*
G01X110967Y76438D01*
G01X111856Y80477D02*
G01X111856Y78470D01*
G01X105760Y80502D02*
G01X105760Y78470D01*
G01X108808Y78216D02*
G01X108808Y80502D01*
G01X108808Y80502D01*
G01X108808Y80248D01*
G01X108808Y80502D02*
G01X108300Y79994D01*
G01X108808Y80502D02*
G01X109316Y79994D01*
G01X125869Y82534D02*
G01X121551Y82534D01*
G01X121551Y76438D02*
G01X125869Y76438D01*
G01X126758Y80477D02*
G01X126758Y78470D01*
G01X120662Y80502D02*
G01X120662Y78470D01*
G01X123710Y78216D02*
G01X123710Y80502D01*
G01X123710Y80502D01*
G01X123710Y80248D01*
G01X123710Y80502D02*
G01X123202Y79994D01*
G01X123710Y80502D02*
G01X124218Y79994D01*
G01X65968Y68635D02*
G01X61650Y68635D01*
G01X61650Y62539D02*
G01X65968Y62539D01*
G01X66857Y66578D02*
G01X66857Y64571D01*
G01X60761Y66603D02*
G01X60761Y64571D01*
G01X63809Y64317D02*
G01X63809Y66603D01*
G01X63809Y66603D01*
G01X63809Y66349D01*
G01X63809Y66603D02*
G01X63301Y66095D01*
G01X63809Y66603D02*
G01X64317Y66095D01*
G01X80868Y68635D02*
G01X76550Y68635D01*
G01X76550Y62539D02*
G01X80868Y62539D01*
G01X81757Y66578D02*
G01X81757Y64571D01*
G01X75661Y66603D02*
G01X75661Y64571D01*
G01X78709Y64317D02*
G01X78709Y66603D01*
G01X78709Y66603D01*
G01X78709Y66349D01*
G01X78709Y66603D02*
G01X78201Y66095D01*
G01X78709Y66603D02*
G01X79217Y66095D01*
G01X95869Y68635D02*
G01X91551Y68635D01*
G01X91551Y62539D02*
G01X95869Y62539D01*
G01X96758Y66578D02*
G01X96758Y64571D01*
G01X90662Y66603D02*
G01X90662Y64571D01*
G01X93710Y64317D02*
G01X93710Y66603D01*
G01X93710Y66603D01*
G01X93710Y66349D01*
G01X93710Y66603D02*
G01X93202Y66095D01*
G01X93710Y66603D02*
G01X94218Y66095D01*
G01X110967Y68635D02*
G01X106649Y68635D01*
G01X106649Y62539D02*
G01X110967Y62539D01*
G01X111856Y66578D02*
G01X111856Y64571D01*
G01X105760Y66603D02*
G01X105760Y64571D01*
G01X108808Y64317D02*
G01X108808Y66603D01*
G01X108808Y66603D01*
G01X108808Y66349D01*
G01X108808Y66603D02*
G01X108300Y66095D01*
G01X108808Y66603D02*
G01X109316Y66095D01*
G01X125869Y68635D02*
G01X121551Y68635D01*
G01X121551Y62539D02*
G01X125869Y62539D01*
G01X126758Y66578D02*
G01X126758Y64571D01*
G01X120662Y66603D02*
G01X120662Y64571D01*
G01X123710Y64317D02*
G01X123710Y66603D01*
G01X123710Y66603D01*
G01X123710Y66349D01*
G01X123710Y66603D02*
G01X123202Y66095D01*
G01X123710Y66603D02*
G01X124218Y66095D01*
G01X65968Y54635D02*
G01X61650Y54635D01*
G01X61650Y48539D02*
G01X65968Y48539D01*
G01X66857Y52578D02*
G01X66857Y50571D01*
G01X60761Y52603D02*
G01X60761Y50571D01*
G01X63809Y50317D02*
G01X63809Y52603D01*
G01X63809Y52603D01*
G01X63809Y52349D01*
G01X63809Y52603D02*
G01X63301Y52095D01*
G01X63809Y52603D02*
G01X64317Y52095D01*
G01X80868Y54635D02*
G01X76550Y54635D01*
G01X76550Y48539D02*
G01X80868Y48539D01*
G01X81757Y52578D02*
G01X81757Y50571D01*
G01X75661Y52603D02*
G01X75661Y50571D01*
G01X78709Y50317D02*
G01X78709Y52603D01*
G01X78709Y52603D01*
G01X78709Y52349D01*
G01X78709Y52603D02*
G01X78201Y52095D01*
G01X78709Y52603D02*
G01X79217Y52095D01*
G01X95869Y54635D02*
G01X91551Y54635D01*
G01X91551Y48539D02*
G01X95869Y48539D01*
G01X96758Y52578D02*
G01X96758Y50571D01*
G01X90662Y52603D02*
G01X90662Y50571D01*
G01X93710Y50317D02*
G01X93710Y52603D01*
G01X93710Y52603D01*
G01X93710Y52349D01*
G01X93710Y52603D02*
G01X93202Y52095D01*
G01X93710Y52603D02*
G01X94218Y52095D01*
G01X110967Y54635D02*
G01X106649Y54635D01*
G01X106649Y48539D02*
G01X110967Y48539D01*
G01X111856Y52578D02*
G01X111856Y50571D01*
G01X105760Y52603D02*
G01X105760Y50571D01*
G01X108808Y50317D02*
G01X108808Y52603D01*
G01X108808Y52603D01*
G01X108808Y52349D01*
G01X108808Y52603D02*
G01X108300Y52095D01*
G01X108808Y52603D02*
G01X109316Y52095D01*
G01X125869Y54635D02*
G01X121551Y54635D01*
G01X121551Y48539D02*
G01X125869Y48539D01*
G01X126758Y52578D02*
G01X126758Y50571D01*
G01X120662Y52603D02*
G01X120662Y50571D01*
G01X123710Y50317D02*
G01X123710Y52603D01*
G01X123710Y52603D01*
G01X123710Y52349D01*
G01X123710Y52603D02*
G01X123202Y52095D01*
G01X123710Y52603D02*
G01X124218Y52095D01*
G01X65968Y40634D02*
G01X61650Y40634D01*
G01X61650Y34538D02*
G01X65968Y34538D01*
G01X66857Y38577D02*
G01X66857Y36570D01*
G01X60761Y38602D02*
G01X60761Y36570D01*
G01X63809Y36316D02*
G01X63809Y38602D01*
G01X63809Y38602D01*
G01X63809Y38348D01*
G01X63809Y38602D02*
G01X63301Y38094D01*
G01X63809Y38602D02*
G01X64317Y38094D01*
G01X80868Y40634D02*
G01X76550Y40634D01*
G01X76550Y34538D02*
G01X80868Y34538D01*
G01X81757Y38577D02*
G01X81757Y36570D01*
G01X75661Y38602D02*
G01X75661Y36570D01*
G01X78709Y36316D02*
G01X78709Y38602D01*
G01X78709Y38602D01*
G01X78709Y38348D01*
G01X78709Y38602D02*
G01X78201Y38094D01*
G01X78709Y38602D02*
G01X79217Y38094D01*
G01X95869Y40634D02*
G01X91551Y40634D01*
G01X91551Y34538D02*
G01X95869Y34538D01*
G01X96758Y38577D02*
G01X96758Y36570D01*
G01X90662Y38602D02*
G01X90662Y36570D01*
G01X93710Y36316D02*
G01X93710Y38602D01*
G01X93710Y38602D01*
G01X93710Y38348D01*
G01X93710Y38602D02*
G01X93202Y38094D01*
G01X93710Y38602D02*
G01X94218Y38094D01*
G01X110967Y40634D02*
G01X106649Y40634D01*
G01X106649Y34538D02*
G01X110967Y34538D01*
G01X111856Y38577D02*
G01X111856Y36570D01*
G01X105760Y38602D02*
G01X105760Y36570D01*
G01X108808Y36316D02*
G01X108808Y38602D01*
G01X108808Y38602D01*
G01X108808Y38348D01*
G01X108808Y38602D02*
G01X108300Y38094D01*
G01X108808Y38602D02*
G01X109316Y38094D01*
G01X125869Y40634D02*
G01X121551Y40634D01*
G01X121551Y34538D02*
G01X125869Y34538D01*
G01X126758Y38577D02*
G01X126758Y36570D01*
G01X120662Y38602D02*
G01X120662Y36570D01*
G01X123710Y36316D02*
G01X123710Y38602D01*
G01X123710Y38602D01*
G01X123710Y38348D01*
G01X123710Y38602D02*
G01X123202Y38094D01*
G01X123710Y38602D02*
G01X124218Y38094D01*
G01X65968Y26634D02*
G01X61650Y26634D01*
G01X61650Y20538D02*
G01X65968Y20538D01*
G01X66857Y24577D02*
G01X66857Y22570D01*
G01X60761Y24602D02*
G01X60761Y22570D01*
G01X63809Y22316D02*
G01X63809Y24602D01*
G01X63809Y24602D01*
G01X63809Y24348D01*
G01X63809Y24602D02*
G01X63301Y24094D01*
G01X63809Y24602D02*
G01X64317Y24094D01*
G01X80868Y26634D02*
G01X76550Y26634D01*
G01X76550Y20538D02*
G01X80868Y20538D01*
G01X81757Y24577D02*
G01X81757Y22570D01*
G01X75661Y24602D02*
G01X75661Y22570D01*
G01X78709Y22316D02*
G01X78709Y24602D01*
G01X78709Y24602D01*
G01X78709Y24348D01*
G01X78709Y24602D02*
G01X78201Y24094D01*
G01X78709Y24602D02*
G01X79217Y24094D01*
G01X95869Y26634D02*
G01X91551Y26634D01*
G01X91551Y20538D02*
G01X95869Y20538D01*
G01X96758Y24577D02*
G01X96758Y22570D01*
G01X90662Y24602D02*
G01X90662Y22570D01*
G01X93710Y22316D02*
G01X93710Y24602D01*
G01X93710Y24602D01*
G01X93710Y24348D01*
G01X93710Y24602D02*
G01X93202Y24094D01*
G01X93710Y24602D02*
G01X94218Y24094D01*
G01X110967Y26634D02*
G01X106649Y26634D01*
G01X106649Y20538D02*
G01X110967Y20538D01*
G01X111856Y24577D02*
G01X111856Y22570D01*
G01X105760Y24602D02*
G01X105760Y22570D01*
G01X108808Y22316D02*
G01X108808Y24602D01*
G01X108808Y24602D01*
G01X108808Y24348D01*
G01X108808Y24602D02*
G01X108300Y24094D01*
G01X108808Y24602D02*
G01X109316Y24094D01*
G01X125869Y26634D02*
G01X121551Y26634D01*
G01X121551Y20538D02*
G01X125869Y20538D01*
G01X126758Y24577D02*
G01X126758Y22570D01*
G01X120662Y24602D02*
G01X120662Y22570D01*
G01X123710Y22316D02*
G01X123710Y24602D01*
G01X123710Y24602D01*
G01X123710Y24348D01*
G01X123710Y24602D02*
G01X123202Y24094D01*
G01X123710Y24602D02*
G01X124218Y24094D01*
G01X65968Y11635D02*
G01X61650Y11635D01*
G01X61650Y5539D02*
G01X65968Y5539D01*
G01X66857Y9578D02*
G01X66857Y7571D01*
G01X60761Y9603D02*
G01X60761Y7571D01*
G01X63809Y7317D02*
G01X63809Y9603D01*
G01X63809Y9603D01*
G01X63809Y9349D01*
G01X63809Y9603D02*
G01X63301Y9095D01*
G01X63809Y9603D02*
G01X64317Y9095D01*
G01X80868Y11635D02*
G01X76550Y11635D01*
G01X76550Y5539D02*
G01X80868Y5539D01*
G01X81757Y9578D02*
G01X81757Y7571D01*
G01X75661Y9603D02*
G01X75661Y7571D01*
G01X78709Y7317D02*
G01X78709Y9603D01*
G01X78709Y9603D01*
G01X78709Y9349D01*
G01X78709Y9603D02*
G01X78201Y9095D01*
G01X78709Y9603D02*
G01X79217Y9095D01*
G01X95869Y11635D02*
G01X91551Y11635D01*
G01X91551Y5539D02*
G01X95869Y5539D01*
G01X96758Y9578D02*
G01X96758Y7571D01*
G01X90662Y9603D02*
G01X90662Y7571D01*
G01X93710Y7317D02*
G01X93710Y9603D01*
G01X93710Y9603D01*
G01X93710Y9349D01*
G01X93710Y9603D02*
G01X93202Y9095D01*
G01X93710Y9603D02*
G01X94218Y9095D01*
G01X110967Y11635D02*
G01X106649Y11635D01*
G01X106649Y5539D02*
G01X110967Y5539D01*
G01X111856Y9578D02*
G01X111856Y7571D01*
G01X105760Y9603D02*
G01X105760Y7571D01*
G01X108808Y7317D02*
G01X108808Y9603D01*
G01X108808Y9603D01*
G01X108808Y9349D01*
G01X108808Y9603D02*
G01X108300Y9095D01*
G01X108808Y9603D02*
G01X109316Y9095D01*
G01X125869Y11635D02*
G01X121551Y11635D01*
G01X121551Y5539D02*
G01X125869Y5539D01*
G01X126758Y9578D02*
G01X126758Y7571D01*
G01X120662Y9603D02*
G01X120662Y7571D01*
G01X123710Y7317D02*
G01X123710Y9603D01*
G01X123710Y9603D01*
G01X123710Y9349D01*
G01X123710Y9603D02*
G01X123202Y9095D01*
G01X123710Y9603D02*
G01X124218Y9095D01*
G01X22258Y11836D02*
G01X17940Y11836D01*
G01X17940Y5740D02*
G01X22258Y5740D01*
G01X23147Y9779D02*
G01X23147Y7772D01*
G01X17051Y9804D02*
G01X17051Y7772D01*
G01X20099Y7518D02*
G01X20099Y9804D01*
G01X20099Y9804D01*
G01X20099Y9550D01*
G01X20099Y9804D02*
G01X19591Y9296D01*
G01X20099Y9804D02*
G01X20607Y9296D01*
G01X36169Y11836D02*
G01X31851Y11836D01*
G01X31851Y5740D02*
G01X36169Y5740D01*
G01X37058Y9779D02*
G01X37058Y7772D01*
G01X30962Y9804D02*
G01X30962Y7772D01*
G01X34010Y7518D02*
G01X34010Y9804D01*
G01X34010Y9804D01*
G01X34010Y9550D01*
G01X34010Y9804D02*
G01X33502Y9296D01*
G01X34010Y9804D02*
G01X34518Y9296D01*
G01X50170Y11836D02*
G01X45852Y11836D01*
G01X45852Y5740D02*
G01X50170Y5740D01*
G01X51059Y9779D02*
G01X51059Y7772D01*
G01X44963Y9804D02*
G01X44963Y7772D01*
G01X48011Y7518D02*
G01X48011Y9804D01*
G01X48011Y9804D01*
G01X48011Y9550D01*
G01X48011Y9804D02*
G01X47503Y9296D01*
G01X48011Y9804D02*
G01X48519Y9296D01*
G01X22258Y26334D02*
G01X17940Y26334D01*
G01X17940Y20238D02*
G01X22258Y20238D01*
G01X23147Y24277D02*
G01X23147Y22270D01*
G01X17051Y24302D02*
G01X17051Y22270D01*
G01X20099Y22016D02*
G01X20099Y24302D01*
G01X20099Y24302D01*
G01X20099Y24048D01*
G01X20099Y24302D02*
G01X19591Y23794D01*
G01X20099Y24302D02*
G01X20607Y23794D01*
G01X36169Y26334D02*
G01X31851Y26334D01*
G01X31851Y20238D02*
G01X36169Y20238D01*
G01X37058Y24277D02*
G01X37058Y22270D01*
G01X30962Y24302D02*
G01X30962Y22270D01*
G01X34010Y22016D02*
G01X34010Y24302D01*
G01X34010Y24302D01*
G01X34010Y24048D01*
G01X34010Y24302D02*
G01X33502Y23794D01*
G01X34010Y24302D02*
G01X34518Y23794D01*
G01X50170Y26334D02*
G01X45852Y26334D01*
G01X45852Y20238D02*
G01X50170Y20238D01*
G01X51059Y24277D02*
G01X51059Y22270D01*
G01X44963Y24302D02*
G01X44963Y22270D01*
G01X48011Y22016D02*
G01X48011Y24302D01*
G01X48011Y24302D01*
G01X48011Y24048D01*
G01X48011Y24302D02*
G01X47503Y23794D01*
G01X48011Y24302D02*
G01X48519Y23794D01*
G01X22258Y40934D02*
G01X17940Y40934D01*
G01X17940Y34838D02*
G01X22258Y34838D01*
G01X23147Y38877D02*
G01X23147Y36870D01*
G01X17051Y38902D02*
G01X17051Y36870D01*
G01X20099Y36616D02*
G01X20099Y38902D01*
G01X20099Y38902D01*
G01X20099Y38648D01*
G01X20099Y38902D02*
G01X19591Y38394D01*
G01X20099Y38902D02*
G01X20607Y38394D01*
G01X36169Y40934D02*
G01X31851Y40934D01*
G01X31851Y34838D02*
G01X36169Y34838D01*
G01X37058Y38877D02*
G01X37058Y36870D01*
G01X30962Y38902D02*
G01X30962Y36870D01*
G01X34010Y36616D02*
G01X34010Y38902D01*
G01X34010Y38902D01*
G01X34010Y38648D01*
G01X34010Y38902D02*
G01X33502Y38394D01*
G01X34010Y38902D02*
G01X34518Y38394D01*
G01X50170Y40934D02*
G01X45852Y40934D01*
G01X45852Y34838D02*
G01X50170Y34838D01*
G01X51059Y38877D02*
G01X51059Y36870D01*
G01X44963Y38902D02*
G01X44963Y36870D01*
G01X48011Y36616D02*
G01X48011Y38902D01*
G01X48011Y38902D01*
G01X48011Y38648D01*
G01X48011Y38902D02*
G01X47503Y38394D01*
G01X48011Y38902D02*
G01X48519Y38394D01*
G01X22258Y55435D02*
G01X17940Y55435D01*
G01X17940Y49339D02*
G01X22258Y49339D01*
G01X23147Y53378D02*
G01X23147Y51371D01*
G01X17051Y53403D02*
G01X17051Y51371D01*
G01X20099Y51117D02*
G01X20099Y53403D01*
G01X20099Y53403D01*
G01X20099Y53149D01*
G01X20099Y53403D02*
G01X19591Y52895D01*
G01X20099Y53403D02*
G01X20607Y52895D01*
G01X36169Y55435D02*
G01X31851Y55435D01*
G01X31851Y49339D02*
G01X36169Y49339D01*
G01X37058Y53378D02*
G01X37058Y51371D01*
G01X30962Y53403D02*
G01X30962Y51371D01*
G01X34010Y51117D02*
G01X34010Y53403D01*
G01X34010Y53403D01*
G01X34010Y53149D01*
G01X34010Y53403D02*
G01X33502Y52895D01*
G01X34010Y53403D02*
G01X34518Y52895D01*
G01X50170Y55435D02*
G01X45852Y55435D01*
G01X45852Y49339D02*
G01X50170Y49339D01*
G01X51059Y53378D02*
G01X51059Y51371D01*
G01X44963Y53403D02*
G01X44963Y51371D01*
G01X48011Y51117D02*
G01X48011Y53403D01*
G01X48011Y53403D01*
G01X48011Y53149D01*
G01X48011Y53403D02*
G01X47503Y52895D01*
G01X48011Y53403D02*
G01X48519Y52895D01*
G01X131268Y116517D02*
G01X131268Y104717D01*
G01X131268Y104717D02*
G01X119268Y104717D01*
G01X119268Y104717D02*
G01X119268Y116517D01*
G01X119268Y116517D02*
G01X131268Y116517D01*
G01X126284Y113411D02*
G01X126284Y107823D01*
G01X127300Y116459D02*
G01X127300Y114427D01*
G01X123236Y116459D02*
G01X123236Y114427D01*
G01X127300Y106807D02*
G01X127300Y104775D01*
G01X123236Y106807D02*
G01X123236Y104775D01*
G01X136677Y50917D02*
G01X136950Y50917D01*
G01X139051Y50917D02*
G01X139323Y50917D01*
G01X136677Y32518D02*
G01X136950Y32518D01*
G01X139051Y32518D02*
G01X139323Y32518D01*
G01X123976Y94032D02*
G01X123976Y93760D01*
G01X123976Y91659D02*
G01X123976Y91387D01*
G01X116229Y93905D02*
G01X116229Y93633D01*
G01X116229Y91532D02*
G01X116229Y91260D01*
G01X6678Y50917D02*
G01X6950Y50917D01*
G01X9051Y50917D02*
G01X9323Y50917D01*
G01X6678Y32518D02*
G01X6950Y32518D01*
G01X9051Y32518D02*
G01X9323Y32518D01*
G54D25*
G01X36068Y213934D02*
G01X36068Y212262D01*
G01X36068Y213057D02*
G01X36306Y213296D01*
G01X36466Y213377D01*
G01X36705Y213377D01*
G01X36863Y213296D01*
G01X36941Y213057D01*
G01X36941Y212262D01*
G01X37706Y213934D02*
G01X37706Y212580D01*
G01X37785Y212341D01*
G01X37945Y212262D01*
G01X38105Y212262D01*
G01X37467Y213377D02*
G01X38023Y213377D01*
G01X38867Y213934D02*
G01X38867Y212580D01*
G01X38948Y212341D01*
G01X39105Y212262D01*
G01X39265Y212262D01*
G01X38628Y213377D02*
G01X39187Y213377D01*
G01X39791Y213377D02*
G01X39791Y211706D01*
G01X39791Y213139D02*
G01X39949Y213296D01*
G01X40109Y213377D01*
G01X40347Y213377D01*
G01X40507Y213296D01*
G01X40665Y213139D01*
G01X40746Y212900D01*
G01X40746Y212740D01*
G01X40665Y212501D01*
G01X40507Y212341D01*
G01X40347Y212262D01*
G01X40109Y212262D01*
G01X39949Y212341D01*
G01X39791Y212501D01*
G01X41351Y213217D02*
G01X41269Y213139D01*
G01X41351Y213057D01*
G01X41429Y213139D01*
G01X41351Y213217D01*
G01X41351Y212661D02*
G01X41269Y212580D01*
G01X41351Y212501D01*
G01X41429Y212580D01*
G01X41351Y212661D01*
G01X43385Y214251D02*
G01X41955Y211706D01*
G01X45344Y214251D02*
G01X43911Y211706D01*
G01X45867Y213934D02*
G01X45867Y212262D01*
G01X45867Y213139D02*
G01X46027Y213296D01*
G01X46187Y213377D01*
G01X46426Y213377D01*
G01X46583Y213296D01*
G01X46743Y213139D01*
G01X46822Y212900D01*
G01X46822Y212740D01*
G01X46743Y212501D01*
G01X46583Y212341D01*
G01X46426Y212262D01*
G01X46187Y212262D01*
G01X46027Y212341D01*
G01X45867Y212501D01*
G01X47348Y213934D02*
G01X47348Y212262D01*
G01X48270Y213377D02*
G01X48112Y213296D01*
G01X47952Y213139D01*
G01X47873Y212900D01*
G01X47873Y212740D01*
G01X47952Y212501D01*
G01X48112Y212341D01*
G01X48270Y212262D01*
G01X48508Y212262D01*
G01X48668Y212341D01*
G01X48826Y212501D01*
G01X48907Y212740D01*
G01X48907Y212900D01*
G01X48826Y213139D01*
G01X48668Y213296D01*
G01X48508Y213377D01*
G01X48270Y213377D01*
G01X50385Y213377D02*
G01X50385Y212102D01*
G01X50307Y211866D01*
G01X50228Y211785D01*
G01X50068Y211706D01*
G01X49829Y211706D01*
G01X49669Y211785D01*
G01X50385Y213139D02*
G01X50228Y213296D01*
G01X50068Y213377D01*
G01X49829Y213377D01*
G01X49669Y213296D01*
G01X49512Y213139D01*
G01X49430Y212900D01*
G01X49430Y212740D01*
G01X49512Y212501D01*
G01X49669Y212341D01*
G01X49829Y212262D01*
G01X50068Y212262D01*
G01X50228Y212341D01*
G01X50385Y212501D01*
G01X50990Y212661D02*
G01X50911Y212580D01*
G01X50990Y212501D01*
G01X51071Y212580D01*
G01X50990Y212661D01*
G01X52471Y213139D02*
G01X52390Y213296D01*
G01X52153Y213377D01*
G01X51915Y213377D01*
G01X51676Y213296D01*
G01X51595Y213139D01*
G01X51676Y212979D01*
G01X51833Y212900D01*
G01X52232Y212818D01*
G01X52390Y212740D01*
G01X52471Y212580D01*
G01X52471Y212501D01*
G01X52390Y212341D01*
G01X52153Y212262D01*
G01X51915Y212262D01*
G01X51676Y212341D01*
G01X51595Y212501D01*
G01X52997Y213934D02*
G01X52997Y212262D01*
G01X52997Y213057D02*
G01X53233Y213296D01*
G01X53393Y213377D01*
G01X53632Y213377D01*
G01X53792Y213296D01*
G01X53870Y213057D01*
G01X53870Y212262D01*
G01X55351Y213377D02*
G01X55351Y212262D01*
G01X55351Y213139D02*
G01X55191Y213296D01*
G01X55031Y213377D01*
G01X54792Y213377D01*
G01X54635Y213296D01*
G01X54475Y213139D01*
G01X54396Y212900D01*
G01X54396Y212740D01*
G01X54475Y212501D01*
G01X54635Y212341D01*
G01X54792Y212262D01*
G01X55031Y212262D01*
G01X55191Y212341D01*
G01X55351Y212501D01*
G01X55874Y213934D02*
G01X55874Y212262D01*
G01X55874Y213057D02*
G01X56113Y213296D01*
G01X56273Y213377D01*
G01X56512Y213377D01*
G01X56669Y213296D01*
G01X56751Y213057D01*
G01X56751Y212262D01*
G01X58229Y213377D02*
G01X58229Y212262D01*
G01X58229Y213139D02*
G01X58072Y213296D01*
G01X57912Y213377D01*
G01X57673Y213377D01*
G01X57513Y213296D01*
G01X57355Y213139D01*
G01X57274Y212900D01*
G01X57274Y212740D01*
G01X57355Y212501D01*
G01X57513Y212341D01*
G01X57673Y212262D01*
G01X57912Y212262D01*
G01X58072Y212341D01*
G01X58229Y212501D01*
G01X59710Y213934D02*
G01X59710Y212262D01*
G01X59710Y213139D02*
G01X59550Y213296D01*
G01X59390Y213377D01*
G01X59154Y213377D01*
G01X58994Y213296D01*
G01X58834Y213139D01*
G01X58755Y212900D01*
G01X58755Y212740D01*
G01X58834Y212501D01*
G01X58994Y212341D01*
G01X59154Y212262D01*
G01X59390Y212262D01*
G01X59550Y212341D01*
G01X59710Y212501D01*
G01X61188Y213377D02*
G01X61188Y212262D01*
G01X61188Y213139D02*
G01X61031Y213296D01*
G01X60871Y213377D01*
G01X60632Y213377D01*
G01X60472Y213296D01*
G01X60314Y213139D01*
G01X60233Y212900D01*
G01X60233Y212740D01*
G01X60314Y212501D01*
G01X60472Y212341D01*
G01X60632Y212262D01*
G01X60871Y212262D01*
G01X61031Y212341D01*
G01X61188Y212501D01*
G01X61793Y212661D02*
G01X61714Y212580D01*
G01X61793Y212501D01*
G01X61874Y212580D01*
G01X61793Y212661D01*
G01X63352Y213377D02*
G01X63352Y212262D01*
G01X63352Y213139D02*
G01X63192Y213296D01*
G01X63035Y213377D01*
G01X62796Y213377D01*
G01X62636Y213296D01*
G01X62478Y213139D01*
G01X62397Y212900D01*
G01X62397Y212740D01*
G01X62478Y212501D01*
G01X62636Y212341D01*
G01X62796Y212262D01*
G01X63035Y212262D01*
G01X63192Y212341D01*
G01X63352Y212501D01*
G01X63878Y213934D02*
G01X63878Y212262D01*
G01X63878Y213139D02*
G01X64035Y213296D01*
G01X64195Y213377D01*
G01X64434Y213377D01*
G01X64594Y213296D01*
G01X64752Y213139D01*
G01X64833Y212900D01*
G01X64833Y212740D01*
G01X64752Y212501D01*
G01X64594Y212341D01*
G01X64434Y212262D01*
G01X64195Y212262D01*
G01X64035Y212341D01*
G01X63878Y212501D01*
G01X65356Y213377D02*
G01X65356Y212580D01*
G01X65438Y212341D01*
G01X65595Y212262D01*
G01X65834Y212262D01*
G01X65994Y212341D01*
G01X66233Y212580D01*
G01X66233Y213377D02*
G01X66233Y212262D01*
G01X66758Y213934D02*
G01X66758Y212262D01*
G01X66758Y213139D02*
G01X66916Y213296D01*
G01X67076Y213377D01*
G01X67315Y213377D01*
G01X67472Y213296D01*
G01X67632Y213139D01*
G01X67711Y212900D01*
G01X67711Y212740D01*
G01X67632Y212501D01*
G01X67472Y212341D01*
G01X67315Y212262D01*
G01X67076Y212262D01*
G01X66916Y212341D01*
G01X66758Y212501D01*
G01X69192Y213377D02*
G01X69192Y212262D01*
G01X69192Y213139D02*
G01X69032Y213296D01*
G01X68874Y213377D01*
G01X68635Y213377D01*
G01X68475Y213296D01*
G01X68315Y213139D01*
G01X68237Y212900D01*
G01X68237Y212740D01*
G01X68315Y212501D01*
G01X68475Y212341D01*
G01X68635Y212262D01*
G01X68874Y212262D01*
G01X69032Y212341D01*
G01X69192Y212501D01*
G01X69717Y213934D02*
G01X69717Y212262D01*
G01X70512Y213377D02*
G01X69717Y212580D01*
G01X70035Y212900D02*
G01X70591Y212262D01*
G01X72072Y213377D02*
G01X72072Y212262D01*
G01X72072Y213139D02*
G01X71912Y213296D01*
G01X71752Y213377D01*
G01X71513Y213377D01*
G01X71356Y213296D01*
G01X71196Y213139D01*
G01X71117Y212900D01*
G01X71117Y212740D01*
G01X71196Y212501D01*
G01X71356Y212341D01*
G01X71513Y212262D01*
G01X71752Y212262D01*
G01X71912Y212341D01*
G01X72072Y212501D01*
G01X72595Y213377D02*
G01X72595Y212262D01*
G01X72595Y212900D02*
G01X72677Y213139D01*
G01X72834Y213296D01*
G01X72994Y213377D01*
G01X73233Y213377D01*
G01X73837Y212661D02*
G01X73759Y212580D01*
G01X73837Y212501D01*
G01X73916Y212580D01*
G01X73837Y212661D01*
G01X74442Y213377D02*
G01X74442Y212262D01*
G01X74442Y213057D02*
G01X74681Y213296D01*
G01X74838Y213377D01*
G01X75077Y213377D01*
G01X75237Y213296D01*
G01X75316Y213057D01*
G01X75316Y212262D01*
G01X75841Y212900D02*
G01X76796Y212900D01*
G01X76796Y213057D01*
G01X76718Y213217D01*
G01X76636Y213296D01*
G01X76479Y213377D01*
G01X76240Y213377D01*
G01X76080Y213296D01*
G01X75920Y213139D01*
G01X75841Y212900D01*
G01X75841Y212740D01*
G01X75920Y212501D01*
G01X76080Y212341D01*
G01X76240Y212262D01*
G01X76479Y212262D01*
G01X76636Y212341D01*
G01X76796Y212501D01*
G01X77561Y213934D02*
G01X77561Y212580D01*
G01X77640Y212341D01*
G01X77800Y212262D01*
G01X77957Y212262D01*
G01X77322Y213377D02*
G01X77878Y213377D01*
G01X79916Y214251D02*
G01X78483Y211706D01*
G01X80678Y213934D02*
G01X80678Y212580D01*
G01X80759Y212341D01*
G01X80916Y212262D01*
G01X81076Y212262D01*
G01X80439Y213377D02*
G01X80998Y213377D01*
G01X82555Y213377D02*
G01X82555Y212262D01*
G01X82555Y213139D02*
G01X82397Y213296D01*
G01X82237Y213377D01*
G01X81998Y213377D01*
G01X81838Y213296D01*
G01X81681Y213139D01*
G01X81602Y212900D01*
G01X81602Y212740D01*
G01X81681Y212501D01*
G01X81838Y212341D01*
G01X81998Y212262D01*
G01X82237Y212262D01*
G01X82397Y212341D01*
G01X82555Y212501D01*
G01X84035Y213377D02*
G01X84035Y212102D01*
G01X83957Y211866D01*
G01X83875Y211785D01*
G01X83718Y211706D01*
G01X83479Y211706D01*
G01X83319Y211785D01*
G01X84035Y213139D02*
G01X83875Y213296D01*
G01X83718Y213377D01*
G01X83479Y213377D01*
G01X83319Y213296D01*
G01X83159Y213139D01*
G01X83080Y212900D01*
G01X83080Y212740D01*
G01X83159Y212501D01*
G01X83319Y212341D01*
G01X83479Y212262D01*
G01X83718Y212262D01*
G01X83875Y212341D01*
G01X84035Y212501D01*
G01X85991Y214251D02*
G01X84561Y211706D01*
G01X87630Y213934D02*
G01X86834Y212262D01*
G01X86517Y213934D02*
G01X87630Y213934D01*
G01X88315Y213934D02*
G01X89189Y213934D01*
G01X88712Y213296D01*
G01X88950Y213296D01*
G01X89110Y213217D01*
G01X89189Y213139D01*
G01X89270Y212900D01*
G01X89270Y212740D01*
G01X89189Y212501D01*
G01X89032Y212341D01*
G01X88793Y212262D01*
G01X88554Y212262D01*
G01X88315Y212341D01*
G01X88234Y212422D01*
G01X88155Y212580D01*
G01X90909Y213934D02*
G01X90114Y212262D01*
G01X89794Y213934D02*
G01X90909Y213934D01*
G01X92069Y213934D02*
G01X91909Y213934D01*
G01X91752Y213852D01*
G01X91671Y213616D01*
G01X91671Y212262D01*
G01X91432Y213377D02*
G01X91991Y213377D01*
G01X92595Y213377D02*
G01X92595Y212262D01*
G01X92595Y213057D02*
G01X92834Y213296D01*
G01X92991Y213377D01*
G01X93230Y213377D01*
G01X93390Y213296D01*
G01X93469Y213057D01*
G01X93469Y212262D01*
G01X93469Y213057D02*
G01X93708Y213296D01*
G01X93868Y213377D01*
G01X94107Y213377D01*
G01X94264Y213296D01*
G01X94345Y213057D01*
G01X94345Y212262D01*
G01X95824Y213139D02*
G01X95666Y213296D01*
G01X95506Y213377D01*
G01X95267Y213377D01*
G01X95107Y213296D01*
G01X94950Y213139D01*
G01X94869Y212900D01*
G01X94869Y212740D01*
G01X94950Y212501D01*
G01X95107Y212341D01*
G01X95267Y212262D01*
G01X95506Y212262D01*
G01X95666Y212341D01*
G01X95824Y212501D01*
G01X97304Y213139D02*
G01X97144Y213296D01*
G01X96984Y213377D01*
G01X96748Y213377D01*
G01X96588Y213296D01*
G01X96428Y213139D01*
G01X96349Y212900D01*
G01X96349Y212740D01*
G01X96428Y212501D01*
G01X96588Y212341D01*
G01X96748Y212262D01*
G01X96984Y212262D01*
G01X97144Y212341D01*
G01X97304Y212501D01*
G01X98783Y213934D02*
G01X98783Y212262D01*
G01X98783Y213139D02*
G01X98625Y213296D01*
G01X98465Y213377D01*
G01X98226Y213377D01*
G01X98066Y213296D01*
G01X97909Y213139D01*
G01X97828Y212900D01*
G01X97828Y212740D01*
G01X97909Y212501D01*
G01X98066Y212341D01*
G01X98226Y212262D01*
G01X98465Y212262D01*
G01X98625Y212341D01*
G01X98783Y212501D01*
G01X99308Y213377D02*
G01X99308Y212580D01*
G01X99387Y212341D01*
G01X99547Y212262D01*
G01X99786Y212262D01*
G01X99943Y212341D01*
G01X100182Y212580D01*
G01X100182Y213377D02*
G01X100182Y212262D01*
G01X54124Y216916D02*
G01X53200Y214977D01*
G01X52832Y216916D02*
G01X54124Y216916D01*
G01X54919Y216916D02*
G01X55935Y216916D01*
G01X55382Y216176D01*
G01X55659Y216176D01*
G01X55841Y216085D01*
G01X55935Y215993D01*
G01X56027Y215717D01*
G01X56027Y215531D01*
G01X55935Y215254D01*
G01X55750Y215069D01*
G01X55473Y214977D01*
G01X55196Y214977D01*
G01X54919Y215069D01*
G01X54825Y215160D01*
G01X54734Y215346D01*
G01X57929Y216916D02*
G01X57007Y214977D01*
G01X56636Y216916D02*
G01X57929Y216916D01*
G01X59961Y216916D02*
G01X59961Y214977D01*
G01X59961Y216916D02*
G01X61163Y216916D01*
G01X59961Y215993D02*
G01X60700Y215993D01*
G01X61772Y216916D02*
G01X61772Y214977D01*
G01X61772Y216916D02*
G01X62511Y214977D01*
G01X63251Y216916D02*
G01X62511Y214977D01*
G01X63251Y216916D02*
G01X63251Y214977D01*
G01X65244Y216456D02*
G01X65153Y216639D01*
G01X64968Y216824D01*
G01X64782Y216916D01*
G01X64414Y216916D01*
G01X64228Y216824D01*
G01X64046Y216639D01*
G01X63952Y216456D01*
G01X63860Y216176D01*
G01X63860Y215717D01*
G01X63952Y215440D01*
G01X64046Y215254D01*
G01X64228Y215069D01*
G01X64414Y214977D01*
G01X64782Y214977D01*
G01X64968Y215069D01*
G01X65153Y215254D01*
G01X65244Y215440D01*
G01X68663Y216456D02*
G01X68569Y216639D01*
G01X68386Y216824D01*
G01X68201Y216916D01*
G01X67830Y216916D01*
G01X67647Y216824D01*
G01X67462Y216639D01*
G01X67370Y216456D01*
G01X67276Y216176D01*
G01X67276Y215717D01*
G01X67370Y215440D01*
G01X67462Y215254D01*
G01X67647Y215069D01*
G01X67830Y214977D01*
G01X68201Y214977D01*
G01X68386Y215069D01*
G01X68569Y215254D01*
G01X68663Y215440D01*
G01X69273Y216916D02*
G01X69273Y214977D01*
G01X69273Y216916D02*
G01X69918Y216916D01*
G01X70195Y216824D01*
G01X70380Y216639D01*
G01X70472Y216456D01*
G01X70566Y216176D01*
G01X70566Y215717D01*
G01X70472Y215440D01*
G01X70380Y215254D01*
G01X70195Y215069D01*
G01X69918Y214977D01*
G01X69273Y214977D01*
G01X71175Y216916D02*
G01X71175Y215531D01*
G01X71267Y215254D01*
G01X71452Y215069D01*
G01X71729Y214977D01*
G01X71915Y214977D01*
G01X72191Y215069D01*
G01X72377Y215254D01*
G01X72468Y215531D01*
G01X72468Y216916D01*
G01X74500Y216916D02*
G01X74500Y214977D01*
G01X74500Y216916D02*
G01X75331Y216916D01*
G01X75608Y216824D01*
G01X75702Y216733D01*
G01X75793Y216547D01*
G01X75793Y216362D01*
G01X75702Y216176D01*
G01X75608Y216085D01*
G01X75331Y215993D01*
G01X74500Y215993D01*
G01X75145Y215993D02*
G01X75793Y214977D01*
G01X76403Y215717D02*
G01X77510Y215717D01*
G01X77510Y215900D01*
G01X77419Y216085D01*
G01X77327Y216176D01*
G01X77142Y216270D01*
G01X76865Y216270D01*
G01X76680Y216176D01*
G01X76494Y215993D01*
G01X76403Y215717D01*
G01X76403Y215531D01*
G01X76494Y215254D01*
G01X76680Y215069D01*
G01X76865Y214977D01*
G01X77142Y214977D01*
G01X77327Y215069D01*
G01X77510Y215254D01*
G01X78120Y216270D02*
G01X78676Y214977D01*
G01X79230Y216270D02*
G01X78676Y214977D01*
G01X81445Y216916D02*
G01X82461Y216916D01*
G01X81907Y216176D01*
G01X82184Y216176D01*
G01X82369Y216085D01*
G01X82461Y215993D01*
G01X82555Y215717D01*
G01X82555Y215531D01*
G01X82461Y215254D01*
G01X82278Y215069D01*
G01X82001Y214977D01*
G01X81724Y214977D01*
G01X81445Y215069D01*
G01X81353Y215160D01*
G01X81262Y215346D01*
G01X83256Y215440D02*
G01X83164Y215346D01*
G01X83256Y215254D01*
G01X83350Y215346D01*
G01X83256Y215440D01*
G01X84142Y216916D02*
G01X85158Y216916D01*
G01X84604Y216176D01*
G01X84881Y216176D01*
G01X85067Y216085D01*
G01X85158Y215993D01*
G01X85252Y215717D01*
G01X85252Y215531D01*
G01X85158Y215254D01*
G01X84975Y215069D01*
G01X84696Y214977D01*
G01X84419Y214977D01*
G01X84142Y215069D01*
G01X84051Y215160D01*
G01X83959Y215346D01*
G54D26*
G01X10633Y195552D02*
G01X10529Y195656D01*
G01X10374Y195707D01*
G01X10166Y195707D01*
G01X10011Y195656D01*
G01X9907Y195552D01*
G01X9907Y195447D01*
G01X9958Y195343D01*
G01X10011Y195293D01*
G01X10115Y195239D01*
G01X10427Y195135D01*
G01X10529Y195084D01*
G01X10582Y195033D01*
G01X10633Y194929D01*
G01X10633Y194772D01*
G01X10529Y194668D01*
G01X10374Y194617D01*
G01X10166Y194617D01*
G01X10011Y194668D01*
G01X9907Y194772D01*
G01X10976Y195707D02*
G01X11238Y194617D01*
G01X11497Y195707D02*
G01X11238Y194617D01*
G01X11497Y195707D02*
G01X11756Y194617D01*
G01X12015Y195707D02*
G01X11756Y194617D01*
G01X12358Y195501D02*
G01X12462Y195552D01*
G01X12620Y195707D01*
G01X12620Y194617D01*
G01X8787Y185178D02*
G01X8682Y185282D01*
G01X8528Y185333D01*
G01X8319Y185333D01*
G01X8164Y185282D01*
G01X8060Y185178D01*
G01X8060Y185074D01*
G01X8111Y184970D01*
G01X8164Y184919D01*
G01X8268Y184866D01*
G01X8581Y184762D01*
G01X8682Y184711D01*
G01X8736Y184660D01*
G01X8787Y184556D01*
G01X8787Y184398D01*
G01X8682Y184294D01*
G01X8528Y184243D01*
G01X8319Y184243D01*
G01X8164Y184294D01*
G01X8060Y184398D01*
G01X9130Y185333D02*
G01X9391Y184243D01*
G01X9650Y185333D02*
G01X9391Y184243D01*
G01X9650Y185333D02*
G01X9909Y184243D01*
G01X10168Y185333D02*
G01X9909Y184243D01*
G01X10565Y185074D02*
G01X10565Y185127D01*
G01X10615Y185232D01*
G01X10669Y185282D01*
G01X10773Y185333D01*
G01X10981Y185333D01*
G01X11083Y185282D01*
G01X11136Y185232D01*
G01X11187Y185127D01*
G01X11187Y185023D01*
G01X11136Y184919D01*
G01X11032Y184762D01*
G01X10511Y184243D01*
G01X11240Y184243D01*
G01X8787Y175087D02*
G01X8682Y175191D01*
G01X8528Y175242D01*
G01X8319Y175242D01*
G01X8164Y175191D01*
G01X8060Y175087D01*
G01X8060Y174983D01*
G01X8111Y174879D01*
G01X8164Y174828D01*
G01X8268Y174774D01*
G01X8581Y174670D01*
G01X8682Y174619D01*
G01X8736Y174569D01*
G01X8787Y174464D01*
G01X8787Y174307D01*
G01X8682Y174203D01*
G01X8528Y174152D01*
G01X8319Y174152D01*
G01X8164Y174203D01*
G01X8060Y174307D01*
G01X9130Y175242D02*
G01X9391Y174152D01*
G01X9650Y175242D02*
G01X9391Y174152D01*
G01X9650Y175242D02*
G01X9909Y174152D01*
G01X10168Y175242D02*
G01X9909Y174152D01*
G01X10615Y175242D02*
G01X11187Y175242D01*
G01X10877Y174828D01*
G01X11032Y174828D01*
G01X11136Y174774D01*
G01X11187Y174724D01*
G01X11240Y174569D01*
G01X11240Y174464D01*
G01X11187Y174307D01*
G01X11083Y174203D01*
G01X10928Y174152D01*
G01X10773Y174152D01*
G01X10615Y174203D01*
G01X10565Y174256D01*
G01X10511Y174360D01*
G01X8787Y165097D02*
G01X8682Y165201D01*
G01X8528Y165252D01*
G01X8319Y165252D01*
G01X8164Y165201D01*
G01X8060Y165097D01*
G01X8060Y164993D01*
G01X8111Y164889D01*
G01X8164Y164838D01*
G01X8268Y164785D01*
G01X8581Y164680D01*
G01X8682Y164630D01*
G01X8736Y164579D01*
G01X8787Y164475D01*
G01X8787Y164317D01*
G01X8682Y164213D01*
G01X8528Y164162D01*
G01X8319Y164162D01*
G01X8164Y164213D01*
G01X8060Y164317D01*
G01X9130Y165252D02*
G01X9391Y164162D01*
G01X9650Y165252D02*
G01X9391Y164162D01*
G01X9650Y165252D02*
G01X9909Y164162D01*
G01X10168Y165252D02*
G01X9909Y164162D01*
G01X11032Y165252D02*
G01X10511Y164525D01*
G01X11291Y164525D01*
G01X11032Y165252D02*
G01X11032Y164162D01*
G01X8787Y155097D02*
G01X8682Y155201D01*
G01X8528Y155252D01*
G01X8319Y155252D01*
G01X8164Y155201D01*
G01X8060Y155097D01*
G01X8060Y154993D01*
G01X8111Y154889D01*
G01X8164Y154838D01*
G01X8268Y154785D01*
G01X8581Y154680D01*
G01X8682Y154630D01*
G01X8736Y154579D01*
G01X8787Y154475D01*
G01X8787Y154317D01*
G01X8682Y154213D01*
G01X8528Y154162D01*
G01X8319Y154162D01*
G01X8164Y154213D01*
G01X8060Y154317D01*
G01X9130Y155252D02*
G01X9391Y154162D01*
G01X9650Y155252D02*
G01X9391Y154162D01*
G01X9650Y155252D02*
G01X9909Y154162D01*
G01X10168Y155252D02*
G01X9909Y154162D01*
G01X11136Y155252D02*
G01X10615Y155252D01*
G01X10565Y154785D01*
G01X10615Y154838D01*
G01X10773Y154889D01*
G01X10928Y154889D01*
G01X11083Y154838D01*
G01X11187Y154734D01*
G01X11240Y154579D01*
G01X11240Y154475D01*
G01X11187Y154317D01*
G01X11083Y154213D01*
G01X10928Y154162D01*
G01X10773Y154162D01*
G01X10615Y154213D01*
G01X10565Y154266D01*
G01X10511Y154371D01*
G01X8787Y145097D02*
G01X8682Y145201D01*
G01X8528Y145252D01*
G01X8319Y145252D01*
G01X8164Y145201D01*
G01X8060Y145097D01*
G01X8060Y144993D01*
G01X8111Y144889D01*
G01X8164Y144838D01*
G01X8268Y144785D01*
G01X8581Y144680D01*
G01X8682Y144630D01*
G01X8736Y144579D01*
G01X8787Y144475D01*
G01X8787Y144317D01*
G01X8682Y144213D01*
G01X8528Y144162D01*
G01X8319Y144162D01*
G01X8164Y144213D01*
G01X8060Y144317D01*
G01X9130Y145252D02*
G01X9391Y144162D01*
G01X9650Y145252D02*
G01X9391Y144162D01*
G01X9650Y145252D02*
G01X9909Y144162D01*
G01X10168Y145252D02*
G01X9909Y144162D01*
G01X11136Y145097D02*
G01X11083Y145201D01*
G01X10928Y145252D01*
G01X10824Y145252D01*
G01X10669Y145201D01*
G01X10565Y145046D01*
G01X10511Y144785D01*
G01X10511Y144526D01*
G01X10565Y144317D01*
G01X10669Y144213D01*
G01X10824Y144162D01*
G01X10877Y144162D01*
G01X11032Y144213D01*
G01X11136Y144317D01*
G01X11187Y144475D01*
G01X11187Y144526D01*
G01X11136Y144680D01*
G01X11032Y144785D01*
G01X10877Y144838D01*
G01X10824Y144838D01*
G01X10669Y144785D01*
G01X10565Y144680D01*
G01X10511Y144526D01*
G01X133822Y195298D02*
G01X133718Y195402D01*
G01X133563Y195453D01*
G01X133355Y195453D01*
G01X133200Y195402D01*
G01X133096Y195298D01*
G01X133096Y195193D01*
G01X133146Y195089D01*
G01X133200Y195039D01*
G01X133304Y194985D01*
G01X133616Y194881D01*
G01X133718Y194830D01*
G01X133771Y194779D01*
G01X133822Y194675D01*
G01X133822Y194518D01*
G01X133718Y194414D01*
G01X133563Y194363D01*
G01X133355Y194363D01*
G01X133200Y194414D01*
G01X133096Y194518D01*
G01X134165Y195453D02*
G01X134426Y194363D01*
G01X134686Y195453D02*
G01X134426Y194363D01*
G01X134686Y195453D02*
G01X134945Y194363D01*
G01X135204Y195453D02*
G01X134945Y194363D01*
G01X136276Y195453D02*
G01X135755Y194363D01*
G01X135547Y195453D02*
G01X136276Y195453D01*
G01X138734Y185178D02*
G01X138630Y185282D01*
G01X138475Y185333D01*
G01X138267Y185333D01*
G01X138112Y185282D01*
G01X138008Y185178D01*
G01X138008Y185074D01*
G01X138059Y184970D01*
G01X138112Y184919D01*
G01X138216Y184866D01*
G01X138529Y184762D01*
G01X138630Y184711D01*
G01X138684Y184660D01*
G01X138734Y184556D01*
G01X138734Y184398D01*
G01X138630Y184294D01*
G01X138475Y184243D01*
G01X138267Y184243D01*
G01X138112Y184294D01*
G01X138008Y184398D01*
G01X139077Y185333D02*
G01X139339Y184243D01*
G01X139598Y185333D02*
G01X139339Y184243D01*
G01X139598Y185333D02*
G01X139857Y184243D01*
G01X140116Y185333D02*
G01X139857Y184243D01*
G01X140721Y185333D02*
G01X140563Y185282D01*
G01X140512Y185178D01*
G01X140512Y185074D01*
G01X140563Y184970D01*
G01X140667Y184919D01*
G01X140876Y184866D01*
G01X141030Y184815D01*
G01X141135Y184711D01*
G01X141188Y184607D01*
G01X141188Y184452D01*
G01X141135Y184348D01*
G01X141084Y184294D01*
G01X140929Y184243D01*
G01X140721Y184243D01*
G01X140563Y184294D01*
G01X140512Y184348D01*
G01X140459Y184452D01*
G01X140459Y184607D01*
G01X140512Y184711D01*
G01X140616Y184815D01*
G01X140771Y184866D01*
G01X140980Y184919D01*
G01X141084Y184970D01*
G01X141135Y185074D01*
G01X141135Y185178D01*
G01X141084Y185282D01*
G01X140929Y185333D01*
G01X140721Y185333D01*
G01X138734Y175087D02*
G01X138630Y175191D01*
G01X138475Y175242D01*
G01X138267Y175242D01*
G01X138112Y175191D01*
G01X138008Y175087D01*
G01X138008Y174983D01*
G01X138059Y174879D01*
G01X138112Y174828D01*
G01X138216Y174774D01*
G01X138529Y174670D01*
G01X138630Y174619D01*
G01X138684Y174569D01*
G01X138734Y174464D01*
G01X138734Y174307D01*
G01X138630Y174203D01*
G01X138475Y174152D01*
G01X138267Y174152D01*
G01X138112Y174203D01*
G01X138008Y174307D01*
G01X139077Y175242D02*
G01X139339Y174152D01*
G01X139598Y175242D02*
G01X139339Y174152D01*
G01X139598Y175242D02*
G01X139857Y174152D01*
G01X140116Y175242D02*
G01X139857Y174152D01*
G01X141135Y174879D02*
G01X141084Y174724D01*
G01X140980Y174619D01*
G01X140825Y174569D01*
G01X140771Y174569D01*
G01X140616Y174619D01*
G01X140512Y174724D01*
G01X140459Y174879D01*
G01X140459Y174932D01*
G01X140512Y175087D01*
G01X140616Y175191D01*
G01X140771Y175242D01*
G01X140825Y175242D01*
G01X140980Y175191D01*
G01X141084Y175087D01*
G01X141135Y174879D01*
G01X141135Y174619D01*
G01X141084Y174360D01*
G01X140980Y174203D01*
G01X140825Y174152D01*
G01X140721Y174152D01*
G01X140563Y174203D01*
G01X140512Y174307D01*
G01X138734Y165087D02*
G01X138630Y165191D01*
G01X138475Y165242D01*
G01X138267Y165242D01*
G01X138112Y165191D01*
G01X138008Y165087D01*
G01X138008Y164983D01*
G01X138059Y164879D01*
G01X138112Y164828D01*
G01X138216Y164774D01*
G01X138529Y164670D01*
G01X138630Y164619D01*
G01X138684Y164569D01*
G01X138734Y164465D01*
G01X138734Y164307D01*
G01X138630Y164203D01*
G01X138475Y164152D01*
G01X138267Y164152D01*
G01X138112Y164203D01*
G01X138008Y164307D01*
G01X139077Y165242D02*
G01X139339Y164152D01*
G01X139598Y165242D02*
G01X139339Y164152D01*
G01X139598Y165242D02*
G01X139857Y164152D01*
G01X140116Y165242D02*
G01X139857Y164152D01*
G01X140459Y165036D02*
G01X140563Y165087D01*
G01X140721Y165242D01*
G01X140721Y164152D01*
G01X141373Y165242D02*
G01X141218Y165191D01*
G01X141114Y165036D01*
G01X141063Y164774D01*
G01X141063Y164619D01*
G01X141114Y164360D01*
G01X141218Y164203D01*
G01X141373Y164152D01*
G01X141478Y164152D01*
G01X141635Y164203D01*
G01X141739Y164360D01*
G01X141790Y164619D01*
G01X141790Y164774D01*
G01X141739Y165036D01*
G01X141635Y165191D01*
G01X141478Y165242D01*
G01X141373Y165242D01*
G01X138734Y155097D02*
G01X138630Y155201D01*
G01X138475Y155252D01*
G01X138267Y155252D01*
G01X138112Y155201D01*
G01X138008Y155097D01*
G01X138008Y154993D01*
G01X138059Y154889D01*
G01X138112Y154838D01*
G01X138216Y154785D01*
G01X138529Y154680D01*
G01X138630Y154630D01*
G01X138684Y154579D01*
G01X138734Y154475D01*
G01X138734Y154317D01*
G01X138630Y154213D01*
G01X138475Y154162D01*
G01X138267Y154162D01*
G01X138112Y154213D01*
G01X138008Y154317D01*
G01X139077Y155252D02*
G01X139339Y154162D01*
G01X139598Y155252D02*
G01X139339Y154162D01*
G01X139598Y155252D02*
G01X139857Y154162D01*
G01X140116Y155252D02*
G01X139857Y154162D01*
G01X140459Y155046D02*
G01X140563Y155097D01*
G01X140721Y155252D01*
G01X140721Y154162D01*
G01X141063Y155046D02*
G01X141168Y155097D01*
G01X141323Y155252D01*
G01X141323Y154162D01*
G01X138734Y145097D02*
G01X138630Y145201D01*
G01X138475Y145252D01*
G01X138267Y145252D01*
G01X138112Y145201D01*
G01X138008Y145097D01*
G01X138008Y144993D01*
G01X138059Y144889D01*
G01X138112Y144838D01*
G01X138216Y144785D01*
G01X138529Y144680D01*
G01X138630Y144630D01*
G01X138684Y144579D01*
G01X138734Y144475D01*
G01X138734Y144317D01*
G01X138630Y144213D01*
G01X138475Y144162D01*
G01X138267Y144162D01*
G01X138112Y144213D01*
G01X138008Y144317D01*
G01X139077Y145252D02*
G01X139339Y144162D01*
G01X139598Y145252D02*
G01X139339Y144162D01*
G01X139598Y145252D02*
G01X139857Y144162D01*
G01X140116Y145252D02*
G01X139857Y144162D01*
G01X140459Y145046D02*
G01X140563Y145097D01*
G01X140721Y145252D01*
G01X140721Y144162D01*
G01X141114Y144993D02*
G01X141114Y145046D01*
G01X141168Y145150D01*
G01X141218Y145201D01*
G01X141323Y145252D01*
G01X141531Y145252D01*
G01X141635Y145201D01*
G01X141686Y145150D01*
G01X141739Y145046D01*
G01X141739Y144942D01*
G01X141686Y144838D01*
G01X141582Y144680D01*
G01X141063Y144162D01*
G01X141790Y144162D01*
G01X24975Y115077D02*
G01X24871Y115181D01*
G01X24716Y115232D01*
G01X24508Y115232D01*
G01X24353Y115181D01*
G01X24249Y115077D01*
G01X24249Y114973D01*
G01X24300Y114868D01*
G01X24353Y114818D01*
G01X24457Y114764D01*
G01X24770Y114660D01*
G01X24871Y114609D01*
G01X24925Y114559D01*
G01X24975Y114454D01*
G01X24975Y114297D01*
G01X24871Y114193D01*
G01X24716Y114142D01*
G01X24508Y114142D01*
G01X24353Y114193D01*
G01X24249Y114297D01*
G01X25318Y115232D02*
G01X25580Y114142D01*
G01X25839Y115232D02*
G01X25580Y114142D01*
G01X25839Y115232D02*
G01X26098Y114142D01*
G01X26357Y115232D02*
G01X26098Y114142D01*
G01X26700Y115026D02*
G01X26804Y115077D01*
G01X26962Y115232D01*
G01X26962Y114142D01*
G01X27409Y115232D02*
G01X27980Y115232D01*
G01X27668Y114818D01*
G01X27823Y114818D01*
G01X27927Y114764D01*
G01X27980Y114714D01*
G01X28031Y114559D01*
G01X28031Y114454D01*
G01X27980Y114297D01*
G01X27876Y114193D01*
G01X27719Y114142D01*
G01X27564Y114142D01*
G01X27409Y114193D01*
G01X27355Y114246D01*
G01X27305Y114350D01*
G01X44485Y115077D02*
G01X44381Y115181D01*
G01X44226Y115232D01*
G01X44018Y115232D01*
G01X43863Y115181D01*
G01X43759Y115077D01*
G01X43759Y114973D01*
G01X43809Y114868D01*
G01X43863Y114818D01*
G01X43967Y114764D01*
G01X44279Y114660D01*
G01X44381Y114609D01*
G01X44434Y114559D01*
G01X44485Y114454D01*
G01X44485Y114297D01*
G01X44381Y114193D01*
G01X44226Y114142D01*
G01X44018Y114142D01*
G01X43863Y114193D01*
G01X43759Y114297D01*
G01X44828Y115232D02*
G01X45090Y114142D01*
G01X45349Y115232D02*
G01X45090Y114142D01*
G01X45349Y115232D02*
G01X45608Y114142D01*
G01X45867Y115232D02*
G01X45608Y114142D01*
G01X46210Y115026D02*
G01X46314Y115077D01*
G01X46471Y115232D01*
G01X46471Y114142D01*
G01X47332Y115232D02*
G01X46814Y114505D01*
G01X47594Y114505D01*
G01X47332Y115232D02*
G01X47332Y114142D01*
G01X63985Y115077D02*
G01X63881Y115181D01*
G01X63726Y115232D01*
G01X63517Y115232D01*
G01X63362Y115181D01*
G01X63258Y115077D01*
G01X63258Y114973D01*
G01X63309Y114868D01*
G01X63362Y114818D01*
G01X63466Y114764D01*
G01X63779Y114660D01*
G01X63881Y114609D01*
G01X63934Y114559D01*
G01X63985Y114454D01*
G01X63985Y114297D01*
G01X63881Y114193D01*
G01X63726Y114142D01*
G01X63517Y114142D01*
G01X63362Y114193D01*
G01X63258Y114297D01*
G01X64328Y115232D02*
G01X64589Y114142D01*
G01X64848Y115232D02*
G01X64589Y114142D01*
G01X64848Y115232D02*
G01X65107Y114142D01*
G01X65366Y115232D02*
G01X65107Y114142D01*
G01X65709Y115026D02*
G01X65813Y115077D01*
G01X65971Y115232D01*
G01X65971Y114142D01*
G01X66936Y115232D02*
G01X66418Y115232D01*
G01X66365Y114764D01*
G01X66418Y114818D01*
G01X66573Y114868D01*
G01X66728Y114868D01*
G01X66885Y114818D01*
G01X66989Y114714D01*
G01X67040Y114559D01*
G01X67040Y114454D01*
G01X66989Y114297D01*
G01X66885Y114193D01*
G01X66728Y114142D01*
G01X66573Y114142D01*
G01X66418Y114193D01*
G01X66365Y114246D01*
G01X66314Y114350D01*
G01X83487Y115077D02*
G01X83383Y115181D01*
G01X83228Y115232D01*
G01X83019Y115232D01*
G01X82864Y115181D01*
G01X82760Y115077D01*
G01X82760Y114973D01*
G01X82811Y114868D01*
G01X82864Y114818D01*
G01X82969Y114764D01*
G01X83281Y114660D01*
G01X83383Y114609D01*
G01X83436Y114559D01*
G01X83487Y114454D01*
G01X83487Y114297D01*
G01X83383Y114193D01*
G01X83228Y114142D01*
G01X83019Y114142D01*
G01X82864Y114193D01*
G01X82760Y114297D01*
G01X83830Y115232D02*
G01X84091Y114142D01*
G01X84350Y115232D02*
G01X84091Y114142D01*
G01X84350Y115232D02*
G01X84609Y114142D01*
G01X84869Y115232D02*
G01X84609Y114142D01*
G01X85211Y115026D02*
G01X85316Y115077D01*
G01X85473Y115232D01*
G01X85473Y114142D01*
G01X86438Y115077D02*
G01X86387Y115181D01*
G01X86230Y115232D01*
G01X86126Y115232D01*
G01X85971Y115181D01*
G01X85867Y115026D01*
G01X85816Y114764D01*
G01X85816Y114505D01*
G01X85867Y114297D01*
G01X85971Y114193D01*
G01X86126Y114142D01*
G01X86179Y114142D01*
G01X86334Y114193D01*
G01X86438Y114297D01*
G01X86492Y114454D01*
G01X86492Y114505D01*
G01X86438Y114660D01*
G01X86334Y114764D01*
G01X86179Y114818D01*
G01X86126Y114818D01*
G01X85971Y114764D01*
G01X85867Y114660D01*
G01X85816Y114505D01*
G01X102986Y115077D02*
G01X102882Y115181D01*
G01X102727Y115232D01*
G01X102519Y115232D01*
G01X102364Y115181D01*
G01X102260Y115077D01*
G01X102260Y114973D01*
G01X102311Y114868D01*
G01X102364Y114818D01*
G01X102468Y114764D01*
G01X102781Y114660D01*
G01X102882Y114609D01*
G01X102936Y114559D01*
G01X102986Y114454D01*
G01X102986Y114297D01*
G01X102882Y114193D01*
G01X102727Y114142D01*
G01X102519Y114142D01*
G01X102364Y114193D01*
G01X102260Y114297D01*
G01X103329Y115232D02*
G01X103591Y114142D01*
G01X103850Y115232D02*
G01X103591Y114142D01*
G01X103850Y115232D02*
G01X104109Y114142D01*
G01X104368Y115232D02*
G01X104109Y114142D01*
G01X104711Y115026D02*
G01X104815Y115077D01*
G01X104973Y115232D01*
G01X104973Y114142D01*
G01X106042Y115232D02*
G01X105524Y114142D01*
G01X105316Y115232D02*
G01X106042Y115232D01*
G01X24975Y101127D02*
G01X24871Y101231D01*
G01X24716Y101282D01*
G01X24508Y101282D01*
G01X24353Y101231D01*
G01X24249Y101127D01*
G01X24249Y101023D01*
G01X24300Y100919D01*
G01X24353Y100868D01*
G01X24457Y100815D01*
G01X24770Y100711D01*
G01X24871Y100660D01*
G01X24925Y100609D01*
G01X24975Y100505D01*
G01X24975Y100347D01*
G01X24871Y100243D01*
G01X24716Y100192D01*
G01X24508Y100192D01*
G01X24353Y100243D01*
G01X24249Y100347D01*
G01X25318Y101282D02*
G01X25580Y100192D01*
G01X25839Y101282D02*
G01X25580Y100192D01*
G01X25839Y101282D02*
G01X26098Y100192D01*
G01X26357Y101282D02*
G01X26098Y100192D01*
G01X26700Y101076D02*
G01X26804Y101127D01*
G01X26962Y101282D01*
G01X26962Y100192D01*
G01X27564Y101282D02*
G01X27409Y101231D01*
G01X27355Y101127D01*
G01X27355Y101023D01*
G01X27409Y100919D01*
G01X27513Y100868D01*
G01X27719Y100815D01*
G01X27876Y100764D01*
G01X27980Y100660D01*
G01X28031Y100556D01*
G01X28031Y100401D01*
G01X27980Y100296D01*
G01X27927Y100243D01*
G01X27772Y100192D01*
G01X27564Y100192D01*
G01X27409Y100243D01*
G01X27355Y100296D01*
G01X27305Y100401D01*
G01X27305Y100556D01*
G01X27355Y100660D01*
G01X27459Y100764D01*
G01X27614Y100815D01*
G01X27823Y100868D01*
G01X27927Y100919D01*
G01X27980Y101023D01*
G01X27980Y101127D01*
G01X27927Y101231D01*
G01X27772Y101282D01*
G01X27564Y101282D01*
G01X44485Y101127D02*
G01X44381Y101231D01*
G01X44226Y101282D01*
G01X44018Y101282D01*
G01X43863Y101231D01*
G01X43759Y101127D01*
G01X43759Y101023D01*
G01X43809Y100919D01*
G01X43863Y100868D01*
G01X43967Y100815D01*
G01X44279Y100711D01*
G01X44381Y100660D01*
G01X44434Y100609D01*
G01X44485Y100505D01*
G01X44485Y100347D01*
G01X44381Y100243D01*
G01X44226Y100192D01*
G01X44018Y100192D01*
G01X43863Y100243D01*
G01X43759Y100347D01*
G01X44828Y101282D02*
G01X45090Y100192D01*
G01X45349Y101282D02*
G01X45090Y100192D01*
G01X45349Y101282D02*
G01X45608Y100192D01*
G01X45867Y101282D02*
G01X45608Y100192D01*
G01X46210Y101076D02*
G01X46314Y101127D01*
G01X46471Y101282D01*
G01X46471Y100192D01*
G01X47490Y100919D02*
G01X47437Y100764D01*
G01X47332Y100660D01*
G01X47177Y100609D01*
G01X47124Y100609D01*
G01X46969Y100660D01*
G01X46865Y100764D01*
G01X46814Y100919D01*
G01X46814Y100972D01*
G01X46865Y101127D01*
G01X46969Y101231D01*
G01X47124Y101282D01*
G01X47177Y101282D01*
G01X47332Y101231D01*
G01X47437Y101127D01*
G01X47490Y100919D01*
G01X47490Y100660D01*
G01X47437Y100401D01*
G01X47332Y100243D01*
G01X47177Y100192D01*
G01X47073Y100192D01*
G01X46918Y100243D01*
G01X46865Y100347D01*
G01X63985Y101127D02*
G01X63881Y101231D01*
G01X63726Y101282D01*
G01X63517Y101282D01*
G01X63362Y101231D01*
G01X63258Y101127D01*
G01X63258Y101023D01*
G01X63309Y100919D01*
G01X63362Y100868D01*
G01X63466Y100815D01*
G01X63779Y100711D01*
G01X63881Y100660D01*
G01X63934Y100609D01*
G01X63985Y100505D01*
G01X63985Y100347D01*
G01X63881Y100243D01*
G01X63726Y100192D01*
G01X63517Y100192D01*
G01X63362Y100243D01*
G01X63258Y100347D01*
G01X64328Y101282D02*
G01X64589Y100192D01*
G01X64848Y101282D02*
G01X64589Y100192D01*
G01X64848Y101282D02*
G01X65107Y100192D01*
G01X65366Y101282D02*
G01X65107Y100192D01*
G01X65763Y101023D02*
G01X65763Y101076D01*
G01X65813Y101180D01*
G01X65867Y101231D01*
G01X65971Y101282D01*
G01X66179Y101282D01*
G01X66281Y101231D01*
G01X66334Y101180D01*
G01X66385Y101076D01*
G01X66385Y100972D01*
G01X66334Y100868D01*
G01X66230Y100711D01*
G01X65709Y100192D01*
G01X66438Y100192D01*
G01X67094Y101282D02*
G01X66936Y101231D01*
G01X66832Y101076D01*
G01X66781Y100815D01*
G01X66781Y100660D01*
G01X66832Y100401D01*
G01X66936Y100243D01*
G01X67094Y100192D01*
G01X67195Y100192D01*
G01X67353Y100243D01*
G01X67457Y100401D01*
G01X67508Y100660D01*
G01X67508Y100815D01*
G01X67457Y101076D01*
G01X67353Y101231D01*
G01X67195Y101282D01*
G01X67094Y101282D01*
G01X83487Y101127D02*
G01X83383Y101231D01*
G01X83228Y101282D01*
G01X83019Y101282D01*
G01X82864Y101231D01*
G01X82760Y101127D01*
G01X82760Y101023D01*
G01X82811Y100919D01*
G01X82864Y100868D01*
G01X82969Y100815D01*
G01X83281Y100711D01*
G01X83383Y100660D01*
G01X83436Y100609D01*
G01X83487Y100505D01*
G01X83487Y100347D01*
G01X83383Y100243D01*
G01X83228Y100192D01*
G01X83019Y100192D01*
G01X82864Y100243D01*
G01X82760Y100347D01*
G01X83830Y101282D02*
G01X84091Y100192D01*
G01X84350Y101282D02*
G01X84091Y100192D01*
G01X84350Y101282D02*
G01X84609Y100192D01*
G01X84869Y101282D02*
G01X84609Y100192D01*
G01X85265Y101023D02*
G01X85265Y101076D01*
G01X85316Y101180D01*
G01X85369Y101231D01*
G01X85473Y101282D01*
G01X85681Y101282D01*
G01X85783Y101231D01*
G01X85836Y101180D01*
G01X85887Y101076D01*
G01X85887Y100972D01*
G01X85836Y100868D01*
G01X85732Y100711D01*
G01X85211Y100192D01*
G01X85940Y100192D01*
G01X86283Y101076D02*
G01X86387Y101127D01*
G01X86542Y101282D01*
G01X86542Y100192D01*
G01X102986Y101127D02*
G01X102882Y101231D01*
G01X102727Y101282D01*
G01X102519Y101282D01*
G01X102364Y101231D01*
G01X102260Y101127D01*
G01X102260Y101023D01*
G01X102311Y100919D01*
G01X102364Y100868D01*
G01X102468Y100815D01*
G01X102781Y100711D01*
G01X102882Y100660D01*
G01X102936Y100609D01*
G01X102986Y100505D01*
G01X102986Y100347D01*
G01X102882Y100243D01*
G01X102727Y100192D01*
G01X102519Y100192D01*
G01X102364Y100243D01*
G01X102260Y100347D01*
G01X103329Y101282D02*
G01X103591Y100192D01*
G01X103850Y101282D02*
G01X103591Y100192D01*
G01X103850Y101282D02*
G01X104109Y100192D01*
G01X104368Y101282D02*
G01X104109Y100192D01*
G01X104764Y101023D02*
G01X104764Y101076D01*
G01X104815Y101180D01*
G01X104868Y101231D01*
G01X104973Y101282D01*
G01X105181Y101282D01*
G01X105283Y101231D01*
G01X105336Y101180D01*
G01X105387Y101076D01*
G01X105387Y100972D01*
G01X105336Y100868D01*
G01X105232Y100711D01*
G01X104711Y100192D01*
G01X105440Y100192D01*
G01X105834Y101023D02*
G01X105834Y101076D01*
G01X105887Y101180D01*
G01X105938Y101231D01*
G01X106042Y101282D01*
G01X106250Y101282D01*
G01X106354Y101231D01*
G01X106405Y101180D01*
G01X106459Y101076D01*
G01X106459Y100972D01*
G01X106405Y100868D01*
G01X106301Y100711D01*
G01X105783Y100192D01*
G01X106509Y100192D01*
G01X120233Y102588D02*
G01X120129Y102692D01*
G01X119974Y102743D01*
G01X119766Y102743D01*
G01X119611Y102692D01*
G01X119507Y102588D01*
G01X119507Y102483D01*
G01X119557Y102379D01*
G01X119611Y102328D01*
G01X119715Y102275D01*
G01X120027Y102171D01*
G01X120129Y102120D01*
G01X120182Y102069D01*
G01X120233Y101965D01*
G01X120233Y101808D01*
G01X120129Y101704D01*
G01X119974Y101653D01*
G01X119766Y101653D01*
G01X119611Y101704D01*
G01X119507Y101808D01*
G01X120576Y102743D02*
G01X120837Y101653D01*
G01X121097Y102743D02*
G01X120837Y101653D01*
G01X121097Y102743D02*
G01X121356Y101653D01*
G01X121615Y102743D02*
G01X121356Y101653D01*
G01X122011Y102483D02*
G01X122011Y102537D01*
G01X122062Y102641D01*
G01X122115Y102692D01*
G01X122219Y102743D01*
G01X122428Y102743D01*
G01X122529Y102692D01*
G01X122582Y102641D01*
G01X122633Y102537D01*
G01X122633Y102433D01*
G01X122582Y102328D01*
G01X122478Y102171D01*
G01X121958Y101653D01*
G01X122687Y101653D01*
G01X123134Y102743D02*
G01X123705Y102743D01*
G01X123393Y102328D01*
G01X123548Y102328D01*
G01X123652Y102275D01*
G01X123705Y102224D01*
G01X123756Y102069D01*
G01X123756Y101965D01*
G01X123705Y101808D01*
G01X123601Y101704D01*
G01X123444Y101653D01*
G01X123289Y101653D01*
G01X123134Y101704D01*
G01X123080Y101757D01*
G01X123030Y101861D01*
G01X24975Y87078D02*
G01X24871Y87182D01*
G01X24716Y87233D01*
G01X24508Y87233D01*
G01X24353Y87182D01*
G01X24249Y87078D01*
G01X24249Y86974D01*
G01X24300Y86870D01*
G01X24353Y86819D01*
G01X24457Y86766D01*
G01X24770Y86662D01*
G01X24871Y86611D01*
G01X24925Y86560D01*
G01X24975Y86456D01*
G01X24975Y86299D01*
G01X24871Y86194D01*
G01X24716Y86144D01*
G01X24508Y86144D01*
G01X24353Y86194D01*
G01X24249Y86299D01*
G01X25318Y87233D02*
G01X25580Y86144D01*
G01X25839Y87233D02*
G01X25580Y86144D01*
G01X25839Y87233D02*
G01X26098Y86144D01*
G01X26357Y87233D02*
G01X26098Y86144D01*
G01X26753Y86974D02*
G01X26753Y87028D01*
G01X26804Y87132D01*
G01X26857Y87182D01*
G01X26962Y87233D01*
G01X27170Y87233D01*
G01X27271Y87182D01*
G01X27325Y87132D01*
G01X27376Y87028D01*
G01X27376Y86923D01*
G01X27325Y86819D01*
G01X27221Y86662D01*
G01X26700Y86144D01*
G01X27429Y86144D01*
G01X28290Y87233D02*
G01X27772Y86507D01*
G01X28552Y86507D01*
G01X28290Y87233D02*
G01X28290Y86144D01*
G01X44485Y87078D02*
G01X44381Y87182D01*
G01X44226Y87233D01*
G01X44018Y87233D01*
G01X43863Y87182D01*
G01X43759Y87078D01*
G01X43759Y86974D01*
G01X43809Y86870D01*
G01X43863Y86819D01*
G01X43967Y86766D01*
G01X44279Y86662D01*
G01X44381Y86611D01*
G01X44434Y86560D01*
G01X44485Y86456D01*
G01X44485Y86299D01*
G01X44381Y86194D01*
G01X44226Y86144D01*
G01X44018Y86144D01*
G01X43863Y86194D01*
G01X43759Y86299D01*
G01X44828Y87233D02*
G01X45090Y86144D01*
G01X45349Y87233D02*
G01X45090Y86144D01*
G01X45349Y87233D02*
G01X45608Y86144D01*
G01X45867Y87233D02*
G01X45608Y86144D01*
G01X46263Y86974D02*
G01X46263Y87028D01*
G01X46314Y87132D01*
G01X46367Y87182D01*
G01X46471Y87233D01*
G01X46680Y87233D01*
G01X46781Y87182D01*
G01X46835Y87132D01*
G01X46885Y87028D01*
G01X46885Y86923D01*
G01X46835Y86819D01*
G01X46730Y86662D01*
G01X46210Y86144D01*
G01X46939Y86144D01*
G01X47904Y87233D02*
G01X47386Y87233D01*
G01X47332Y86766D01*
G01X47386Y86819D01*
G01X47541Y86870D01*
G01X47696Y86870D01*
G01X47853Y86819D01*
G01X47957Y86715D01*
G01X48008Y86560D01*
G01X48008Y86456D01*
G01X47957Y86299D01*
G01X47853Y86194D01*
G01X47696Y86144D01*
G01X47541Y86144D01*
G01X47386Y86194D01*
G01X47332Y86248D01*
G01X47282Y86352D01*
G01X24975Y73578D02*
G01X24871Y73682D01*
G01X24716Y73733D01*
G01X24508Y73733D01*
G01X24353Y73682D01*
G01X24249Y73578D01*
G01X24249Y73474D01*
G01X24300Y73370D01*
G01X24353Y73319D01*
G01X24457Y73266D01*
G01X24770Y73162D01*
G01X24871Y73111D01*
G01X24925Y73060D01*
G01X24975Y72956D01*
G01X24975Y72798D01*
G01X24871Y72694D01*
G01X24716Y72644D01*
G01X24508Y72644D01*
G01X24353Y72694D01*
G01X24249Y72798D01*
G01X25318Y73733D02*
G01X25580Y72644D01*
G01X25839Y73733D02*
G01X25580Y72644D01*
G01X25839Y73733D02*
G01X26098Y72644D01*
G01X26357Y73733D02*
G01X26098Y72644D01*
G01X26753Y73474D02*
G01X26753Y73527D01*
G01X26804Y73632D01*
G01X26857Y73682D01*
G01X26962Y73733D01*
G01X27170Y73733D01*
G01X27271Y73682D01*
G01X27325Y73632D01*
G01X27376Y73527D01*
G01X27376Y73423D01*
G01X27325Y73319D01*
G01X27221Y73162D01*
G01X26700Y72644D01*
G01X27429Y72644D01*
G01X28394Y73578D02*
G01X28343Y73682D01*
G01X28186Y73733D01*
G01X28084Y73733D01*
G01X27927Y73682D01*
G01X27823Y73527D01*
G01X27772Y73266D01*
G01X27772Y73007D01*
G01X27823Y72798D01*
G01X27927Y72694D01*
G01X28084Y72644D01*
G01X28135Y72644D01*
G01X28290Y72694D01*
G01X28394Y72798D01*
G01X28448Y72956D01*
G01X28448Y73007D01*
G01X28394Y73162D01*
G01X28290Y73266D01*
G01X28135Y73319D01*
G01X28084Y73319D01*
G01X27927Y73266D01*
G01X27823Y73162D01*
G01X27772Y73007D01*
G01X44485Y73578D02*
G01X44381Y73682D01*
G01X44226Y73733D01*
G01X44018Y73733D01*
G01X43863Y73682D01*
G01X43759Y73578D01*
G01X43759Y73474D01*
G01X43809Y73370D01*
G01X43863Y73319D01*
G01X43967Y73266D01*
G01X44279Y73162D01*
G01X44381Y73111D01*
G01X44434Y73060D01*
G01X44485Y72956D01*
G01X44485Y72798D01*
G01X44381Y72694D01*
G01X44226Y72644D01*
G01X44018Y72644D01*
G01X43863Y72694D01*
G01X43759Y72798D01*
G01X44828Y73733D02*
G01X45090Y72644D01*
G01X45349Y73733D02*
G01X45090Y72644D01*
G01X45349Y73733D02*
G01X45608Y72644D01*
G01X45867Y73733D02*
G01X45608Y72644D01*
G01X46263Y73474D02*
G01X46263Y73527D01*
G01X46314Y73632D01*
G01X46367Y73682D01*
G01X46471Y73733D01*
G01X46680Y73733D01*
G01X46781Y73682D01*
G01X46835Y73632D01*
G01X46885Y73527D01*
G01X46885Y73423D01*
G01X46835Y73319D01*
G01X46730Y73162D01*
G01X46210Y72644D01*
G01X46939Y72644D01*
G01X48008Y73733D02*
G01X47490Y72644D01*
G01X47282Y73733D02*
G01X48008Y73733D01*
G01X64538Y83980D02*
G01X64434Y84084D01*
G01X64279Y84134D01*
G01X64071Y84134D01*
G01X63916Y84084D01*
G01X63812Y83980D01*
G01X63812Y83875D01*
G01X63863Y83771D01*
G01X63916Y83720D01*
G01X64020Y83667D01*
G01X64333Y83563D01*
G01X64434Y83512D01*
G01X64488Y83461D01*
G01X64538Y83357D01*
G01X64538Y83200D01*
G01X64434Y83096D01*
G01X64279Y83045D01*
G01X64071Y83045D01*
G01X63916Y83096D01*
G01X63812Y83200D01*
G01X64881Y84134D02*
G01X65143Y83045D01*
G01X65402Y84134D02*
G01X65143Y83045D01*
G01X65402Y84134D02*
G01X65661Y83045D01*
G01X65920Y84134D02*
G01X65661Y83045D01*
G01X66316Y83875D02*
G01X66316Y83929D01*
G01X66367Y84033D01*
G01X66421Y84084D01*
G01X66525Y84134D01*
G01X66733Y84134D01*
G01X66835Y84084D01*
G01X66888Y84033D01*
G01X66939Y83929D01*
G01X66939Y83825D01*
G01X66888Y83720D01*
G01X66784Y83563D01*
G01X66263Y83045D01*
G01X66992Y83045D01*
G01X67594Y84134D02*
G01X67439Y84084D01*
G01X67386Y83980D01*
G01X67386Y83875D01*
G01X67439Y83771D01*
G01X67543Y83720D01*
G01X67749Y83667D01*
G01X67906Y83616D01*
G01X68011Y83512D01*
G01X68061Y83408D01*
G01X68061Y83253D01*
G01X68011Y83149D01*
G01X67957Y83096D01*
G01X67802Y83045D01*
G01X67594Y83045D01*
G01X67439Y83096D01*
G01X67386Y83149D01*
G01X67335Y83253D01*
G01X67335Y83408D01*
G01X67386Y83512D01*
G01X67490Y83616D01*
G01X67647Y83667D01*
G01X67853Y83720D01*
G01X67957Y83771D01*
G01X68011Y83875D01*
G01X68011Y83980D01*
G01X67957Y84084D01*
G01X67802Y84134D01*
G01X67594Y84134D01*
G01X79435Y83977D02*
G01X79331Y84081D01*
G01X79176Y84132D01*
G01X78968Y84132D01*
G01X78813Y84081D01*
G01X78709Y83977D01*
G01X78709Y83873D01*
G01X78760Y83769D01*
G01X78813Y83718D01*
G01X78917Y83665D01*
G01X79230Y83560D01*
G01X79331Y83510D01*
G01X79385Y83459D01*
G01X79435Y83355D01*
G01X79435Y83197D01*
G01X79331Y83093D01*
G01X79176Y83042D01*
G01X78968Y83042D01*
G01X78813Y83093D01*
G01X78709Y83197D01*
G01X79778Y84132D02*
G01X80040Y83042D01*
G01X80299Y84132D02*
G01X80040Y83042D01*
G01X80299Y84132D02*
G01X80558Y83042D01*
G01X80817Y84132D02*
G01X80558Y83042D01*
G01X81213Y83873D02*
G01X81213Y83926D01*
G01X81264Y84030D01*
G01X81318Y84081D01*
G01X81422Y84132D01*
G01X81630Y84132D01*
G01X81732Y84081D01*
G01X81785Y84030D01*
G01X81836Y83926D01*
G01X81836Y83822D01*
G01X81785Y83718D01*
G01X81681Y83560D01*
G01X81160Y83042D01*
G01X81889Y83042D01*
G01X82908Y83769D02*
G01X82854Y83614D01*
G01X82750Y83510D01*
G01X82595Y83459D01*
G01X82544Y83459D01*
G01X82387Y83510D01*
G01X82283Y83614D01*
G01X82232Y83769D01*
G01X82232Y83822D01*
G01X82283Y83977D01*
G01X82387Y84081D01*
G01X82544Y84132D01*
G01X82595Y84132D01*
G01X82750Y84081D01*
G01X82854Y83977D01*
G01X82908Y83769D01*
G01X82908Y83510D01*
G01X82854Y83251D01*
G01X82750Y83093D01*
G01X82595Y83042D01*
G01X82491Y83042D01*
G01X82336Y83093D01*
G01X82283Y83197D01*
G01X94437Y83977D02*
G01X94333Y84081D01*
G01X94178Y84132D01*
G01X93969Y84132D01*
G01X93814Y84081D01*
G01X93710Y83977D01*
G01X93710Y83873D01*
G01X93761Y83769D01*
G01X93814Y83718D01*
G01X93919Y83665D01*
G01X94231Y83560D01*
G01X94333Y83510D01*
G01X94386Y83459D01*
G01X94437Y83355D01*
G01X94437Y83197D01*
G01X94333Y83093D01*
G01X94178Y83042D01*
G01X93969Y83042D01*
G01X93814Y83093D01*
G01X93710Y83197D01*
G01X94780Y84132D02*
G01X95041Y83042D01*
G01X95300Y84132D02*
G01X95041Y83042D01*
G01X95300Y84132D02*
G01X95559Y83042D01*
G01X95818Y84132D02*
G01X95559Y83042D01*
G01X96266Y84132D02*
G01X96837Y84132D01*
G01X96527Y83718D01*
G01X96682Y83718D01*
G01X96786Y83665D01*
G01X96837Y83614D01*
G01X96890Y83459D01*
G01X96890Y83355D01*
G01X96837Y83197D01*
G01X96733Y83093D01*
G01X96578Y83042D01*
G01X96423Y83042D01*
G01X96266Y83093D01*
G01X96215Y83146D01*
G01X96161Y83251D01*
G01X97546Y84132D02*
G01X97388Y84081D01*
G01X97284Y83926D01*
G01X97233Y83665D01*
G01X97233Y83510D01*
G01X97284Y83251D01*
G01X97388Y83093D01*
G01X97546Y83042D01*
G01X97647Y83042D01*
G01X97805Y83093D01*
G01X97909Y83251D01*
G01X97960Y83510D01*
G01X97960Y83665D01*
G01X97909Y83926D01*
G01X97805Y84081D01*
G01X97647Y84132D01*
G01X97546Y84132D01*
G01X109534Y83977D02*
G01X109430Y84081D01*
G01X109275Y84132D01*
G01X109067Y84132D01*
G01X108912Y84081D01*
G01X108808Y83977D01*
G01X108808Y83873D01*
G01X108859Y83769D01*
G01X108912Y83718D01*
G01X109016Y83665D01*
G01X109329Y83560D01*
G01X109430Y83510D01*
G01X109484Y83459D01*
G01X109534Y83355D01*
G01X109534Y83197D01*
G01X109430Y83093D01*
G01X109275Y83042D01*
G01X109067Y83042D01*
G01X108912Y83093D01*
G01X108808Y83197D01*
G01X109877Y84132D02*
G01X110139Y83042D01*
G01X110398Y84132D02*
G01X110139Y83042D01*
G01X110398Y84132D02*
G01X110657Y83042D01*
G01X110916Y84132D02*
G01X110657Y83042D01*
G01X111363Y84132D02*
G01X111935Y84132D01*
G01X111625Y83718D01*
G01X111780Y83718D01*
G01X111884Y83665D01*
G01X111935Y83614D01*
G01X111988Y83459D01*
G01X111988Y83355D01*
G01X111935Y83197D01*
G01X111831Y83093D01*
G01X111676Y83042D01*
G01X111521Y83042D01*
G01X111363Y83093D01*
G01X111312Y83146D01*
G01X111259Y83251D01*
G01X112331Y83926D02*
G01X112435Y83977D01*
G01X112590Y84132D01*
G01X112590Y83042D01*
G01X124437Y83977D02*
G01X124333Y84081D01*
G01X124178Y84132D01*
G01X123969Y84132D01*
G01X123814Y84081D01*
G01X123710Y83977D01*
G01X123710Y83873D01*
G01X123761Y83769D01*
G01X123814Y83718D01*
G01X123918Y83665D01*
G01X124231Y83560D01*
G01X124333Y83510D01*
G01X124386Y83459D01*
G01X124437Y83355D01*
G01X124437Y83197D01*
G01X124333Y83093D01*
G01X124178Y83042D01*
G01X123969Y83042D01*
G01X123814Y83093D01*
G01X123710Y83197D01*
G01X124780Y84132D02*
G01X125041Y83042D01*
G01X125300Y84132D02*
G01X125041Y83042D01*
G01X125300Y84132D02*
G01X125559Y83042D01*
G01X125818Y84132D02*
G01X125559Y83042D01*
G01X126265Y84132D02*
G01X126837Y84132D01*
G01X126527Y83718D01*
G01X126682Y83718D01*
G01X126786Y83665D01*
G01X126837Y83614D01*
G01X126890Y83459D01*
G01X126890Y83355D01*
G01X126837Y83197D01*
G01X126733Y83093D01*
G01X126578Y83042D01*
G01X126423Y83042D01*
G01X126265Y83093D01*
G01X126215Y83146D01*
G01X126161Y83251D01*
G01X127284Y83873D02*
G01X127284Y83926D01*
G01X127337Y84030D01*
G01X127388Y84081D01*
G01X127492Y84132D01*
G01X127701Y84132D01*
G01X127805Y84081D01*
G01X127855Y84030D01*
G01X127909Y83926D01*
G01X127909Y83822D01*
G01X127855Y83718D01*
G01X127751Y83560D01*
G01X127233Y83042D01*
G01X127960Y83042D01*
G01X64536Y70078D02*
G01X64432Y70182D01*
G01X64277Y70233D01*
G01X64068Y70233D01*
G01X63914Y70182D01*
G01X63809Y70078D01*
G01X63809Y69974D01*
G01X63860Y69870D01*
G01X63914Y69819D01*
G01X64018Y69766D01*
G01X64330Y69662D01*
G01X64432Y69611D01*
G01X64485Y69560D01*
G01X64536Y69456D01*
G01X64536Y69298D01*
G01X64432Y69194D01*
G01X64277Y69143D01*
G01X64068Y69143D01*
G01X63914Y69194D01*
G01X63809Y69298D01*
G01X64879Y70233D02*
G01X65140Y69143D01*
G01X65399Y70233D02*
G01X65140Y69143D01*
G01X65399Y70233D02*
G01X65659Y69143D01*
G01X65918Y70233D02*
G01X65659Y69143D01*
G01X66365Y70233D02*
G01X66936Y70233D01*
G01X66626Y69819D01*
G01X66781Y69819D01*
G01X66885Y69766D01*
G01X66936Y69715D01*
G01X66989Y69560D01*
G01X66989Y69456D01*
G01X66936Y69298D01*
G01X66832Y69194D01*
G01X66677Y69143D01*
G01X66522Y69143D01*
G01X66365Y69194D01*
G01X66314Y69248D01*
G01X66260Y69352D01*
G01X67437Y70233D02*
G01X68008Y70233D01*
G01X67696Y69819D01*
G01X67851Y69819D01*
G01X67955Y69766D01*
G01X68008Y69715D01*
G01X68059Y69560D01*
G01X68059Y69456D01*
G01X68008Y69298D01*
G01X67904Y69194D01*
G01X67746Y69143D01*
G01X67591Y69143D01*
G01X67437Y69194D01*
G01X67383Y69248D01*
G01X67332Y69352D01*
G01X79435Y70078D02*
G01X79331Y70182D01*
G01X79176Y70233D01*
G01X78968Y70233D01*
G01X78813Y70182D01*
G01X78709Y70078D01*
G01X78709Y69974D01*
G01X78760Y69870D01*
G01X78813Y69819D01*
G01X78917Y69766D01*
G01X79230Y69662D01*
G01X79331Y69611D01*
G01X79385Y69560D01*
G01X79435Y69456D01*
G01X79435Y69298D01*
G01X79331Y69194D01*
G01X79176Y69143D01*
G01X78968Y69143D01*
G01X78813Y69194D01*
G01X78709Y69298D01*
G01X79778Y70233D02*
G01X80040Y69143D01*
G01X80299Y70233D02*
G01X80040Y69143D01*
G01X80299Y70233D02*
G01X80558Y69143D01*
G01X80817Y70233D02*
G01X80558Y69143D01*
G01X81264Y70233D02*
G01X81836Y70233D01*
G01X81526Y69819D01*
G01X81681Y69819D01*
G01X81785Y69766D01*
G01X81836Y69715D01*
G01X81889Y69560D01*
G01X81889Y69456D01*
G01X81836Y69298D01*
G01X81732Y69194D01*
G01X81577Y69143D01*
G01X81422Y69143D01*
G01X81264Y69194D01*
G01X81213Y69248D01*
G01X81160Y69352D01*
G01X82750Y70233D02*
G01X82232Y69507D01*
G01X83012Y69507D01*
G01X82750Y70233D02*
G01X82750Y69143D01*
G01X94437Y70078D02*
G01X94333Y70182D01*
G01X94178Y70233D01*
G01X93969Y70233D01*
G01X93814Y70182D01*
G01X93710Y70078D01*
G01X93710Y69974D01*
G01X93761Y69870D01*
G01X93814Y69819D01*
G01X93919Y69766D01*
G01X94231Y69662D01*
G01X94333Y69611D01*
G01X94386Y69560D01*
G01X94437Y69456D01*
G01X94437Y69298D01*
G01X94333Y69194D01*
G01X94178Y69143D01*
G01X93969Y69143D01*
G01X93814Y69194D01*
G01X93710Y69298D01*
G01X94780Y70233D02*
G01X95041Y69143D01*
G01X95300Y70233D02*
G01X95041Y69143D01*
G01X95300Y70233D02*
G01X95559Y69143D01*
G01X95818Y70233D02*
G01X95559Y69143D01*
G01X96266Y70233D02*
G01X96837Y70233D01*
G01X96527Y69819D01*
G01X96682Y69819D01*
G01X96786Y69766D01*
G01X96837Y69715D01*
G01X96890Y69560D01*
G01X96890Y69456D01*
G01X96837Y69298D01*
G01X96733Y69194D01*
G01X96578Y69143D01*
G01X96423Y69143D01*
G01X96266Y69194D01*
G01X96215Y69248D01*
G01X96161Y69352D01*
G01X97856Y70233D02*
G01X97337Y70233D01*
G01X97284Y69766D01*
G01X97337Y69819D01*
G01X97492Y69870D01*
G01X97647Y69870D01*
G01X97805Y69819D01*
G01X97909Y69715D01*
G01X97960Y69560D01*
G01X97960Y69456D01*
G01X97909Y69298D01*
G01X97805Y69194D01*
G01X97647Y69143D01*
G01X97492Y69143D01*
G01X97337Y69194D01*
G01X97284Y69248D01*
G01X97233Y69352D01*
G01X109534Y70078D02*
G01X109430Y70182D01*
G01X109275Y70233D01*
G01X109067Y70233D01*
G01X108912Y70182D01*
G01X108808Y70078D01*
G01X108808Y69974D01*
G01X108859Y69870D01*
G01X108912Y69819D01*
G01X109016Y69766D01*
G01X109329Y69662D01*
G01X109430Y69611D01*
G01X109484Y69560D01*
G01X109534Y69456D01*
G01X109534Y69298D01*
G01X109430Y69194D01*
G01X109275Y69143D01*
G01X109067Y69143D01*
G01X108912Y69194D01*
G01X108808Y69298D01*
G01X109877Y70233D02*
G01X110139Y69143D01*
G01X110398Y70233D02*
G01X110139Y69143D01*
G01X110398Y70233D02*
G01X110657Y69143D01*
G01X110916Y70233D02*
G01X110657Y69143D01*
G01X111363Y70233D02*
G01X111935Y70233D01*
G01X111625Y69819D01*
G01X111780Y69819D01*
G01X111884Y69766D01*
G01X111935Y69715D01*
G01X111988Y69560D01*
G01X111988Y69456D01*
G01X111935Y69298D01*
G01X111831Y69194D01*
G01X111676Y69143D01*
G01X111521Y69143D01*
G01X111363Y69194D01*
G01X111312Y69248D01*
G01X111259Y69352D01*
G01X112953Y70078D02*
G01X112903Y70182D01*
G01X112745Y70233D01*
G01X112643Y70233D01*
G01X112486Y70182D01*
G01X112382Y70027D01*
G01X112331Y69766D01*
G01X112331Y69507D01*
G01X112382Y69298D01*
G01X112486Y69194D01*
G01X112643Y69143D01*
G01X112694Y69143D01*
G01X112849Y69194D01*
G01X112953Y69298D01*
G01X113007Y69456D01*
G01X113007Y69507D01*
G01X112953Y69662D01*
G01X112849Y69766D01*
G01X112694Y69819D01*
G01X112643Y69819D01*
G01X112486Y69766D01*
G01X112382Y69662D01*
G01X112331Y69507D01*
G01X124437Y70078D02*
G01X124333Y70182D01*
G01X124178Y70233D01*
G01X123969Y70233D01*
G01X123814Y70182D01*
G01X123710Y70078D01*
G01X123710Y69974D01*
G01X123761Y69870D01*
G01X123814Y69819D01*
G01X123918Y69766D01*
G01X124231Y69662D01*
G01X124333Y69611D01*
G01X124386Y69560D01*
G01X124437Y69456D01*
G01X124437Y69298D01*
G01X124333Y69194D01*
G01X124178Y69143D01*
G01X123969Y69143D01*
G01X123814Y69194D01*
G01X123710Y69298D01*
G01X124780Y70233D02*
G01X125041Y69143D01*
G01X125300Y70233D02*
G01X125041Y69143D01*
G01X125300Y70233D02*
G01X125559Y69143D01*
G01X125818Y70233D02*
G01X125559Y69143D01*
G01X126265Y70233D02*
G01X126837Y70233D01*
G01X126527Y69819D01*
G01X126682Y69819D01*
G01X126786Y69766D01*
G01X126837Y69715D01*
G01X126890Y69560D01*
G01X126890Y69456D01*
G01X126837Y69298D01*
G01X126733Y69194D01*
G01X126578Y69143D01*
G01X126423Y69143D01*
G01X126265Y69194D01*
G01X126215Y69248D01*
G01X126161Y69352D01*
G01X127960Y70233D02*
G01X127441Y69143D01*
G01X127233Y70233D02*
G01X127960Y70233D01*
G01X64536Y56078D02*
G01X64432Y56182D01*
G01X64277Y56233D01*
G01X64068Y56233D01*
G01X63914Y56182D01*
G01X63809Y56078D01*
G01X63809Y55973D01*
G01X63860Y55869D01*
G01X63914Y55819D01*
G01X64018Y55765D01*
G01X64330Y55661D01*
G01X64432Y55610D01*
G01X64485Y55559D01*
G01X64536Y55455D01*
G01X64536Y55298D01*
G01X64432Y55194D01*
G01X64277Y55143D01*
G01X64068Y55143D01*
G01X63914Y55194D01*
G01X63809Y55298D01*
G01X64879Y56233D02*
G01X65140Y55143D01*
G01X65399Y56233D02*
G01X65140Y55143D01*
G01X65399Y56233D02*
G01X65659Y55143D01*
G01X65918Y56233D02*
G01X65659Y55143D01*
G01X66365Y56233D02*
G01X66936Y56233D01*
G01X66626Y55819D01*
G01X66781Y55819D01*
G01X66885Y55765D01*
G01X66936Y55714D01*
G01X66989Y55559D01*
G01X66989Y55455D01*
G01X66936Y55298D01*
G01X66832Y55194D01*
G01X66677Y55143D01*
G01X66522Y55143D01*
G01X66365Y55194D01*
G01X66314Y55247D01*
G01X66260Y55351D01*
G01X67591Y56233D02*
G01X67437Y56182D01*
G01X67383Y56078D01*
G01X67383Y55973D01*
G01X67437Y55869D01*
G01X67541Y55819D01*
G01X67746Y55765D01*
G01X67904Y55714D01*
G01X68008Y55610D01*
G01X68059Y55506D01*
G01X68059Y55351D01*
G01X68008Y55247D01*
G01X67955Y55194D01*
G01X67800Y55143D01*
G01X67591Y55143D01*
G01X67437Y55194D01*
G01X67383Y55247D01*
G01X67332Y55351D01*
G01X67332Y55506D01*
G01X67383Y55610D01*
G01X67487Y55714D01*
G01X67645Y55765D01*
G01X67851Y55819D01*
G01X67955Y55869D01*
G01X68008Y55973D01*
G01X68008Y56078D01*
G01X67955Y56182D01*
G01X67800Y56233D01*
G01X67591Y56233D01*
G01X79435Y56078D02*
G01X79331Y56182D01*
G01X79176Y56233D01*
G01X78968Y56233D01*
G01X78813Y56182D01*
G01X78709Y56078D01*
G01X78709Y55973D01*
G01X78760Y55869D01*
G01X78813Y55819D01*
G01X78917Y55765D01*
G01X79230Y55661D01*
G01X79331Y55610D01*
G01X79385Y55559D01*
G01X79435Y55455D01*
G01X79435Y55298D01*
G01X79331Y55194D01*
G01X79176Y55143D01*
G01X78968Y55143D01*
G01X78813Y55194D01*
G01X78709Y55298D01*
G01X79778Y56233D02*
G01X80040Y55143D01*
G01X80299Y56233D02*
G01X80040Y55143D01*
G01X80299Y56233D02*
G01X80558Y55143D01*
G01X80817Y56233D02*
G01X80558Y55143D01*
G01X81264Y56233D02*
G01X81836Y56233D01*
G01X81526Y55819D01*
G01X81681Y55819D01*
G01X81785Y55765D01*
G01X81836Y55714D01*
G01X81889Y55559D01*
G01X81889Y55455D01*
G01X81836Y55298D01*
G01X81732Y55194D01*
G01X81577Y55143D01*
G01X81422Y55143D01*
G01X81264Y55194D01*
G01X81213Y55247D01*
G01X81160Y55351D01*
G01X82908Y55869D02*
G01X82854Y55714D01*
G01X82750Y55610D01*
G01X82595Y55559D01*
G01X82544Y55559D01*
G01X82387Y55610D01*
G01X82283Y55714D01*
G01X82232Y55869D01*
G01X82232Y55923D01*
G01X82283Y56078D01*
G01X82387Y56182D01*
G01X82544Y56233D01*
G01X82595Y56233D01*
G01X82750Y56182D01*
G01X82854Y56078D01*
G01X82908Y55869D01*
G01X82908Y55610D01*
G01X82854Y55351D01*
G01X82750Y55194D01*
G01X82595Y55143D01*
G01X82491Y55143D01*
G01X82336Y55194D01*
G01X82283Y55298D01*
G01X94437Y56078D02*
G01X94333Y56182D01*
G01X94178Y56233D01*
G01X93969Y56233D01*
G01X93814Y56182D01*
G01X93710Y56078D01*
G01X93710Y55973D01*
G01X93761Y55869D01*
G01X93814Y55819D01*
G01X93919Y55765D01*
G01X94231Y55661D01*
G01X94333Y55610D01*
G01X94386Y55559D01*
G01X94437Y55455D01*
G01X94437Y55298D01*
G01X94333Y55194D01*
G01X94178Y55143D01*
G01X93969Y55143D01*
G01X93814Y55194D01*
G01X93710Y55298D01*
G01X94780Y56233D02*
G01X95041Y55143D01*
G01X95300Y56233D02*
G01X95041Y55143D01*
G01X95300Y56233D02*
G01X95559Y55143D01*
G01X95818Y56233D02*
G01X95559Y55143D01*
G01X96682Y56233D02*
G01X96161Y55506D01*
G01X96941Y55506D01*
G01X96682Y56233D02*
G01X96682Y55143D01*
G01X97596Y56233D02*
G01X97442Y56182D01*
G01X97337Y56027D01*
G01X97284Y55765D01*
G01X97284Y55610D01*
G01X97337Y55351D01*
G01X97442Y55194D01*
G01X97596Y55143D01*
G01X97701Y55143D01*
G01X97856Y55194D01*
G01X97960Y55351D01*
G01X98013Y55610D01*
G01X98013Y55765D01*
G01X97960Y56027D01*
G01X97856Y56182D01*
G01X97701Y56233D01*
G01X97596Y56233D01*
G01X109534Y56078D02*
G01X109430Y56182D01*
G01X109275Y56233D01*
G01X109067Y56233D01*
G01X108912Y56182D01*
G01X108808Y56078D01*
G01X108808Y55973D01*
G01X108859Y55869D01*
G01X108912Y55819D01*
G01X109016Y55765D01*
G01X109329Y55661D01*
G01X109430Y55610D01*
G01X109484Y55559D01*
G01X109534Y55455D01*
G01X109534Y55298D01*
G01X109430Y55194D01*
G01X109275Y55143D01*
G01X109067Y55143D01*
G01X108912Y55194D01*
G01X108808Y55298D01*
G01X109877Y56233D02*
G01X110139Y55143D01*
G01X110398Y56233D02*
G01X110139Y55143D01*
G01X110398Y56233D02*
G01X110657Y55143D01*
G01X110916Y56233D02*
G01X110657Y55143D01*
G01X111780Y56233D02*
G01X111259Y55506D01*
G01X112039Y55506D01*
G01X111780Y56233D02*
G01X111780Y55143D01*
G01X112382Y56027D02*
G01X112486Y56078D01*
G01X112643Y56233D01*
G01X112643Y55143D01*
G01X124437Y56078D02*
G01X124333Y56182D01*
G01X124178Y56233D01*
G01X123969Y56233D01*
G01X123814Y56182D01*
G01X123710Y56078D01*
G01X123710Y55973D01*
G01X123761Y55869D01*
G01X123814Y55819D01*
G01X123918Y55765D01*
G01X124231Y55661D01*
G01X124333Y55610D01*
G01X124386Y55559D01*
G01X124437Y55455D01*
G01X124437Y55298D01*
G01X124333Y55194D01*
G01X124178Y55143D01*
G01X123969Y55143D01*
G01X123814Y55194D01*
G01X123710Y55298D01*
G01X124780Y56233D02*
G01X125041Y55143D01*
G01X125300Y56233D02*
G01X125041Y55143D01*
G01X125300Y56233D02*
G01X125559Y55143D01*
G01X125818Y56233D02*
G01X125559Y55143D01*
G01X126682Y56233D02*
G01X126161Y55506D01*
G01X126941Y55506D01*
G01X126682Y56233D02*
G01X126682Y55143D01*
G01X127337Y55973D02*
G01X127337Y56027D01*
G01X127388Y56131D01*
G01X127441Y56182D01*
G01X127546Y56233D01*
G01X127751Y56233D01*
G01X127855Y56182D01*
G01X127909Y56131D01*
G01X127960Y56027D01*
G01X127960Y55923D01*
G01X127909Y55819D01*
G01X127805Y55661D01*
G01X127284Y55143D01*
G01X128013Y55143D01*
G01X64536Y42077D02*
G01X64432Y42181D01*
G01X64277Y42232D01*
G01X64068Y42232D01*
G01X63914Y42181D01*
G01X63809Y42077D01*
G01X63809Y41973D01*
G01X63860Y41869D01*
G01X63914Y41818D01*
G01X64018Y41765D01*
G01X64330Y41661D01*
G01X64432Y41610D01*
G01X64485Y41559D01*
G01X64536Y41455D01*
G01X64536Y41297D01*
G01X64432Y41193D01*
G01X64277Y41142D01*
G01X64068Y41142D01*
G01X63914Y41193D01*
G01X63809Y41297D01*
G01X64879Y42232D02*
G01X65140Y41142D01*
G01X65399Y42232D02*
G01X65140Y41142D01*
G01X65399Y42232D02*
G01X65659Y41142D01*
G01X65918Y42232D02*
G01X65659Y41142D01*
G01X66781Y42232D02*
G01X66260Y41506D01*
G01X67040Y41506D01*
G01X66781Y42232D02*
G01X66781Y41142D01*
G01X67487Y42232D02*
G01X68059Y42232D01*
G01X67746Y41818D01*
G01X67904Y41818D01*
G01X68008Y41765D01*
G01X68059Y41714D01*
G01X68112Y41559D01*
G01X68112Y41455D01*
G01X68059Y41297D01*
G01X67955Y41193D01*
G01X67800Y41142D01*
G01X67645Y41142D01*
G01X67487Y41193D01*
G01X67437Y41247D01*
G01X67383Y41351D01*
G01X79435Y42077D02*
G01X79331Y42181D01*
G01X79176Y42232D01*
G01X78968Y42232D01*
G01X78813Y42181D01*
G01X78709Y42077D01*
G01X78709Y41973D01*
G01X78760Y41869D01*
G01X78813Y41818D01*
G01X78917Y41765D01*
G01X79230Y41661D01*
G01X79331Y41610D01*
G01X79385Y41559D01*
G01X79435Y41455D01*
G01X79435Y41297D01*
G01X79331Y41193D01*
G01X79176Y41142D01*
G01X78968Y41142D01*
G01X78813Y41193D01*
G01X78709Y41297D01*
G01X79778Y42232D02*
G01X80040Y41142D01*
G01X80299Y42232D02*
G01X80040Y41142D01*
G01X80299Y42232D02*
G01X80558Y41142D01*
G01X80817Y42232D02*
G01X80558Y41142D01*
G01X81681Y42232D02*
G01X81160Y41506D01*
G01X81940Y41506D01*
G01X81681Y42232D02*
G01X81681Y41142D01*
G01X82804Y42232D02*
G01X82283Y41506D01*
G01X83063Y41506D01*
G01X82804Y42232D02*
G01X82804Y41142D01*
G01X94437Y42077D02*
G01X94333Y42181D01*
G01X94178Y42232D01*
G01X93969Y42232D01*
G01X93814Y42181D01*
G01X93710Y42077D01*
G01X93710Y41973D01*
G01X93761Y41869D01*
G01X93814Y41818D01*
G01X93919Y41765D01*
G01X94231Y41661D01*
G01X94333Y41610D01*
G01X94386Y41559D01*
G01X94437Y41455D01*
G01X94437Y41297D01*
G01X94333Y41193D01*
G01X94178Y41142D01*
G01X93969Y41142D01*
G01X93814Y41193D01*
G01X93710Y41297D01*
G01X94780Y42232D02*
G01X95041Y41142D01*
G01X95300Y42232D02*
G01X95041Y41142D01*
G01X95300Y42232D02*
G01X95559Y41142D01*
G01X95818Y42232D02*
G01X95559Y41142D01*
G01X96682Y42232D02*
G01X96161Y41506D01*
G01X96941Y41506D01*
G01X96682Y42232D02*
G01X96682Y41142D01*
G01X97909Y42232D02*
G01X97388Y42232D01*
G01X97337Y41765D01*
G01X97388Y41818D01*
G01X97546Y41869D01*
G01X97701Y41869D01*
G01X97856Y41818D01*
G01X97960Y41714D01*
G01X98013Y41559D01*
G01X98013Y41455D01*
G01X97960Y41297D01*
G01X97856Y41193D01*
G01X97701Y41142D01*
G01X97546Y41142D01*
G01X97388Y41193D01*
G01X97337Y41247D01*
G01X97284Y41351D01*
G01X109534Y42077D02*
G01X109430Y42181D01*
G01X109275Y42232D01*
G01X109067Y42232D01*
G01X108912Y42181D01*
G01X108808Y42077D01*
G01X108808Y41973D01*
G01X108859Y41869D01*
G01X108912Y41818D01*
G01X109016Y41765D01*
G01X109329Y41661D01*
G01X109430Y41610D01*
G01X109484Y41559D01*
G01X109534Y41455D01*
G01X109534Y41297D01*
G01X109430Y41193D01*
G01X109275Y41142D01*
G01X109067Y41142D01*
G01X108912Y41193D01*
G01X108808Y41297D01*
G01X109877Y42232D02*
G01X110139Y41142D01*
G01X110398Y42232D02*
G01X110139Y41142D01*
G01X110398Y42232D02*
G01X110657Y41142D01*
G01X110916Y42232D02*
G01X110657Y41142D01*
G01X111780Y42232D02*
G01X111259Y41506D01*
G01X112039Y41506D01*
G01X111780Y42232D02*
G01X111780Y41142D01*
G01X113007Y42077D02*
G01X112953Y42181D01*
G01X112798Y42232D01*
G01X112694Y42232D01*
G01X112539Y42181D01*
G01X112435Y42026D01*
G01X112382Y41765D01*
G01X112382Y41506D01*
G01X112435Y41297D01*
G01X112539Y41193D01*
G01X112694Y41142D01*
G01X112745Y41142D01*
G01X112903Y41193D01*
G01X113007Y41297D01*
G01X113057Y41455D01*
G01X113057Y41506D01*
G01X113007Y41661D01*
G01X112903Y41765D01*
G01X112745Y41818D01*
G01X112694Y41818D01*
G01X112539Y41765D01*
G01X112435Y41661D01*
G01X112382Y41506D01*
G01X124437Y42077D02*
G01X124333Y42181D01*
G01X124178Y42232D01*
G01X123969Y42232D01*
G01X123814Y42181D01*
G01X123710Y42077D01*
G01X123710Y41973D01*
G01X123761Y41869D01*
G01X123814Y41818D01*
G01X123918Y41765D01*
G01X124231Y41661D01*
G01X124333Y41610D01*
G01X124386Y41559D01*
G01X124437Y41455D01*
G01X124437Y41297D01*
G01X124333Y41193D01*
G01X124178Y41142D01*
G01X123969Y41142D01*
G01X123814Y41193D01*
G01X123710Y41297D01*
G01X124780Y42232D02*
G01X125041Y41142D01*
G01X125300Y42232D02*
G01X125041Y41142D01*
G01X125300Y42232D02*
G01X125559Y41142D01*
G01X125818Y42232D02*
G01X125559Y41142D01*
G01X126682Y42232D02*
G01X126161Y41506D01*
G01X126941Y41506D01*
G01X126682Y42232D02*
G01X126682Y41142D01*
G01X128013Y42232D02*
G01X127492Y41142D01*
G01X127284Y42232D02*
G01X128013Y42232D01*
G01X64536Y28077D02*
G01X64432Y28181D01*
G01X64277Y28232D01*
G01X64068Y28232D01*
G01X63914Y28181D01*
G01X63809Y28077D01*
G01X63809Y27973D01*
G01X63860Y27868D01*
G01X63914Y27818D01*
G01X64018Y27764D01*
G01X64330Y27660D01*
G01X64432Y27609D01*
G01X64485Y27559D01*
G01X64536Y27454D01*
G01X64536Y27297D01*
G01X64432Y27193D01*
G01X64277Y27142D01*
G01X64068Y27142D01*
G01X63914Y27193D01*
G01X63809Y27297D01*
G01X64879Y28232D02*
G01X65140Y27142D01*
G01X65399Y28232D02*
G01X65140Y27142D01*
G01X65399Y28232D02*
G01X65659Y27142D01*
G01X65918Y28232D02*
G01X65659Y27142D01*
G01X66781Y28232D02*
G01X66260Y27505D01*
G01X67040Y27505D01*
G01X66781Y28232D02*
G01X66781Y27142D01*
G01X67645Y28232D02*
G01X67487Y28181D01*
G01X67437Y28077D01*
G01X67437Y27973D01*
G01X67487Y27868D01*
G01X67591Y27818D01*
G01X67800Y27764D01*
G01X67955Y27713D01*
G01X68059Y27609D01*
G01X68112Y27505D01*
G01X68112Y27350D01*
G01X68059Y27246D01*
G01X68008Y27193D01*
G01X67851Y27142D01*
G01X67645Y27142D01*
G01X67487Y27193D01*
G01X67437Y27246D01*
G01X67383Y27350D01*
G01X67383Y27505D01*
G01X67437Y27609D01*
G01X67541Y27713D01*
G01X67696Y27764D01*
G01X67904Y27818D01*
G01X68008Y27868D01*
G01X68059Y27973D01*
G01X68059Y28077D01*
G01X68008Y28181D01*
G01X67851Y28232D01*
G01X67645Y28232D01*
G01X79435Y28077D02*
G01X79331Y28181D01*
G01X79176Y28232D01*
G01X78968Y28232D01*
G01X78813Y28181D01*
G01X78709Y28077D01*
G01X78709Y27973D01*
G01X78760Y27868D01*
G01X78813Y27818D01*
G01X78917Y27764D01*
G01X79230Y27660D01*
G01X79331Y27609D01*
G01X79385Y27559D01*
G01X79435Y27454D01*
G01X79435Y27297D01*
G01X79331Y27193D01*
G01X79176Y27142D01*
G01X78968Y27142D01*
G01X78813Y27193D01*
G01X78709Y27297D01*
G01X79778Y28232D02*
G01X80040Y27142D01*
G01X80299Y28232D02*
G01X80040Y27142D01*
G01X80299Y28232D02*
G01X80558Y27142D01*
G01X80817Y28232D02*
G01X80558Y27142D01*
G01X81681Y28232D02*
G01X81160Y27505D01*
G01X81940Y27505D01*
G01X81681Y28232D02*
G01X81681Y27142D01*
G01X82958Y27868D02*
G01X82908Y27713D01*
G01X82804Y27609D01*
G01X82646Y27559D01*
G01X82595Y27559D01*
G01X82440Y27609D01*
G01X82336Y27713D01*
G01X82283Y27868D01*
G01X82283Y27922D01*
G01X82336Y28077D01*
G01X82440Y28181D01*
G01X82595Y28232D01*
G01X82646Y28232D01*
G01X82804Y28181D01*
G01X82908Y28077D01*
G01X82958Y27868D01*
G01X82958Y27609D01*
G01X82908Y27350D01*
G01X82804Y27193D01*
G01X82646Y27142D01*
G01X82544Y27142D01*
G01X82387Y27193D01*
G01X82336Y27297D01*
G01X94437Y28077D02*
G01X94333Y28181D01*
G01X94178Y28232D01*
G01X93969Y28232D01*
G01X93814Y28181D01*
G01X93710Y28077D01*
G01X93710Y27973D01*
G01X93761Y27868D01*
G01X93814Y27818D01*
G01X93919Y27764D01*
G01X94231Y27660D01*
G01X94333Y27609D01*
G01X94386Y27559D01*
G01X94437Y27454D01*
G01X94437Y27297D01*
G01X94333Y27193D01*
G01X94178Y27142D01*
G01X93969Y27142D01*
G01X93814Y27193D01*
G01X93710Y27297D01*
G01X94780Y28232D02*
G01X95041Y27142D01*
G01X95300Y28232D02*
G01X95041Y27142D01*
G01X95300Y28232D02*
G01X95559Y27142D01*
G01X95818Y28232D02*
G01X95559Y27142D01*
G01X96786Y28232D02*
G01X96266Y28232D01*
G01X96215Y27764D01*
G01X96266Y27818D01*
G01X96423Y27868D01*
G01X96578Y27868D01*
G01X96733Y27818D01*
G01X96837Y27713D01*
G01X96890Y27559D01*
G01X96890Y27454D01*
G01X96837Y27297D01*
G01X96733Y27193D01*
G01X96578Y27142D01*
G01X96423Y27142D01*
G01X96266Y27193D01*
G01X96215Y27246D01*
G01X96161Y27350D01*
G01X97546Y28232D02*
G01X97388Y28181D01*
G01X97284Y28026D01*
G01X97233Y27764D01*
G01X97233Y27609D01*
G01X97284Y27350D01*
G01X97388Y27193D01*
G01X97546Y27142D01*
G01X97647Y27142D01*
G01X97805Y27193D01*
G01X97909Y27350D01*
G01X97960Y27609D01*
G01X97960Y27764D01*
G01X97909Y28026D01*
G01X97805Y28181D01*
G01X97647Y28232D01*
G01X97546Y28232D01*
G01X109534Y28077D02*
G01X109430Y28181D01*
G01X109275Y28232D01*
G01X109067Y28232D01*
G01X108912Y28181D01*
G01X108808Y28077D01*
G01X108808Y27973D01*
G01X108859Y27868D01*
G01X108912Y27818D01*
G01X109016Y27764D01*
G01X109329Y27660D01*
G01X109430Y27609D01*
G01X109484Y27559D01*
G01X109534Y27454D01*
G01X109534Y27297D01*
G01X109430Y27193D01*
G01X109275Y27142D01*
G01X109067Y27142D01*
G01X108912Y27193D01*
G01X108808Y27297D01*
G01X109877Y28232D02*
G01X110139Y27142D01*
G01X110398Y28232D02*
G01X110139Y27142D01*
G01X110398Y28232D02*
G01X110657Y27142D01*
G01X110916Y28232D02*
G01X110657Y27142D01*
G01X111884Y28232D02*
G01X111363Y28232D01*
G01X111312Y27764D01*
G01X111363Y27818D01*
G01X111521Y27868D01*
G01X111676Y27868D01*
G01X111831Y27818D01*
G01X111935Y27713D01*
G01X111988Y27559D01*
G01X111988Y27454D01*
G01X111935Y27297D01*
G01X111831Y27193D01*
G01X111676Y27142D01*
G01X111521Y27142D01*
G01X111363Y27193D01*
G01X111312Y27246D01*
G01X111259Y27350D01*
G01X112331Y28026D02*
G01X112435Y28077D01*
G01X112590Y28232D01*
G01X112590Y27142D01*
G01X124437Y28077D02*
G01X124333Y28181D01*
G01X124178Y28232D01*
G01X123969Y28232D01*
G01X123814Y28181D01*
G01X123710Y28077D01*
G01X123710Y27973D01*
G01X123761Y27868D01*
G01X123814Y27818D01*
G01X123918Y27764D01*
G01X124231Y27660D01*
G01X124333Y27609D01*
G01X124386Y27559D01*
G01X124437Y27454D01*
G01X124437Y27297D01*
G01X124333Y27193D01*
G01X124178Y27142D01*
G01X123969Y27142D01*
G01X123814Y27193D01*
G01X123710Y27297D01*
G01X124780Y28232D02*
G01X125041Y27142D01*
G01X125300Y28232D02*
G01X125041Y27142D01*
G01X125300Y28232D02*
G01X125559Y27142D01*
G01X125818Y28232D02*
G01X125559Y27142D01*
G01X126786Y28232D02*
G01X126265Y28232D01*
G01X126215Y27764D01*
G01X126265Y27818D01*
G01X126423Y27868D01*
G01X126578Y27868D01*
G01X126733Y27818D01*
G01X126837Y27713D01*
G01X126890Y27559D01*
G01X126890Y27454D01*
G01X126837Y27297D01*
G01X126733Y27193D01*
G01X126578Y27142D01*
G01X126423Y27142D01*
G01X126265Y27193D01*
G01X126215Y27246D01*
G01X126161Y27350D01*
G01X127284Y27973D02*
G01X127284Y28026D01*
G01X127337Y28130D01*
G01X127388Y28181D01*
G01X127492Y28232D01*
G01X127701Y28232D01*
G01X127805Y28181D01*
G01X127855Y28130D01*
G01X127909Y28026D01*
G01X127909Y27922D01*
G01X127855Y27818D01*
G01X127751Y27660D01*
G01X127233Y27142D01*
G01X127960Y27142D01*
G01X64536Y13078D02*
G01X64432Y13182D01*
G01X64277Y13233D01*
G01X64068Y13233D01*
G01X63914Y13182D01*
G01X63809Y13078D01*
G01X63809Y12974D01*
G01X63860Y12870D01*
G01X63914Y12819D01*
G01X64018Y12766D01*
G01X64330Y12661D01*
G01X64432Y12611D01*
G01X64485Y12560D01*
G01X64536Y12456D01*
G01X64536Y12298D01*
G01X64432Y12194D01*
G01X64277Y12143D01*
G01X64068Y12143D01*
G01X63914Y12194D01*
G01X63809Y12298D01*
G01X64879Y13233D02*
G01X65140Y12143D01*
G01X65399Y13233D02*
G01X65140Y12143D01*
G01X65399Y13233D02*
G01X65659Y12143D01*
G01X65918Y13233D02*
G01X65659Y12143D01*
G01X66885Y13233D02*
G01X66365Y13233D01*
G01X66314Y12766D01*
G01X66365Y12819D01*
G01X66522Y12870D01*
G01X66677Y12870D01*
G01X66832Y12819D01*
G01X66936Y12715D01*
G01X66989Y12560D01*
G01X66989Y12456D01*
G01X66936Y12298D01*
G01X66832Y12194D01*
G01X66677Y12143D01*
G01X66522Y12143D01*
G01X66365Y12194D01*
G01X66314Y12247D01*
G01X66260Y12352D01*
G01X67437Y13233D02*
G01X68008Y13233D01*
G01X67696Y12819D01*
G01X67851Y12819D01*
G01X67955Y12766D01*
G01X68008Y12715D01*
G01X68059Y12560D01*
G01X68059Y12456D01*
G01X68008Y12298D01*
G01X67904Y12194D01*
G01X67746Y12143D01*
G01X67591Y12143D01*
G01X67437Y12194D01*
G01X67383Y12247D01*
G01X67332Y12352D01*
G01X79435Y13078D02*
G01X79331Y13182D01*
G01X79176Y13233D01*
G01X78968Y13233D01*
G01X78813Y13182D01*
G01X78709Y13078D01*
G01X78709Y12974D01*
G01X78760Y12870D01*
G01X78813Y12819D01*
G01X78917Y12766D01*
G01X79230Y12661D01*
G01X79331Y12611D01*
G01X79385Y12560D01*
G01X79435Y12456D01*
G01X79435Y12298D01*
G01X79331Y12194D01*
G01X79176Y12143D01*
G01X78968Y12143D01*
G01X78813Y12194D01*
G01X78709Y12298D01*
G01X79778Y13233D02*
G01X80040Y12143D01*
G01X80299Y13233D02*
G01X80040Y12143D01*
G01X80299Y13233D02*
G01X80558Y12143D01*
G01X80817Y13233D02*
G01X80558Y12143D01*
G01X81785Y13233D02*
G01X81264Y13233D01*
G01X81213Y12766D01*
G01X81264Y12819D01*
G01X81422Y12870D01*
G01X81577Y12870D01*
G01X81732Y12819D01*
G01X81836Y12715D01*
G01X81889Y12560D01*
G01X81889Y12456D01*
G01X81836Y12298D01*
G01X81732Y12194D01*
G01X81577Y12143D01*
G01X81422Y12143D01*
G01X81264Y12194D01*
G01X81213Y12247D01*
G01X81160Y12352D01*
G01X82750Y13233D02*
G01X82232Y12506D01*
G01X83012Y12506D01*
G01X82750Y13233D02*
G01X82750Y12143D01*
G01X94437Y13078D02*
G01X94333Y13182D01*
G01X94178Y13233D01*
G01X93969Y13233D01*
G01X93814Y13182D01*
G01X93710Y13078D01*
G01X93710Y12974D01*
G01X93761Y12870D01*
G01X93814Y12819D01*
G01X93919Y12766D01*
G01X94231Y12661D01*
G01X94333Y12611D01*
G01X94386Y12560D01*
G01X94437Y12456D01*
G01X94437Y12298D01*
G01X94333Y12194D01*
G01X94178Y12143D01*
G01X93969Y12143D01*
G01X93814Y12194D01*
G01X93710Y12298D01*
G01X94780Y13233D02*
G01X95041Y12143D01*
G01X95300Y13233D02*
G01X95041Y12143D01*
G01X95300Y13233D02*
G01X95559Y12143D01*
G01X95818Y13233D02*
G01X95559Y12143D01*
G01X96786Y13233D02*
G01X96266Y13233D01*
G01X96215Y12766D01*
G01X96266Y12819D01*
G01X96423Y12870D01*
G01X96578Y12870D01*
G01X96733Y12819D01*
G01X96837Y12715D01*
G01X96890Y12560D01*
G01X96890Y12456D01*
G01X96837Y12298D01*
G01X96733Y12194D01*
G01X96578Y12143D01*
G01X96423Y12143D01*
G01X96266Y12194D01*
G01X96215Y12247D01*
G01X96161Y12352D01*
G01X97856Y13233D02*
G01X97337Y13233D01*
G01X97284Y12766D01*
G01X97337Y12819D01*
G01X97492Y12870D01*
G01X97647Y12870D01*
G01X97805Y12819D01*
G01X97909Y12715D01*
G01X97960Y12560D01*
G01X97960Y12456D01*
G01X97909Y12298D01*
G01X97805Y12194D01*
G01X97647Y12143D01*
G01X97492Y12143D01*
G01X97337Y12194D01*
G01X97284Y12247D01*
G01X97233Y12352D01*
G01X109534Y13078D02*
G01X109430Y13182D01*
G01X109275Y13233D01*
G01X109067Y13233D01*
G01X108912Y13182D01*
G01X108808Y13078D01*
G01X108808Y12974D01*
G01X108859Y12870D01*
G01X108912Y12819D01*
G01X109016Y12766D01*
G01X109329Y12661D01*
G01X109430Y12611D01*
G01X109484Y12560D01*
G01X109534Y12456D01*
G01X109534Y12298D01*
G01X109430Y12194D01*
G01X109275Y12143D01*
G01X109067Y12143D01*
G01X108912Y12194D01*
G01X108808Y12298D01*
G01X109877Y13233D02*
G01X110139Y12143D01*
G01X110398Y13233D02*
G01X110139Y12143D01*
G01X110398Y13233D02*
G01X110657Y12143D01*
G01X110916Y13233D02*
G01X110657Y12143D01*
G01X111884Y13233D02*
G01X111363Y13233D01*
G01X111312Y12766D01*
G01X111363Y12819D01*
G01X111521Y12870D01*
G01X111676Y12870D01*
G01X111831Y12819D01*
G01X111935Y12715D01*
G01X111988Y12560D01*
G01X111988Y12456D01*
G01X111935Y12298D01*
G01X111831Y12194D01*
G01X111676Y12143D01*
G01X111521Y12143D01*
G01X111363Y12194D01*
G01X111312Y12247D01*
G01X111259Y12352D01*
G01X112953Y13078D02*
G01X112903Y13182D01*
G01X112745Y13233D01*
G01X112643Y13233D01*
G01X112486Y13182D01*
G01X112382Y13027D01*
G01X112331Y12766D01*
G01X112331Y12506D01*
G01X112382Y12298D01*
G01X112486Y12194D01*
G01X112643Y12143D01*
G01X112694Y12143D01*
G01X112849Y12194D01*
G01X112953Y12298D01*
G01X113007Y12456D01*
G01X113007Y12506D01*
G01X112953Y12661D01*
G01X112849Y12766D01*
G01X112694Y12819D01*
G01X112643Y12819D01*
G01X112486Y12766D01*
G01X112382Y12661D01*
G01X112331Y12506D01*
G01X124437Y13078D02*
G01X124333Y13182D01*
G01X124178Y13233D01*
G01X123969Y13233D01*
G01X123814Y13182D01*
G01X123710Y13078D01*
G01X123710Y12974D01*
G01X123761Y12870D01*
G01X123814Y12819D01*
G01X123918Y12766D01*
G01X124231Y12661D01*
G01X124333Y12611D01*
G01X124386Y12560D01*
G01X124437Y12456D01*
G01X124437Y12298D01*
G01X124333Y12194D01*
G01X124178Y12143D01*
G01X123969Y12143D01*
G01X123814Y12194D01*
G01X123710Y12298D01*
G01X124780Y13233D02*
G01X125041Y12143D01*
G01X125300Y13233D02*
G01X125041Y12143D01*
G01X125300Y13233D02*
G01X125559Y12143D01*
G01X125818Y13233D02*
G01X125559Y12143D01*
G01X126786Y13233D02*
G01X126265Y13233D01*
G01X126215Y12766D01*
G01X126265Y12819D01*
G01X126423Y12870D01*
G01X126578Y12870D01*
G01X126733Y12819D01*
G01X126837Y12715D01*
G01X126890Y12560D01*
G01X126890Y12456D01*
G01X126837Y12298D01*
G01X126733Y12194D01*
G01X126578Y12143D01*
G01X126423Y12143D01*
G01X126265Y12194D01*
G01X126215Y12247D01*
G01X126161Y12352D01*
G01X127960Y13233D02*
G01X127441Y12143D01*
G01X127233Y13233D02*
G01X127960Y13233D01*
G01X20825Y13279D02*
G01X20721Y13383D01*
G01X20566Y13434D01*
G01X20358Y13434D01*
G01X20203Y13383D01*
G01X20099Y13279D01*
G01X20099Y13174D01*
G01X20149Y13070D01*
G01X20203Y13020D01*
G01X20307Y12966D01*
G01X20619Y12862D01*
G01X20721Y12811D01*
G01X20774Y12760D01*
G01X20825Y12656D01*
G01X20825Y12499D01*
G01X20721Y12395D01*
G01X20566Y12344D01*
G01X20358Y12344D01*
G01X20203Y12395D01*
G01X20099Y12499D01*
G01X21168Y13434D02*
G01X21429Y12344D01*
G01X21689Y13434D02*
G01X21429Y12344D01*
G01X21689Y13434D02*
G01X21948Y12344D01*
G01X22207Y13434D02*
G01X21948Y12344D01*
G01X23174Y13434D02*
G01X22654Y13434D01*
G01X22603Y12966D01*
G01X22654Y13020D01*
G01X22811Y13070D01*
G01X22966Y13070D01*
G01X23121Y13020D01*
G01X23225Y12915D01*
G01X23279Y12760D01*
G01X23279Y12656D01*
G01X23225Y12499D01*
G01X23121Y12395D01*
G01X22966Y12344D01*
G01X22811Y12344D01*
G01X22654Y12395D01*
G01X22603Y12448D01*
G01X22550Y12552D01*
G01X23881Y13434D02*
G01X23726Y13383D01*
G01X23672Y13279D01*
G01X23672Y13174D01*
G01X23726Y13070D01*
G01X23830Y13020D01*
G01X24036Y12966D01*
G01X24193Y12915D01*
G01X24297Y12811D01*
G01X24348Y12707D01*
G01X24348Y12552D01*
G01X24297Y12448D01*
G01X24244Y12395D01*
G01X24089Y12344D01*
G01X23881Y12344D01*
G01X23726Y12395D01*
G01X23672Y12448D01*
G01X23622Y12552D01*
G01X23622Y12707D01*
G01X23672Y12811D01*
G01X23776Y12915D01*
G01X23934Y12966D01*
G01X24140Y13020D01*
G01X24244Y13070D01*
G01X24297Y13174D01*
G01X24297Y13279D01*
G01X24244Y13383D01*
G01X24089Y13434D01*
G01X23881Y13434D01*
G01X34737Y13279D02*
G01X34632Y13383D01*
G01X34477Y13434D01*
G01X34269Y13434D01*
G01X34114Y13383D01*
G01X34010Y13279D01*
G01X34010Y13174D01*
G01X34061Y13070D01*
G01X34114Y13020D01*
G01X34218Y12966D01*
G01X34531Y12862D01*
G01X34632Y12811D01*
G01X34686Y12760D01*
G01X34737Y12656D01*
G01X34737Y12499D01*
G01X34632Y12395D01*
G01X34477Y12344D01*
G01X34269Y12344D01*
G01X34114Y12395D01*
G01X34010Y12499D01*
G01X35079Y13434D02*
G01X35341Y12344D01*
G01X35600Y13434D02*
G01X35341Y12344D01*
G01X35600Y13434D02*
G01X35859Y12344D01*
G01X36118Y13434D02*
G01X35859Y12344D01*
G01X37086Y13434D02*
G01X36565Y13434D01*
G01X36515Y12966D01*
G01X36565Y13020D01*
G01X36723Y13070D01*
G01X36878Y13070D01*
G01X37033Y13020D01*
G01X37137Y12915D01*
G01X37190Y12760D01*
G01X37190Y12656D01*
G01X37137Y12499D01*
G01X37033Y12395D01*
G01X36878Y12344D01*
G01X36723Y12344D01*
G01X36565Y12395D01*
G01X36515Y12448D01*
G01X36461Y12552D01*
G01X38209Y13070D02*
G01X38155Y12915D01*
G01X38051Y12811D01*
G01X37896Y12760D01*
G01X37846Y12760D01*
G01X37688Y12811D01*
G01X37584Y12915D01*
G01X37533Y13070D01*
G01X37533Y13124D01*
G01X37584Y13279D01*
G01X37688Y13383D01*
G01X37846Y13434D01*
G01X37896Y13434D01*
G01X38051Y13383D01*
G01X38155Y13279D01*
G01X38209Y13070D01*
G01X38209Y12811D01*
G01X38155Y12552D01*
G01X38051Y12395D01*
G01X37896Y12344D01*
G01X37792Y12344D01*
G01X37637Y12395D01*
G01X37584Y12499D01*
G01X48737Y13279D02*
G01X48633Y13383D01*
G01X48478Y13434D01*
G01X48270Y13434D01*
G01X48115Y13383D01*
G01X48011Y13279D01*
G01X48011Y13174D01*
G01X48061Y13070D01*
G01X48115Y13020D01*
G01X48219Y12966D01*
G01X48531Y12862D01*
G01X48633Y12811D01*
G01X48686Y12760D01*
G01X48737Y12656D01*
G01X48737Y12499D01*
G01X48633Y12395D01*
G01X48478Y12344D01*
G01X48270Y12344D01*
G01X48115Y12395D01*
G01X48011Y12499D01*
G01X49080Y13434D02*
G01X49342Y12344D01*
G01X49601Y13434D02*
G01X49342Y12344D01*
G01X49601Y13434D02*
G01X49860Y12344D01*
G01X50119Y13434D02*
G01X49860Y12344D01*
G01X51087Y13279D02*
G01X51033Y13383D01*
G01X50878Y13434D01*
G01X50774Y13434D01*
G01X50619Y13383D01*
G01X50515Y13228D01*
G01X50462Y12966D01*
G01X50462Y12707D01*
G01X50515Y12499D01*
G01X50619Y12395D01*
G01X50774Y12344D01*
G01X50827Y12344D01*
G01X50982Y12395D01*
G01X51087Y12499D01*
G01X51137Y12656D01*
G01X51137Y12707D01*
G01X51087Y12862D01*
G01X50982Y12966D01*
G01X50827Y13020D01*
G01X50774Y13020D01*
G01X50619Y12966D01*
G01X50515Y12862D01*
G01X50462Y12707D01*
G01X51793Y13434D02*
G01X51638Y13383D01*
G01X51534Y13228D01*
G01X51480Y12966D01*
G01X51480Y12811D01*
G01X51534Y12552D01*
G01X51638Y12395D01*
G01X51793Y12344D01*
G01X51897Y12344D01*
G01X52052Y12395D01*
G01X52156Y12552D01*
G01X52209Y12811D01*
G01X52209Y12966D01*
G01X52156Y13228D01*
G01X52052Y13383D01*
G01X51897Y13434D01*
G01X51793Y13434D01*
G01X20825Y27777D02*
G01X20721Y27881D01*
G01X20566Y27932D01*
G01X20358Y27932D01*
G01X20203Y27881D01*
G01X20099Y27777D01*
G01X20099Y27673D01*
G01X20149Y27569D01*
G01X20203Y27518D01*
G01X20307Y27465D01*
G01X20619Y27360D01*
G01X20721Y27310D01*
G01X20774Y27259D01*
G01X20825Y27155D01*
G01X20825Y26997D01*
G01X20721Y26893D01*
G01X20566Y26842D01*
G01X20358Y26842D01*
G01X20203Y26893D01*
G01X20099Y26997D01*
G01X21168Y27932D02*
G01X21429Y26842D01*
G01X21689Y27932D02*
G01X21429Y26842D01*
G01X21689Y27932D02*
G01X21948Y26842D01*
G01X22207Y27932D02*
G01X21948Y26842D01*
G01X23174Y27777D02*
G01X23121Y27881D01*
G01X22966Y27932D01*
G01X22862Y27932D01*
G01X22707Y27881D01*
G01X22603Y27726D01*
G01X22550Y27465D01*
G01X22550Y27205D01*
G01X22603Y26997D01*
G01X22707Y26893D01*
G01X22862Y26842D01*
G01X22915Y26842D01*
G01X23070Y26893D01*
G01X23174Y26997D01*
G01X23225Y27155D01*
G01X23225Y27205D01*
G01X23174Y27360D01*
G01X23070Y27465D01*
G01X22915Y27518D01*
G01X22862Y27518D01*
G01X22707Y27465D01*
G01X22603Y27360D01*
G01X22550Y27205D01*
G01X23568Y27726D02*
G01X23672Y27777D01*
G01X23830Y27932D01*
G01X23830Y26842D01*
G01X34737Y27777D02*
G01X34632Y27881D01*
G01X34477Y27932D01*
G01X34269Y27932D01*
G01X34114Y27881D01*
G01X34010Y27777D01*
G01X34010Y27673D01*
G01X34061Y27569D01*
G01X34114Y27518D01*
G01X34218Y27465D01*
G01X34531Y27360D01*
G01X34632Y27310D01*
G01X34686Y27259D01*
G01X34737Y27155D01*
G01X34737Y26997D01*
G01X34632Y26893D01*
G01X34477Y26842D01*
G01X34269Y26842D01*
G01X34114Y26893D01*
G01X34010Y26997D01*
G01X35079Y27932D02*
G01X35341Y26842D01*
G01X35600Y27932D02*
G01X35341Y26842D01*
G01X35600Y27932D02*
G01X35859Y26842D01*
G01X36118Y27932D02*
G01X35859Y26842D01*
G01X37086Y27777D02*
G01X37033Y27881D01*
G01X36878Y27932D01*
G01X36774Y27932D01*
G01X36619Y27881D01*
G01X36515Y27726D01*
G01X36461Y27465D01*
G01X36461Y27205D01*
G01X36515Y26997D01*
G01X36619Y26893D01*
G01X36774Y26842D01*
G01X36827Y26842D01*
G01X36982Y26893D01*
G01X37086Y26997D01*
G01X37137Y27155D01*
G01X37137Y27205D01*
G01X37086Y27360D01*
G01X36982Y27465D01*
G01X36827Y27518D01*
G01X36774Y27518D01*
G01X36619Y27465D01*
G01X36515Y27360D01*
G01X36461Y27205D01*
G01X37533Y27673D02*
G01X37533Y27726D01*
G01X37584Y27830D01*
G01X37637Y27881D01*
G01X37741Y27932D01*
G01X37947Y27932D01*
G01X38051Y27881D01*
G01X38105Y27830D01*
G01X38155Y27726D01*
G01X38155Y27622D01*
G01X38105Y27518D01*
G01X38000Y27360D01*
G01X37480Y26842D01*
G01X38209Y26842D01*
G01X48737Y27777D02*
G01X48633Y27881D01*
G01X48478Y27932D01*
G01X48270Y27932D01*
G01X48115Y27881D01*
G01X48011Y27777D01*
G01X48011Y27673D01*
G01X48061Y27569D01*
G01X48115Y27518D01*
G01X48219Y27465D01*
G01X48531Y27360D01*
G01X48633Y27310D01*
G01X48686Y27259D01*
G01X48737Y27155D01*
G01X48737Y26997D01*
G01X48633Y26893D01*
G01X48478Y26842D01*
G01X48270Y26842D01*
G01X48115Y26893D01*
G01X48011Y26997D01*
G01X49080Y27932D02*
G01X49342Y26842D01*
G01X49601Y27932D02*
G01X49342Y26842D01*
G01X49601Y27932D02*
G01X49860Y26842D01*
G01X50119Y27932D02*
G01X49860Y26842D01*
G01X51087Y27777D02*
G01X51033Y27881D01*
G01X50878Y27932D01*
G01X50774Y27932D01*
G01X50619Y27881D01*
G01X50515Y27726D01*
G01X50462Y27465D01*
G01X50462Y27205D01*
G01X50515Y26997D01*
G01X50619Y26893D01*
G01X50774Y26842D01*
G01X50827Y26842D01*
G01X50982Y26893D01*
G01X51087Y26997D01*
G01X51137Y27155D01*
G01X51137Y27205D01*
G01X51087Y27360D01*
G01X50982Y27465D01*
G01X50827Y27518D01*
G01X50774Y27518D01*
G01X50619Y27465D01*
G01X50515Y27360D01*
G01X50462Y27205D01*
G01X51584Y27932D02*
G01X52156Y27932D01*
G01X51846Y27518D01*
G01X52001Y27518D01*
G01X52105Y27465D01*
G01X52156Y27414D01*
G01X52209Y27259D01*
G01X52209Y27155D01*
G01X52156Y26997D01*
G01X52052Y26893D01*
G01X51897Y26842D01*
G01X51742Y26842D01*
G01X51584Y26893D01*
G01X51534Y26946D01*
G01X51480Y27051D01*
G01X20825Y42377D02*
G01X20721Y42481D01*
G01X20566Y42532D01*
G01X20358Y42532D01*
G01X20203Y42481D01*
G01X20099Y42377D01*
G01X20099Y42273D01*
G01X20149Y42169D01*
G01X20203Y42118D01*
G01X20307Y42064D01*
G01X20619Y41960D01*
G01X20721Y41910D01*
G01X20774Y41859D01*
G01X20825Y41755D01*
G01X20825Y41597D01*
G01X20721Y41493D01*
G01X20566Y41442D01*
G01X20358Y41442D01*
G01X20203Y41493D01*
G01X20099Y41597D01*
G01X21168Y42532D02*
G01X21429Y41442D01*
G01X21689Y42532D02*
G01X21429Y41442D01*
G01X21689Y42532D02*
G01X21948Y41442D01*
G01X22207Y42532D02*
G01X21948Y41442D01*
G01X23174Y42377D02*
G01X23121Y42481D01*
G01X22966Y42532D01*
G01X22862Y42532D01*
G01X22707Y42481D01*
G01X22603Y42326D01*
G01X22550Y42064D01*
G01X22550Y41805D01*
G01X22603Y41597D01*
G01X22707Y41493D01*
G01X22862Y41442D01*
G01X22915Y41442D01*
G01X23070Y41493D01*
G01X23174Y41597D01*
G01X23225Y41755D01*
G01X23225Y41805D01*
G01X23174Y41960D01*
G01X23070Y42064D01*
G01X22915Y42118D01*
G01X22862Y42118D01*
G01X22707Y42064D01*
G01X22603Y41960D01*
G01X22550Y41805D01*
G01X24089Y42532D02*
G01X23568Y41805D01*
G01X24348Y41805D01*
G01X24089Y42532D02*
G01X24089Y41442D01*
G01X34737Y42377D02*
G01X34632Y42481D01*
G01X34477Y42532D01*
G01X34269Y42532D01*
G01X34114Y42481D01*
G01X34010Y42377D01*
G01X34010Y42273D01*
G01X34061Y42169D01*
G01X34114Y42118D01*
G01X34218Y42064D01*
G01X34531Y41960D01*
G01X34632Y41910D01*
G01X34686Y41859D01*
G01X34737Y41755D01*
G01X34737Y41597D01*
G01X34632Y41493D01*
G01X34477Y41442D01*
G01X34269Y41442D01*
G01X34114Y41493D01*
G01X34010Y41597D01*
G01X35079Y42532D02*
G01X35341Y41442D01*
G01X35600Y42532D02*
G01X35341Y41442D01*
G01X35600Y42532D02*
G01X35859Y41442D01*
G01X36118Y42532D02*
G01X35859Y41442D01*
G01X37086Y42377D02*
G01X37033Y42481D01*
G01X36878Y42532D01*
G01X36774Y42532D01*
G01X36619Y42481D01*
G01X36515Y42326D01*
G01X36461Y42064D01*
G01X36461Y41805D01*
G01X36515Y41597D01*
G01X36619Y41493D01*
G01X36774Y41442D01*
G01X36827Y41442D01*
G01X36982Y41493D01*
G01X37086Y41597D01*
G01X37137Y41755D01*
G01X37137Y41805D01*
G01X37086Y41960D01*
G01X36982Y42064D01*
G01X36827Y42118D01*
G01X36774Y42118D01*
G01X36619Y42064D01*
G01X36515Y41960D01*
G01X36461Y41805D01*
G01X38105Y42532D02*
G01X37584Y42532D01*
G01X37533Y42064D01*
G01X37584Y42118D01*
G01X37741Y42169D01*
G01X37896Y42169D01*
G01X38051Y42118D01*
G01X38155Y42014D01*
G01X38209Y41859D01*
G01X38209Y41755D01*
G01X38155Y41597D01*
G01X38051Y41493D01*
G01X37896Y41442D01*
G01X37741Y41442D01*
G01X37584Y41493D01*
G01X37533Y41546D01*
G01X37480Y41650D01*
G01X48737Y42377D02*
G01X48633Y42481D01*
G01X48478Y42532D01*
G01X48270Y42532D01*
G01X48115Y42481D01*
G01X48011Y42377D01*
G01X48011Y42273D01*
G01X48061Y42169D01*
G01X48115Y42118D01*
G01X48219Y42064D01*
G01X48531Y41960D01*
G01X48633Y41910D01*
G01X48686Y41859D01*
G01X48737Y41755D01*
G01X48737Y41597D01*
G01X48633Y41493D01*
G01X48478Y41442D01*
G01X48270Y41442D01*
G01X48115Y41493D01*
G01X48011Y41597D01*
G01X49080Y42532D02*
G01X49342Y41442D01*
G01X49601Y42532D02*
G01X49342Y41442D01*
G01X49601Y42532D02*
G01X49860Y41442D01*
G01X50119Y42532D02*
G01X49860Y41442D01*
G01X51087Y42377D02*
G01X51033Y42481D01*
G01X50878Y42532D01*
G01X50774Y42532D01*
G01X50619Y42481D01*
G01X50515Y42326D01*
G01X50462Y42064D01*
G01X50462Y41805D01*
G01X50515Y41597D01*
G01X50619Y41493D01*
G01X50774Y41442D01*
G01X50827Y41442D01*
G01X50982Y41493D01*
G01X51087Y41597D01*
G01X51137Y41755D01*
G01X51137Y41805D01*
G01X51087Y41960D01*
G01X50982Y42064D01*
G01X50827Y42118D01*
G01X50774Y42118D01*
G01X50619Y42064D01*
G01X50515Y41960D01*
G01X50462Y41805D01*
G01X52105Y42377D02*
G01X52052Y42481D01*
G01X51897Y42532D01*
G01X51793Y42532D01*
G01X51638Y42481D01*
G01X51534Y42326D01*
G01X51480Y42064D01*
G01X51480Y41805D01*
G01X51534Y41597D01*
G01X51638Y41493D01*
G01X51793Y41442D01*
G01X51846Y41442D01*
G01X52001Y41493D01*
G01X52105Y41597D01*
G01X52156Y41755D01*
G01X52156Y41805D01*
G01X52105Y41960D01*
G01X52001Y42064D01*
G01X51846Y42118D01*
G01X51793Y42118D01*
G01X51638Y42064D01*
G01X51534Y41960D01*
G01X51480Y41805D01*
G01X20825Y56878D02*
G01X20721Y56982D01*
G01X20566Y57033D01*
G01X20358Y57033D01*
G01X20203Y56982D01*
G01X20099Y56878D01*
G01X20099Y56774D01*
G01X20149Y56669D01*
G01X20203Y56619D01*
G01X20307Y56565D01*
G01X20619Y56461D01*
G01X20721Y56410D01*
G01X20774Y56360D01*
G01X20825Y56255D01*
G01X20825Y56098D01*
G01X20721Y55994D01*
G01X20566Y55943D01*
G01X20358Y55943D01*
G01X20203Y55994D01*
G01X20099Y56098D01*
G01X21168Y57033D02*
G01X21429Y55943D01*
G01X21689Y57033D02*
G01X21429Y55943D01*
G01X21689Y57033D02*
G01X21948Y55943D01*
G01X22207Y57033D02*
G01X21948Y55943D01*
G01X23174Y56878D02*
G01X23121Y56982D01*
G01X22966Y57033D01*
G01X22862Y57033D01*
G01X22707Y56982D01*
G01X22603Y56827D01*
G01X22550Y56565D01*
G01X22550Y56306D01*
G01X22603Y56098D01*
G01X22707Y55994D01*
G01X22862Y55943D01*
G01X22915Y55943D01*
G01X23070Y55994D01*
G01X23174Y56098D01*
G01X23225Y56255D01*
G01X23225Y56306D01*
G01X23174Y56461D01*
G01X23070Y56565D01*
G01X22915Y56619D01*
G01X22862Y56619D01*
G01X22707Y56565D01*
G01X22603Y56461D01*
G01X22550Y56306D01*
G01X24297Y57033D02*
G01X23776Y55943D01*
G01X23568Y57033D02*
G01X24297Y57033D01*
G01X34737Y56878D02*
G01X34632Y56982D01*
G01X34477Y57033D01*
G01X34269Y57033D01*
G01X34114Y56982D01*
G01X34010Y56878D01*
G01X34010Y56774D01*
G01X34061Y56669D01*
G01X34114Y56619D01*
G01X34218Y56565D01*
G01X34531Y56461D01*
G01X34632Y56410D01*
G01X34686Y56360D01*
G01X34737Y56255D01*
G01X34737Y56098D01*
G01X34632Y55994D01*
G01X34477Y55943D01*
G01X34269Y55943D01*
G01X34114Y55994D01*
G01X34010Y56098D01*
G01X35079Y57033D02*
G01X35341Y55943D01*
G01X35600Y57033D02*
G01X35341Y55943D01*
G01X35600Y57033D02*
G01X35859Y55943D01*
G01X36118Y57033D02*
G01X35859Y55943D01*
G01X37086Y56878D02*
G01X37033Y56982D01*
G01X36878Y57033D01*
G01X36774Y57033D01*
G01X36619Y56982D01*
G01X36515Y56827D01*
G01X36461Y56565D01*
G01X36461Y56306D01*
G01X36515Y56098D01*
G01X36619Y55994D01*
G01X36774Y55943D01*
G01X36827Y55943D01*
G01X36982Y55994D01*
G01X37086Y56098D01*
G01X37137Y56255D01*
G01X37137Y56306D01*
G01X37086Y56461D01*
G01X36982Y56565D01*
G01X36827Y56619D01*
G01X36774Y56619D01*
G01X36619Y56565D01*
G01X36515Y56461D01*
G01X36461Y56306D01*
G01X37741Y57033D02*
G01X37584Y56982D01*
G01X37533Y56878D01*
G01X37533Y56774D01*
G01X37584Y56669D01*
G01X37688Y56619D01*
G01X37896Y56565D01*
G01X38051Y56515D01*
G01X38155Y56410D01*
G01X38209Y56306D01*
G01X38209Y56151D01*
G01X38155Y56047D01*
G01X38105Y55994D01*
G01X37947Y55943D01*
G01X37741Y55943D01*
G01X37584Y55994D01*
G01X37533Y56047D01*
G01X37480Y56151D01*
G01X37480Y56306D01*
G01X37533Y56410D01*
G01X37637Y56515D01*
G01X37792Y56565D01*
G01X38000Y56619D01*
G01X38105Y56669D01*
G01X38155Y56774D01*
G01X38155Y56878D01*
G01X38105Y56982D01*
G01X37947Y57033D01*
G01X37741Y57033D01*
G01X48737Y56878D02*
G01X48633Y56982D01*
G01X48478Y57033D01*
G01X48270Y57033D01*
G01X48115Y56982D01*
G01X48011Y56878D01*
G01X48011Y56774D01*
G01X48061Y56669D01*
G01X48115Y56619D01*
G01X48219Y56565D01*
G01X48531Y56461D01*
G01X48633Y56410D01*
G01X48686Y56360D01*
G01X48737Y56255D01*
G01X48737Y56098D01*
G01X48633Y55994D01*
G01X48478Y55943D01*
G01X48270Y55943D01*
G01X48115Y55994D01*
G01X48011Y56098D01*
G01X49080Y57033D02*
G01X49342Y55943D01*
G01X49601Y57033D02*
G01X49342Y55943D01*
G01X49601Y57033D02*
G01X49860Y55943D01*
G01X50119Y57033D02*
G01X49860Y55943D01*
G01X51087Y56878D02*
G01X51033Y56982D01*
G01X50878Y57033D01*
G01X50774Y57033D01*
G01X50619Y56982D01*
G01X50515Y56827D01*
G01X50462Y56565D01*
G01X50462Y56306D01*
G01X50515Y56098D01*
G01X50619Y55994D01*
G01X50774Y55943D01*
G01X50827Y55943D01*
G01X50982Y55994D01*
G01X51087Y56098D01*
G01X51137Y56255D01*
G01X51137Y56306D01*
G01X51087Y56461D01*
G01X50982Y56565D01*
G01X50827Y56619D01*
G01X50774Y56619D01*
G01X50619Y56565D01*
G01X50515Y56461D01*
G01X50462Y56306D01*
G01X52156Y56669D02*
G01X52105Y56515D01*
G01X52001Y56410D01*
G01X51846Y56360D01*
G01X51793Y56360D01*
G01X51638Y56410D01*
G01X51534Y56515D01*
G01X51480Y56669D01*
G01X51480Y56723D01*
G01X51534Y56878D01*
G01X51638Y56982D01*
G01X51793Y57033D01*
G01X51846Y57033D01*
G01X52001Y56982D01*
G01X52105Y56878D01*
G01X52156Y56669D01*
G01X52156Y56410D01*
G01X52105Y56151D01*
G01X52001Y55994D01*
G01X51846Y55943D01*
G01X51742Y55943D01*
G01X51584Y55994D01*
G01X51534Y56098D01*
G01X126456Y118587D02*
G01X126352Y118691D01*
G01X126197Y118745D01*
G01X125989Y118745D01*
G01X125834Y118691D01*
G01X125730Y118587D01*
G01X125730Y118483D01*
G01X125780Y118381D01*
G01X125834Y118328D01*
G01X125938Y118277D01*
G01X126250Y118173D01*
G01X126352Y118120D01*
G01X126405Y118069D01*
G01X126456Y117965D01*
G01X126456Y117810D01*
G01X126352Y117706D01*
G01X126197Y117652D01*
G01X125989Y117652D01*
G01X125834Y117706D01*
G01X125730Y117810D01*
G01X126799Y118745D02*
G01X127061Y117652D01*
G01X127320Y118745D02*
G01X127061Y117652D01*
G01X127320Y118745D02*
G01X127579Y117652D01*
G01X127838Y118745D02*
G01X127579Y117652D01*
G01X128910Y118745D02*
G01X128389Y117652D01*
G01X128181Y118745D02*
G01X128910Y118745D01*
G01X129565Y118745D02*
G01X129407Y118691D01*
G01X129303Y118536D01*
G01X129253Y118277D01*
G01X129253Y118120D01*
G01X129303Y117861D01*
G01X129407Y117706D01*
G01X129565Y117652D01*
G01X129667Y117652D01*
G01X129824Y117706D01*
G01X129928Y117861D01*
G01X129979Y118120D01*
G01X129979Y118277D01*
G01X129928Y118536D01*
G01X129824Y118691D01*
G01X129667Y118745D01*
G01X129565Y118745D01*
G01X137746Y55958D02*
G01X137746Y54869D01*
G01X137746Y54869D02*
G01X138369Y54869D01*
G01X138711Y55958D02*
G01X138711Y54869D01*
G01X138711Y55958D02*
G01X139387Y55958D01*
G01X138711Y55440D02*
G01X139128Y55440D01*
G01X138711Y54869D02*
G01X139387Y54869D01*
G01X139730Y55958D02*
G01X139730Y54869D01*
G01X139730Y55958D02*
G01X140096Y55958D01*
G01X140251Y55907D01*
G01X140355Y55803D01*
G01X140406Y55699D01*
G01X140459Y55544D01*
G01X140459Y55285D01*
G01X140406Y55128D01*
G01X140355Y55024D01*
G01X140251Y54919D01*
G01X140096Y54869D01*
G01X139730Y54869D01*
G01X141424Y55958D02*
G01X140906Y55958D01*
G01X140853Y55491D01*
G01X140906Y55544D01*
G01X141061Y55595D01*
G01X141216Y55595D01*
G01X141373Y55544D01*
G01X141478Y55440D01*
G01X141528Y55285D01*
G01X141528Y55181D01*
G01X141478Y55024D01*
G01X141373Y54919D01*
G01X141216Y54869D01*
G01X141061Y54869D01*
G01X140906Y54919D01*
G01X140853Y54973D01*
G01X140802Y55077D01*
G01X137746Y37558D02*
G01X137746Y36469D01*
G01X137746Y36469D02*
G01X138369Y36469D01*
G01X138711Y37558D02*
G01X138711Y36469D01*
G01X138711Y37558D02*
G01X139387Y37558D01*
G01X138711Y37040D02*
G01X139128Y37040D01*
G01X138711Y36469D02*
G01X139387Y36469D01*
G01X139730Y37558D02*
G01X139730Y36469D01*
G01X139730Y37558D02*
G01X140096Y37558D01*
G01X140251Y37508D01*
G01X140355Y37404D01*
G01X140406Y37299D01*
G01X140459Y37144D01*
G01X140459Y36885D01*
G01X140406Y36728D01*
G01X140355Y36624D01*
G01X140251Y36520D01*
G01X140096Y36469D01*
G01X139730Y36469D01*
G01X141424Y37404D02*
G01X141373Y37508D01*
G01X141216Y37558D01*
G01X141112Y37558D01*
G01X140957Y37508D01*
G01X140853Y37353D01*
G01X140802Y37091D01*
G01X140802Y36832D01*
G01X140853Y36624D01*
G01X140957Y36520D01*
G01X141112Y36469D01*
G01X141165Y36469D01*
G01X141320Y36520D01*
G01X141424Y36624D01*
G01X141478Y36781D01*
G01X141478Y36832D01*
G01X141424Y36987D01*
G01X141320Y37091D01*
G01X141165Y37144D01*
G01X141112Y37144D01*
G01X140957Y37091D01*
G01X140853Y36987D01*
G01X140802Y36832D01*
G01X129016Y92964D02*
G01X127927Y92964D01*
G01X127927Y92964D02*
G01X127927Y92341D01*
G01X129016Y91998D02*
G01X127927Y91998D01*
G01X129016Y91998D02*
G01X129016Y91323D01*
G01X128498Y91998D02*
G01X128498Y91582D01*
G01X127927Y91998D02*
G01X127927Y91323D01*
G01X129016Y90980D02*
G01X127927Y90980D01*
G01X129016Y90980D02*
G01X129016Y90614D01*
G01X128965Y90459D01*
G01X128861Y90355D01*
G01X128757Y90304D01*
G01X128602Y90251D01*
G01X128343Y90251D01*
G01X128186Y90304D01*
G01X128082Y90355D01*
G01X127977Y90459D01*
G01X127927Y90614D01*
G01X127927Y90980D01*
G01X128811Y89908D02*
G01X128861Y89804D01*
G01X129016Y89649D01*
G01X127927Y89649D01*
G01X121269Y92837D02*
G01X120180Y92837D01*
G01X120180Y92837D02*
G01X120180Y92214D01*
G01X121269Y91871D02*
G01X120180Y91871D01*
G01X121269Y91871D02*
G01X121269Y91196D01*
G01X120751Y91871D02*
G01X120751Y91455D01*
G01X120180Y91871D02*
G01X120180Y91196D01*
G01X121269Y90853D02*
G01X120180Y90853D01*
G01X121269Y90853D02*
G01X121269Y90487D01*
G01X121218Y90332D01*
G01X121114Y90228D01*
G01X121010Y90177D01*
G01X120855Y90124D01*
G01X120596Y90124D01*
G01X120439Y90177D01*
G01X120335Y90228D01*
G01X120230Y90332D01*
G01X120180Y90487D01*
G01X120180Y90853D01*
G01X121010Y89730D02*
G01X121064Y89730D01*
G01X121168Y89677D01*
G01X121218Y89626D01*
G01X121269Y89522D01*
G01X121269Y89314D01*
G01X121218Y89209D01*
G01X121168Y89159D01*
G01X121064Y89105D01*
G01X120959Y89105D01*
G01X120855Y89159D01*
G01X120698Y89263D01*
G01X120180Y89781D01*
G01X120180Y89054D01*
G01X7747Y55958D02*
G01X7747Y54869D01*
G01X7747Y54869D02*
G01X8369Y54869D01*
G01X8712Y55958D02*
G01X8712Y54869D01*
G01X8712Y55958D02*
G01X9387Y55958D01*
G01X8712Y55440D02*
G01X9128Y55440D01*
G01X8712Y54869D02*
G01X9387Y54869D01*
G01X9730Y55958D02*
G01X9730Y54869D01*
G01X9730Y55958D02*
G01X10096Y55958D01*
G01X10251Y55907D01*
G01X10355Y55803D01*
G01X10406Y55699D01*
G01X10459Y55544D01*
G01X10459Y55285D01*
G01X10406Y55128D01*
G01X10355Y55024D01*
G01X10251Y54919D01*
G01X10096Y54869D01*
G01X9730Y54869D01*
G01X10906Y55958D02*
G01X11478Y55958D01*
G01X11165Y55544D01*
G01X11320Y55544D01*
G01X11424Y55491D01*
G01X11478Y55440D01*
G01X11529Y55285D01*
G01X11529Y55181D01*
G01X11478Y55024D01*
G01X11374Y54919D01*
G01X11216Y54869D01*
G01X11061Y54869D01*
G01X10906Y54919D01*
G01X10853Y54973D01*
G01X10802Y55077D01*
G01X7747Y37558D02*
G01X7747Y36469D01*
G01X7747Y36469D02*
G01X8369Y36469D01*
G01X8712Y37558D02*
G01X8712Y36469D01*
G01X8712Y37558D02*
G01X9387Y37558D01*
G01X8712Y37040D02*
G01X9128Y37040D01*
G01X8712Y36469D02*
G01X9387Y36469D01*
G01X9730Y37558D02*
G01X9730Y36469D01*
G01X9730Y37558D02*
G01X10096Y37558D01*
G01X10251Y37508D01*
G01X10355Y37404D01*
G01X10406Y37299D01*
G01X10459Y37144D01*
G01X10459Y36885D01*
G01X10406Y36728D01*
G01X10355Y36624D01*
G01X10251Y36520D01*
G01X10096Y36469D01*
G01X9730Y36469D01*
G01X11320Y37558D02*
G01X10802Y36832D01*
G01X11582Y36832D01*
G01X11320Y37558D02*
G01X11320Y36469D01*
G54D10*
G75*
G01X126285Y108839D02*
G02X126285Y112395I-994J1778D01*
G01*
G75*
G01X137041Y54172D02*
G03X136678Y50918I960J-1754D01*
G01*
G75*
G01X139324Y50918D02*
G03X138961Y54172I-1323J1500D01*
G01*
G75*
G01X137041Y35773D02*
G03X136678Y32518I960J-1755D01*
G01*
G75*
G01X139324Y32518D02*
G03X138961Y35773I-1323J1500D01*
G01*
G75*
G01X127230Y93670D02*
G03X123976Y94033I-1754J-960D01*
G01*
G75*
G01X123976Y91387D02*
G03X127230Y91750I1500J1323D01*
G01*
G75*
G01X119483Y93543D02*
G03X116229Y93906I-1754J-960D01*
G01*
G75*
G01X116229Y91260D02*
G03X119483Y91623I1500J1323D01*
G01*
G75*
G01X7041Y54172D02*
G03X6678Y50918I960J-1754D01*
G01*
G75*
G01X9324Y50918D02*
G03X8961Y54172I-1323J1500D01*
G01*
G75*
G01X7041Y35773D02*
G03X6678Y32518I960J-1755D01*
G01*
G75*
G01X9324Y32518D02*
G03X8961Y35773I-1323J1500D01*
G01*
G75*
G01X9839Y190586D02*
G03X9839Y190586I-1778J0D01*
G01*
G75*
G01X9839Y180688D02*
G03X9839Y180688I-1778J0D01*
G01*
G75*
G01X9839Y170597D02*
G03X9839Y170597I-1778J0D01*
G01*
G75*
G01X9839Y160607D02*
G03X9839Y160607I-1778J0D01*
G01*
G75*
G01X9839Y150607D02*
G03X9839Y150607I-1778J0D01*
G01*
G75*
G01X9839Y140607D02*
G03X9839Y140607I-1778J0D01*
G01*
G75*
G01X139786Y190586D02*
G03X139786Y190586I-1778J0D01*
G01*
G75*
G01X139786Y180688D02*
G03X139786Y180688I-1778J0D01*
G01*
G75*
G01X139786Y170597D02*
G03X139786Y170597I-1778J0D01*
G01*
G75*
G01X139786Y160597D02*
G03X139786Y160597I-1778J0D01*
G01*
G75*
G01X139786Y150607D02*
G03X139786Y150607I-1778J0D01*
G01*
G75*
G01X139786Y140607D02*
G03X139786Y140607I-1778J0D01*
G01*
G75*
G01X26027Y110587D02*
G03X26027Y110587I-1778J0D01*
G01*
G75*
G01X45537Y110587D02*
G03X45537Y110587I-1778J0D01*
G01*
G75*
G01X65037Y110587D02*
G03X65037Y110587I-1778J0D01*
G01*
G75*
G01X84539Y110587D02*
G03X84539Y110587I-1778J0D01*
G01*
G75*
G01X104038Y110587D02*
G03X104038Y110587I-1778J0D01*
G01*
G75*
G01X26027Y96637D02*
G03X26027Y96637I-1778J0D01*
G01*
G75*
G01X45537Y96637D02*
G03X45537Y96637I-1778J0D01*
G01*
G75*
G01X65037Y96637D02*
G03X65037Y96637I-1778J0D01*
G01*
G75*
G01X84539Y96637D02*
G03X84539Y96637I-1778J0D01*
G01*
G75*
G01X104038Y96637D02*
G03X104038Y96637I-1778J0D01*
G01*
G75*
G01X123444Y98171D02*
G03X123444Y98171I-1778J0D01*
G01*
G75*
G01X26027Y82588D02*
G03X26027Y82588I-1778J0D01*
G01*
G75*
G01X45537Y82588D02*
G03X45537Y82588I-1778J0D01*
G01*
G75*
G01X26027Y69088D02*
G03X26027Y69088I-1778J0D01*
G01*
G75*
G01X45537Y69088D02*
G03X45537Y69088I-1778J0D01*
G01*
G75*
G01X65590Y79489D02*
G03X65590Y79489I-1778J0D01*
G01*
G75*
G01X80488Y79487D02*
G03X80488Y79487I-1778J0D01*
G01*
G75*
G01X95489Y79487D02*
G03X95489Y79487I-1778J0D01*
G01*
G75*
G01X110587Y79487D02*
G03X110587Y79487I-1778J0D01*
G01*
G75*
G01X125489Y79487D02*
G03X125489Y79487I-1778J0D01*
G01*
G75*
G01X65588Y65588D02*
G03X65588Y65588I-1778J0D01*
G01*
G75*
G01X80488Y65588D02*
G03X80488Y65588I-1778J0D01*
G01*
G75*
G01X95489Y65588D02*
G03X95489Y65588I-1778J0D01*
G01*
G75*
G01X110587Y65588D02*
G03X110587Y65588I-1778J0D01*
G01*
G75*
G01X125489Y65588D02*
G03X125489Y65588I-1778J0D01*
G01*
G75*
G01X65588Y51587D02*
G03X65588Y51587I-1778J0D01*
G01*
G75*
G01X80488Y51587D02*
G03X80488Y51587I-1778J0D01*
G01*
G75*
G01X95489Y51587D02*
G03X95489Y51587I-1778J0D01*
G01*
G75*
G01X110587Y51587D02*
G03X110587Y51587I-1778J0D01*
G01*
G75*
G01X125489Y51587D02*
G03X125489Y51587I-1778J0D01*
G01*
G75*
G01X65588Y37587D02*
G03X65588Y37587I-1778J0D01*
G01*
G75*
G01X80488Y37587D02*
G03X80488Y37587I-1778J0D01*
G01*
G75*
G01X95489Y37587D02*
G03X95489Y37587I-1778J0D01*
G01*
G75*
G01X110587Y37587D02*
G03X110587Y37587I-1778J0D01*
G01*
G75*
G01X125489Y37587D02*
G03X125489Y37587I-1778J0D01*
G01*
G75*
G01X65588Y23586D02*
G03X65588Y23586I-1778J0D01*
G01*
G75*
G01X80488Y23586D02*
G03X80488Y23586I-1778J0D01*
G01*
G75*
G01X95489Y23586D02*
G03X95489Y23586I-1778J0D01*
G01*
G75*
G01X110587Y23586D02*
G03X110587Y23586I-1778J0D01*
G01*
G75*
G01X125489Y23586D02*
G03X125489Y23586I-1778J0D01*
G01*
G75*
G01X65588Y8588D02*
G03X65588Y8588I-1778J0D01*
G01*
G75*
G01X80488Y8588D02*
G03X80488Y8588I-1778J0D01*
G01*
G75*
G01X95489Y8588D02*
G03X95489Y8588I-1778J0D01*
G01*
G75*
G01X110587Y8588D02*
G03X110587Y8588I-1778J0D01*
G01*
G75*
G01X125489Y8588D02*
G03X125489Y8588I-1778J0D01*
G01*
G75*
G01X21877Y8788D02*
G03X21877Y8788I-1778J0D01*
G01*
G75*
G01X35789Y8788D02*
G03X35789Y8788I-1778J0D01*
G01*
G75*
G01X49789Y8788D02*
G03X49789Y8788I-1778J0D01*
G01*
G75*
G01X21877Y23287D02*
G03X21877Y23287I-1778J0D01*
G01*
G75*
G01X35789Y23287D02*
G03X35789Y23287I-1778J0D01*
G01*
G75*
G01X49789Y23287D02*
G03X49789Y23287I-1778J0D01*
G01*
G75*
G01X21877Y37887D02*
G03X21877Y37887I-1778J0D01*
G01*
G75*
G01X35789Y37887D02*
G03X35789Y37887I-1778J0D01*
G01*
G75*
G01X49789Y37887D02*
G03X49789Y37887I-1778J0D01*
G01*
G75*
G01X21877Y52388D02*
G03X21877Y52388I-1778J0D01*
G01*
G75*
G01X35789Y52388D02*
G03X35789Y52388I-1778J0D01*
G01*
G75*
G01X49789Y52388D02*
G03X49789Y52388I-1778J0D01*
G01*
G75*
G01X129594Y110617D02*
G03X129594Y110617I-4325J0D01*
G01*
G75*
G01X128622Y110617D02*
G03X128622Y110617I-3353J0D01*
G01*
G75*
G01X128317Y110617D02*
G03X128317Y110617I-3048J0D01*
G01*
M00*
M02*
